<?xml version="1.0" standalone="no"?>
<!DOCTYPE svg PUBLIC "-//W3C//DTD SVG 1.1//EN" "http://www.w3.org/Graphics/SVG/1.1/DTD/svg11.dtd" >
<svg>
<metadata>
Created by FontForge 20120731 at Sun Jun 30 09:14:55 2019
 By www
Copyright 2012 Adobe Systems Incorporated. All rights reserved.
</metadata>
<defs>
<font id="Novecento-WideUltraBold" horiz-adv-x="791" >
  <font-face 
    font-family="Novecento Wide UltraBold"
    font-weight="800"
    font-stretch="normal"
    units-per-em="1000"
    panose-1="0 0 0 0 0 0 0 0 0 0"
    ascent="843"
    descent="-157"
    x-height="700"
    cap-height="700"
    bbox="-247 -302 1295 998"
    underline-thickness="174"
    underline-position="-216"
    unicode-range="U+0020-25CA"
  />
<missing-glyph horiz-adv-x="647" 
d="M160 700h330v-1q38 0 61 -22q24 -23 24 -63v-530q0 -42 -24 -63t-61 -21h-330q-37 0 -61 21t-24 63v530q0 40 24 63q25 23 61 23zM467 680h-286h1q-47 0 -66 -17q-18 -17 -18 -59v-153l120 120l107 -105l108 108l119 -119v149q0 42 -21 59q-22 17 -64 17zM551 437
l-99 -99l99 -100v199zM196 338l-99 97v-196zM171 20h306q37 0 56 17q18 17 18 59v126l-120 -121l-107 108l-106 -105l-121 121v-129q0 -42 20 -59t54 -17z" />
    <glyph glyph-name=".notdef" horiz-adv-x="647" 
d="M160 700h330v-1q38 0 61 -22q24 -23 24 -63v-530q0 -42 -24 -63t-61 -21h-330q-37 0 -61 21t-24 63v530q0 40 24 63q25 23 61 23zM467 680h-286h1q-47 0 -66 -17q-18 -17 -18 -59v-153l120 120l107 -105l108 108l119 -119v149q0 42 -21 59q-22 17 -64 17zM551 437
l-99 -99l99 -100v199zM196 338l-99 97v-196zM171 20h306q37 0 56 17q18 17 18 59v126l-120 -121l-107 108l-106 -105l-121 121v-129q0 -42 20 -59t54 -17z" />
    <glyph glyph-name=".null" horiz-adv-x="0" 
 />
    <glyph glyph-name="nonmarkingreturn" horiz-adv-x="333" 
 />
    <glyph glyph-name="space" unicode=" " horiz-adv-x="250" 
 />
    <glyph glyph-name="exclam" unicode="!" horiz-adv-x="339" 
d="M74 211v489h192v-489h-192zM74 0v157h192v-157h-192z" />
    <glyph glyph-name="quotedbl" unicode="&#x22;" horiz-adv-x="649" 
d="M74 483v217h178v-217h-178zM397 483v217h179v-217h-179z" />
    <glyph glyph-name="numbersign" unicode="#" horiz-adv-x="954" 
d="M835 405h-89l-58 -119h88l-87 -167h-83l-58 -119h-200l61 119h-107l-58 -119h-200l61 119h-79l89 167h75l61 119h-79l88 167h77l65 128h184l-63 -128h118l65 128h184l-63 -128h95zM494 286l61 119h-113l-58 -119h110z" />
    <glyph glyph-name="dollar" unicode="$" horiz-adv-x="619" 
d="M593 521l-185 -51l-6 -8q-8 22 -19 36q-12 15 -27 24q-17 10 -30 14q-17 5 -30 5q-28 0 -43 -12t-15 -24q0 -13 11 -24t30 -20q18 -8 47 -18q23 -8 58 -21q37 -14 77 -35q36 -19 67 -45q30 -26 48 -60t18 -78q0 -78 -48 -133q-48 -56 -131 -77v-88h-192v88
q-72 18 -127 71q-54 53 -84 130l184 49q7 -15 20 -33q11 -15 29 -30q17 -13 36 -21q21 -8 44 -8q37 0 51 13q15 13 15 31q0 16 -12 28q-11 11 -35 22q-22 10 -54 21q-24 8 -69 26q-31 13 -63 30q-33 17 -57 40q-26 25 -41 57q-15 33 -15 80q0 34 13 64q14 32 37 58
q24 27 57 48q34 22 74 32v88h192v-94q65 -23 110 -69q46 -48 65 -106z" />
    <glyph glyph-name="percent" unicode="%" horiz-adv-x="877" 
d="M185 304h-1q-39 0 -72 15q-34 15 -56 42q-23 27 -36 64q-13 36 -13 81t13 81q13 37 36 64q22 27 56 42q33 15 72 15t72 -15q34 -15 56 -42q23 -27 36 -64q13 -36 13 -81t-13 -81q-13 -37 -36 -64t-55 -42q-33 -15 -72 -15zM122 -1l509 699h121l-509 -699h-121zM185 430
v-1q24 0 39 23q15 22 15 54t-15 54t-39 22t-39 -22t-15 -54t15 -54t39 -22zM691 -8h-1q-38 0 -72 14q-34 15 -56 42t-36 63q-13 35 -13 80t13 81q13 37 36 64q22 27 56 42q33 15 72 15t72 -15q34 -15 56 -42q23 -27 36 -64q13 -36 13 -81t-13 -80q-14 -36 -36 -63
q-23 -27 -55 -42q-34 -14 -72 -14zM691 117v-1q24 0 39 22t15 54t-15 54q-15 23 -39 23t-39 -22q-15 -23 -15 -54t15 -54q15 -22 39 -22z" />
    <glyph glyph-name="ampersand" unicode="&#x26;" horiz-adv-x="709" 
d="M714 432v-149l-122 -1v-53q0 -48 -16 -90q-16 -43 -51 -78q-33 -33 -89 -55q-55 -20 -130 -20q-61 0 -112 15q-52 17 -87 46t-55 72q-19 41 -19 93q0 28 10 52q11 26 28 45q18 19 42 33t51 18v1q-20 1 -42 12t-40 28q-18 18 -30 44q-12 25 -12 60q0 46 18 85q18 40 52 66
q35 27 82 42q48 15 107 15q105 0 171 -54t90 -142l-161 -44q-17 41 -36 60q-20 20 -60 20q-18 0 -30 -6q-13 -6 -20 -15q-7 -8 -10 -18q-3 -9 -3 -18q0 -26 18 -45t62 -19h394zM413 241v42h-107q-47 0 -67 -20q-19 -19 -19 -47t24 -48q23 -19 62 -19q25 0 42 4q19 4 34 15
q16 11 23 28q8 19 8 45z" />
    <glyph glyph-name="quotesingle" unicode="'" horiz-adv-x="326" 
d="M74 483v217h178v-217h-178z" />
    <glyph glyph-name="parenleft" unicode="(" horiz-adv-x="404" 
d="M342 820l47 -183h-1q-50 -14 -80 -40q-32 -27 -51 -64t-27 -86q-7 -45 -7 -106q0 -54 8 -105q8 -49 27 -86t51 -64q30 -26 80 -40l-47 -183q-12 4 -50 17q-29 10 -65 32q-35 21 -69 54q-37 35 -62 83q-27 51 -45 123t-18 169t18 169t45 123q26 50 62 84q34 33 69 54
q36 22 65 32q38 13 50 17z" />
    <glyph glyph-name="parenright" unicode=")" horiz-adv-x="403" 
d="M14 637l47 183l-1 -3q12 -4 50 -17q29 -10 65 -32q35 -21 69 -54q36 -34 62 -84q27 -51 45 -123t18 -169t-18 -169t-45 -123q-25 -48 -62 -83q-34 -33 -69 -54q-36 -22 -65 -32q-38 -13 -50 -17l-47 183q50 14 80 40q31 27 51 65q19 37 27 86q8 51 8 105q0 62 -7 107
q-8 49 -27 86t-51 64q-32 28 -80 41z" />
    <glyph glyph-name="asterisk" unicode="*" horiz-adv-x="504" 
d="M394 638l36 -113l-86 -24l56 -71l-97 -71l-51 76l-50 -76l-98 70l56 72l-86 24l36 113l82 -28v90h118v-90z" />
    <glyph glyph-name="plus" unicode="+" horiz-adv-x="698" 
d="M575 432v-156h-142v-151h-166v151h-143v156h142v153h166v-153h143z" />
    <glyph glyph-name="comma" unicode="," horiz-adv-x="293" 
d="M122 -6l16 4l-19 1q-22 3 -42 23t-20 54q0 18 6 33t18 27q11 12 28 19q15 7 34 7q34 0 60 -26t26 -69q0 -24 -9 -51q-9 -25 -26 -53q-16 -27 -39 -51q-24 -26 -48 -44h-68q12 7 28 24q15 16 27 36q14 23 20 37q8 19 8 29z" />
    <glyph glyph-name="hyphen" unicode="-" horiz-adv-x="598" 
d="M74 432h450v-156h-450v156z" />
    <glyph glyph-name="period" unicode="." horiz-adv-x="293" 
d="M147 -11l-2 -1q-34 0 -61 25q-25 25 -25 63q0 19 7 33q8 16 19 27q12 12 28 18q17 6 34 6q18 0 33 -6t27 -18q11 -11 19 -27q7 -14 7 -33q0 -38 -25 -63q-26 -24 -61 -24z" />
    <glyph glyph-name="slash" unicode="/" horiz-adv-x="532" 
d="M-4 0l357 700h184l-342 -700h-199z" />
    <glyph glyph-name="zero" unicode="0" horiz-adv-x="717" 
d="M357 714l-3 -6q76 0 135 -28q60 -28 102 -78q43 -51 65 -115q23 -67 23 -142q0 -77 -22 -142q-22 -64 -65 -115q-42 -50 -102 -78q-60 -27 -135 -27q-73 0 -135 28q-60 29 -102 78q-41 48 -64 116q-22 65 -22 143q0 76 23 143q22 66 65 116q42 49 102 78q61 29 135 29z
M358 524h-1q-35 0 -58 -13q-24 -13 -39 -36t-21 -54t-6 -69t6 -69t21 -54t39 -36q23 -13 58 -13q34 0 57 13q24 13 39 36q16 24 23 54q7 29 7 69t-7 69q-8 33 -22 54q-15 23 -39 36q-23 13 -57 13z" />
    <glyph glyph-name="one" unicode="1" horiz-adv-x="486" 
d="M279 700h134l2 -700h-192v299v39q0 15 2 39q1 12 1 30v12h-1q-1 0 -18 -20q-17 -19 -42 -45l-15 -15l-117 113z" />
    <glyph glyph-name="two" unicode="2" horiz-adv-x="623" 
d="M231 470l-177 47l-3 1q12 40 36 76t57 63t77 42q43 15 98 15q58 0 106 -18t82 -49q36 -33 53 -73q18 -42 18 -90t-15 -84q-15 -37 -39 -65t-55 -52q-30 -22 -64 -46q-18 -13 -36 -24q-20 -12 -31 -19q-12 -8 -22 -13l-8 -5l1 -1q1 0 52 3t136 3h84v-179h-522v157
q22 20 68.5 62t70.5 63t70.5 63t68.5 62q26 23 37 41q12 20 12 36q0 22 -18 42q-18 19 -52 19q-19 0 -34 -9q-14 -8 -25 -21q-10 -11 -16 -25q-8 -18 -10 -22z" />
    <glyph glyph-name="three" unicode="3" horiz-adv-x="619" 
d="M214 470l-171 46l-7 1q12 45 36 81q25 37 60 62q36 26 81 39q47 14 97 14q59 0 107 -15q47 -15 81 -44q33 -29 51 -67q18 -39 18 -85q0 -35 -13 -60t-33 -43q-19 -18 -42 -27q-21 -8 -40 -10v-1q29 0 53 -10q25 -10 46 -30q21 -19 33 -48t12 -64q0 -47 -20 -89t-55 -71
q-37 -31 -85 -47q-53 -16 -109 -16q-49 0 -97 14q-45 15 -84 41q-36 25 -64 60q-26 34 -37 75l173 48q14 -29 37 -48q25 -20 65 -20q13 0 27 3q12 3 24 11q10 7 18 20t8 29q0 26 -22 44t-60 18h-58v149h58q38 0 54 18q16 17 16 38q0 30 -21 44q-22 14 -48 14q-31 0 -51 -16
q-22 -17 -38 -58z" />
    <glyph glyph-name="four" unicode="4" horiz-adv-x="666" 
d="M630 277v-166h-69v-111h-180v111h-343v145l365 443h158v-422h69zM249 278v-1l5 -1h21h53h52v54v52v40l1 16h-1l-7 -9q-13 -16 -18 -22q-14 -18 -22 -28q-6 -7 -21 -25l-32 -37q-3 -3 -11 -13t-11 -14q-9 -10 -9 -12z" />
    <glyph glyph-name="five" unicode="5" horiz-adv-x="629" 
d="M262 457l1 -1l-1 -6q7 1 23 3q10 1 35 1q55 0 104 -17q47 -16 84 -47q36 -30 57 -72t21 -92q0 -51 -20 -97q-19 -44 -56 -78q-36 -33 -84 -51q-49 -17 -105 -17q-53 0 -98 15q-43 13 -79 38q-33 23 -58 56q-24 32 -33 63l176 46q6 -10 10 -16q7 -10 16 -18q11 -9 24 -15
t35 -6q34 0 57 24q23 25 23 60q0 38 -24 60q-23 22 -56 22q-39 0 -53 -13q-15 -13 -19 -25l-165 45l63 380h405v-179h-268l-12 -50q-3 -12 -3 -13z" />
    <glyph glyph-name="six" unicode="6" horiz-adv-x="608" 
d="M494 699l-175 -235h1q2 0 3 1t5 3q3 2 9 3q8 2 17 2q58 0 101 -21t73 -55t45 -80q15 -45 15 -94q0 -53 -21 -96t-59 -75q-37 -31 -89 -48q-54 -16 -110 -16q-54 0 -108 16q-50 16 -88 48q-37 32 -60 78q-22 45 -22 105q0 45 10 81q11 41 28 74q19 38 42 71q19 27 53 72
l124 166h206zM318 154l-3 -1q40 0 66 23q24 21 24 57q-2 38 -26 60q-26 23 -63 23q-42 0 -66 -24t-24 -58q0 -36 27 -58q26 -22 65 -22z" />
    <glyph glyph-name="seven" unicode="7" horiz-adv-x="582" 
d="M29 700h546l-1 -113l-330 -589h-206l191 334q21 37 40 67q34 53 38 60q24 40 27 44l11 17l-1 1h-11h-26h-33h-31h-214v179z" />
    <glyph glyph-name="eight" unicode="8" horiz-adv-x="605" 
d="M442 370v-1h-3q24 -8 45 -22q24 -16 42 -37q19 -21 31 -51q12 -29 12 -63q0 -45 -21 -84t-57 -69t-85 -45q-51 -17 -108 -17t-108 17q-47 14 -85 46q-37 31 -56 69q-20 40 -20 84q0 35 12 63t30 51q17 21 41 37q22 15 45 21v1q-13 3 -30 15q-14 11 -31 32q-14 18 -25 45
q-10 24 -10 57q0 41 18 75t50 60q30 25 75 40q44 15 95 15q53 0 96 -15q45 -15 75 -40q32 -26 50 -60t18 -75q0 -33 -10 -57q-11 -27 -25 -45q-17 -21 -31 -32q-16 -12 -30 -15zM225 515v-4q0 -26 22 -42q23 -17 54 -17q35 0 56 18t21 43q0 29 -22 47t-55 18q-34 0 -55 -18
t-21 -45zM215 207l-1 1q0 -31 26 -52t62 -21q39 0 63 21t24 51q0 32 -25 53q-26 21 -63 21q-39 0 -62 -22q-24 -23 -24 -52z" />
    <glyph glyph-name="nine" unicode="9" horiz-adv-x="608" 
d="M81 0l206 233l-3 1q-3 -4 -12 -6q-6 -1 -18 -1q-59 0 -105 20q-44 19 -75 53q-29 32 -43 78q-14 47 -14 95q0 55 21 100q20 43 59 76q37 31 89 48q53 17 111 17q55 0 108 -17q52 -17 89 -48q38 -31 60 -78q22 -45 22 -105q0 -59 -24 -128q-23 -67 -86 -142l-167 -196
h-218zM292 545h2q-43 0 -67 -24t-24 -56q0 -34 24 -58t65 -24q42 0 66 24t24 57t-24 57t-66 24z" />
    <glyph glyph-name="colon" unicode=":" horiz-adv-x="293" 
d="M145 271l-2 -1q-35 0 -61 26q-25 25 -25 63q0 19 7 33q8 16 19 27q12 12 28 18q17 6 34 6q18 0 33 -6t27 -18q11 -11 19 -27q7 -14 7 -33q0 -38 -25 -63t-61 -25zM147 -11l-2 -1q-34 0 -61 25q-25 25 -25 63q0 19 7 33q8 16 19 27q12 12 28 18q17 6 34 6q18 0 33 -6
t27 -18q11 -11 19 -27q7 -14 7 -33q0 -38 -25 -63q-26 -24 -61 -24z" />
    <glyph glyph-name="semicolon" unicode=";" horiz-adv-x="312" 
d="M164 271l-2 -1q-35 0 -61 26q-25 25 -25 63q0 19 7 33q8 16 19 27q12 12 28 18t34 6t33 -6t27 -18q11 -11 19 -27q7 -14 7 -33q0 -38 -25 -63t-61 -25zM141 -5l16 4l-19 1q-22 3 -42 23t-20 54q0 18 6 33t18 27q12 11 28 19q15 7 34 7q34 0 60 -26t26 -69q0 -24 -9 -51
q-9 -25 -26 -53q-17 -27 -39 -51q-24 -26 -48 -44h-68q12 7 28 24q15 17 27 36q14 23 20 37q8 19 8 29z" />
    <glyph glyph-name="less" unicode="&#x3c;" horiz-adv-x="698" 
d="M348 367l220 -245h-213l-238 245l238 244h213z" />
    <glyph glyph-name="equal" unicode="=" horiz-adv-x="698" 
d="M124 548h451v-156h-451v156zM124 293h451v-156h-451v156z" />
    <glyph glyph-name="greater" unicode="&#x3e;" horiz-adv-x="698" 
d="M130 122l220 245l-220 244h213l238 -244l-238 -245h-213z" />
    <glyph glyph-name="question" unicode="?" horiz-adv-x="595" 
d="M198 211v138h-2q66 42 78 50q28 17 51 35q19 15 28 28q9 14 9 30q0 8 -3 18q-3 9 -11 19q-7 9 -20 15q-12 6 -30 6q-38 0 -63 -17t-41 -60l-160 45q10 44 35 81q23 35 59 63q35 28 80 41q47 14 97 14q60 0 107 -16q48 -17 81 -45q33 -29 51 -67q18 -39 18 -84
q0 -44 -14 -77q-14 -32 -37 -57q-24 -25 -55 -46q-32 -21 -66 -42v-72h-192zM198 0v157h192v-157h-192z" />
    <glyph glyph-name="at" unicode="@" horiz-adv-x="805" 
d="M450 521h120l-7 -243q-1 -29 7 -51q7 -19 33 -19q17 0 28 12t15 30t6 41q2 30 2 44q0 60 -19 108q-20 50 -54 86q-35 36 -82 57q-48 21 -105 21q-55 0 -103 -21q-47 -21 -82 -57t-54 -85q-19 -48 -19 -108q0 -56 20 -105q20 -48 54 -84t82 -55q47 -19 104 -19q41 0 68 6
t45 12t27 12t12 6l82 -40q0 -4 -13 -17q-13 -14 -42 -30q-30 -17 -72 -29q-42 -13 -104 -13q-78 0 -147 26q-68 27 -117 75q-49 47 -76 114q-27 66 -27 144q0 79 27 147q27 67 77 117q50 49 117 78q66 28 147 28q83 0 149 -28q67 -29 117 -78t78 -117q28 -66 28 -147
q0 -33 -9 -70t-30 -70t-56 -54t-87 -21q-20 0 -40 6q-18 6 -36 17q-15 9 -28 26q-11 14 -16 30l-1 1q-5 -10 -15 -24q-10 -13 -26 -24t-34 -18t-39 -7q-41 0 -72 15t-54 42q-24 28 -35 64q-12 38 -12 84q0 44 14 83q13 37 38 63q24 26 59 41t77 15q16 0 30 -6q15 -7 24 -13
q12 -8 17 -15q7 -9 8 -12h1v29zM389 264l-2 -1q7 0 17 3q9 3 21 11q11 7 18 21q8 14 8 35q0 27 -7 41q-8 16 -18 23q-12 8 -21 11q-11 3 -18 3q-9 0 -21 -3q-11 -3 -22 -12t-18 -22t-7 -34q1 -22 9 -37t18 -24q11 -9 22 -12q12 -3 21 -3z" />
    <glyph glyph-name="A" unicode="A" horiz-adv-x="719" 
d="M515 0l-31 90h-253l-31 -90h-206l272 700h183l273 -700h-207zM290 257h139l-37 102q-7 17 -12 34q-2 5 -10 36q-2 6 -4.5 15.5t-3.5 11.5l-3 11h-1l-3 -11q-1 -2 -3.5 -11.5t-4.5 -15.5q-8 -31 -10 -36q-2 -7 -6.5 -18t-5.5 -16z" />
    <glyph glyph-name="B" unicode="B" horiz-adv-x="664" 
d="M74 699h315h-2q48 0 87 -15t68 -41t44 -60q15 -35 15 -73q0 -25 -7 -46q-8 -23 -19 -40q-12 -18 -25 -31t-27 -19v-1q25 -7 46 -24t36 -39q16 -24 23 -48q8 -27 8 -49q0 -43 -15 -82t-45 -69q-29 -29 -78 -46q-47 -16 -116 -16h-308v699zM266 431h83q26 0 44 15t18 39
q0 23 -18 38t-44 15h-83v-107zM266 161h96v-1q34 0 54 18t20 45q0 30 -20 47t-53 17h-97v-126z" />
    <glyph glyph-name="C" unicode="C" horiz-adv-x="752" 
d="M714 527l-196 -51l-5 -6q-21 23 -55 36q-33 13 -66 13q-40 0 -69 -13q-31 -14 -51 -37t-31 -55q-11 -33 -11 -69q0 -81 45 -126t117 -45q42 0 80 18t56 47l195 -50q-23 -48 -55 -84q-34 -39 -75 -65q-43 -28 -93 -41q-51 -15 -106 -15q-74 0 -141 26q-65 27 -115 75
q-49 48 -78 116q-28 66 -28 147q0 78 29 147q29 68 78 116t116 75q66 27 141 27q54 0 100 -13q45 -13 88 -38q41 -24 74 -59q35 -36 56 -76z" />
    <glyph glyph-name="D" unicode="D" horiz-adv-x="777" 
d="M73 701h309l-2 -2q76 0 141 -25t115 -72q50 -46 78 -111q29 -66 29 -144q0 -81 -28 -144q-28 -64 -78 -109q-49 -45 -116 -69q-66 -24 -141 -24h-307v700zM266 179h115l-1 1q32 0 63 11q28 10 52 32q22 21 36 53q14 33 14 72q0 42 -13 72q-14 32 -36 54q-24 24 -52 35
q-30 12 -61 12h-117v-342z" />
    <glyph glyph-name="E" unicode="E" horiz-adv-x="673" 
d="M266 179h334v-179h-526v700h520v-179h-328v-87h255v-168h-255v-87z" />
    <glyph glyph-name="F" unicode="F" horiz-adv-x="620" 
d="M584 521h-318v-110h245v-172h-245v-239h-192v700h510v-179z" />
    <glyph glyph-name="G" unicode="G" 
d="M392 405h339l3 -407h-164v34v9h-1q-17 -17 -39 -27q-25 -12 -45 -17q-20 -7 -45 -10q-22 -3 -42 -3q-74 0 -141 26q-65 27 -115 75q-49 48 -78 116q-28 66 -28 147q0 78 29 147q29 68 78 116t116 75q66 27 141 27q50 0 96 -12t87 -36q39 -23 75 -59q33 -33 58 -78
l-196 -51q-22 23 -57 36q-33 13 -66 13q-40 0 -69 -13q-31 -14 -51 -37t-31 -55q-11 -33 -11 -69q0 -42 13 -74q14 -34 36 -56q23 -23 54 -35q32 -12 69 -12q35 0 59 6q22 6 42 17q18 10 30 24q13 15 20 30h-166v153z" />
    <glyph glyph-name="H" unicode="H" horiz-adv-x="760" 
d="M494 700h192v-700h-192v258h-228v-258h-192v700h192v-263h228v263z" />
    <glyph glyph-name="I" unicode="I" horiz-adv-x="339" 
d="M266 0h-192v700h192v-700z" />
    <glyph glyph-name="J" unicode="J" horiz-adv-x="686" 
d="M431 700h192v-387q0 -81 -24 -142t-67 -103q-44 -42 -102 -63q-60 -20 -128 -20q-48 0 -96 14q-43 11 -85 37q-38 23 -67 57q-28 33 -45 72l188 50q16 -23 42 -37q25 -13 62 -13q61 0 95 39q35 40 35 106v390z" />
    <glyph glyph-name="K" unicode="K" horiz-adv-x="745" 
d="M736 700l-300 -301l295 -396h-226l-197 272l-44 -44v-228h-192v700h192v-94v-72v-45v-22v-6h1l3 3l12 12q2 2 10.5 11t14.5 15l45 45l151 150h235z" />
    <glyph glyph-name="L" unicode="L" horiz-adv-x="604" 
d="M266 179h318v-179h-510v700h192v-521z" />
    <glyph glyph-name="M" unicode="M" horiz-adv-x="861" 
d="M607 700h180l-7 -703h-188v130q0 84 1 116q1 48 3 78q0 8 0.5 17.5t1 15.5t0.5 10l1 13h-1l-10 -16q-4 -6 -11.5 -19t-10.5 -17q-12 -19 -21 -36l-9 -17l-60 -100h-99l-59 100l-10 17q-4 6 -11.5 19t-10.5 17t-10.5 17t-11.5 19l-10 17h-1l1 -13q0 -4 0.5 -10t1 -15.5
t0.5 -17.5q2 -30 3 -78q1 -32 1 -115v-130h-188v699h180l119 -189q21 -33 29 -47q4 -6 9.5 -15.5t7.5 -12.5q7 -12 9 -14l3 -3h1l2 4l8 14q8 14 18 29q6 9 30 47z" />
    <glyph glyph-name="N" unicode="N" 
d="M525 700h192v-703h-181l-96 132q-24 33 -54 75q-48 66 -56 79q-12 18 -44 63l-18 25h-1v-20v-57v-88v-113v-95h-192v699h180l104 -139q11 -14 27 -36q30 -41 35 -48l36 -51q7 -10 18.5 -26t14.5 -20q3 -5 11.5 -17t12.5 -17l10 -13h1v23v60v86v99v102z" />
    <glyph glyph-name="O" unicode="O" horiz-adv-x="792" 
d="M33 350l-3 -2q0 78 29 147q29 68 78 116t116 75q66 27 141 27t141 -27q67 -27 116 -75q50 -48 78 -115q29 -69 29 -147q0 -81 -28 -147q-28 -67 -78 -115q-49 -48 -116 -75q-67 -26 -141 -26t-141 26q-65 27 -115 75q-49 48 -78 116q-28 66 -28 147zM233 350
q0 -40 12 -71t33 -54q22 -23 51 -35q30 -12 68 -12t68 12q29 12 51 35t32 54q11 33 11 71q0 79 -43 126q-44 48 -120 48t-120 -48q-43 -47 -43 -126z" />
    <glyph glyph-name="P" unicode="P" horiz-adv-x="666" 
d="M73 699h281l-2 -2q64 0 118 -17q52 -16 88 -48t56 -77q20 -46 20 -102q0 -58 -19 -102q-20 -47 -55 -77q-36 -32 -88 -48q-51 -16 -118 -16h-89v-210h-192v699zM266 390h86l-1 -1q37 0 60 17t23 48t-21 49t-61 18h-86v-131z" />
    <glyph glyph-name="Q" unicode="Q" horiz-adv-x="792" 
d="M297 -131v131h-1q-56 13 -105 47q-48 33 -84 78q-35 44 -55 102q-19 56 -19 123q0 78 29 147q29 68 78 116t116 75q66 27 141 27t141 -27q67 -27 116 -75q50 -48 78 -115q29 -69 29 -147q0 -65 -21 -124t-57 -105t-86 -78q-52 -33 -108 -46v-129h-192zM396 176
q38 0 68 12q29 12 51 35t32 54q11 33 11 71q0 79 -43 126q-43 48 -120 48t-120 -48q-43 -47 -43 -126q0 -40 12 -71t33 -54q22 -23 51 -35q30 -12 68 -12z" />
    <glyph glyph-name="R" unicode="R" horiz-adv-x="692" 
d="M665 -2h-215l-123 217h-63v-218h-192v699h274q67 0 121 -18q52 -17 91 -50q37 -31 57 -77t20 -100q0 -71 -31 -121q-32 -52 -90 -80zM266 521v-132l108 -3q17 0 29 6q11 5 19 17q7 10 10 22t3 22q0 9 -3 21q-3 11 -9 22q-6 10 -18 18q-11 7 -30 7h-109z" />
    <glyph glyph-name="S" unicode="S" horiz-adv-x="619" 
d="M593 521l-185 -51l-5 -12q-8 22 -19 36q-12 15 -27 24q-17 10 -30 14q-17 5 -30 5q-28 0 -43 -12t-15 -24q0 -13 11 -24t30 -20q18 -8 47 -18q23 -8 58 -21q37 -14 77 -35q36 -19 67 -45q30 -26 48 -60t18 -78q0 -48 -20 -90q-19 -40 -57 -70t-88 -45q-49 -16 -113 -16
q-108 0 -187 55q-78 55 -117 158l184 49q7 -15 20 -33q11 -15 29 -30q16 -14 36 -21q21 -8 44 -8q37 0 51 13q15 14 15 31q0 16 -12 28q-11 11 -35 22q-23 11 -54 21q-24 8 -69 26q-32 14 -63 30q-33 17 -57 40q-26 25 -41 57q-15 33 -15 80q0 40 20 80q19 38 56 69
q36 30 85 48t108 18q51 0 96 -15q44 -15 81 -41t62 -60q26 -34 39 -75z" />
    <glyph glyph-name="T" unicode="T" horiz-adv-x="616" 
d="M7 700h602v-179h-207v-521h-192v521h-203v179z" />
    <glyph glyph-name="U" unicode="U" horiz-adv-x="755" 
d="M501 700h192v-383q0 -78 -23 -141q-22 -62 -65 -104q-42 -42 -100 -63q-60 -20 -127 -20q-69 0 -129 20q-58 21 -100 63q-43 42 -65 104q-23 63 -23 141v383h192v-378q0 -83 32 -120q31 -36 92 -36t92 36q32 37 32 120v378z" />
    <glyph glyph-name="V" unicode="V" horiz-adv-x="719" 
d="M514 700h210l-262 -700h-208l-260 699h209l114 -354q26 -80 31 -99q9 -34 10 -34h1q1 0 10 35q5 19 31 99z" />
    <glyph glyph-name="W" unicode="W" horiz-adv-x="1071" 
d="M847 700h205l-210 -700h-182l-100 309q-7 22 -12 44q-1 6 -4 18.5t-4 17.5q-1 4 -2.5 12.5t-2.5 11.5l-2 9h-1l-2 -9q-1 -3 -2.5 -11.5t-2.5 -12.5q-3 -15 -9 -36q-8 -28 -13 -43l-101 -310h-182l-205 700h205l66 -290q4 -18 11.5 -45.5t9.5 -38.5q7 -33 9 -33h1
q1 0 10 33q10 38 28 84l89 232h181l89 -232q18 -46 28 -84q9 -33 10 -33h1q1 0 9 33q0 1 7 32.5t12 51.5z" />
    <glyph glyph-name="X" unicode="X" horiz-adv-x="695" 
d="M348 191h-1l-10 -15q-3 -5 -17 -30q-12 -22 -18 -32t-12 -19l-57 -95h-228l225 354l-218 345h231l64 -117q3 -4 10 -18l12 -24q2 -4 6 -11t5 -10l5 -8h1l5 9q1 3 5 10t6 11l12 24l9 18l65 117h230l-217 -345l224 -355h-228l-57 96q-2 8 -10 20q-6 10 -18 32q-3 6 -9 16
t-8 14z" />
    <glyph glyph-name="Y" unicode="Y" horiz-adv-x="742" 
d="M519 700h214l-267 -399v-301h-191v301l-267 399h215l113 -175q33 -50 34 -50h1q2 0 34 50z" />
    <glyph glyph-name="Z" unicode="Z" horiz-adv-x="718" 
d="M658 700v-180l-270 -279l-24 -24q-15 -15 -21 -22t-15 -16l-6 -6l1 -1h4q4 1 12 1.5t18 0.5q44 2 81 2h220v-178h-598v179l283 281q14 14 22 21q4 3 11 10t11 10l18 15l7 6l-1 1h-12h-30h-37h-36h-226v179h588z" />
    <glyph glyph-name="bracketleft" unicode="[" horiz-adv-x="404" 
d="M265 677v-650h134v-178h-325v1007h325v-179h-134z" />
    <glyph glyph-name="backslash" unicode="\" horiz-adv-x="532" 
d="M179 700l358 -700h-200l-341 700h183z" />
    <glyph glyph-name="bracketright" unicode="]" horiz-adv-x="401" 
d="M136 27v650h-134v179h325v-1007h-325v178h134z" />
    <glyph glyph-name="asciicircum" unicode="^" horiz-adv-x="615" 
d="M542 477l-81 -70l-153 158l-154 -158l-80 70l234 235z" />
    <glyph glyph-name="underscore" unicode="_" horiz-adv-x="789" 
d="M74 0h641v-151h-641v151z" />
    <glyph glyph-name="grave" unicode="`" horiz-adv-x="325" 
d="M244 724l-255 103l63 128l246 -131z" />
    <glyph glyph-name="a" unicode="a" horiz-adv-x="719" 
d="M515 0l-31 90h-253l-31 -90h-206l272 700h183l273 -700h-207zM290 257h139l-37 102q-7 17 -12 34q-2 5 -10 36q-2 6 -4.5 15.5t-3.5 11.5l-3 11h-1l-3 -11q-1 -2 -3.5 -11.5t-4.5 -15.5q-8 -31 -10 -36q-2 -7 -6.5 -18t-5.5 -16z" />
    <glyph glyph-name="b" unicode="b" horiz-adv-x="664" 
d="M74 699h315h-2q48 0 87 -15t68 -41t44 -60q15 -35 15 -73q0 -25 -7 -46q-8 -23 -19 -40q-12 -18 -25 -31t-27 -19v-1q25 -7 46 -24t36 -39q16 -24 23 -48q8 -27 8 -49q0 -43 -15 -82t-45 -69q-29 -29 -78 -46q-47 -16 -116 -16h-308v699zM266 431h83q26 0 44 15t18 39
q0 23 -18 38t-44 15h-83v-107zM266 161h96v-1q34 0 54 18t20 45q0 30 -20 47t-53 17h-97v-126z" />
    <glyph glyph-name="c" unicode="c" horiz-adv-x="752" 
d="M714 527l-196 -51l-5 -6q-21 23 -55 36q-33 13 -66 13q-40 0 -69 -13q-31 -14 -51 -37t-31 -55q-11 -33 -11 -69q0 -81 45 -126t117 -45q42 0 80 18t56 47l195 -50q-23 -48 -55 -84q-34 -39 -75 -65q-43 -28 -93 -41q-51 -15 -106 -15q-74 0 -141 26q-65 27 -115 75
q-49 48 -78 116q-28 66 -28 147q0 78 29 147q29 68 78 116t116 75q66 27 141 27q54 0 100 -13q45 -13 88 -38q41 -24 74 -59q35 -36 56 -76z" />
    <glyph glyph-name="d" unicode="d" horiz-adv-x="777" 
d="M73 701h309l-2 -2q76 0 141 -25t115 -72q50 -46 78 -111q29 -66 29 -144q0 -81 -28 -144q-28 -64 -78 -109q-49 -45 -116 -69q-66 -24 -141 -24h-307v700zM266 179h115l-1 1q32 0 63 11q28 10 52 32q22 21 36 53q14 33 14 72q0 42 -13 72q-14 32 -36 54q-24 24 -52 35
q-30 12 -61 12h-117v-342z" />
    <glyph glyph-name="e" unicode="e" horiz-adv-x="673" 
d="M266 179h334v-179h-526v700h520v-179h-328v-87h255v-168h-255v-87z" />
    <glyph glyph-name="f" unicode="f" horiz-adv-x="620" 
d="M584 521h-318v-110h245v-172h-245v-239h-192v700h510v-179z" />
    <glyph glyph-name="g" unicode="g" 
d="M392 405h339l3 -407h-164v34v9h-1q-17 -17 -39 -27q-25 -12 -45 -17q-20 -7 -45 -10q-22 -3 -42 -3q-74 0 -141 26q-65 27 -115 75q-49 48 -78 116q-28 66 -28 147q0 78 29 147q29 68 78 116t116 75q66 27 141 27q50 0 96 -12t87 -36q39 -23 75 -59q33 -33 58 -78
l-196 -51q-22 23 -57 36q-33 13 -66 13q-40 0 -69 -13q-31 -14 -51 -37t-31 -55q-11 -33 -11 -69q0 -42 13 -74q14 -34 36 -56q23 -23 54 -35q32 -12 69 -12q35 0 59 6q22 6 42 17q18 10 30 24q13 15 20 30h-166v153z" />
    <glyph glyph-name="h" unicode="h" horiz-adv-x="760" 
d="M494 700h192v-700h-192v258h-228v-258h-192v700h192v-263h228v263z" />
    <glyph glyph-name="i" unicode="i" horiz-adv-x="339" 
d="M266 0h-192v700h192v-700z" />
    <glyph glyph-name="j" unicode="j" horiz-adv-x="686" 
d="M431 700h192v-387q0 -81 -24 -142t-67 -103q-44 -42 -102 -63q-60 -20 -128 -20q-48 0 -96 14q-43 11 -85 37q-38 23 -67 57q-28 33 -45 72l188 50q16 -23 42 -37q25 -13 62 -13q61 0 95 39q35 40 35 106v390z" />
    <glyph glyph-name="k" unicode="k" horiz-adv-x="745" 
d="M736 700l-300 -301l295 -396h-226l-197 272l-44 -44v-228h-192v700h192v-94v-72v-45v-22v-6h1l3 3l12 12q2 2 10.5 11t14.5 15l45 45l151 150h235z" />
    <glyph glyph-name="l" unicode="l" horiz-adv-x="604" 
d="M266 179h318v-179h-510v700h192v-521z" />
    <glyph glyph-name="m" unicode="m" horiz-adv-x="861" 
d="M607 700h180l-7 -703h-188v130q0 84 1 116q1 48 3 78q0 8 0.5 17.5t1 15.5t0.5 10l1 13h-1l-10 -16q-4 -6 -11.5 -19t-10.5 -17q-12 -19 -21 -36l-9 -17l-60 -100h-99l-59 100l-10 17q-4 6 -11.5 19t-10.5 17t-10.5 17t-11.5 19l-10 17h-1l1 -13q0 -4 0.5 -10t1 -15.5
t0.5 -17.5q2 -30 3 -78q1 -32 1 -115v-130h-188v699h180l119 -189q21 -33 29 -47q4 -6 9.5 -15.5t7.5 -12.5q7 -12 9 -14l3 -3h1l2 4l8 14q8 14 18 29q6 9 30 47z" />
    <glyph glyph-name="n" unicode="n" 
d="M525 700h192v-703h-181l-96 132q-24 33 -54 75q-48 66 -56 79q-12 18 -44 63l-18 25h-1v-20v-57v-88v-113v-95h-192v699h180l104 -139q11 -14 27 -36q30 -41 35 -48l36 -51q7 -10 18.5 -26t14.5 -20q3 -5 11.5 -17t12.5 -17l10 -13h1v23v60v86v99v102z" />
    <glyph glyph-name="o" unicode="o" horiz-adv-x="792" 
d="M33 350l-3 -2q0 78 29 147q29 68 78 116t116 75q66 27 141 27t141 -27q67 -27 116 -75q50 -48 78 -115q29 -69 29 -147q0 -81 -28 -147q-28 -67 -78 -115q-49 -48 -116 -75q-67 -26 -141 -26t-141 26q-65 27 -115 75q-49 48 -78 116q-28 66 -28 147zM233 350
q0 -40 12 -71t33 -54q22 -23 51 -35q30 -12 68 -12t68 12q29 12 51 35t32 54q11 33 11 71q0 79 -43 126q-44 48 -120 48t-120 -48q-43 -47 -43 -126z" />
    <glyph glyph-name="p" unicode="p" horiz-adv-x="666" 
d="M73 699h281l-2 -2q64 0 118 -17q52 -16 88 -48t56 -77q20 -46 20 -102q0 -58 -19 -102q-20 -47 -55 -77q-36 -32 -88 -48q-51 -16 -118 -16h-89v-210h-192v699zM266 390h86l-1 -1q37 0 60 17t23 48t-21 49t-61 18h-86v-131z" />
    <glyph glyph-name="q" unicode="q" horiz-adv-x="792" 
d="M297 -131v131h-1q-56 13 -105 47q-48 33 -84 78q-35 44 -55 102q-19 56 -19 123q0 78 29 147q29 68 78 116t116 75q66 27 141 27t141 -27q67 -27 116 -75q50 -48 78 -115q29 -69 29 -147q0 -65 -21 -124t-57 -105t-86 -78q-52 -33 -108 -46v-129h-192zM396 176
q38 0 68 12q29 12 51 35t32 54q11 33 11 71q0 79 -43 126q-43 48 -120 48t-120 -48q-43 -47 -43 -126q0 -40 12 -71t33 -54q22 -23 51 -35q30 -12 68 -12z" />
    <glyph glyph-name="r" unicode="r" horiz-adv-x="692" 
d="M665 -2h-215l-123 217h-63v-218h-192v699h274q67 0 121 -18q52 -17 91 -50q37 -31 57 -77t20 -100q0 -71 -31 -121q-32 -52 -90 -80zM266 521v-132l108 -3q17 0 29 6q11 5 19 17q7 10 10 22t3 22q0 9 -3 21q-3 11 -9 22q-6 10 -18 18q-11 7 -30 7h-109z" />
    <glyph glyph-name="s" unicode="s" horiz-adv-x="619" 
d="M593 521l-185 -51l-5 -12q-8 22 -19 36q-12 15 -27 24q-17 10 -30 14q-17 5 -30 5q-28 0 -43 -12t-15 -24q0 -13 11 -24t30 -20q18 -8 47 -18q23 -8 58 -21q37 -14 77 -35q36 -19 67 -45q30 -26 48 -60t18 -78q0 -48 -20 -90q-19 -40 -57 -70t-88 -45q-49 -16 -113 -16
q-108 0 -187 55q-78 55 -117 158l184 49q7 -15 20 -33q11 -15 29 -30q16 -14 36 -21q21 -8 44 -8q37 0 51 13q15 14 15 31q0 16 -12 28q-11 11 -35 22q-23 11 -54 21q-24 8 -69 26q-32 14 -63 30q-33 17 -57 40q-26 25 -41 57q-15 33 -15 80q0 40 20 80q19 38 56 69
q36 30 85 48t108 18q51 0 96 -15q44 -15 81 -41t62 -60q26 -34 39 -75z" />
    <glyph glyph-name="t" unicode="t" horiz-adv-x="616" 
d="M7 700h602v-179h-207v-521h-192v521h-203v179z" />
    <glyph glyph-name="u" unicode="u" horiz-adv-x="755" 
d="M501 700h192v-383q0 -78 -23 -141q-22 -62 -65 -104q-42 -42 -100 -63q-60 -20 -127 -20q-69 0 -129 20q-58 21 -100 63q-43 42 -65 104q-23 63 -23 141v383h192v-378q0 -83 32 -120q31 -36 92 -36t92 36q32 37 32 120v378z" />
    <glyph glyph-name="v" unicode="v" horiz-adv-x="719" 
d="M514 700h210l-262 -700h-208l-260 699h209l114 -354q26 -80 31 -99q9 -34 10 -34h1q1 0 10 35q5 19 31 99z" />
    <glyph glyph-name="w" unicode="w" horiz-adv-x="1071" 
d="M847 700h205l-210 -700h-182l-100 309q-7 22 -12 44q-1 6 -4 18.5t-4 17.5q-1 4 -2.5 12.5t-2.5 11.5l-2 9h-1l-2 -9q-1 -3 -2.5 -11.5t-2.5 -12.5q-3 -15 -9 -36q-8 -28 -13 -43l-101 -310h-182l-205 700h205l66 -290q4 -18 11.5 -45.5t9.5 -38.5q7 -33 9 -33h1
q1 0 10 33q10 38 28 84l89 232h181l89 -232q18 -46 28 -84q9 -33 10 -33h1q1 0 9 33q0 1 7 32.5t12 51.5z" />
    <glyph glyph-name="x" unicode="x" horiz-adv-x="695" 
d="M348 191h-1l-10 -15q-3 -5 -17 -30q-12 -22 -18 -32t-12 -19l-57 -95h-228l225 354l-218 345h231l64 -117q3 -4 10 -18l12 -24q2 -4 6 -11t5 -10l5 -8h1l5 9q1 3 5 10t6 11l12 24l9 18l65 117h230l-217 -345l224 -355h-228l-57 96q-2 8 -10 20q-6 10 -18 32q-3 6 -9 16
t-8 14z" />
    <glyph glyph-name="y" unicode="y" horiz-adv-x="742" 
d="M519 700h214l-267 -399v-301h-191v301l-267 399h215l113 -175q33 -50 34 -50h1q2 0 34 50z" />
    <glyph glyph-name="z" unicode="z" horiz-adv-x="718" 
d="M658 700v-180l-270 -279l-24 -24q-15 -15 -21 -22t-15 -16l-6 -6l1 -1h4q4 1 12 1.5t18 0.5q44 2 81 2h220v-178h-598v179l283 281q14 14 22 21q4 3 11 10t11 10l18 15l7 6l-1 1h-12h-30h-37h-36h-226v179h588z" />
    <glyph glyph-name="braceleft" unicode="{" horiz-adv-x="472" 
d="M329 556v-42v-7q0 -52 -7 -81q-8 -32 -16 -49q-9 -17 -18 -25q-8 -7 -12 -7q4 0 12 -7q9 -8 18 -25q8 -17 16 -49q7 -29 7 -81v-43q0 -50 12 -78q13 -30 31 -44q20 -15 43 -18q21 -4 49 -4v-179q-81 0 -144 23q-61 22 -102 62q-39 38 -61 92q-21 51 -21 112v88
q0 52 -10 81q-11 32 -22 47q-14 20 -30 27q16 7 30 27q11 15 22 47q10 29 10 81v88q0 60 21 113q22 54 61 92q41 40 102 62q63 23 144 23v-179q-28 0 -49 -4q-24 -5 -43 -19t-31 -45q-12 -30 -12 -79z" />
    <glyph glyph-name="bar" unicode="|" horiz-adv-x="297" 
d="M224 -73h-150v848h150v-848z" />
    <glyph glyph-name="braceright" unicode="}" horiz-adv-x="472" 
d="M335 594v-88v-5q0 -51 9 -81q9 -31 21 -47q13 -19 32 -27q-19 -8 -32 -27q-12 -16 -21 -47q-9 -30 -9 -81v-88q0 -60 -21 -111q-21 -52 -61 -91q-40 -38 -102 -61q-60 -22 -144 -22v179q17 0 49 4q22 4 43 20q18 14 31 44q12 29 12 78v43q0 52 7 81q8 32 16 49
q9 17 18 25q8 7 12 7q-4 0 -12 7q-9 8 -18 25q-8 17 -16 49q-7 29 -7 81v42q0 49 -12 79q-12 31 -31 45q-21 16 -43 20q-27 5 -49 5v179q84 0 144 -22q62 -23 102 -61q40 -39 61 -91t21 -112z" />
    <glyph glyph-name="asciitilde" unicode="~" horiz-adv-x="698" 
d="M517 442l159 -42l2 -2q-6 -45 -27 -75q-20 -29 -48 -49q-27 -19 -59 -27q-34 -8 -60 -8q-36 0 -69 9q-32 9 -61 21q-33 14 -52 21q-24 9 -43 9q-23 0 -36 -6t-21 -15t-9 -19q-2 -14 -2 -19l-156 42q6 45 27 75q21 31 49 48q30 19 60 26q34 8 58 8q37 0 68 -9
q25 -7 60 -20q11 -4 29.5 -11t23.5 -9q24 -9 43 -9q21 0 34 6q14 6 20 15q7 10 8 20q2 14 2 20z" />
    <glyph glyph-name="uni00A0" unicode="&#xa0;" horiz-adv-x="250" 
 />
    <glyph glyph-name="exclamdown" unicode="&#xa1;" horiz-adv-x="339" 
d="M74 700h192v-157h-192v157zM74 489h192v-489h-192v489z" />
    <glyph glyph-name="cent" unicode="&#xa2;" horiz-adv-x="586" 
d="M392 289l168 -45l-4 -2q-22 -59 -71 -103q-48 -43 -111 -60v-93h-152v94q-41 12 -76 37t-61 60q-24 33 -40 77q-15 42 -15 90t15 90q14 40 41 76q25 34 62 60q34 24 77 37v108h152v-107q58 -16 105 -56q46 -38 70 -93l-168 -43q-15 18 -33 27t-47 9q-47 0 -71 -28
t-24 -79q0 -53 24 -81t71 -28q32 0 54 14q20 13 34 39z" />
    <glyph glyph-name="sterling" unicode="&#xa3;" horiz-adv-x="648" 
d="M293 175l1 -1l-4 -3q1 0 37 3t101 3h181v-178h-538v178q35 6 47 21q12 16 8 53v4h-57v149h42l-8 78q-5 46 15 87t54 72t80 51q45 20 93 21q31 1 73 -9t81 -33q40 -23 72 -61q34 -40 47 -96l-161 -45q-12 31 -36 54t-62 21q-17 -2 -29 -9q-13 -8 -20 -18q-8 -12 -11 -24
t-1 -27l6 -60h176v-149h-162q3 -27 -4 -48q-7 -22 -21 -34z" />
    <glyph glyph-name="currency" unicode="&#xa4;" horiz-adv-x="674" 
d="M485 571l67 67l90 -93l-69 -68q37 -64 37 -140q0 -39 -11 -78q-11 -37 -30 -69l64 -64l-93 -93l-66 65q-30 -17 -67 -28q-34 -10 -74 -10q-76 0 -138 37l-64 -64l-93 93l62 63q-20 33 -30 69q-11 38 -11 78q0 41 10 75q10 35 27 67l-67 67l93 93l67 -67q31 19 68 30
q38 11 77 11q41 0 80 -11q38 -11 71 -30zM336 448q-43 0 -75 -29q-31 -28 -31 -78q0 -53 31 -81t75 -28q45 0 76 28t31 81q0 50 -31 78q-32 29 -76 29z" />
    <glyph glyph-name="yen" unicode="&#xa5;" horiz-adv-x="741" 
d="M733 700l-143 -214h74v-122h-156l-18 -27h174v-122h-198v-215h-191v215h-197v122h173l-18 27h-155v122h73l-143 214h215l113 -175q33 -50 34 -50h1q2 0 34 50l114 175h214z" />
    <glyph glyph-name="brokenbar" unicode="&#xa6;" horiz-adv-x="297" 
d="M74 775h150v-280h-150v280zM74 216h150v-289h-150v289z" />
    <glyph glyph-name="section" unicode="&#xa7;" horiz-adv-x="535" 
d="M499 581l-152 -40l-3 -2q-12 29 -39 42q-26 13 -54 13q-25 0 -37 -9t-12 -19q0 -14 9 -21q10 -8 26 -14q20 -7 39 -11t48 -14q34 -10 66 -24q31 -13 56 -32q24 -18 39 -42t15 -54q0 -38 -19 -61t-54 -37q38 -22 59 -49q23 -29 23 -66q0 -34 -17 -63t-48 -50
q-33 -22 -75 -32q-43 -12 -98 -12q-92 0 -160 37q-65 37 -100 107l155 41q14 -24 42 -45t69 -21q31 0 45 9q13 9 13 23q0 12 -11 21q-9 8 -30 16t-46 15q-27 7 -60 18q-27 8 -55 21q-26 11 -48 29q-20 15 -34 41q-13 23 -13 57q0 32 19 57q19 26 54 42q-31 16 -52 42t-21 68
q0 27 17 55q16 26 47 48q28 20 71 34q39 13 90 13q44 0 80 -10q40 -11 68 -28q31 -19 53 -42q23 -25 35 -51zM200 363l-2 -3q0 -12 9 -20q8 -7 24 -13q13 -5 34 -10q33 -8 42 -10q38 8 38 42q0 14 -7 21q-8 8 -21 14q-12 5 -31 10q-18 4 -39 9q-26 -3 -37 -15
q-10 -11 -10 -25z" />
    <glyph glyph-name="dieresis" unicode="&#xa8;" horiz-adv-x="459" 
d="M70 769h-1q-33 0 -58 23q-23 23 -23 57q0 33 23 58q24 24 59 24q34 0 57 -24q23 -25 23 -58q0 -34 -23 -57t-57 -23zM348 769q-34 0 -57 23t-23 57q0 33 23 58q23 24 57 24t58 -24t24 -58q0 -35 -24 -57q-25 -23 -58 -23z" />
    <glyph glyph-name="copyright" unicode="&#xa9;" horiz-adv-x="792" 
d="M391 715l-3 -2q75 0 141 -27q67 -27 116 -75q50 -48 78 -115q29 -69 29 -147q0 -81 -28 -147q-28 -67 -78 -115q-49 -48 -116 -75q-67 -26 -141 -26t-141 26q-65 27 -115 75q-49 48 -78 116q-28 66 -28 147q0 78 29 147q29 68 78 116t116 75q66 27 141 27zM395 586h-4
q-49 0 -90 -18q-40 -18 -70 -49q-29 -31 -46 -75q-16 -42 -16 -94q0 -48 17 -93q17 -44 46 -75q29 -30 71 -49q41 -18 90 -18t90 18q42 19 71 49q31 32 47 75q17 45 17 93q0 52 -16 94q-17 44 -46 75q-29 30 -71 49q-41 18 -90 18zM445 319l106 -29l-1 1q-16 -46 -59 -75
t-96 -29q-33 0 -63 12t-53 35q-22 22 -36 53q-13 29 -13 66q0 35 14 66t36 53q23 23 53 35t63 12q50 0 91 -27t60 -70l-105 -28q-11 11 -19 15q-10 5 -26 5q-26 0 -41 -16t-15 -46t15 -46t41 -16q19 0 30 8t18 21z" />
    <glyph glyph-name="ordfeminine" unicode="&#xaa;" horiz-adv-x="372" 
d="M142 420l-11 -45h-112l114 333h106l114 -333h-114l-11 45h-86zM186 606h-1q-1 0 -6 -27q-7 -40 -15 -69l-2 -7h44l-2 7q-10 36 -14 69q-3 27 -4 27zM20 201v113h332v-113h-332z" />
    <glyph glyph-name="guillemotleft" unicode="&#xab;" horiz-adv-x="804" 
d="M391 352l236 234l102 -103l-138 -131l139 -131l-104 -104zM74 352l236 234l102 -103l-138 -131l139 -131l-104 -104z" />
    <glyph glyph-name="uni00AD" unicode="&#xad;" horiz-adv-x="598" 
d="M74 432h450v-156h-450v156z" />
    <glyph glyph-name="registered" unicode="&#xae;" horiz-adv-x="792" 
d="M391 711l-3 -2q75 0 141 -27q67 -27 116 -75q50 -48 78 -115q29 -69 29 -147q0 -81 -28 -147q-28 -67 -78 -115q-49 -48 -116 -75q-67 -26 -141 -26t-141 26q-65 27 -115 75q-49 48 -78 116q-28 66 -28 147q0 78 29 147q29 68 78 116t116 75q66 27 141 27zM395 114h-4
q49 0 90 18q42 19 71 49q31 32 47 75q17 45 17 93q0 52 -16 94q-17 44 -46 75q-29 30 -71 49q-41 18 -90 18t-90 -18q-40 -18 -70 -49q-29 -31 -46 -75q-16 -42 -16 -94q0 -48 17 -93q17 -44 46 -75q29 -30 71 -49q41 -18 90 -18zM269 512h127v-1q64 0 98 -30q35 -30 35 -81
q0 -62 -53 -91l72 -122h-107l-55 105h-16v-105h-101v325zM371 422v-47l40 -2q8 0 14 9t6 15q0 7 -6 16t-13 9h-41z" />
    <glyph glyph-name="macron" unicode="&#xaf;" horiz-adv-x="322" 
d="M-35 806h353v-147h-353v147z" />
    <glyph glyph-name="degree" unicode="&#xb0;" horiz-adv-x="349" 
d="M175 561l-1 -1q-34 0 -63 13q-28 13 -52 35q-23 21 -36 51q-13 29 -13 63t13 63t36 52t52 36t63 13q36 0 63 -13q29 -13 51 -36q24 -24 35 -52q12 -30 12 -63t-12 -63q-12 -31 -34 -51q-21 -20 -51 -34q-27 -13 -63 -13zM175 672q23 0 38 15t15 36q0 23 -15 38t-38 15
q-20 0 -35 -15t-15 -38q0 -21 15 -36t35 -15z" />
    <glyph glyph-name="plusminus" unicode="&#xb1;" horiz-adv-x="698" 
d="M432 432h143v-156h-142v-69h-166v69h-143v156h142v153h166v-153zM124 -8v155h451v-155h-451z" />
    <glyph glyph-name="uni00B2" unicode="&#xb2;" horiz-adv-x="343" 
d="M179 573l1 -1v-3q14 1 30 3q14 2 33 3q13 1 45 1h27v-104h-294v78l111 99q8 7 48 41q19 16 19 42q0 10 -8 18q-7 7 -20 7t-21 -6t-12 -15l-8 -16l-4 -12l-105 28q4 21 17 45q11 21 32 42q20 20 45 32t57 12t58 -10q25 -10 46 -29q20 -18 30 -43q11 -27 11 -54
q0 -35 -16 -60q-17 -25 -39 -45q-8 -8 -13 -11l-15 -9q-32 -19 -39 -23q-16 -9 -16 -10z" />
    <glyph glyph-name="uni00B3" unicode="&#xb3;" horiz-adv-x="355" 
d="M125 729l-99 26l-2 -8q10 53 51 84q40 31 101 31q66 0 105 -33t39 -84q0 -18 -8 -34q-7 -15 -19 -25q-12 -11 -25 -15q-12 -4 -24 -4v-1q31 0 56 -19q26 -20 26 -60q0 -26 -11 -50q-11 -23 -30 -39q-20 -17 -47 -26t-60 -9q-28 0 -54 9t-47 24q-20 14 -36 35
q-15 19 -21 44l102 28q6 -19 18 -28t39 -9q15 0 26 8t11 21q0 17 -12 26t-28 9h-34v82h34q14 0 23 9t9 20q0 14 -10 21t-19 7q-20 0 -33 -7q-14 -8 -21 -33z" />
    <glyph glyph-name="acute" unicode="&#xb4;" horiz-adv-x="325" 
d="M234 955l64 -128l-256 -103l-53 100z" />
    <glyph glyph-name="paragraph" unicode="&#xb6;" horiz-adv-x="872" 
d="M297 700h501v-700h-192v520h-84v-520h-180v264h-45q-125 0 -194 57t-69 161t69 161t194 57z" />
    <glyph glyph-name="periodcentered" unicode="&#xb7;" horiz-adv-x="293" 
d="M147 272l-2 -1q-35 0 -61 26q-25 25 -25 63q0 19 7 33q8 16 19 27q12 12 28 18q17 6 34 6q18 0 33 -6t27 -18q11 -11 19 -27q7 -14 7 -33q0 -38 -25 -63t-61 -25z" />
    <glyph glyph-name="cedilla" unicode="&#xb8;" horiz-adv-x="277" 
d="M161 0l-21 -57l-1 -1q23 0 41 -7q20 -8 35 -21q15 -14 24 -34q9 -21 9 -46q0 -34 -10 -55q-10 -23 -27 -36q-16 -13 -39 -19q-22 -6 -46 -6h-137l37 98h100q13 0 18 5q4 4 4 11q0 17 -22 17h-119l52 151h102z" />
    <glyph glyph-name="uni00B9" unicode="&#xb9;" horiz-adv-x="277" 
d="M163 862h86l-1 -386h-120v163q0 29 3 48t3 21h-1q-1 0 -9 -12q-9 -14 -27 -28l-13 -10l-75 66z" />
    <glyph glyph-name="ordmasculine" unicode="&#xba;" horiz-adv-x="362" 
d="M10 539h-2q0 36 14 69q14 32 36 54q23 23 54 35q32 12 66 12q36 0 67 -12q30 -11 55 -35q23 -22 37 -54q14 -33 14 -69q0 -39 -13 -69q-14 -32 -37 -54q-25 -24 -55 -35q-32 -12 -67 -12t-66 12t-54 35q-23 22 -36 54q-13 30 -13 69zM123 540v-1q0 -29 16 -46
q17 -18 42 -18t42 18q17 19 17 46q0 28 -17 47q-17 18 -42 18t-42 -18q-16 -17 -16 -46zM20 314h322v-113h-322v113z" />
    <glyph glyph-name="guillemotright" unicode="&#xbb;" horiz-adv-x="804" 
d="M177 586l236 -234l-235 -235l-104 104l139 131l-138 131zM494 586l237 -234l-235 -235l-105 104l140 131l-139 131z" />
    <glyph glyph-name="onequarter" unicode="&#xbc;" horiz-adv-x="764" 
d="M97 505l-13 -10l-76 66l154 138h86v-386h-120v163q0 28 3 48t3 21h-1q-1 0 -9 -12q-9 -14 -27 -28zM575 699h122l-509 -699h-121zM739 156v-99h-39v-57h-106v57h-185v82l198 246h93v-229h39zM566 155h28v47v24h-1l-6 -8l-45 -51q-6 -7 -11 -12q-2 -2 -2 -3v-1h1l2 1
q1 0 4 0.5t6 0.5q14 2 24 2z" />
    <glyph glyph-name="onehalf" unicode="&#xbd;" horiz-adv-x="792" 
d="M163 697h86l-1 -386h-120v163q0 28 3 48t3 21h-1q-1 0 -9 -12q-9 -14 -27 -28l-13 -10l-75 66zM67 -2l508 699h122l-509 -699h-121zM628 97l1 -1v-3q13 1 30 3q13 2 33 3q13 1 45 1h27v-103h-294v77l111 99q8 7 48 41q19 16 19 42q0 10 -8 18q-7 7 -20 7q-14 0 -21 -6
t-12 -15l-8 -16l-4 -12l-105 28q4 21 17 45q11 21 32 42q20 20 45 32q26 12 57 12q32 0 58 -10q25 -10 46 -29q20 -18 30 -43q11 -27 11 -54q0 -35 -16 -60t-39 -45q-8 -8 -13 -11l-15 -9q-32 -19 -39 -23q-16 -9 -16 -10z" />
    <glyph glyph-name="threequarters" unicode="&#xbe;" horiz-adv-x="821" 
d="M247 511v-1l-2 -8q31 0 56 -19q26 -20 26 -60q0 -26 -11 -50q-10 -23 -30 -39q-20 -17 -47 -26t-60 -9q-29 0 -54 9q-26 9 -47 24q-20 14 -36 35q-15 19 -21 44l102 28q6 -19 18 -28t39 -9q15 0 26 8t11 21q0 17 -12 26t-28 9h-34v82h34q14 0 23 9t9 20q0 14 -10 21
t-19 7q-20 0 -33 -7q-13 -8 -21 -33l-99 26q11 53 51 84t101 31q66 0 105 -33t39 -84q0 -18 -8 -34q-7 -15 -19 -25q-12 -11 -25 -15q-12 -4 -24 -4zM632 699h121l-508 -699h-122zM795 156v-99h-39v-57h-106v57h-185v82l198 246h93v-229h39zM622 155h28v47v24h-1l-6 -8
l-45 -51q-6 -7 -11 -12q-2 -2 -2 -3v-1h1l2 1q1 0 4 0.5t6 0.5q14 2 24 2z" />
    <glyph glyph-name="questiondown" unicode="&#xbf;" horiz-adv-x="595" 
d="M397 697v-157h-192v157h192zM397 489v-138v-3q-66 -42 -78 -50q-28 -17 -51 -35q-19 -15 -28 -28t-9 -30q0 -8 3 -17q3 -8 11 -18q7 -9 20 -15q12 -6 30 -6q38 0 63 17t41 60l160 -45q-10 -44 -35 -81q-23 -35 -59 -63q-34 -27 -80 -39q-47 -14 -97 -14q-59 0 -106 16
q-47 15 -81 44q-33 29 -51 67q-18 39 -18 84q0 44 14 77q13 31 38 57q24 25 55 46t66 42v72h192z" />
    <glyph glyph-name="Agrave" unicode="&#xc0;" horiz-adv-x="719" 
d="M464 824l-55 -100l-256 103l65 128zM515 0l-31 90h-253l-31 -90h-206l272 700h183l273 -700h-207zM290 257h139l-37 102q-7 17 -12 34q-2 5 -10 36q-2 6 -4.5 15.5t-3.5 11.5l-3 11h-1l-3 -11q-1 -2 -3.5 -11.5t-4.5 -15.5q-8 -31 -10 -36q-2 -7 -6.5 -18t-5.5 -16z" />
    <glyph glyph-name="Aacute" unicode="&#xc1;" horiz-adv-x="719" 
d="M535 827l-256 -103l-55 100l246 131zM515 0l-31 90h-253l-31 -90h-206l272 700h183l273 -700h-207zM290 257h139l-37 102q-7 17 -12 34q-2 5 -10 36q-2 6 -4.5 15.5t-3.5 11.5l-3 11h-1l-3 -11q-1 -2 -3.5 -11.5t-4.5 -15.5q-8 -31 -10 -36q-2 -7 -6.5 -18t-5.5 -16z" />
    <glyph glyph-name="Acircumflex" unicode="&#xc2;" horiz-adv-x="719" 
d="M352 815l-113 -93l-92 92l205 175l205 -175l-91 -92zM515 0l-31 90h-253l-31 -90h-206l272 700h183l273 -700h-207zM290 257h139l-37 102q-7 17 -12 34q-2 5 -10 36q-2 6 -4.5 15.5t-3.5 11.5l-3 11h-1l-3 -11q-1 -2 -3.5 -11.5t-4.5 -15.5q-8 -31 -10 -36
q-2 -7 -6.5 -18t-5.5 -16z" />
    <glyph glyph-name="Atilde" unicode="&#xc3;" horiz-adv-x="719" 
d="M473 906h147l-3 -1q0 -37 -12 -69q-12 -31 -35 -54q-22 -22 -54 -36q-30 -13 -69 -13q-30 0 -51 10q-27 12 -41 22q-7 5 -19.5 12.5t-15.5 9.5q-16 10 -34 10q-19 0 -31 -12t-12 -30h-148q0 39 13 69q14 32 36 54t54 36q30 13 69 13q32 0 53 -10q27 -12 41 -22
q7 -5 19.5 -12.5t15.5 -9.5q16 -10 33 -10q20 0 32 12t12 31zM515 0l-31 90h-253l-31 -90h-206l272 700h183l273 -700h-207zM290 257h139l-37 102q-7 17 -12 34q-2 5 -10 36q-2 6 -4.5 15.5t-3.5 11.5l-3 11h-1l-3 -11q-1 -2 -3.5 -11.5t-4.5 -15.5q-8 -31 -10 -36
q-2 -7 -6.5 -18t-5.5 -16z" />
    <glyph glyph-name="Adieresis" unicode="&#xc4;" horiz-adv-x="719" 
d="M214 769h-1q-33 0 -58 23q-24 22 -24 57q0 34 24 58t59 24q34 0 57 -24q23 -25 23 -58q0 -34 -23 -57t-57 -23zM492 769q-34 0 -57 23t-23 57q0 33 23 58q23 24 57 24t58 -24t24 -58q0 -35 -24 -57q-25 -23 -58 -23zM515 0l-31 90h-253l-31 -90h-206l272 700h183
l273 -700h-207zM290 257h139l-37 102q-7 17 -12 34q-2 5 -10 36q-2 6 -4.5 15.5t-3.5 11.5l-3 11h-1l-3 -11q-1 -2 -3.5 -11.5t-4.5 -15.5q-8 -31 -10 -36q-2 -7 -6.5 -18t-5.5 -16z" />
    <glyph glyph-name="Aring" unicode="&#xc5;" horiz-adv-x="719" 
d="M515 0l-31 90l-254 -1l-31 -89h-206l272 699h2q-33 23 -54 58q-21 36 -21 78q0 34 13 63q13 30 36 51q24 22 52 35q29 13 63 13t63 -13q30 -14 52 -34q23 -22 35 -51q12 -30 12 -63q0 -41 -20 -78q-19 -35 -53 -58h4l273 -700h-207zM357 890q-20 0 -35 -15t-15 -38
q0 -19 15 -36q15 -16 35 -16q23 0 38 16q15 17 15 36q0 23 -15 38t-38 15zM290 257h139l-37 102q-7 17 -12 34q-2 5 -10 36q-2 6 -4.5 15.5t-3.5 11.5l-3 11h-1l-3 -11q-1 -2 -3.5 -11.5t-4.5 -15.5q-8 -31 -10 -36q-2 -7 -6.5 -18t-5.5 -16z" />
    <glyph glyph-name="AE" unicode="&#xc6;" horiz-adv-x="1033" 
d="M625 178h335v-178h-520v89h-208l-30 -89h-207l271 699h688v-179h-329v-87h255v-168h-255v-87zM289 257h151l-1 263h-63l-5 -15q-2 -6 -6.5 -19t-6.5 -19q-2 -7 -7.5 -24t-8.5 -26t-9 -26t-8 -24z" />
    <glyph glyph-name="Ccedilla" unicode="&#xc7;" horiz-adv-x="752" 
d="M531 243l195 -50l-6 -5q-39 -83 -114 -139q-74 -54 -172 -65l-17 -46q23 0 41 -7q20 -8 35 -21q15 -14 24 -34q9 -21 9 -46q0 -34 -10 -55q-10 -23 -27 -36q-16 -13 -39 -19q-22 -6 -46 -6h-138l38 98h100q13 0 18 5q4 4 4 11q0 17 -22 17h-119l49 142q-66 11 -120 40
q-55 30 -96 77q-40 45 -64 108q-24 62 -24 134q0 78 29 147q29 68 78 116t116 75q66 27 141 27q54 0 100 -13q45 -13 88 -38q41 -24 74 -59q35 -36 56 -76l-196 -51q-21 23 -55 36q-33 13 -66 13q-40 0 -69 -13q-31 -14 -51 -37t-31 -55q-11 -33 -11 -69q0 -81 45 -126
t117 -45q43 0 80 18q38 18 56 47z" />
    <glyph glyph-name="Egrave" unicode="&#xc8;" horiz-adv-x="673" 
d="M459 824l-55 -100l-256 103l65 128zM266 179h334v-179h-526v700h520v-179h-328v-87h255v-168h-255v-87z" />
    <glyph glyph-name="Eacute" unicode="&#xc9;" horiz-adv-x="673" 
d="M530 827l-256 -103l-55 100l246 131zM266 179h334v-179h-526v700h520v-179h-328v-87h255v-168h-255v-87z" />
    <glyph glyph-name="Ecircumflex" unicode="&#xca;" horiz-adv-x="673" 
d="M347 815l-113 -93l-92 92l205 175l205 -175l-91 -92zM266 179h334v-179h-526v700h520v-179h-328v-87h255v-168h-255v-87z" />
    <glyph glyph-name="Edieresis" unicode="&#xcb;" horiz-adv-x="673" 
d="M209 769h-1q-33 0 -58 23q-24 22 -24 57q0 34 24 58t59 24t57 -24q23 -25 23 -58q0 -34 -23 -57t-57 -23zM487 769q-34 0 -57 23t-23 57q0 33 23 58q22 24 57 24q34 0 58 -24t24 -58q0 -35 -24 -57q-25 -23 -58 -23zM266 179h334v-179h-526v700h520v-179h-328v-87h255
v-168h-255v-87z" />
    <glyph glyph-name="Igrave" unicode="&#xcc;" horiz-adv-x="339" 
d="M222 724l-255 103l64 128l246 -131zM266 0h-192v700h192v-700z" />
    <glyph glyph-name="Iacute" unicode="&#xcd;" horiz-adv-x="339" 
d="M283 955l65 -128l-256 -103l-55 100zM266 0h-192v700h192v-700z" />
    <glyph glyph-name="Icircumflex" unicode="&#xce;" horiz-adv-x="339" 
d="M-39 814l204 175l205 -175l-91 -92l-114 93l-113 -93zM266 0h-192v700h192v-700z" />
    <glyph glyph-name="Idieresis" unicode="&#xcf;" horiz-adv-x="339" 
d="M27 769h-1q-32 0 -57 23q-24 22 -24 57q0 34 24 58t58 24q35 0 57 -24q23 -25 23 -58q0 -34 -23 -57t-57 -23zM305 769q-34 0 -57 23t-23 57q0 33 23 58q22 24 57 24q34 0 58 -24t24 -58q0 -35 -24 -57q-25 -23 -58 -23zM266 0h-192v700h192v-700z" />
    <glyph glyph-name="Eth" unicode="&#xd0;" horiz-adv-x="794" 
d="M90 701h309l-2 -2q76 0 141 -25t115 -72q49 -46 78 -111q29 -66 29 -144q0 -81 -28 -144q-28 -64 -78 -109q-49 -45 -116 -69q-66 -24 -141 -24h-307v267h-58v172h58v261zM283 179h115l-1 1q32 0 63 11q28 10 52 32q22 21 36 53q14 33 14 72q0 42 -13 72q-13 32 -36 54
q-24 24 -52 35q-30 12 -61 12h-117v-82h87v-172h-87v-88z" />
    <glyph glyph-name="Ntilde" unicode="&#xd1;" 
d="M511 902h147l-3 -1q0 -37 -12 -69q-12 -31 -35 -54q-22 -22 -54 -36q-30 -13 -69 -13q-30 0 -51 10q-27 12 -41 22q-7 5 -19.5 12.5t-15.5 9.5q-16 10 -34 10q-19 0 -31 -12t-12 -30h-148q0 39 13 69q14 32 36 54t54 36q30 13 69 13q32 0 53 -10q27 -12 41 -22
q7 -5 19.5 -12.5t15.5 -9.5q16 -10 33 -10q20 0 32 12t12 31zM525 700h192v-703h-181l-96 132q-24 33 -54 75q-48 66 -56 79q-12 18 -44 63l-18 25h-1v-20v-57v-88v-113v-95h-192v699h180l104 -139q11 -14 27 -36q30 -41 35 -48l36 -51q7 -10 18.5 -26t14.5 -20
q3 -5 11.5 -17t12.5 -17l10 -13h1v23v60v86v99v102z" />
    <glyph glyph-name="Ograve" unicode="&#xd2;" horiz-adv-x="792" 
d="M450 722l-256 103l65 128l246 -131zM33 350l-3 -2q0 78 29 147q29 68 78 116t116 75q66 27 141 27t141 -27q67 -27 116 -75q50 -48 78 -115q29 -69 29 -147q0 -81 -28 -147q-28 -67 -78 -115q-49 -48 -116 -75q-67 -26 -141 -26t-141 26q-65 27 -115 75q-49 48 -78 116
q-28 66 -28 147zM233 350q0 -40 12 -71t33 -54q22 -23 51 -35q30 -12 68 -12t68 12q29 12 51 35t32 54q11 33 11 71q0 79 -43 126q-44 48 -120 48t-120 -48q-43 -47 -43 -126z" />
    <glyph glyph-name="Oacute" unicode="&#xd3;" horiz-adv-x="792" 
d="M511 953l65 -128l-256 -103l-55 100zM33 350l-3 -2q0 78 29 147q29 68 78 116t116 75q66 27 141 27t141 -27q67 -27 116 -75q50 -48 78 -115q29 -69 29 -147q0 -81 -28 -147q-28 -67 -78 -115q-49 -48 -116 -75q-67 -26 -141 -26t-141 26q-65 27 -115 75q-49 48 -78 116
q-28 66 -28 147zM233 350q0 -40 12 -71t33 -54q22 -23 51 -35q30 -12 68 -12t68 12q29 12 51 35t32 54q11 33 11 71q0 79 -43 126q-44 48 -120 48t-120 -48q-43 -47 -43 -126z" />
    <glyph glyph-name="Ocircumflex" unicode="&#xd4;" horiz-adv-x="792" 
d="M188 812l205 175l205 -175l-91 -92l-114 93l-113 -93zM33 350l-3 -2q0 78 29 147q29 68 78 116t116 75q66 27 141 27t141 -27q67 -27 116 -75q50 -48 78 -115q29 -69 29 -147q0 -81 -28 -147q-28 -67 -78 -115q-49 -48 -116 -75q-67 -26 -141 -26t-141 26q-65 27 -115 75
q-49 48 -78 116q-28 66 -28 147zM233 350q0 -40 12 -71t33 -54q22 -23 51 -35q30 -12 68 -12t68 12q29 12 51 35t32 54q11 33 11 71q0 79 -43 126q-44 48 -120 48t-120 -48q-43 -47 -43 -126z" />
    <glyph glyph-name="Otilde" unicode="&#xd5;" horiz-adv-x="792" 
d="M514 904h147l-3 -1q0 -37 -12 -69q-12 -31 -35 -54q-23 -22 -54 -36q-30 -13 -69 -13q-30 0 -51 10q-27 12 -41 22q-7 5 -19.5 12.5t-15.5 9.5q-16 10 -34 10q-19 0 -31 -12t-12 -30h-148q0 39 13 69q13 32 36 54t54 36q30 13 69 13q32 0 53 -10q27 -12 41 -22
q7 -5 19.5 -12.5t15.5 -9.5q16 -10 33 -10q20 0 32 12t12 31zM33 350l-3 -2q0 78 29 147q29 68 78 116t116 75q66 27 141 27t141 -27q67 -27 116 -75q50 -48 78 -115q29 -69 29 -147q0 -81 -28 -147q-28 -67 -78 -115q-49 -48 -116 -75q-67 -26 -141 -26t-141 26
q-65 27 -115 75q-49 48 -78 116q-28 66 -28 147zM233 350q0 -40 12 -71t33 -54q22 -23 51 -35q30 -12 68 -12t68 12q29 12 51 35t32 54q11 33 11 71q0 79 -43 126q-44 48 -120 48t-120 -48q-43 -47 -43 -126z" />
    <glyph glyph-name="Odieresis" unicode="&#xd6;" horiz-adv-x="792" 
d="M255 767h-1q-33 0 -58 23q-24 22 -24 57q0 34 24 58t59 24t57 -24q23 -25 23 -58q0 -34 -23 -57t-57 -23zM533 767q-34 0 -57 23t-23 57q0 33 23 58q22 24 57 24q34 0 58 -24t24 -58q0 -35 -24 -57q-25 -23 -58 -23zM33 350l-3 -2q0 78 29 147q29 68 78 116t116 75
q66 27 141 27t141 -27q67 -27 116 -75q50 -48 78 -115q29 -69 29 -147q0 -81 -28 -147q-28 -67 -78 -115q-49 -48 -116 -75q-67 -26 -141 -26t-141 26q-65 27 -115 75q-49 48 -78 116q-28 66 -28 147zM233 350q0 -40 12 -71t33 -54q22 -23 51 -35q30 -12 68 -12t68 12
q29 12 51 35t32 54q11 33 11 71q0 79 -43 126q-44 48 -120 48t-120 -48q-43 -47 -43 -126z" />
    <glyph glyph-name="multiply" unicode="&#xd7;" horiz-adv-x="698" 
d="M457 583l128 -128l-108 -108l107 -108l-128 -129l-107 108l-106 -105l-128 128l106 106l-107 105l128 128l107 -105z" />
    <glyph glyph-name="Oslash" unicode="&#xd8;" horiz-adv-x="792" 
d="M719 629l-38 -49l-3 1q37 -45 58 -105q21 -58 21 -126q0 -81 -28 -147q-28 -67 -78 -115q-49 -48 -116 -75q-67 -26 -141 -26q-77 0 -147 28l-38 -48l-136 102l37 48q-38 48 -59 105q-21 58 -21 128q0 78 29 147q29 68 78 116t116 75q66 27 141 27q81 0 153 -31l36 47z
M242 286l182 237h-1q-10 2 -13 2h-14q-76 0 -120 -48q-43 -47 -43 -126q0 -35 9 -65zM552 409l-178 -232v1q3 -1 11 -1h12q38 0 68 12q29 12 51 35t32 54q11 33 11 71q0 36 -7 60z" />
    <glyph glyph-name="Ugrave" unicode="&#xd9;" horiz-adv-x="755" 
d="M430 724l-256 103l65 128l246 -131zM501 700h192v-383q0 -78 -23 -141q-22 -62 -65 -104q-42 -42 -100 -63q-60 -20 -127 -20q-69 0 -129 20q-58 21 -100 63q-43 42 -65 104q-23 63 -23 141v383h192v-378q0 -83 32 -120q31 -36 92 -36t92 36q32 37 32 120v378z" />
    <glyph glyph-name="Uacute" unicode="&#xda;" horiz-adv-x="755" 
d="M491 955l65 -128l-256 -103l-55 100zM501 700h192v-383q0 -78 -23 -141q-22 -62 -65 -104q-42 -42 -100 -63q-60 -20 -127 -20q-69 0 -129 20q-58 21 -100 63q-43 42 -65 104q-23 63 -23 141v383h192v-378q0 -83 32 -120q31 -36 92 -36t92 36q32 37 32 120v378z" />
    <glyph glyph-name="Ucircumflex" unicode="&#xdb;" horiz-adv-x="755" 
d="M168 814l205 175l205 -175l-91 -92l-114 93l-113 -93zM501 700h192v-383q0 -78 -23 -141q-22 -62 -65 -104q-42 -42 -100 -63q-60 -20 -127 -20q-69 0 -129 20q-58 21 -100 63q-43 42 -65 104q-23 63 -23 141v383h192v-378q0 -83 32 -120q31 -36 92 -36t92 36
q32 37 32 120v378z" />
    <glyph glyph-name="Udieresis" unicode="&#xdc;" horiz-adv-x="755" 
d="M235 769h-1q-33 0 -58 23q-24 22 -24 57q0 34 24 58t59 24t57 -24q23 -25 23 -58q0 -34 -23 -57t-57 -23zM513 769q-34 0 -57 23t-23 57q0 33 23 58q22 24 57 24q34 0 58 -24t24 -58q0 -35 -24 -57q-25 -23 -58 -23zM501 700h192v-383q0 -78 -23 -141q-22 -62 -65 -104
q-42 -42 -100 -63q-60 -20 -127 -20q-69 0 -129 20q-58 21 -100 63q-43 42 -65 104q-23 63 -23 141v383h192v-378q0 -83 32 -120q31 -36 92 -36t92 36q32 37 32 120v378z" />
    <glyph glyph-name="Yacute" unicode="&#xdd;" horiz-adv-x="742" 
d="M483 955l65 -128l-256 -103l-55 100zM519 700h214l-267 -399v-301h-191v301l-267 399h215l113 -175q33 -50 34 -50h1q2 0 34 50z" />
    <glyph glyph-name="Thorn" unicode="&#xde;" horiz-adv-x="662" 
d="M265 595h87q64 0 117 -18t90 -51q37 -32 58 -78q21 -45 21 -98t-21 -98q-21 -46 -58 -78q-37 -33 -90 -51t-117 -18h-87v-104h-192v700h192v-106zM266 284h91l-1 1q40 0 60 18t20 47t-19 47t-60 18h-91v-131z" />
    <glyph glyph-name="germandbls" unicode="&#xdf;" horiz-adv-x="847" 
d="M74 700h674l-92 -181l-18 -36l-8.5 -17t-7.5 -16l-12 -24l-4 -9l1 -1h3q40 0 75 -16q36 -16 65 -44q28 -27 46 -64q18 -38 18 -78q0 -45 -17 -88q-16 -40 -50 -73q-32 -30 -80 -49q-48 -17 -107 -17q-81 0 -146 37q-63 38 -99 96l182 49q14 -10 26 -15t27 -5q22 0 35 6
t21 15q8 10 11 21q3 12 3 26q0 26 -19 45t-57 19h-125v137l15 38q6 15 20 45q9 19 9 21l-1 1q-8 0 -21 -1t-42 -1h-133v-521h-192v700z" />
    <glyph glyph-name="agrave" unicode="&#xe0;" horiz-adv-x="719" 
d="M464 824l-55 -100l-256 103l65 128zM515 0l-31 90h-253l-31 -90h-206l272 700h183l273 -700h-207zM290 257h139l-37 102q-7 17 -12 34q-2 5 -10 36q-2 6 -4.5 15.5t-3.5 11.5l-3 11h-1l-3 -11q-1 -2 -3.5 -11.5t-4.5 -15.5q-8 -31 -10 -36q-2 -7 -6.5 -18t-5.5 -16z" />
    <glyph glyph-name="aacute" unicode="&#xe1;" horiz-adv-x="719" 
d="M535 827l-256 -103l-55 100l246 131zM515 0l-31 90h-253l-31 -90h-206l272 700h183l273 -700h-207zM290 257h139l-37 102q-7 17 -12 34q-2 5 -10 36q-2 6 -4.5 15.5t-3.5 11.5l-3 11h-1l-3 -11q-1 -2 -3.5 -11.5t-4.5 -15.5q-8 -31 -10 -36q-2 -7 -6.5 -18t-5.5 -16z" />
    <glyph glyph-name="acircumflex" unicode="&#xe2;" horiz-adv-x="719" 
d="M352 815l-113 -93l-92 92l205 175l205 -175l-91 -92zM515 0l-31 90h-253l-31 -90h-206l272 700h183l273 -700h-207zM290 257h139l-37 102q-7 17 -12 34q-2 5 -10 36q-2 6 -4.5 15.5t-3.5 11.5l-3 11h-1l-3 -11q-1 -2 -3.5 -11.5t-4.5 -15.5q-8 -31 -10 -36
q-2 -7 -6.5 -18t-5.5 -16z" />
    <glyph glyph-name="atilde" unicode="&#xe3;" horiz-adv-x="719" 
d="M473 906h147l-3 -1q0 -37 -12 -69q-12 -31 -35 -54q-22 -22 -54 -36q-30 -13 -69 -13q-30 0 -51 10q-27 12 -41 22q-7 5 -19.5 12.5t-15.5 9.5q-16 10 -34 10q-19 0 -31 -12t-12 -30h-148q0 39 13 69q14 32 36 54t54 36q30 13 69 13q32 0 53 -10q27 -12 41 -22
q7 -5 19.5 -12.5t15.5 -9.5q16 -10 33 -10q20 0 32 12t12 31zM515 0l-31 90h-253l-31 -90h-206l272 700h183l273 -700h-207zM290 257h139l-37 102q-7 17 -12 34q-2 5 -10 36q-2 6 -4.5 15.5t-3.5 11.5l-3 11h-1l-3 -11q-1 -2 -3.5 -11.5t-4.5 -15.5q-8 -31 -10 -36
q-2 -7 -6.5 -18t-5.5 -16z" />
    <glyph glyph-name="adieresis" unicode="&#xe4;" horiz-adv-x="719" 
d="M214 769h-1q-33 0 -58 23q-24 22 -24 57q0 34 24 58t59 24q34 0 57 -24q23 -25 23 -58q0 -34 -23 -57t-57 -23zM492 769q-34 0 -57 23t-23 57q0 33 23 58q23 24 57 24t58 -24t24 -58q0 -35 -24 -57q-25 -23 -58 -23zM515 0l-31 90h-253l-31 -90h-206l272 700h183
l273 -700h-207zM290 257h139l-37 102q-7 17 -12 34q-2 5 -10 36q-2 6 -4.5 15.5t-3.5 11.5l-3 11h-1l-3 -11q-1 -2 -3.5 -11.5t-4.5 -15.5q-8 -31 -10 -36q-2 -7 -6.5 -18t-5.5 -16z" />
    <glyph glyph-name="aring" unicode="&#xe5;" horiz-adv-x="719" 
d="M515 0l-31 90l-254 -1l-31 -89h-206l272 699h2q-33 23 -54 58q-21 36 -21 78q0 34 13 63q13 30 36 51q24 22 52 35q29 13 63 13t63 -13q30 -14 52 -34q23 -22 35 -51q12 -30 12 -63q0 -41 -20 -78q-19 -35 -53 -58h4l273 -700h-207zM357 890q-20 0 -35 -15t-15 -38
q0 -19 15 -36q15 -16 35 -16q23 0 38 16q15 17 15 36q0 23 -15 38t-38 15zM290 257h139l-37 102q-7 17 -12 34q-2 5 -10 36q-2 6 -4.5 15.5t-3.5 11.5l-3 11h-1l-3 -11q-1 -2 -3.5 -11.5t-4.5 -15.5q-8 -31 -10 -36q-2 -7 -6.5 -18t-5.5 -16z" />
    <glyph glyph-name="ae" unicode="&#xe6;" horiz-adv-x="1033" 
d="M625 178h335v-178h-520v89h-208l-30 -89h-207l271 699h688v-179h-329v-87h255v-168h-255v-87zM289 257h151l-1 263h-63l-5 -15q-2 -6 -6.5 -19t-6.5 -19q-2 -7 -7.5 -24t-8.5 -26t-9 -26t-8 -24z" />
    <glyph glyph-name="ccedilla" unicode="&#xe7;" horiz-adv-x="752" 
d="M531 243l195 -50l-6 -5q-39 -83 -114 -139q-74 -54 -172 -65l-17 -46q23 0 41 -7q20 -8 35 -21q15 -14 24 -34q9 -21 9 -46q0 -34 -10 -55q-10 -23 -27 -36q-16 -13 -39 -19q-22 -6 -46 -6h-138l38 98h100q13 0 18 5q4 4 4 11q0 17 -22 17h-119l49 142q-66 11 -120 40
q-55 30 -96 77q-40 45 -64 108q-24 62 -24 134q0 78 29 147q29 68 78 116t116 75q66 27 141 27q54 0 100 -13q45 -13 88 -38q41 -24 74 -59q35 -36 56 -76l-196 -51q-21 23 -55 36q-33 13 -66 13q-40 0 -69 -13q-31 -14 -51 -37t-31 -55q-11 -33 -11 -69q0 -81 45 -126
t117 -45q43 0 80 18q38 18 56 47z" />
    <glyph glyph-name="egrave" unicode="&#xe8;" horiz-adv-x="673" 
d="M460 824l-55 -100l-256 103l65 128zM266 179h334v-179h-526v700h520v-179h-328v-87h255v-168h-255v-87z" />
    <glyph glyph-name="eacute" unicode="&#xe9;" horiz-adv-x="673" 
d="M531 827l-256 -103l-55 100l246 131zM266 179h334v-179h-526v700h520v-179h-328v-87h255v-168h-255v-87z" />
    <glyph glyph-name="ecircumflex" unicode="&#xea;" horiz-adv-x="673" 
d="M348 815l-113 -93l-92 92l205 175l205 -175l-91 -92zM266 179h334v-179h-526v700h520v-179h-328v-87h255v-168h-255v-87z" />
    <glyph glyph-name="edieresis" unicode="&#xeb;" horiz-adv-x="673" 
d="M210 769h-1q-33 0 -58 23q-24 22 -24 57q0 34 24 58t59 24q34 0 57 -24q23 -25 23 -58q0 -34 -23 -57t-57 -23zM488 769q-34 0 -57 23t-23 57q0 33 23 58q23 24 57 24t58 -24t24 -58q0 -35 -24 -57q-25 -23 -58 -23zM266 179h334v-179h-526v700h520v-179h-328v-87h255
v-168h-255v-87z" />
    <glyph glyph-name="igrave" unicode="&#xec;" horiz-adv-x="339" 
d="M222 724l-255 103l64 128l246 -131zM266 0h-192v700h192v-700z" />
    <glyph glyph-name="iacute" unicode="&#xed;" horiz-adv-x="339" 
d="M283 955l65 -128l-256 -103l-55 100zM266 0h-192v700h192v-700z" />
    <glyph glyph-name="icircumflex" unicode="&#xee;" horiz-adv-x="339" 
d="M-39 814l204 175l205 -175l-91 -92l-114 93l-113 -93zM266 0h-192v700h192v-700z" />
    <glyph glyph-name="idieresis" unicode="&#xef;" horiz-adv-x="339" 
d="M27 769h-1q-32 0 -57 23q-24 22 -24 57q0 34 24 58t58 24q35 0 57 -24q23 -25 23 -58q0 -34 -23 -57t-57 -23zM305 769q-34 0 -57 23t-23 57q0 33 23 58q22 24 57 24q34 0 58 -24t24 -58q0 -35 -24 -57q-25 -23 -58 -23zM266 0h-192v700h192v-700z" />
    <glyph glyph-name="eth" unicode="&#xf0;" horiz-adv-x="794" 
d="M90 701h309l-2 -2q76 0 141 -25t115 -72q49 -46 78 -111q29 -66 29 -144q0 -81 -28 -144q-28 -64 -78 -109q-49 -45 -116 -69q-66 -24 -141 -24h-307v267h-58v172h58v261zM283 179h115l-1 1q32 0 63 11q28 10 52 32q22 21 36 53q14 33 14 72q0 42 -13 72q-13 32 -36 54
q-24 24 -52 35q-30 12 -61 12h-117v-82h87v-172h-87v-88z" />
    <glyph glyph-name="ntilde" unicode="&#xf1;" 
d="M511 902h147l-3 -1q0 -37 -12 -69q-12 -31 -35 -54q-22 -22 -54 -36q-30 -13 -69 -13q-30 0 -51 10q-27 12 -41 22q-7 5 -19.5 12.5t-15.5 9.5q-16 10 -34 10q-19 0 -31 -12t-12 -30h-148q0 39 13 69q14 32 36 54t54 36q30 13 69 13q32 0 53 -10q27 -12 41 -22
q7 -5 19.5 -12.5t15.5 -9.5q16 -10 33 -10q20 0 32 12t12 31zM525 700h192v-703h-181l-96 132q-24 33 -54 75q-48 66 -56 79q-12 18 -44 63l-18 25h-1v-20v-57v-88v-113v-95h-192v699h180l104 -139q11 -14 27 -36q30 -41 35 -48l36 -51q7 -10 18.5 -26t14.5 -20
q3 -5 11.5 -17t12.5 -17l10 -13h1v23v60v86v99v102z" />
    <glyph glyph-name="ograve" unicode="&#xf2;" horiz-adv-x="792" 
d="M448 722l-256 103l65 128l246 -131zM33 350l-3 -2q0 78 29 147q29 68 78 116t116 75q66 27 141 27t141 -27q67 -27 116 -75q50 -48 78 -115q29 -69 29 -147q0 -81 -28 -147q-28 -67 -78 -115q-49 -48 -116 -75q-67 -26 -141 -26t-141 26q-65 27 -115 75q-49 48 -78 116
q-28 66 -28 147zM233 350q0 -40 12 -71t33 -54q22 -23 51 -35q30 -12 68 -12t68 12q29 12 51 35t32 54q11 33 11 71q0 79 -43 126q-44 48 -120 48t-120 -48q-43 -47 -43 -126z" />
    <glyph glyph-name="oacute" unicode="&#xf3;" horiz-adv-x="792" 
d="M509 953l65 -128l-256 -103l-55 100zM33 350l-3 -2q0 78 29 147q29 68 78 116t116 75q66 27 141 27t141 -27q67 -27 116 -75q50 -48 78 -115q29 -69 29 -147q0 -81 -28 -147q-28 -67 -78 -115q-49 -48 -116 -75q-67 -26 -141 -26t-141 26q-65 27 -115 75q-49 48 -78 116
q-28 66 -28 147zM233 350q0 -40 12 -71t33 -54q22 -23 51 -35q30 -12 68 -12t68 12q29 12 51 35t32 54q11 33 11 71q0 79 -43 126q-44 48 -120 48t-120 -48q-43 -47 -43 -126z" />
    <glyph glyph-name="ocircumflex" unicode="&#xf4;" horiz-adv-x="792" 
d="M186 812l205 175l205 -175l-91 -92l-114 93l-113 -93zM33 350l-3 -2q0 78 29 147q29 68 78 116t116 75q66 27 141 27t141 -27q67 -27 116 -75q50 -48 78 -115q29 -69 29 -147q0 -81 -28 -147q-28 -67 -78 -115q-49 -48 -116 -75q-67 -26 -141 -26t-141 26q-65 27 -115 75
q-49 48 -78 116q-28 66 -28 147zM233 350q0 -40 12 -71t33 -54q22 -23 51 -35q30 -12 68 -12t68 12q29 12 51 35t32 54q11 33 11 71q0 79 -43 126q-44 48 -120 48t-120 -48q-43 -47 -43 -126z" />
    <glyph glyph-name="otilde" unicode="&#xf5;" horiz-adv-x="792" 
d="M512 904h147l-3 -1q0 -37 -12 -69q-12 -31 -35 -54q-23 -22 -54 -36q-30 -13 -69 -13q-30 0 -51 10q-27 12 -41 22q-7 5 -19.5 12.5t-15.5 9.5q-16 10 -34 10q-19 0 -31 -12t-12 -30h-148q0 39 13 69q13 32 36 54t54 36q30 13 69 13q32 0 53 -10q27 -12 41 -22
q7 -5 19.5 -12.5t15.5 -9.5q16 -10 33 -10q20 0 32 12t12 31zM33 350l-3 -2q0 78 29 147q29 68 78 116t116 75q66 27 141 27t141 -27q67 -27 116 -75q50 -48 78 -115q29 -69 29 -147q0 -81 -28 -147q-28 -67 -78 -115q-49 -48 -116 -75q-67 -26 -141 -26t-141 26
q-65 27 -115 75q-49 48 -78 116q-28 66 -28 147zM233 350q0 -40 12 -71t33 -54q22 -23 51 -35q30 -12 68 -12t68 12q29 12 51 35t32 54q11 33 11 71q0 79 -43 126q-44 48 -120 48t-120 -48q-43 -47 -43 -126z" />
    <glyph glyph-name="odieresis" unicode="&#xf6;" horiz-adv-x="792" 
d="M253 767h-1q-33 0 -58 23q-24 22 -24 57q0 34 24 58t59 24t57 -24q23 -25 23 -58q0 -34 -23 -57t-57 -23zM531 767q-34 0 -57 23t-23 57q0 33 23 58q22 24 57 24q34 0 58 -24t24 -58q0 -35 -24 -57q-25 -23 -58 -23zM33 350l-3 -2q0 78 29 147q29 68 78 116t116 75
q66 27 141 27t141 -27q67 -27 116 -75q50 -48 78 -115q29 -69 29 -147q0 -81 -28 -147q-28 -67 -78 -115q-49 -48 -116 -75q-67 -26 -141 -26t-141 26q-65 27 -115 75q-49 48 -78 116q-28 66 -28 147zM233 350q0 -40 12 -71t33 -54q22 -23 51 -35q30 -12 68 -12t68 12
q29 12 51 35t32 54q11 33 11 71q0 79 -43 126q-44 48 -120 48t-120 -48q-43 -47 -43 -126z" />
    <glyph glyph-name="divide" unicode="&#xf7;" horiz-adv-x="698" 
d="M342 491l-2 -1q-35 0 -61 26q-25 25 -25 63q0 19 7 33q8 16 19 27q12 12 28 18t34 6t33 -6t27 -18q11 -11 19 -27q7 -14 7 -33q0 -38 -25 -63t-61 -25zM123 431h451v-156h-451v156zM344 41l-2 -1q-35 0 -61 26q-25 25 -25 63q0 19 7 33q8 16 19 27q12 12 28 18t34 6
t33 -6t27 -18q11 -11 19 -27q7 -14 7 -33q0 -38 -25 -63t-61 -25z" />
    <glyph glyph-name="oslash" unicode="&#xf8;" horiz-adv-x="792" 
d="M719 629l-38 -49l-3 1q37 -45 58 -105q21 -58 21 -126q0 -81 -28 -147q-28 -67 -78 -115q-49 -48 -116 -75q-67 -26 -141 -26q-77 0 -147 28l-38 -48l-136 102l37 48q-38 48 -59 105q-21 58 -21 128q0 78 29 147q29 68 78 116t116 75q66 27 141 27q81 0 153 -31l36 47z
M242 286l182 237h-1q-10 2 -13 2h-14q-76 0 -120 -48q-43 -47 -43 -126q0 -35 9 -65zM552 409l-178 -232v1q3 -1 11 -1h12q38 0 68 12q29 12 51 35t32 54q11 33 11 71q0 36 -7 60z" />
    <glyph glyph-name="ugrave" unicode="&#xf9;" horiz-adv-x="755" 
d="M430 724l-256 103l65 128l246 -131zM501 700h192v-383q0 -78 -23 -141q-22 -62 -65 -104q-42 -42 -100 -63q-60 -20 -127 -20q-69 0 -129 20q-58 21 -100 63q-43 42 -65 104q-23 63 -23 141v383h192v-378q0 -83 32 -120q31 -36 92 -36t92 36q32 37 32 120v378z" />
    <glyph glyph-name="uacute" unicode="&#xfa;" horiz-adv-x="755" 
d="M491 955l65 -128l-256 -103l-55 100zM501 700h192v-383q0 -78 -23 -141q-22 -62 -65 -104q-42 -42 -100 -63q-60 -20 -127 -20q-69 0 -129 20q-58 21 -100 63q-43 42 -65 104q-23 63 -23 141v383h192v-378q0 -83 32 -120q31 -36 92 -36t92 36q32 37 32 120v378z" />
    <glyph glyph-name="ucircumflex" unicode="&#xfb;" horiz-adv-x="755" 
d="M168 814l205 175l205 -175l-91 -92l-114 93l-113 -93zM501 700h192v-383q0 -78 -23 -141q-22 -62 -65 -104q-42 -42 -100 -63q-60 -20 -127 -20q-69 0 -129 20q-58 21 -100 63q-43 42 -65 104q-23 63 -23 141v383h192v-378q0 -83 32 -120q31 -36 92 -36t92 36
q32 37 32 120v378z" />
    <glyph glyph-name="udieresis" unicode="&#xfc;" horiz-adv-x="755" 
d="M235 769h-1q-33 0 -58 23q-24 22 -24 57q0 34 24 58t59 24t57 -24q23 -25 23 -58q0 -34 -23 -57t-57 -23zM513 769q-34 0 -57 23t-23 57q0 33 23 58q22 24 57 24q34 0 58 -24t24 -58q0 -35 -24 -57q-25 -23 -58 -23zM501 700h192v-383q0 -78 -23 -141q-22 -62 -65 -104
q-42 -42 -100 -63q-60 -20 -127 -20q-69 0 -129 20q-58 21 -100 63q-43 42 -65 104q-23 63 -23 141v383h192v-378q0 -83 32 -120q31 -36 92 -36t92 36q32 37 32 120v378z" />
    <glyph glyph-name="yacute" unicode="&#xfd;" horiz-adv-x="742" 
d="M484 955l65 -128l-256 -103l-55 100zM519 700h214l-267 -399v-301h-191v301l-267 399h215l113 -175q33 -50 34 -50h1q2 0 34 50z" />
    <glyph glyph-name="thorn" unicode="&#xfe;" horiz-adv-x="662" 
d="M265 595h87q64 0 117 -18t90 -51q37 -32 58 -78q21 -45 21 -98t-21 -98q-21 -46 -58 -78q-37 -33 -90 -51t-117 -18h-87v-104h-192v700h192v-106zM266 284h91l-1 1q40 0 60 18t20 47t-19 47t-60 18h-91v-131z" />
    <glyph glyph-name="ydieresis" unicode="&#xff;" horiz-adv-x="742" 
d="M228 769h-1q-33 0 -58 23q-24 22 -24 57q0 34 24 58t59 24q34 0 57 -24q23 -25 23 -58q0 -34 -23 -57t-57 -23zM506 769q-34 0 -57 23t-23 57q0 33 23 58q23 24 57 24t58 -24t24 -58q0 -35 -24 -57q-25 -23 -58 -23zM519 700h214l-267 -399v-301h-191v301l-267 399h215
l113 -175q33 -50 34 -50h1q2 0 34 50z" />
    <glyph glyph-name="Amacron" unicode="&#x100;" horiz-adv-x="719" 
d="M538 909v-147h-353v147h353zM515 0l-31 90h-253l-31 -90h-206l272 700h183l273 -700h-207zM290 257h139l-37 102q-7 17 -12 34q-2 5 -10 36q-2 6 -4.5 15.5t-3.5 11.5l-3 11h-1l-3 -11q-1 -2 -3.5 -11.5t-4.5 -15.5q-8 -31 -10 -36q-2 -7 -6.5 -18t-5.5 -16z" />
    <glyph glyph-name="amacron" unicode="&#x101;" horiz-adv-x="719" 
d="M538 909v-147h-353v147h353zM515 0l-31 90h-253l-31 -90h-206l272 700h183l273 -700h-207zM290 257h139l-37 102q-7 17 -12 34q-2 5 -10 36q-2 6 -4.5 15.5t-3.5 11.5l-3 11h-1l-3 -11q-1 -2 -3.5 -11.5t-4.5 -15.5q-8 -31 -10 -36q-2 -7 -6.5 -18t-5.5 -16z" />
    <glyph glyph-name="Abreve" unicode="&#x102;" horiz-adv-x="719" 
d="M425 906h137h-2q-9 -37 -28 -66q-20 -31 -46 -51q-27 -21 -61 -33q-35 -12 -72 -12q-41 0 -75 12t-61 33t-45 51q-19 31 -26 66h140q5 -17 23 -32t47 -15q28 0 46 15t23 32zM515 0l-31 90h-253l-31 -90h-206l272 700h183l273 -700h-207zM290 257h139l-37 102
q-7 17 -12 34q-2 5 -10 36q-2 6 -4.5 15.5t-3.5 11.5l-3 11h-1l-3 -11q-1 -2 -3.5 -11.5t-4.5 -15.5q-8 -31 -10 -36q-2 -7 -6.5 -18t-5.5 -16z" />
    <glyph glyph-name="abreve" unicode="&#x103;" horiz-adv-x="719" 
d="M425 906h137h-2q-9 -37 -28 -66q-20 -31 -46 -51q-27 -21 -61 -33q-35 -12 -72 -12q-41 0 -75 12t-61 33t-45 51q-19 31 -26 66h140q5 -17 23 -32t47 -15q28 0 46 15t23 32zM515 0l-31 90h-253l-31 -90h-206l272 700h183l273 -700h-207zM290 257h139l-37 102
q-7 17 -12 34q-2 5 -10 36q-2 6 -4.5 15.5t-3.5 11.5l-3 11h-1l-3 -11q-1 -2 -3.5 -11.5t-4.5 -15.5q-8 -31 -10 -36q-2 -7 -6.5 -18t-5.5 -16z" />
    <glyph glyph-name="Aogonek" unicode="&#x104;" horiz-adv-x="719" 
d="M659 -76l97 -66l2 -3q-16 -28 -36 -47q-21 -20 -45 -33q-23 -13 -49 -19t-49 -6q-40 0 -78 11q-36 11 -63 33t-42 54t-15 74q0 33 12 60q12 26 30 46q19 21 36 32q19 13 30 14l-5 15h-253l-31 -89h-206l272 699h183l273 -699h-103q-19 0 -35 -4q-15 -4 -34 -14
q-16 -9 -27 -24q-10 -14 -10 -34t15 -36q15 -17 49 -17q20 0 45 14q23 13 37 39zM290 257h139l-37 102q-7 17 -12 34q-2 5 -10 36q-2 6 -4.5 15.5t-3.5 11.5l-3 11h-1l-3 -11q-1 -2 -3.5 -11.5t-4.5 -15.5q-8 -31 -10 -36q-2 -7 -6.5 -18t-5.5 -16z" />
    <glyph glyph-name="aogonek" unicode="&#x105;" horiz-adv-x="719" 
d="M659 -76l97 -66l2 -3q-16 -28 -36 -47q-21 -20 -45 -33q-23 -13 -49 -19t-49 -6q-40 0 -78 11q-36 11 -63 33t-42 54t-15 74q0 33 12 60q12 26 30 46q19 21 36 32q19 13 30 14l-5 15h-253l-31 -89h-206l272 699h183l273 -699h-103q-19 0 -35 -4q-15 -4 -34 -14
q-16 -9 -27 -24q-10 -14 -10 -34t15 -36q15 -17 49 -17q20 0 45 14q23 13 37 39zM290 257h139l-37 102q-7 17 -12 34q-2 5 -10 36q-2 6 -4.5 15.5t-3.5 11.5l-3 11h-1l-3 -11q-1 -2 -3.5 -11.5t-4.5 -15.5q-8 -31 -10 -36q-2 -7 -6.5 -18t-5.5 -16z" />
    <glyph glyph-name="Cacute" unicode="&#x106;" horiz-adv-x="752" 
d="M504 949l65 -128l-256 -103l-55 100zM714 527l-196 -51l-5 -6q-21 23 -55 36q-33 13 -66 13q-40 0 -69 -13q-31 -14 -51 -37t-31 -55q-11 -33 -11 -69q0 -81 45 -126t117 -45q42 0 80 18t56 47l195 -50q-23 -48 -55 -84q-34 -39 -75 -65q-43 -28 -93 -41
q-51 -15 -106 -15q-74 0 -141 26q-65 27 -115 75q-49 48 -78 116q-28 66 -28 147q0 78 29 147q29 68 78 116t116 75q66 27 141 27q54 0 100 -13q45 -13 88 -38q41 -24 74 -59q35 -36 56 -76z" />
    <glyph glyph-name="cacute" unicode="&#x107;" horiz-adv-x="752" 
d="M504 949l65 -128l-256 -103l-55 100zM714 527l-196 -51l-5 -6q-21 23 -55 36q-33 13 -66 13q-40 0 -69 -13q-31 -14 -51 -37t-31 -55q-11 -33 -11 -69q0 -81 45 -126t117 -45q42 0 80 18t56 47l195 -50q-23 -48 -55 -84q-34 -39 -75 -65q-43 -28 -93 -41
q-51 -15 -106 -15q-74 0 -141 26q-65 27 -115 75q-49 48 -78 116q-28 66 -28 147q0 78 29 147q29 68 78 116t116 75q66 27 141 27q54 0 100 -13q45 -13 88 -38q41 -24 74 -59q35 -36 56 -76z" />
    <glyph glyph-name="Cdotaccent" unicode="&#x10a;" horiz-adv-x="752" 
d="M391 762q-34 0 -58 24t-24 58t24 58t58 24t58 -24t24 -58t-24 -58t-58 -24zM714 527l-196 -51l-5 -6q-21 23 -55 36q-33 13 -66 13q-40 0 -69 -13q-31 -14 -51 -37t-31 -55q-11 -33 -11 -69q0 -81 45 -126t117 -45q42 0 80 18t56 47l195 -50q-23 -48 -55 -84
q-34 -39 -75 -65q-43 -28 -93 -41q-51 -15 -106 -15q-74 0 -141 26q-65 27 -115 75q-49 48 -78 116q-28 66 -28 147q0 78 29 147q29 68 78 116t116 75q66 27 141 27q54 0 100 -13q45 -13 88 -38q41 -24 74 -59q35 -36 56 -76z" />
    <glyph glyph-name="cdotaccent" unicode="&#x10b;" horiz-adv-x="752" 
d="M391 762q-34 0 -58 24t-24 58t24 58t58 24t58 -24t24 -58t-24 -58t-58 -24zM714 527l-196 -51l-5 -6q-21 23 -55 36q-33 13 -66 13q-40 0 -69 -13q-31 -14 -51 -37t-31 -55q-11 -33 -11 -69q0 -81 45 -126t117 -45q42 0 80 18t56 47l195 -50q-23 -48 -55 -84
q-34 -39 -75 -65q-43 -28 -93 -41q-51 -15 -106 -15q-74 0 -141 26q-65 27 -115 75q-49 48 -78 116q-28 66 -28 147q0 78 29 147q29 68 78 116t116 75q66 27 141 27q54 0 100 -13q45 -13 88 -38q41 -24 74 -59q35 -36 56 -76z" />
    <glyph glyph-name="Ccaron" unicode="&#x10c;" horiz-adv-x="752" 
d="M518 476l196 51h-4q-22 42 -56 77q-33 35 -74 59q-43 25 -88 38q-50 14 -100 14q-75 0 -141 -27q-65 -27 -115 -75t-78 -115q-28 -66 -28 -147q0 -78 29 -147q28 -67 78 -115q49 -48 116 -75q67 -26 141 -26q53 0 106 14q51 15 93 42q41 26 75 65t56 84l-195 50
q-18 -28 -55 -46q-38 -18 -79 -18q-72 0 -117 45t-45 126q0 36 11 69q10 31 32 56q20 23 51 37q29 13 69 13q33 0 66 -13q35 -14 56 -36zM396 721l-206 175l92 92l114 -93l113 93l91 -92z" />
    <glyph glyph-name="ccaron" unicode="&#x10d;" horiz-adv-x="752" 
d="M518 476l196 51h-4q-22 42 -56 77q-33 35 -74 59q-43 25 -88 38q-50 14 -100 14q-75 0 -141 -27q-65 -27 -115 -75t-78 -115q-28 -66 -28 -147q0 -78 29 -147q28 -67 78 -115q49 -48 116 -75q67 -26 141 -26q53 0 106 14q51 15 93 42q41 26 75 65t56 84l-195 50
q-18 -28 -55 -46q-38 -18 -79 -18q-72 0 -117 45t-45 126q0 36 11 69q10 31 32 56q20 23 51 37q29 13 69 13q33 0 66 -13q35 -14 56 -36zM396 721l-206 175l92 92l114 -93l113 93l91 -92z" />
    <glyph glyph-name="Dcaron" unicode="&#x10e;" horiz-adv-x="777" 
d="M381 179h-115l-1 341h117q32 0 62 -12q28 -11 52 -35q22 -23 36 -54q13 -30 13 -72t-13 -72q-14 -32 -36 -53q-24 -22 -52 -32q-31 -11 -63 -11zM383 700h-309v-700h307q75 0 141 24q67 24 116 69t78 110q29 66 29 144q0 81 -28 144q-29 65 -78 111q-50 47 -115 72
q-67 26 -141 26zM387 721l-206 175l92 92l114 -93l113 93l91 -92z" />
    <glyph glyph-name="dcaron" unicode="&#x10f;" horiz-adv-x="777" 
d="M381 179h-115l-1 341h117q32 0 62 -12q28 -11 52 -35q22 -23 36 -54q13 -30 13 -72t-13 -72q-14 -32 -36 -53q-24 -22 -52 -32q-31 -11 -63 -11zM383 700h-309v-700h307q75 0 141 24q67 24 116 69t78 110q29 66 29 144q0 81 -28 144q-29 65 -78 111q-50 47 -115 72
q-67 26 -141 26zM387 721l-206 175l92 92l114 -93l113 93l91 -92z" />
    <glyph glyph-name="Dcroat" unicode="&#x110;" horiz-adv-x="794" 
d="M90 701h309l-2 -2q76 0 141 -25t115 -72q49 -46 78 -111q29 -66 29 -144q0 -81 -28 -144q-28 -64 -78 -109q-49 -45 -116 -69q-66 -24 -141 -24h-307v267h-58v172h58v261zM283 179h115l-1 1q32 0 63 11q28 10 52 32q22 21 36 53q14 33 14 72q0 42 -13 72q-13 32 -36 54
q-24 24 -52 35q-30 12 -61 12h-117v-82h87v-172h-87v-88z" />
    <glyph glyph-name="dcroat" unicode="&#x111;" horiz-adv-x="794" 
d="M90 701h309l-2 -2q76 0 141 -25t115 -72q49 -46 78 -111q29 -66 29 -144q0 -81 -28 -144q-28 -64 -78 -109q-49 -45 -116 -69q-66 -24 -141 -24h-307v267h-58v172h58v261zM283 179h115l-1 1q32 0 63 11q28 10 52 32q22 21 36 53q14 33 14 72q0 42 -13 72q-13 32 -36 54
q-24 24 -52 35q-30 12 -61 12h-117v-82h87v-172h-87v-88z" />
    <glyph glyph-name="Emacron" unicode="&#x112;" horiz-adv-x="673" 
d="M533 909v-147h-353v147h353zM266 179h334v-179h-526v700h520v-179h-328v-87h255v-168h-255v-87z" />
    <glyph glyph-name="emacron" unicode="&#x113;" horiz-adv-x="673" 
d="M534 909v-147h-353v147h353zM266 179h334v-179h-526v700h520v-179h-328v-87h255v-168h-255v-87z" />
    <glyph glyph-name="Edotaccent" unicode="&#x116;" horiz-adv-x="673" 
d="M352 768q-34 0 -58 24t-24 58t24 58t58 24t58 -24t24 -58t-24 -58t-58 -24zM266 179h334v-179h-526v700h520v-179h-328v-87h255v-168h-255v-87z" />
    <glyph glyph-name="edotaccent" unicode="&#x117;" horiz-adv-x="673" 
d="M352 768q-34 0 -58 24t-24 58t24 58t58 24t58 -24t24 -58t-24 -58t-58 -24zM266 179h334v-179h-526v700h520v-179h-328v-87h255v-168h-255v-87z" />
    <glyph glyph-name="Eogonek" unicode="&#x118;" horiz-adv-x="673" 
d="M505 -76l97 -66l1 -3q-16 -28 -36 -47q-21 -20 -45 -33q-23 -13 -49 -19q-25 -6 -49 -6q-40 0 -78 11q-36 11 -63 33t-42 54t-15 74q0 22 6 42t15 36h-173v699h520v-179h-328v-87h255v-168h-255v-87h334v-178h-135q-19 0 -35 -4q-15 -4 -34 -14q-16 -9 -27 -24
q-10 -14 -10 -34t15 -36q15 -17 49 -17q20 0 45 14q23 13 37 39z" />
    <glyph glyph-name="eogonek" unicode="&#x119;" horiz-adv-x="673" 
d="M510 -76l97 -66l1 -3q-16 -28 -36 -47q-21 -20 -45 -33q-23 -13 -49 -19t-49 -6q-40 0 -78 11q-36 11 -63 33t-42 54t-15 74q0 22 6 42t15 36h-178v699h520v-179h-328v-87h255v-168h-255v-87h334v-178h-130q-19 0 -35 -4q-15 -4 -34 -14q-17 -9 -27 -24q-10 -14 -10 -34
t15 -36q15 -17 49 -17q20 0 45 14q23 13 37 39z" />
    <glyph glyph-name="Ecaron" unicode="&#x11a;" horiz-adv-x="673" 
d="M556 896l-204 -175l-206 175l92 92l114 -93l113 93zM266 179h334v-179h-526v700h520v-179h-328v-87h255v-168h-255v-87z" />
    <glyph glyph-name="ecaron" unicode="&#x11b;" horiz-adv-x="673" 
d="M557 896l-204 -175l-206 175l92 92l114 -93l113 93zM266 179h334v-179h-526v700h520v-179h-328v-87h255v-168h-255v-87z" />
    <glyph glyph-name="Gcircumflex" unicode="&#x11c;" 
d="M396 812l-113 -93l-92 92l205 175l205 -175l-91 -92zM392 405h339l3 -407h-164v34v9h-1q-17 -17 -39 -27q-25 -12 -45 -17q-20 -7 -45 -10q-22 -3 -42 -3q-74 0 -141 26q-65 27 -115 75q-49 48 -78 116q-28 66 -28 147q0 78 29 147q29 68 78 116t116 75q66 27 141 27
q50 0 96 -12t87 -36q39 -23 75 -59q33 -33 58 -78l-196 -51q-22 23 -57 36q-33 13 -66 13q-40 0 -69 -13q-31 -14 -51 -37t-31 -55q-11 -33 -11 -69q0 -42 13 -74q14 -34 36 -56q23 -23 54 -35q32 -12 69 -12q35 0 59 6q22 6 42 17q18 10 30 24q13 15 20 30h-166v153z" />
    <glyph glyph-name="gcircumflex" unicode="&#x11d;" 
d="M396 812l-113 -93l-92 92l205 175l205 -175l-91 -92zM392 405h339l3 -407h-164v34v9h-1q-17 -17 -39 -27q-25 -12 -45 -17q-20 -7 -45 -10q-22 -3 -42 -3q-74 0 -141 26q-65 27 -115 75q-49 48 -78 116q-28 66 -28 147q0 78 29 147q29 68 78 116t116 75q66 27 141 27
q50 0 96 -12t87 -36q39 -23 75 -59q33 -33 58 -78l-196 -51q-22 23 -57 36q-33 13 -66 13q-40 0 -69 -13q-31 -14 -51 -37t-31 -55q-11 -33 -11 -69q0 -42 13 -74q14 -34 36 -56q23 -23 54 -35q32 -12 69 -12q35 0 59 6q22 6 42 17q18 10 30 24q13 15 20 30h-166v153z" />
    <glyph glyph-name="Gbreve" unicode="&#x11e;" 
d="M469 903h137h-2q-9 -37 -28 -66q-20 -31 -46 -51q-27 -21 -61 -33q-35 -12 -72 -12q-41 0 -75 12t-61 33t-45 51q-19 31 -26 66h140q5 -17 23 -32t47 -15q28 0 46 15t23 32zM392 405h339l3 -407h-164v34v9h-1q-17 -17 -39 -27q-25 -12 -45 -17q-20 -7 -45 -10
q-22 -3 -42 -3q-74 0 -141 26q-65 27 -115 75q-49 48 -78 116q-28 66 -28 147q0 78 29 147q29 68 78 116t116 75q66 27 141 27q50 0 96 -12t87 -36q39 -23 75 -59q33 -33 58 -78l-196 -51q-22 23 -57 36q-33 13 -66 13q-40 0 -69 -13q-31 -14 -51 -37t-31 -55
q-11 -33 -11 -69q0 -42 13 -74q14 -34 36 -56q23 -23 54 -35q32 -12 69 -12q35 0 59 6q22 6 42 17q18 10 30 24q13 15 20 30h-166v153z" />
    <glyph glyph-name="gbreve" unicode="&#x11f;" 
d="M469 903h137h-2q-9 -37 -28 -66q-20 -31 -46 -51q-27 -21 -61 -33q-35 -12 -72 -12q-41 0 -75 12t-61 33t-45 51q-19 31 -26 66h140q5 -17 23 -32t47 -15q28 0 46 15t23 32zM392 405h339l3 -407h-164v34v9h-1q-17 -17 -39 -27q-25 -12 -45 -17q-20 -7 -45 -10
q-22 -3 -42 -3q-74 0 -141 26q-65 27 -115 75q-49 48 -78 116q-28 66 -28 147q0 78 29 147q29 68 78 116t116 75q66 27 141 27q50 0 96 -12t87 -36q39 -23 75 -59q33 -33 58 -78l-196 -51q-22 23 -57 36q-33 13 -66 13q-40 0 -69 -13q-31 -14 -51 -37t-31 -55
q-11 -33 -11 -69q0 -42 13 -74q14 -34 36 -56q23 -23 54 -35q32 -12 69 -12q35 0 59 6q22 6 42 17q18 10 30 24q13 15 20 30h-166v153z" />
    <glyph glyph-name="Gdotaccent" unicode="&#x120;" 
d="M401 765q-34 0 -58 24t-24 58t24 58t58 24t58 -24t24 -58t-24 -58t-58 -24zM392 405h339l3 -407h-164v34v9h-1q-17 -17 -39 -27q-25 -12 -45 -17q-20 -7 -45 -10q-22 -3 -42 -3q-74 0 -141 26q-65 27 -115 75q-49 48 -78 116q-28 66 -28 147q0 78 29 147q29 68 78 116
t116 75q66 27 141 27q50 0 96 -12t87 -36q39 -23 75 -59q33 -33 58 -78l-196 -51q-22 23 -57 36q-33 13 -66 13q-40 0 -69 -13q-31 -14 -51 -37t-31 -55q-11 -33 -11 -69q0 -42 13 -74q14 -34 36 -56q23 -23 54 -35q32 -12 69 -12q35 0 59 6q22 6 42 17q18 10 30 24
q13 15 20 30h-166v153z" />
    <glyph glyph-name="gdotaccent" unicode="&#x121;" 
d="M401 765q-34 0 -58 24t-24 58t24 58t58 24t58 -24t24 -58t-24 -58t-58 -24zM392 405h339l3 -407h-164v34v9h-1q-17 -17 -39 -27q-25 -12 -45 -17q-20 -7 -45 -10q-22 -3 -42 -3q-74 0 -141 26q-65 27 -115 75q-49 48 -78 116q-28 66 -28 147q0 78 29 147q29 68 78 116
t116 75q66 27 141 27q50 0 96 -12t87 -36q39 -23 75 -59q33 -33 58 -78l-196 -51q-22 23 -57 36q-33 13 -66 13q-40 0 -69 -13q-31 -14 -51 -37t-31 -55q-11 -33 -11 -69q0 -42 13 -74q14 -34 36 -56q23 -23 54 -35q32 -12 69 -12q35 0 59 6q22 6 42 17q18 10 30 24
q13 15 20 30h-166v153z" />
    <glyph glyph-name="Gcommaaccent" unicode="&#x122;" 
d="M392 406h339l3 -407h-164v34v9h-1q-17 -16 -39 -27q-25 -12 -45 -17q-20 -7 -45 -10q-22 -3 -42 -3q-74 0 -141 26q-65 27 -115 75q-49 48 -78 116q-28 66 -28 147q0 78 29 147q29 68 78 116t116 75q66 27 141 27q50 0 96 -12t87 -36q39 -23 75 -59q33 -33 58 -78
l-196 -51q-22 22 -57 36q-33 13 -66 13q-40 0 -69 -13q-31 -14 -51 -37t-31 -55q-11 -33 -11 -69q0 -42 13 -74q14 -34 36 -56q23 -23 54 -35q32 -12 69 -12q35 0 59 6q22 6 42 17q18 11 30 24q13 15 20 30h-166v153zM384 -185l-15 2v1q-19 3 -37 21t-18 48q0 31 23 54
t56 23q31 0 54 -24q22 -23 22 -63q0 -21 -9 -45t-24 -48q-13 -20 -35 -46q-17 -20 -44 -40h-60q12 7 25 22q15 16 24 31q12 18 17 33q6 16 6 27z" />
    <glyph glyph-name="gcommaaccent" unicode="&#x123;" 
d="M392 406h339l3 -407h-164v34v9h-1q-17 -16 -39 -27q-25 -12 -45 -17q-20 -7 -45 -10q-22 -3 -42 -3q-74 0 -141 26q-65 27 -115 75q-49 48 -78 116q-28 66 -28 147q0 78 29 147q29 68 78 116t116 75q66 27 141 27q50 0 96 -12t87 -36q39 -23 75 -59q33 -33 58 -78
l-196 -51q-22 22 -57 36q-33 13 -66 13q-40 0 -69 -13q-31 -14 -51 -37t-31 -55q-11 -33 -11 -69q0 -42 13 -74q14 -34 36 -56q23 -23 54 -35q32 -12 69 -12q35 0 59 6q22 6 42 17q18 11 30 24q13 15 20 30h-166v153zM384 -185l-15 2v1q-19 3 -37 21t-18 48q0 31 23 54
t56 23q31 0 54 -24q22 -23 22 -63q0 -21 -9 -45t-24 -48q-13 -20 -35 -46q-17 -20 -44 -40h-60q12 7 25 22q15 16 24 31q12 18 17 33q6 16 6 27z" />
    <glyph glyph-name="Hcircumflex" unicode="&#x124;" horiz-adv-x="760" 
d="M375 815l-113 -93l-92 92l205 175l205 -175l-91 -92zM494 700h192v-700h-192v258h-228v-258h-192v700h192v-263h228v263z" />
    <glyph glyph-name="hcircumflex" unicode="&#x125;" horiz-adv-x="760" 
d="M375 815l-113 -93l-92 92l205 175l205 -175l-91 -92zM494 700h192v-700h-192v258h-228v-258h-192v700h192v-263h228v263z" />
    <glyph glyph-name="Hbar" unicode="&#x126;" horiz-adv-x="760" 
d="M760 642v-156h-74v-486h-192v258h-228v-258h-192v486h-74v156h74v58h192v-58h228v58h192v-58h74zM494 437v49h-228v-49h228z" />
    <glyph glyph-name="hbar" unicode="&#x127;" horiz-adv-x="760" 
d="M760 642v-156h-74v-486h-192v258h-228v-258h-192v486h-74v156h74v58h192v-58h228v58h192v-58h74zM494 437v49h-228v-49h228z" />
    <glyph glyph-name="Imacron" unicode="&#x12a;" horiz-adv-x="339" 
d="M-1 909h352v-147h-352v147zM266 0h-192v700h192v-700z" />
    <glyph glyph-name="imacron" unicode="&#x12b;" horiz-adv-x="339" 
d="M-1 909h352v-147h-352v147zM266 0h-192v700h192v-700z" />
    <glyph glyph-name="Iogonek" unicode="&#x12e;" horiz-adv-x="339" 
d="M245 -76l97 -66l1 -3q-16 -28 -36 -47q-21 -20 -45 -33q-23 -13 -49 -19q-25 -6 -49 -6q-40 0 -78 11q-36 11 -63 33q-25 21 -41 54q-15 32 -15 74q0 32 12 59q10 23 29 45q19 21 36 32q18 12 30 15v626h192v-699h-61q-19 0 -35 -4q-15 -4 -34 -14q-16 -9 -27 -24
q-10 -14 -10 -34t15 -36q15 -17 49 -17q20 0 45 14q23 13 37 39z" />
    <glyph glyph-name="iogonek" unicode="&#x12f;" horiz-adv-x="339" 
d="M245 -76l97 -66l1 -3q-16 -28 -36 -47q-21 -20 -45 -33q-23 -13 -49 -19q-25 -6 -49 -6q-40 0 -78 11q-36 11 -63 33q-25 21 -41 54q-15 32 -15 74q0 32 12 59q10 23 29 45q19 21 36 32q18 12 30 15v626h192v-699h-61q-19 0 -35 -4q-15 -4 -34 -14q-16 -9 -27 -24
q-10 -14 -10 -34t15 -36q15 -17 49 -17q20 0 45 14q23 13 37 39z" />
    <glyph glyph-name="Idotaccent" unicode="&#x130;" horiz-adv-x="339" 
d="M170 768q-34 0 -58 24t-24 58t24 58t58 24t58 -24t24 -58t-24 -58t-58 -24zM266 0h-192v700h192v-700z" />
    <glyph glyph-name="dotlessi" unicode="&#x131;" horiz-adv-x="339" 
d="M266 0h-192v700h192v-700z" />
    <glyph glyph-name="IJ" unicode="&#x132;" horiz-adv-x="1009" 
d="M266 -3h-192v699h192v-699zM754 700h192v-387q0 -81 -24 -142t-67 -103t-102 -63q-60 -20 -128 -20q-48 0 -96 14q-43 11 -85 37q-38 23 -67 57q-29 33 -45 72l188 50q16 -23 42 -37q25 -13 62 -13q60 0 95 39q35 40 35 106v390z" />
    <glyph glyph-name="ij" unicode="&#x133;" horiz-adv-x="1009" 
d="M266 -3h-192v699h192v-699zM754 700h192v-387q0 -81 -24 -142t-67 -103t-102 -63q-60 -20 -128 -20q-48 0 -96 14q-43 11 -85 37q-38 23 -67 57q-29 33 -45 72l188 50q16 -23 42 -37q25 -13 62 -13q60 0 95 39q35 40 35 106v390z" />
    <glyph glyph-name="Jcircumflex" unicode="&#x134;" horiz-adv-x="686" 
d="M319 810l205 175l205 -175l-91 -92l-114 93l-113 -93zM431 700h192v-387q0 -81 -24 -142t-67 -103q-44 -42 -102 -63q-60 -20 -128 -20q-48 0 -96 14q-43 11 -85 37q-38 23 -67 57q-28 33 -45 72l188 50q16 -23 42 -37q25 -13 62 -13q61 0 95 39q35 40 35 106v390z" />
    <glyph glyph-name="jcircumflex" unicode="&#x135;" horiz-adv-x="686" 
d="M319 810l205 175l205 -175l-91 -92l-114 93l-113 -93zM431 700h192v-387q0 -81 -24 -142t-67 -103q-44 -42 -102 -63q-60 -20 -128 -20q-48 0 -96 14q-43 11 -85 37q-38 23 -67 57q-28 33 -45 72l188 50q16 -23 42 -37q25 -13 62 -13q61 0 95 39q35 40 35 106v390z" />
    <glyph glyph-name="Kcommaaccent" unicode="&#x136;" horiz-adv-x="745" 
d="M736 701l-300 -301l295 -396h-226l-197 272l-44 -44v-228h-192v700h192v-94v-72v-45v-22v-6h1l3 3l12 12q2 2 10.5 11t14.5 15l45 45l151 150h235zM369 -185l-15 2v1q-19 3 -37 21t-18 48q0 31 23 54t56 23q32 0 54 -24q22 -23 22 -63q0 -21 -9 -45t-24 -48
q-13 -20 -35 -46q-17 -20 -44 -40h-60q12 7 25 22q15 16 24 31q12 18 17 33q6 16 6 27z" />
    <glyph glyph-name="kcommaaccent" unicode="&#x137;" horiz-adv-x="745" 
d="M736 701l-300 -301l295 -396h-226l-197 272l-44 -44v-228h-192v700h192v-94v-72v-45v-22v-6h1l3 3l12 12q2 2 10.5 11t14.5 15l45 45l151 150h235zM364 -185l-15 2v1q-19 3 -37 21t-18 48q0 31 23 54t56 23q31 0 54 -24q22 -23 22 -63q0 -21 -9 -45t-24 -48
q-13 -20 -35 -46q-17 -20 -44 -40h-60q12 7 25 22q15 16 24 31q12 18 17 33q6 16 6 27z" />
    <glyph glyph-name="Lacute" unicode="&#x139;" horiz-adv-x="604" 
d="M364 827l-256 -103l-55 100l246 131zM266 179h318v-179h-510v700h192v-521z" />
    <glyph glyph-name="lacute" unicode="&#x13a;" horiz-adv-x="604" 
d="M364 827l-256 -103l-55 100l246 131zM266 179h318v-179h-510v700h192v-521z" />
    <glyph glyph-name="Lcommaaccent" unicode="&#x13b;" horiz-adv-x="604" 
d="M266 180h318v-179h-510v700h192v-521zM334 -185l-15 2v1q-19 3 -37 21t-18 48q0 31 23 54t56 23q31 0 54 -24q22 -23 22 -63q0 -21 -9 -45t-24 -48q-13 -20 -35 -46q-17 -20 -44 -40h-60q12 7 25 22q15 16 24 31q12 18 17 33q6 16 6 27z" />
    <glyph glyph-name="lcommaaccent" unicode="&#x13c;" horiz-adv-x="604" 
d="M266 180h318v-179h-510v700h192v-521zM258 -185l-15 2v1q-19 3 -37 21t-18 48q0 31 23 54t56 23q31 0 54 -24q22 -23 22 -63q0 -21 -9 -45t-24 -48q-13 -20 -35 -46q-17 -20 -44 -40h-60q12 7 25 22q15 16 24 31q12 18 17 33q6 16 6 27z" />
    <glyph glyph-name="Lcaron" unicode="&#x13d;" horiz-adv-x="604" 
d="M398 417h-67l-4 -1q12 7 28 24q15 16 27 36q14 23 20 37q8 19 8 29l16 4l-16 2q-21 3 -42 24q-20 20 -20 54q0 18 6 33t18 27t28 19q15 7 34 7q34 0 60 -26t26 -69q0 -24 -9 -51q-8 -25 -26 -54q-17 -27 -39 -51q-24 -26 -48 -44zM266 179h318v-179h-510v700h192v-521z
" />
    <glyph glyph-name="lcaron" unicode="&#x13e;" horiz-adv-x="604" 
d="M396 415h-68l-3 -1q12 7 28 24q15 16 27 36q14 23 20 37q8 19 8 29l16 4l-16 2q-21 3 -42 24q-20 20 -20 54q0 18 6 33t18 27t28 19q15 7 34 7q34 0 60 -26t26 -69q0 -24 -9 -51q-8 -25 -26 -54q-17 -27 -39 -51q-24 -26 -48 -44zM266 179h318v-179h-510v700h192v-521z
" />
    <glyph glyph-name="Ldot" unicode="&#x13f;" horiz-adv-x="604" 
d="M266 179h318v-179h-510v700h192v-521zM436 310q-34 0 -58 24t-24 58t24 58t58 24t58 -24t24 -58t-24 -58t-58 -24z" />
    <glyph glyph-name="ldot" unicode="&#x140;" horiz-adv-x="604" 
d="M266 179h318v-179h-510v700h192v-521zM436 310q-34 0 -58 24t-24 58t24 58t58 24t58 -24t24 -58t-24 -58t-58 -24z" />
    <glyph glyph-name="Lslash" unicode="&#x141;" horiz-adv-x="604" 
d="M266 179h318v-179h-510v700h192v-225l231 119v-181l-231 -119v-115z" />
    <glyph glyph-name="lslash" unicode="&#x142;" horiz-adv-x="604" 
d="M266 179h318v-179h-510v700h192v-225l231 119v-181l-231 -119v-115z" />
    <glyph glyph-name="Nacute" unicode="&#x143;" 
d="M508 951l65 -128l-256 -103l-55 100zM525 700h192v-703h-181l-96 132q-24 33 -54 75q-48 66 -56 79q-12 18 -44 63l-18 25h-1v-20v-57v-88v-113v-95h-192v699h180l104 -139q11 -14 27 -36q30 -41 35 -48l36 -51q7 -10 18.5 -26t14.5 -20q3 -5 11.5 -17t12.5 -17l10 -13h1
v23v60v86v99v102z" />
    <glyph glyph-name="nacute" unicode="&#x144;" 
d="M508 951l65 -128l-256 -103l-55 100zM525 700h192v-703h-181l-96 132q-24 33 -54 75q-48 66 -56 79q-12 18 -44 63l-18 25h-1v-20v-57v-88v-113v-95h-192v699h180l104 -139q11 -14 27 -36q30 -41 35 -48l36 -51q7 -10 18.5 -26t14.5 -20q3 -5 11.5 -17t12.5 -17l10 -13h1
v23v60v86v99v102z" />
    <glyph glyph-name="Ncommaaccent" unicode="&#x145;" 
d="M525 701h192v-703h-181l-96 132q-24 33 -54 75q-48 67 -56 79q-12 18 -44 63l-18 25h-1v-20v-57v-88v-113v-95h-192v699h180l104 -139q11 -13 27 -36q30 -41 35 -48l36 -51q7 -10 18.5 -26t14.5 -20q3 -5 11.5 -17t12.5 -17l10 -13h1v23v60v86v99v102zM378 -189l15 4
l-15 3q-21 5 -37 21q-18 18 -18 48q0 31 23 54t56 23q32 0 54 -24q22 -23 22 -63q0 -21 -9 -45t-24 -48q-13 -20 -35 -46q-17 -20 -44 -40h-60q12 7 25 22q15 16 24 31q12 18 17 33q6 16 6 27z" />
    <glyph glyph-name="ncommaaccent" unicode="&#x146;" 
d="M525 701h192v-703h-181l-96 132q-24 33 -54 75q-48 67 -56 79q-12 18 -44 63l-18 25h-1v-20v-57v-88v-113v-95h-192v699h180l104 -139q11 -13 27 -36q30 -41 35 -48l36 -51q7 -10 18.5 -26t14.5 -20q3 -5 11.5 -17t12.5 -17l10 -13h1v23v60v86v99v102zM378 -189l15 4
l-15 3q-21 5 -37 21q-18 18 -18 48q0 31 23 54t56 23q32 0 54 -24q22 -23 22 -63q0 -21 -9 -45t-24 -48q-13 -20 -35 -46q-17 -20 -44 -40h-60q12 7 25 22q15 16 24 31q12 18 17 33q6 16 6 27z" />
    <glyph glyph-name="Ncaron" unicode="&#x147;" 
d="M717 700h-192l-2 -101v-99v-85v-60v-22h-1l-9 13q-4 6 -24 34q-6 8 -17 24t-16 23l-36 51q-5 7 -35 48q-17 22 -27 36l-104 139h-180v-700h192v96v113v88v57v20h1l19 -25q10 -14 44 -63q8 -13 56 -79q30 -42 54 -75l96 -133h181v700zM395 721l-206 175l92 92l114 -93
l113 93l91 -92z" />
    <glyph glyph-name="ncaron" unicode="&#x148;" 
d="M717 700h-192l-2 -101v-99v-85v-60v-22h-1l-9 13q-4 6 -24 34q-6 8 -17 24t-16 23l-36 51q-5 7 -35 48q-17 22 -27 36l-104 139h-180v-700h192v96v113v88v57v20h1l19 -25q10 -14 44 -63q8 -13 56 -79q30 -42 54 -75l96 -133h181v700zM395 721l-206 175l92 92l114 -93
l113 93l91 -92z" />
    <glyph glyph-name="Eng" unicode="&#x14a;" 
d="M525 700h192l-1 -704q0 -56 -19 -103q-20 -48 -52 -82q-33 -35 -79 -54q-45 -19 -102 -19h-41v152h24q43 0 66 29t23 78l-96 132q-24 33 -54 75q-48 66 -56 79q-12 18 -44 63l-18 25h-1v-20v-57v-88v-113v-95h-192v699h180l104 -139q11 -14 27 -36q30 -41 35 -48l36 -51
q7 -10 18.5 -26t14.5 -20q3 -5 11.5 -17t12.5 -17l10 -13h1v23v60v86v99v102z" />
    <glyph glyph-name="eng" unicode="&#x14b;" 
d="M525 700h192l-1 -704q0 -56 -19 -103q-20 -48 -52 -82q-33 -35 -79 -54q-45 -19 -102 -19h-41v152h24q43 0 66 29t23 78l-96 132q-24 33 -54 75q-48 66 -56 79q-12 18 -44 63l-18 25h-1v-20v-57v-88v-113v-95h-192v699h180l104 -139q11 -14 27 -36q30 -41 35 -48l36 -51
q7 -10 18.5 -26t14.5 -20q3 -5 11.5 -17t12.5 -17l10 -13h1v23v60v86v99v102z" />
    <glyph glyph-name="Omacron" unicode="&#x14c;" horiz-adv-x="792" 
d="M226 907h353v-147h-353v147zM33 350l-3 -2q0 78 29 147q29 68 78 116t116 75q66 27 141 27t141 -27q67 -27 116 -75q50 -48 78 -115q29 -69 29 -147q0 -81 -28 -147q-28 -67 -78 -115q-49 -48 -116 -75q-67 -26 -141 -26t-141 26q-65 27 -115 75q-49 48 -78 116
q-28 66 -28 147zM233 350q0 -40 12 -71t33 -54q22 -23 51 -35q30 -12 68 -12t68 12q29 12 51 35t32 54q11 33 11 71q0 79 -43 126q-44 48 -120 48t-120 -48q-43 -47 -43 -126z" />
    <glyph glyph-name="omacron" unicode="&#x14d;" horiz-adv-x="792" 
d="M224 907h353v-147h-353v147zM33 350l-3 -2q0 78 29 147q29 68 78 116t116 75q66 27 141 27t141 -27q67 -27 116 -75q50 -48 78 -115q29 -69 29 -147q0 -81 -28 -147q-28 -67 -78 -115q-49 -48 -116 -75q-67 -26 -141 -26t-141 26q-65 27 -115 75q-49 48 -78 116
q-28 66 -28 147zM233 350q0 -40 12 -71t33 -54q22 -23 51 -35q30 -12 68 -12t68 12q29 12 51 35t32 54q11 33 11 71q0 79 -43 126q-44 48 -120 48t-120 -48q-43 -47 -43 -126z" />
    <glyph glyph-name="Ohungarumlaut" unicode="&#x150;" horiz-adv-x="792" 
d="M383 780l-144 -58l-54 100l246 131l37 -74l138 74l64 -128l-256 -103zM396 714l-3 -2q75 0 141 -27q67 -27 116 -75q50 -48 78 -115q29 -69 29 -147q0 -81 -28 -147q-28 -67 -78 -115q-49 -48 -116 -75q-67 -26 -141 -26t-141 26q-65 27 -115 75q-49 48 -78 116
q-28 66 -28 147q0 78 29 147q29 68 78 116t116 75q66 27 141 27zM396 176q38 0 68 12q29 12 51 35t32 54q11 33 11 71q0 79 -43 126q-43 48 -120 48t-120 -48q-43 -47 -43 -126q0 -40 12 -71t33 -54q22 -23 51 -35q30 -12 68 -12z" />
    <glyph glyph-name="ohungarumlaut" unicode="&#x151;" horiz-adv-x="792" 
d="M381 780l-144 -58l-54 100l246 131l37 -74l138 74l64 -128l-256 -103zM396 714l-3 -2q75 0 141 -27q67 -27 116 -75q50 -48 78 -115q29 -69 29 -147q0 -81 -28 -147q-28 -67 -78 -115q-49 -48 -116 -75q-67 -26 -141 -26t-141 26q-65 27 -115 75q-49 48 -78 116
q-28 66 -28 147q0 78 29 147q29 68 78 116t116 75q66 27 141 27zM396 176q38 0 68 12q29 12 51 35t32 54q11 33 11 71q0 79 -43 126q-43 48 -120 48t-120 -48q-43 -47 -43 -126q0 -40 12 -71t33 -54q22 -23 51 -35q30 -12 68 -12z" />
    <glyph glyph-name="OE" unicode="&#x152;" horiz-adv-x="1084" 
d="M675 180h335v-178h-521q-17 -2 -51 -2h-54q-76 0 -138 26q-63 26 -112 74q-48 46 -75 111t-27 141t27 141t75 111q49 48 112 74q64 27 138 27h42q32 0 63 -4h515v-179h-329v-87h255v-168h-255v-87zM491 204v292l-2 1q-35 18 -105 18q-72 0 -112 -45q-40 -44 -40 -120
q0 -73 41 -119q41 -45 113 -45q63 0 105 18z" />
    <glyph glyph-name="oe" unicode="&#x153;" horiz-adv-x="1084" 
d="M675 180h335v-178h-521q-17 -2 -51 -2h-54q-76 0 -138 26q-63 26 -112 74q-48 46 -75 111t-27 141t27 141t75 111q49 48 112 74q64 27 138 27h42q32 0 63 -4h515v-179h-329v-87h255v-168h-255v-87zM491 204v292l-2 1q-35 18 -105 18q-72 0 -112 -45q-40 -44 -40 -120
q0 -73 41 -119q41 -45 113 -45q63 0 105 18z" />
    <glyph glyph-name="Racute" unicode="&#x154;" horiz-adv-x="692" 
d="M512 823l-256 -103l-55 100l246 131zM665 -2h-215l-123 217h-63v-218h-192v699h274q67 0 121 -18q52 -17 91 -50q37 -31 57 -77t20 -100q0 -71 -31 -121q-32 -52 -90 -80zM266 521v-132l108 -3q17 0 29 6q11 5 19 17q7 10 10 22t3 22q0 9 -3 21q-3 11 -9 22q-6 10 -18 18
q-11 7 -30 7h-109z" />
    <glyph glyph-name="racute" unicode="&#x155;" horiz-adv-x="692" 
d="M505 823l-256 -103l-55 100l246 131zM665 -2h-215l-123 217h-63v-218h-192v699h274q67 0 121 -18q52 -17 91 -50q37 -31 57 -77t20 -100q0 -71 -31 -121q-32 -52 -90 -80zM266 521v-132l108 -3q17 0 29 6q11 5 19 17q7 10 10 22t3 22q0 9 -3 21q-3 11 -9 22q-6 10 -18 18
q-11 7 -30 7h-109z" />
    <glyph glyph-name="Rcommaaccent" unicode="&#x156;" horiz-adv-x="692" 
d="M514 251l151 -252l-216 -1l-122 218h-63v-218h-192v699h274q67 0 121 -18q52 -17 91 -50q37 -31 57 -77t20 -100q0 -71 -31 -121q-32 -52 -90 -80zM266 522v-132l108 -3q17 0 29 6q11 5 19 17q7 10 10 22t3 22q0 9 -3 21q-3 11 -9 22t-18 18q-11 7 -30 7h-109zM344 -185
l-15 2v1q-19 3 -37 21t-18 48q0 31 23 54t56 23q31 0 54 -24q22 -23 22 -63q0 -21 -9 -45t-24 -48q-13 -20 -35 -46q-17 -20 -44 -40h-60q12 7 25 22q15 16 24 31q12 18 17 33q6 16 6 27z" />
    <glyph glyph-name="rcommaaccent" unicode="&#x157;" horiz-adv-x="692" 
d="M514 251l151 -252l-216 -1l-122 218h-63v-218h-192v699h274q67 0 121 -18q52 -17 91 -50q37 -31 57 -77t20 -100q0 -71 -31 -121q-32 -52 -90 -80zM266 522v-132l108 -3q17 0 29 6q11 5 19 17q7 10 10 22t3 22q0 9 -3 21q-3 11 -9 22t-18 18q-11 7 -30 7h-109zM349 -185
l-15 2v1q-19 3 -37 21t-18 48q0 31 23 54t56 23q32 0 54 -24q22 -23 22 -63q0 -21 -9 -45t-24 -48q-13 -20 -35 -46q-17 -20 -44 -40h-60q12 7 25 22q15 16 24 31q12 18 17 33q6 16 6 27z" />
    <glyph glyph-name="Rcaron" unicode="&#x158;" horiz-adv-x="692" 
d="M538 892l-204 -175l-206 175l92 92l114 -93l113 93zM665 -2h-215l-123 217h-63v-218h-192v699h274q67 0 121 -18q52 -17 91 -50q37 -31 57 -77t20 -100q0 -71 -31 -121q-32 -52 -90 -80zM266 521v-132l108 -3q17 0 29 6q11 5 19 17q7 10 10 22t3 22q0 9 -3 21
q-3 11 -9 22q-6 10 -18 18q-11 7 -30 7h-109z" />
    <glyph glyph-name="rcaron" unicode="&#x159;" horiz-adv-x="692" 
d="M538 892l-204 -175l-206 175l92 92l114 -93l113 93zM665 -2h-215l-123 217h-63v-218h-192v699h274q67 0 121 -18q52 -17 91 -50q37 -31 57 -77t20 -100q0 -71 -31 -121q-32 -52 -90 -80zM266 521v-132l108 -3q17 0 29 6q11 5 19 17q7 10 10 22t3 22q0 9 -3 21
q-3 11 -9 22q-6 10 -18 18q-11 7 -30 7h-109z" />
    <glyph glyph-name="Sacute" unicode="&#x15a;" horiz-adv-x="619" 
d="M434 943l65 -128l-256 -103l-55 100zM593 521l-185 -51l-5 -12q-8 22 -19 36q-12 15 -27 24q-17 10 -30 14q-17 5 -30 5q-28 0 -43 -12t-15 -24q0 -13 11 -24t30 -20q18 -8 47 -18q23 -8 58 -21q37 -14 77 -35q36 -19 67 -45q30 -26 48 -60t18 -78q0 -48 -20 -90
q-19 -40 -57 -70t-88 -45q-49 -16 -113 -16q-108 0 -187 55q-78 55 -117 158l184 49q7 -15 20 -33q11 -15 29 -30q16 -14 36 -21q21 -8 44 -8q37 0 51 13q15 14 15 31q0 16 -12 28q-11 11 -35 22q-23 11 -54 21q-24 8 -69 26q-32 14 -63 30q-33 17 -57 40q-26 25 -41 57
q-15 33 -15 80q0 40 20 80q19 38 56 69q36 30 85 48t108 18q51 0 96 -15q44 -15 81 -41t62 -60q26 -34 39 -75z" />
    <glyph glyph-name="sacute" unicode="&#x15b;" horiz-adv-x="619" 
d="M446 943l65 -128l-256 -103l-55 100zM593 521l-185 -51l-5 -12q-8 22 -19 36q-12 15 -27 24q-17 10 -30 14q-17 5 -30 5q-28 0 -43 -12t-15 -24q0 -13 11 -24t30 -20q18 -8 47 -18q23 -8 58 -21q37 -14 77 -35q36 -19 67 -45q30 -26 48 -60t18 -78q0 -48 -20 -90
q-19 -40 -57 -70t-88 -45q-49 -16 -113 -16q-108 0 -187 55q-78 55 -117 158l184 49q7 -15 20 -33q11 -15 29 -30q16 -14 36 -21q21 -8 44 -8q37 0 51 13q15 14 15 31q0 16 -12 28q-11 11 -35 22q-23 11 -54 21q-24 8 -69 26q-32 14 -63 30q-33 17 -57 40q-26 25 -41 57
q-15 33 -15 80q0 40 20 80q19 38 56 69q36 30 85 48t108 18q51 0 96 -15q44 -15 81 -41t62 -60q26 -34 39 -75z" />
    <glyph glyph-name="Scircumflex" unicode="&#x15c;" horiz-adv-x="619" 
d="M111 802l205 175l205 -175l-91 -92l-114 93l-113 -93zM593 521l-185 -51l-5 -12q-8 22 -19 36q-12 15 -27 24q-17 10 -30 14q-17 5 -30 5q-28 0 -43 -12t-15 -24q0 -13 11 -24t30 -20q18 -8 47 -18q23 -8 58 -21q37 -14 77 -35q36 -19 67 -45q30 -26 48 -60t18 -78
q0 -48 -20 -90q-19 -40 -57 -70t-88 -45q-49 -16 -113 -16q-108 0 -187 55q-78 55 -117 158l184 49q7 -15 20 -33q11 -15 29 -30q16 -14 36 -21q21 -8 44 -8q37 0 51 13q15 14 15 31q0 16 -12 28q-11 11 -35 22q-23 11 -54 21q-24 8 -69 26q-32 14 -63 30q-33 17 -57 40
q-26 25 -41 57q-15 33 -15 80q0 40 20 80q19 38 56 69q36 30 85 48t108 18q51 0 96 -15q44 -15 81 -41t62 -60q26 -34 39 -75z" />
    <glyph glyph-name="scircumflex" unicode="&#x15d;" horiz-adv-x="619" 
d="M111 802l205 175l205 -175l-91 -92l-114 93l-113 -93zM593 521l-185 -51l-5 -12q-8 22 -19 36q-12 15 -27 24q-17 10 -30 14q-17 5 -30 5q-28 0 -43 -12t-15 -24q0 -13 11 -24t30 -20q18 -8 47 -18q23 -8 58 -21q37 -14 77 -35q36 -19 67 -45q30 -26 48 -60t18 -78
q0 -48 -20 -90q-19 -40 -57 -70t-88 -45q-49 -16 -113 -16q-108 0 -187 55q-78 55 -117 158l184 49q7 -15 20 -33q11 -15 29 -30q16 -14 36 -21q21 -8 44 -8q37 0 51 13q15 14 15 31q0 16 -12 28q-11 11 -35 22q-23 11 -54 21q-24 8 -69 26q-32 14 -63 30q-33 17 -57 40
q-26 25 -41 57q-15 33 -15 80q0 40 20 80q19 38 56 69q36 30 85 48t108 18q51 0 96 -15q44 -15 81 -41t62 -60q26 -34 39 -75z" />
    <glyph glyph-name="Scedilla" unicode="&#x15e;" horiz-adv-x="619" 
d="M593 521l-185 -51l-7 -13q-8 22 -19 36q-12 15 -27 24q-17 10 -30 14q-17 5 -30 5q-28 0 -43 -12t-15 -24q0 -13 11 -24t30 -20q18 -8 47 -18q23 -8 58 -21q37 -14 77 -35q36 -19 67 -45q30 -25 48 -60t18 -78q0 -42 -15 -78q-15 -35 -42 -64t-66 -48q-41 -19 -87 -26
l-18 -49q23 0 41 -7q20 -8 35 -21q15 -14 24 -34q9 -21 9 -46q0 -34 -10 -55q-10 -23 -27 -36q-16 -13 -39 -19q-22 -6 -46 -6h-138l38 98h100q13 0 18 5q4 4 4 11q0 17 -22 17h-119l48 140q-98 9 -164 62q-68 54 -104 149l184 49q7 -15 20 -33q11 -15 29 -30q16 -14 36 -21
q21 -8 44 -8q37 0 51 13q15 14 15 31q0 16 -12 28q-11 11 -35 22q-23 11 -54 21q-24 8 -69 26q-32 14 -63 30q-33 17 -57 40q-26 25 -41 57q-15 33 -15 80q0 40 20 80q19 38 56 69q36 30 85 48t108 18q51 0 96 -15q44 -15 81 -41t62 -60q26 -34 39 -75z" />
    <glyph glyph-name="scedilla" unicode="&#x15f;" horiz-adv-x="619" 
d="M593 521l-185 -51l-6 -13q-8 22 -19 36q-12 15 -27 24q-17 10 -30 14q-17 5 -30 5q-28 0 -43 -12t-15 -24q0 -13 11 -24t30 -20q18 -8 47 -18q23 -8 58 -21q37 -14 77 -35q36 -19 67 -45q30 -25 48 -60t18 -78q0 -82 -54 -139q-52 -55 -144 -75l-19 -52q23 0 41 -7
q20 -8 35 -21q15 -14 24 -34q9 -21 9 -46q0 -34 -10 -55q-10 -22 -27 -36q-16 -13 -39 -19q-22 -6 -46 -6h-138l38 98h100q13 0 18 5q4 4 4 11q0 17 -22 17h-119l47 139q-101 6 -171 61t-108 152l184 49q7 -15 20 -33q11 -15 29 -30q16 -14 36 -21q21 -8 44 -8q37 0 51 13
q15 14 15 31q0 16 -12 28q-11 11 -35 22q-23 11 -54 21q-24 8 -69 26q-32 14 -63 30q-33 17 -57 40q-26 25 -41 57q-15 33 -15 80q0 40 20 80q19 38 56 69q36 30 85 48t108 18q51 0 96 -15q44 -15 81 -41t62 -60q26 -34 39 -75z" />
    <glyph glyph-name="Scaron" unicode="&#x160;" horiz-adv-x="619" 
d="M408 470l185 51l-1 7q-14 40 -39 75q-25 34 -62 60t-81 41q-45 15 -96 15q-58 0 -108 -18q-49 -18 -85 -48q-35 -29 -55 -69t-20 -79q0 -47 15 -80q15 -32 41 -57q24 -23 57 -40q31 -16 63 -30q30 -12 69 -25q31 -11 54 -21q24 -11 35 -22q12 -12 12 -28q0 -18 -15 -31
q-14 -13 -51 -13q-23 0 -44 8q-20 8 -36 21q-15 12 -28 30q-11 15 -19 33l-184 -49q39 -103 117 -158q77 -55 187 -55q59 0 113 16q51 17 88 46q37 30 57 71q20 42 20 90q0 43 -18 78t-48 60q-31 26 -67 45q-43 22 -76 35q-35 13 -58 21q-25 8 -46 18q-19 9 -30 20t-11 24
q0 12 15 24t44 12q17 0 30 -4t30 -14q15 -9 27 -24q11 -14 19 -36zM326 721l-206 175l92 92l114 -93l113 93l91 -92z" />
    <glyph glyph-name="scaron" unicode="&#x161;" horiz-adv-x="619" 
d="M408 470l185 51l-1 7q-14 40 -39 75q-25 34 -62 60t-81 41q-45 15 -96 15q-58 0 -108 -18q-49 -18 -85 -48q-35 -29 -55 -69t-20 -79q0 -47 15 -80q15 -32 41 -57q24 -23 57 -40q31 -16 63 -30q30 -12 69 -25q31 -11 54 -21q24 -11 35 -22q12 -12 12 -28q0 -18 -15 -31
q-14 -13 -51 -13q-23 0 -44 8q-20 8 -36 21q-15 12 -28 30q-11 15 -19 33l-184 -49q39 -103 117 -158q77 -55 187 -55q59 0 113 16q51 17 88 46q37 30 57 71q20 42 20 90q0 43 -18 78t-48 60q-31 26 -67 45q-43 22 -76 35q-35 13 -58 21q-25 8 -46 18q-19 9 -30 20t-11 24
q0 12 15 24t44 12q17 0 30 -4t30 -14q15 -9 27 -24q11 -14 19 -36zM338 721l-206 175l92 92l114 -93l113 93l91 -92z" />
    <glyph glyph-name="Tcommaaccent" unicode="&#x162;" horiz-adv-x="616" 
d="M402 0h-59l-22 -58q23 0 41 -7q20 -8 35 -21q15 -14 24 -34q9 -21 9 -46q0 -34 -10 -55q-10 -23 -27 -36q-16 -13 -39 -19q-22 -6 -46 -6h-138l38 98h100q13 0 18 5q4 4 4 11q0 17 -22 17h-119l52 151h-31v521h-203v179h602v-179h-207v-521z" />
    <glyph glyph-name="tcommaaccent" unicode="&#x163;" horiz-adv-x="616" 
d="M402 0h-59l-22 -58q23 0 41 -7q20 -8 35 -21q15 -14 24 -34q9 -21 9 -46q0 -34 -10 -55q-10 -23 -27 -36q-16 -13 -39 -19q-22 -6 -46 -6h-138l38 98h100q13 0 18 5q4 4 4 11q0 17 -22 17h-119l52 151h-31v521h-203v179h602v-179h-207v-521z" />
    <glyph glyph-name="Tcaron" unicode="&#x164;" horiz-adv-x="616" 
d="M531 896l-204 -175l-206 175l92 92l114 -93l113 93zM7 700h602v-179h-207v-521h-192v521h-203v179z" />
    <glyph glyph-name="tcaron" unicode="&#x165;" horiz-adv-x="616" 
d="M531 896l-204 -175l-206 175l92 92l114 -93l113 93zM7 700h602v-179h-207v-521h-192v521h-203v179z" />
    <glyph glyph-name="Tbar" unicode="&#x166;" horiz-adv-x="616" 
d="M609 521h-207v-95h95v-145h-95v-281h-192v281h-94v145h94v95h-203v179h602v-179z" />
    <glyph glyph-name="tbar" unicode="&#x167;" horiz-adv-x="616" 
d="M609 521h-207v-95h95v-145h-95v-281h-192v281h-94v145h94v95h-203v179h602v-179z" />
    <glyph glyph-name="Umacron" unicode="&#x16a;" horiz-adv-x="755" 
d="M206 909h353v-147h-353v147zM501 700h192v-383q0 -78 -23 -141q-22 -62 -65 -104q-42 -42 -100 -63q-60 -20 -127 -20q-69 0 -129 20q-58 21 -100 63q-43 42 -65 104q-23 63 -23 141v383h192v-378q0 -83 32 -120q31 -36 92 -36t92 36q32 37 32 120v378z" />
    <glyph glyph-name="umacron" unicode="&#x16b;" horiz-adv-x="755" 
d="M206 909h353v-147h-353v147zM501 700h192v-383q0 -78 -23 -141q-22 -62 -65 -104q-42 -42 -100 -63q-60 -20 -127 -20q-69 0 -129 20q-58 21 -100 63q-43 42 -65 104q-23 63 -23 141v383h192v-378q0 -83 32 -120q31 -36 92 -36t92 36q32 37 32 120v378z" />
    <glyph glyph-name="Ubreve" unicode="&#x16c;" horiz-adv-x="755" 
d="M168 906h140h-2q5 -17 23 -32t47 -15q28 0 46 15t23 32h137q-9 -37 -28 -66q-20 -31 -46 -51q-27 -21 -61 -33q-35 -12 -72 -12q-41 0 -75 12t-61 33t-45 51q-19 31 -26 66zM501 700h192v-383q0 -78 -23 -141q-22 -62 -65 -104q-42 -42 -100 -63q-60 -20 -127 -20
q-69 0 -129 20q-58 21 -100 63q-43 42 -65 104q-23 63 -23 141v383h192v-378q0 -83 32 -120q31 -36 92 -36t92 36q32 37 32 120v378z" />
    <glyph glyph-name="ubreve" unicode="&#x16d;" horiz-adv-x="755" 
d="M168 906h140h-2q5 -17 23 -32t47 -15q28 0 46 15t23 32h137q-9 -37 -28 -66q-20 -31 -46 -51q-27 -21 -61 -33q-35 -12 -72 -12q-41 0 -75 12t-61 33t-45 51q-19 31 -26 66zM501 700h192v-383q0 -78 -23 -141q-22 -62 -65 -104q-42 -42 -100 -63q-60 -20 -127 -20
q-69 0 -129 20q-58 21 -100 63q-43 42 -65 104q-23 63 -23 141v383h192v-378q0 -83 32 -120q31 -36 92 -36t92 36q32 37 32 120v378z" />
    <glyph glyph-name="Uring" unicode="&#x16e;" horiz-adv-x="755" 
d="M378 673l-1 -1q-34 0 -63 13t-52 36t-36 52t-13 63t13 63q14 30 36 51q24 22 52 35q29 13 63 13t63 -13q30 -14 52 -34q23 -22 35 -51q12 -30 12 -63t-12 -63t-34 -52q-23 -23 -52 -36t-63 -13zM378 784q23 0 38 16t15 36q0 23 -15 38t-38 15q-20 0 -35 -15t-15 -38
q0 -20 15 -36t35 -16zM501 700h192v-383q0 -78 -23 -141q-22 -62 -65 -104q-42 -42 -100 -63q-60 -20 -127 -20q-69 0 -129 20q-58 21 -100 63q-43 42 -65 104q-23 63 -23 141v383h192v-378q0 -83 32 -120q31 -36 92 -36t92 36q32 37 32 120v378z" />
    <glyph glyph-name="uring" unicode="&#x16f;" horiz-adv-x="755" 
d="M378 673l-1 -1q-34 0 -63 13t-52 36t-36 52t-13 63t13 63q14 30 36 51q24 22 52 35q29 13 63 13t63 -13q30 -14 52 -34q23 -22 35 -51q12 -30 12 -63t-12 -63t-34 -52q-23 -23 -52 -36t-63 -13zM378 784q23 0 38 16t15 36q0 23 -15 38t-38 15q-20 0 -35 -15t-15 -38
q0 -20 15 -36t35 -16zM501 700h192v-383q0 -78 -23 -141q-22 -62 -65 -104q-42 -42 -100 -63q-60 -20 -127 -20q-69 0 -129 20q-58 21 -100 63q-43 42 -65 104q-23 63 -23 141v383h192v-378q0 -83 32 -120q31 -36 92 -36t92 36q32 37 32 120v378z" />
    <glyph glyph-name="Uhungarumlaut" unicode="&#x170;" horiz-adv-x="755" 
d="M363 782l-144 -58l-54 100l246 131l37 -74l138 74l64 -128l-256 -103zM501 700h192v-383q0 -78 -23 -141q-22 -62 -65 -104q-42 -42 -100 -63q-60 -20 -127 -20q-69 0 -129 20q-58 21 -100 63q-43 42 -65 104q-23 63 -23 141v383h192v-378q0 -83 32 -120q31 -36 92 -36
t92 36q32 37 32 120v378z" />
    <glyph glyph-name="uhungarumlaut" unicode="&#x171;" horiz-adv-x="755" 
d="M363 782l-144 -58l-54 100l246 131l37 -74l138 74l64 -128l-256 -103zM501 700h192v-383q0 -78 -23 -141q-22 -62 -65 -104q-42 -42 -100 -63q-60 -20 -127 -20q-69 0 -129 20q-58 21 -100 63q-43 42 -65 104q-23 63 -23 141v383h192v-378q0 -83 32 -120q31 -36 92 -36
t92 36q32 37 32 120v378z" />
    <glyph glyph-name="Uogonek" unicode="&#x172;" horiz-adv-x="755" 
d="M693 700v-383h-2q0 -113 -43 -187q-43 -75 -118 -112h2q-13 -5 -37 -17q-17 -7 -33 -20q-15 -12 -24 -27t-9 -36t13 -35q14 -15 40 -15q20 0 42 16q23 17 36 43l97 -63q-14 -27 -33 -47q-20 -22 -43 -36q-26 -16 -49 -23q-27 -8 -51 -8q-36 0 -71 11q-32 10 -58 30
q-25 19 -40 48t-15 63q0 28 10 48q11 22 24 38q-63 8 -111 31q-49 24 -85 66q-35 41 -55 100q-19 57 -19 132v383h192v-378q0 -83 32 -120q31 -36 92 -36t92 36q32 37 32 120v378h192z" />
    <glyph glyph-name="uogonek" unicode="&#x173;" horiz-adv-x="755" 
d="M693 700v-383h-2q0 -113 -43 -187q-43 -75 -118 -112h2q-13 -5 -37 -17q-17 -7 -33 -20q-15 -12 -24 -27t-9 -36t13 -35q14 -15 40 -15q20 0 42 16q23 17 36 43l97 -63q-14 -27 -33 -47q-20 -22 -43 -36q-26 -16 -49 -23q-27 -8 -51 -8q-36 0 -71 11q-32 10 -58 30
q-25 19 -40 48t-15 63q0 28 10 48q11 22 24 38q-63 8 -111 31q-49 24 -85 66q-35 41 -55 100q-19 57 -19 132v383h192v-378q0 -83 32 -120q31 -36 92 -36t92 36q32 37 32 120v378h192z" />
    <glyph glyph-name="Wcircumflex" unicode="&#x174;" horiz-adv-x="1071" 
d="M322 813l205 175l205 -175l-91 -92l-114 93l-113 -93zM847 700h205l-210 -700h-182l-100 309q-7 22 -12 44q-1 6 -4 18.5t-4 17.5q-1 4 -2.5 12.5t-2.5 11.5l-2 9h-1l-2 -9q-1 -3 -2.5 -11.5t-2.5 -12.5q-3 -15 -9 -36q-8 -28 -13 -43l-101 -310h-182l-205 700h205
l66 -290q4 -18 11.5 -45.5t9.5 -38.5q7 -33 9 -33h1q1 0 10 33q10 38 28 84l89 232h181l89 -232q18 -46 28 -84q9 -33 10 -33h1q1 0 9 33q0 1 7 32.5t12 51.5z" />
    <glyph glyph-name="wcircumflex" unicode="&#x175;" horiz-adv-x="1071" 
d="M308 813l205 175l205 -175l-91 -92l-114 93l-113 -93zM847 700h205l-210 -700h-182l-100 309q-7 22 -12 44q-1 6 -4 18.5t-4 17.5q-1 4 -2.5 12.5t-2.5 11.5l-2 9h-1l-2 -9q-1 -3 -2.5 -11.5t-2.5 -12.5q-3 -15 -9 -36q-8 -28 -13 -43l-101 -310h-182l-205 700h205
l66 -290q4 -18 11.5 -45.5t9.5 -38.5q7 -33 9 -33h1q1 0 10 33q10 38 28 84l89 232h181l89 -232q18 -46 28 -84q9 -33 10 -33h1q1 0 9 33q0 1 7 32.5t12 51.5z" />
    <glyph glyph-name="Ycircumflex" unicode="&#x176;" horiz-adv-x="742" 
d="M160 814l205 175l205 -175l-91 -92l-114 93l-113 -93zM519 700h214l-267 -399v-301h-191v301l-267 399h215l113 -175q33 -50 34 -50h1q2 0 34 50z" />
    <glyph glyph-name="ycircumflex" unicode="&#x177;" horiz-adv-x="742" 
d="M161 814l205 175l205 -175l-91 -92l-114 93l-113 -93zM519 700h214l-267 -399v-301h-191v301l-267 399h215l113 -175q33 -50 34 -50h1q2 0 34 50z" />
    <glyph glyph-name="Ydieresis" unicode="&#x178;" horiz-adv-x="742" 
d="M227 769h-1q-33 0 -58 23q-24 22 -24 57q0 34 24 58t59 24t57 -24q23 -25 23 -58q0 -34 -23 -57t-57 -23zM505 769q-34 0 -57 23t-23 57q0 33 23 58q22 24 57 24q34 0 58 -24t24 -58q0 -35 -24 -57q-25 -23 -58 -23zM519 700h214l-267 -399v-301h-191v301l-267 399h215
l113 -175q33 -50 34 -50h1q2 0 34 50z" />
    <glyph glyph-name="Zacute" unicode="&#x179;" horiz-adv-x="718" 
d="M481 949l65 -128l-256 -103l-55 100zM658 700v-180l-270 -279l-24 -24q-15 -15 -21 -22t-15 -16l-6 -6l1 -1h4q4 1 12 1.5t18 0.5q44 2 81 2h220v-178h-598v179l283 281q14 14 22 21q4 3 11 10t11 10l18 15l7 6l-1 1h-12h-30h-37h-36h-226v179h588z" />
    <glyph glyph-name="zacute" unicode="&#x17a;" horiz-adv-x="718" 
d="M481 949l65 -128l-256 -103l-55 100zM658 700v-180l-270 -279l-24 -24q-15 -15 -21 -22t-15 -16l-6 -6l1 -1h4q4 1 12 1.5t18 0.5q44 2 81 2h220v-178h-598v179l283 281q14 14 22 21q4 3 11 10t11 10l18 15l7 6l-1 1h-12h-30h-37h-36h-226v179h588z" />
    <glyph glyph-name="Zdotaccent" unicode="&#x17b;" horiz-adv-x="718" 
d="M368 762q-34 0 -58 24t-24 58t24 58t58 24t58 -24t24 -58t-24 -58t-58 -24zM658 700v-180l-270 -279l-24 -24q-15 -15 -21 -22t-15 -16l-6 -6l1 -1h4q4 1 12 1.5t18 0.5q44 2 81 2h220v-178h-598v179l283 281q14 14 22 21q4 3 11 10t11 10l18 15l7 6l-1 1h-12h-30h-37
h-36h-226v179h588z" />
    <glyph glyph-name="zdotaccent" unicode="&#x17c;" horiz-adv-x="718" 
d="M368 762q-34 0 -58 24t-24 58t24 58t58 24t58 -24t24 -58t-24 -58t-58 -24zM658 700v-180l-270 -279l-24 -24q-15 -15 -21 -22t-15 -16l-6 -6l1 -1h4q4 1 12 1.5t18 0.5q44 2 81 2h220v-178h-598v179l283 281q14 14 22 21q4 3 11 10t11 10l18 15l7 6l-1 1h-12h-30h-37
h-36h-226v179h588z" />
    <glyph glyph-name="Zcaron" unicode="&#x17d;" horiz-adv-x="718" 
d="M658 520v180h-587v-179h226h36h37h30l12 1l1 -1l-7 -6l-17 -15q-4 -3 -11 -10t-11 -10q-8 -7 -22 -21l-283 -281v-179h598v178h-220q-59 0 -81 -1t-34 -1l-1 1l7 7q3 3 15 17t21 23l24 24zM371 721l-206 175l92 92l114 -93l113 93l91 -92z" />
    <glyph glyph-name="zcaron" unicode="&#x17e;" horiz-adv-x="718" 
d="M658 520v180h-587v-179h226h36h37h30l12 1l1 -1l-7 -6l-17 -15q-4 -3 -11 -10t-11 -10q-8 -7 -22 -21l-283 -281v-179h598v178h-220q-59 0 -81 -1t-34 -1l-1 1l7 7q3 3 15 17t21 23l24 24zM371 721l-206 175l92 92l114 -93l113 93l91 -92z" />
    <glyph glyph-name="florin" unicode="&#x192;" horiz-adv-x="396" 
d="M33 353v70l107 1l25 173q9 60 36 90q27 29 71 38q42 9 104 1v-76q-61 4 -88 -9t-33 -57l-23 -161h118v-70h-128l-54 -384q-9 -63 -40 -94q-23 -23 -58 -29q-36 -6 -84 0v74q36 -3 59 6t29 50l55 377h-96z" />
    <glyph glyph-name="Scommaaccent" unicode="&#x218;" horiz-adv-x="619" 
d="M593 522l-185 -51l-5 -12q-8 22 -19 36q-12 15 -27 24q-17 10 -30 14q-17 5 -30 5q-28 0 -43 -12t-15 -24q0 -13 11 -24t30 -20q18 -8 47 -18q23 -8 58 -21q37 -14 77 -35q36 -19 67 -45q30 -25 48 -60t18 -78q0 -48 -20 -90q-19 -40 -57 -70t-88 -45q-49 -16 -113 -16
q-108 0 -187 55q-78 55 -117 158l184 49q7 -15 20 -33q11 -15 29 -30q16 -13 36 -21q21 -8 44 -8q37 0 51 13q15 13 15 31q0 16 -12 28q-11 11 -35 22q-23 10 -54 21q-24 8 -69 26q-32 13 -63 30q-33 17 -57 40q-26 25 -41 57q-15 33 -15 80q0 40 20 80q19 38 56 69
q36 30 85 48t108 18q51 0 96 -15q44 -15 81 -41t62 -60q26 -35 39 -75zM281 -189l15 4l-15 3q-21 5 -37 21q-18 18 -18 48q0 31 23 54t56 23q31 0 54 -24q22 -23 22 -63q0 -21 -9 -45t-24 -48q-13 -20 -35 -46q-17 -20 -44 -40h-60q12 7 25 22q15 16 24 31q12 18 17 33
q6 16 6 27z" />
    <glyph glyph-name="scommaaccent" unicode="&#x219;" horiz-adv-x="619" 
d="M593 522l-185 -51l-5 -12q-8 22 -19 36q-12 15 -27 24q-17 10 -30 14q-17 5 -30 5q-28 0 -43 -12t-15 -24q0 -13 11 -24t30 -20q18 -8 47 -18q23 -8 58 -21q37 -14 77 -35q36 -19 67 -45q30 -25 48 -60t18 -78q0 -48 -20 -90q-19 -40 -57 -70t-88 -45q-49 -16 -113 -16
q-108 0 -187 55q-78 55 -117 158l184 49q7 -15 20 -33q11 -15 29 -30q16 -13 36 -21q21 -8 44 -8q37 0 51 13q15 13 15 31q0 16 -12 28q-11 11 -35 22q-23 10 -54 21q-24 8 -69 26q-32 13 -63 30q-33 17 -57 40q-26 25 -41 57q-15 33 -15 80q0 40 20 80q19 38 56 69
q36 30 85 48t108 18q51 0 96 -15q44 -15 81 -41t62 -60q26 -35 39 -75zM281 -189l15 4l-15 3q-21 5 -37 21q-18 18 -18 48q0 31 23 54t56 23q31 0 54 -24q22 -23 22 -63q0 -21 -9 -45t-24 -48q-13 -20 -35 -46q-17 -20 -44 -40h-60q12 7 25 22q15 16 24 31q12 18 17 33
q6 16 6 27z" />
    <glyph glyph-name="uni021A" unicode="&#x21a;" horiz-adv-x="616" 
d="M7 701h602v-179h-207v-521h-192v521h-203v179zM311 -185l-15 2v1q-19 3 -37 21t-18 48q0 31 23 54t56 23q32 0 54 -24q22 -23 22 -63q0 -21 -9 -45t-24 -48q-13 -20 -35 -46q-17 -20 -44 -40h-60q12 7 25 22q15 16 24 31q12 18 17 33q6 16 6 27z" />
    <glyph glyph-name="uni021B" unicode="&#x21b;" horiz-adv-x="616" 
d="M7 701h602v-179h-207v-521h-192v521h-203v179zM277 -185l-15 2v1q-19 3 -37 21t-18 48q0 31 23 54t56 23q32 0 54 -24q22 -23 22 -63q0 -21 -9 -45t-24 -48q-13 -20 -35 -46q-17 -20 -44 -40h-60q12 7 25 22q15 16 24 31q12 18 17 33q6 16 6 27z" />
    <glyph glyph-name="uni0237" unicode="&#x237;" horiz-adv-x="686" 
d="M431 700h192v-387q0 -81 -24 -142t-67 -103q-44 -42 -102 -63q-60 -20 -128 -20q-48 0 -96 14q-43 11 -85 37q-38 23 -67 57q-28 33 -45 72l188 50q16 -23 42 -37q25 -13 62 -13q61 0 95 39q35 40 35 106v390z" />
    <glyph glyph-name="circumflex" unicode="&#x2c6;" horiz-adv-x="376" 
d="M-36 814l205 175l204 -175l-91 -92l-113 93l-114 -93z" />
    <glyph glyph-name="caron" unicode="&#x2c7;" horiz-adv-x="376" 
d="M169 722l-205 174l91 93l114 -94l113 94l91 -93z" />
    <glyph glyph-name="breve" unicode="&#x2d8;" horiz-adv-x="350" 
d="M-57 906h138h-2q6 -17 24 -32t47 -15q28 0 46 15t23 32h137q-9 -37 -28 -66q-20 -31 -46 -51q-27 -21 -61 -33q-35 -12 -72 -12q-41 0 -75 12t-61 33q-26 22 -44 51q-19 31 -26 66z" />
    <glyph glyph-name="dotaccent" unicode="&#x2d9;" horiz-adv-x="177" 
d="M67 768q-34 0 -58 24q-23 25 -23 58t23 58q24 24 58 24t58 -24t24 -58t-24 -58t-58 -24z" />
    <glyph glyph-name="ring" unicode="&#x2da;" horiz-adv-x="299" 
d="M131 641l-1 -1q-34 0 -63 13q-28 13 -52 35q-21 19 -35 51q-13 29 -13 63t13 63q14 31 35 52q23 23 52 36t63 13t63 -13t52 -36q24 -24 35 -52q12 -30 12 -63t-12 -63q-12 -31 -34 -51t-52 -34q-29 -13 -63 -13zM131 752q23 0 38 15t15 36q0 23 -15 38t-38 15
q-19 0 -36 -15q-16 -15 -16 -38q0 -21 16 -36q17 -15 36 -15z" />
    <glyph glyph-name="ogonek" unicode="&#x2db;" horiz-adv-x="600" 
d="M337 -76l97 -66v-2q-16 -28 -36 -47q-21 -19 -45 -33q-23 -13 -49 -19t-49 -6q-40 0 -78 11q-36 10 -63 33t-42 54t-15 74q0 33 14 63q14 28 33 47q20 19 39 30q20 11 30 11l124 -74q-19 0 -35 -4q-15 -4 -34 -14q-16 -9 -27 -24q-10 -14 -10 -34t15 -36q15 -17 49 -17
q20 0 45 14q23 13 37 39z" />
    <glyph glyph-name="tilde" unicode="&#x2dc;" horiz-adv-x="538" 
d="M364 906h147l-1 -1q0 -37 -12 -69q-12 -31 -35 -54q-23 -22 -54 -36q-30 -13 -69 -13q-30 0 -51 10q-27 12 -41 22q-7 5 -19.5 12.5t-15.5 9.5q-16 10 -34 10q-19 0 -31 -12t-12 -30h-147q0 36 11 69q12 31 35 54q23 22 54 36q30 13 69 13q32 0 53 -10q27 -12 41 -22
q7 -5 19.5 -12.5t15.5 -9.5q16 -10 33 -10q20 0 32 12t12 31z" />
    <glyph glyph-name="hungarumlaut" unicode="&#x2dd;" horiz-adv-x="499" 
d="M472 827l-256 -103l-31 58l-143 -58l-53 100l245 131l37 -73l137 73z" />
    <glyph glyph-name="uni0326" unicode="&#x326;" horiz-adv-x="0" 
d="M114 -189l15 4h-16q-20 3 -38 21t-18 49q0 17 6 30t17 24q12 12 25 17q15 6 31 6q32 0 54 -24q23 -25 23 -63q0 -21 -9 -45q-9 -25 -24 -47q-15 -23 -36 -45t-43 -40h-61q12 7 25 22q15 16 24 31q11 17 18 33q7 15 7 27z" />
    <glyph glyph-name="Wgrave" unicode="&#x1e80;" horiz-adv-x="1071" 
d="M584 723l-256 103l65 128l246 -131zM847 700h205l-210 -700h-182l-100 309q-7 22 -12 44q-1 6 -4 18.5t-4 17.5q-1 4 -2.5 12.5t-2.5 11.5l-2 9h-1l-2 -9q-1 -3 -2.5 -11.5t-2.5 -12.5q-3 -15 -9 -36q-8 -28 -13 -43l-101 -310h-182l-205 700h205l66 -290
q4 -18 11.5 -45.5t9.5 -38.5q7 -33 9 -33h1q1 0 10 33q10 38 28 84l89 232h181l89 -232q18 -46 28 -84q9 -33 10 -33h1q1 0 9 33q0 1 7 32.5t12 51.5z" />
    <glyph glyph-name="wgrave" unicode="&#x1e81;" horiz-adv-x="1071" 
d="M570 723l-256 103l65 128l246 -131zM847 700h205l-210 -700h-182l-100 309q-7 22 -12 44q-1 6 -4 18.5t-4 17.5q-1 4 -2.5 12.5t-2.5 11.5l-2 9h-1l-2 -9q-1 -3 -2.5 -11.5t-2.5 -12.5q-3 -15 -9 -36q-8 -28 -13 -43l-101 -310h-182l-205 700h205l66 -290
q4 -18 11.5 -45.5t9.5 -38.5q7 -33 9 -33h1q1 0 10 33q10 38 28 84l89 232h181l89 -232q18 -46 28 -84q9 -33 10 -33h1q1 0 9 33q0 1 7 32.5t12 51.5z" />
    <glyph glyph-name="Wacute" unicode="&#x1e82;" horiz-adv-x="1071" 
d="M645 954l65 -128l-256 -103l-55 100zM847 700h205l-210 -700h-182l-100 309q-7 22 -12 44q-1 6 -4 18.5t-4 17.5q-1 4 -2.5 12.5t-2.5 11.5l-2 9h-1l-2 -9q-1 -3 -2.5 -11.5t-2.5 -12.5q-3 -15 -9 -36q-8 -28 -13 -43l-101 -310h-182l-205 700h205l66 -290
q4 -18 11.5 -45.5t9.5 -38.5q7 -33 9 -33h1q1 0 10 33q10 38 28 84l89 232h181l89 -232q18 -46 28 -84q9 -33 10 -33h1q1 0 9 33q0 1 7 32.5t12 51.5z" />
    <glyph glyph-name="wacute" unicode="&#x1e83;" horiz-adv-x="1071" 
d="M631 954l65 -128l-256 -103l-55 100zM847 700h205l-210 -700h-182l-100 309q-7 22 -12 44q-1 6 -4 18.5t-4 17.5q-1 4 -2.5 12.5t-2.5 11.5l-2 9h-1l-2 -9q-1 -3 -2.5 -11.5t-2.5 -12.5q-3 -15 -9 -36q-8 -28 -13 -43l-101 -310h-182l-205 700h205l66 -290
q4 -18 11.5 -45.5t9.5 -38.5q7 -33 9 -33h1q1 0 10 33q10 38 28 84l89 232h181l89 -232q18 -46 28 -84q9 -33 10 -33h1q1 0 9 33q0 1 7 32.5t12 51.5z" />
    <glyph glyph-name="Wdieresis" unicode="&#x1e84;" horiz-adv-x="1071" 
d="M389 768h-1q-33 0 -58 23q-24 23 -24 57t24 58t59 24t57 -24q23 -25 23 -58q0 -34 -23 -57t-57 -23zM667 768q-34 0 -57 23t-23 57q0 33 23 58q22 24 57 24q34 0 58 -24t24 -58t-24 -57q-25 -23 -58 -23zM847 700h205l-210 -700h-182l-100 309q-7 22 -12 44q-1 6 -4 18.5
t-4 17.5q-1 4 -2.5 12.5t-2.5 11.5l-2 9h-1l-2 -9q-1 -3 -2.5 -11.5t-2.5 -12.5q-3 -15 -9 -36q-8 -28 -13 -43l-101 -310h-182l-205 700h205l66 -290q4 -18 11.5 -45.5t9.5 -38.5q7 -33 9 -33h1q1 0 10 33q10 38 28 84l89 232h181l89 -232q18 -46 28 -84q9 -33 10 -33h1
q1 0 9 33q0 1 7 32.5t12 51.5z" />
    <glyph glyph-name="wdieresis" unicode="&#x1e85;" horiz-adv-x="1071" 
d="M375 768h-1q-33 0 -58 23q-24 23 -24 57t24 58t59 24t57 -24q23 -25 23 -58q0 -34 -23 -57t-57 -23zM653 768q-34 0 -57 23t-23 57q0 33 23 58q22 24 57 24q34 0 58 -24t24 -58t-24 -57q-25 -23 -58 -23zM847 700h205l-210 -700h-182l-100 309q-7 22 -12 44q-1 6 -4 18.5
t-4 17.5q-1 4 -2.5 12.5t-2.5 11.5l-2 9h-1l-2 -9q-1 -3 -2.5 -11.5t-2.5 -12.5q-3 -15 -9 -36q-8 -28 -13 -43l-101 -310h-182l-205 700h205l66 -290q4 -18 11.5 -45.5t9.5 -38.5q7 -33 9 -33h1q1 0 10 33q10 38 28 84l89 232h181l89 -232q18 -46 28 -84q9 -33 10 -33h1
q1 0 9 33q0 1 7 32.5t12 51.5z" />
    <glyph glyph-name="uni1E9E" unicode="&#x1e9e;" horiz-adv-x="847" 
d="M74 700h674l-92 -181l-18 -36l-8.5 -17t-7.5 -16l-12 -24l-4 -9l1 -1h3q40 0 75 -16q36 -16 65 -44q28 -27 46 -64q18 -38 18 -78q0 -45 -17 -88q-16 -40 -50 -73q-32 -30 -80 -49q-48 -17 -107 -17q-81 0 -146 37q-63 38 -99 96l182 49q14 -10 26 -15t27 -5q22 0 35 6
t21 15q8 10 11 21q3 12 3 26q0 26 -19 45t-57 19h-125v137l15 38q6 15 20 45q9 19 9 21l-1 1q-8 0 -21 -1t-42 -1h-133v-521h-192v700z" />
    <glyph glyph-name="Ygrave" unicode="&#x1ef2;" horiz-adv-x="742" 
d="M422 724l-256 103l65 128l246 -131zM519 700h214l-267 -399v-301h-191v301l-267 399h215l113 -175q33 -50 34 -50h1q2 0 34 50z" />
    <glyph glyph-name="ygrave" unicode="&#x1ef3;" horiz-adv-x="742" 
d="M423 724l-256 103l65 128l246 -131zM519 700h214l-267 -399v-301h-191v301l-267 399h215l113 -175q33 -50 34 -50h1q2 0 34 50z" />
    <glyph glyph-name="uni2007" unicode="&#x2007;" horiz-adv-x="698" 
 />
    <glyph glyph-name="uni2009" unicode="&#x2009;" horiz-adv-x="120" 
 />
    <glyph glyph-name="uni200A" unicode="&#x200a;" horiz-adv-x="40" 
 />
    <glyph glyph-name="endash" unicode="&#x2013;" horiz-adv-x="583" 
d="M74 444h436v-179h-436v179z" />
    <glyph glyph-name="emdash" unicode="&#x2014;" horiz-adv-x="1040" 
d="M74 444h893v-179h-893v179z" />
    <glyph glyph-name="quoteleft" unicode="&#x2018;" horiz-adv-x="340" 
d="M184 587l-16 -4l15 -1q23 -4 42 -24q20 -20 20 -54q0 -18 -6 -33t-18 -27q-11 -11 -27 -19q-14 -7 -33 -7q-35 0 -61 26q-25 25 -25 69q0 24 9 51q9 26 26 53q16 25 39 51t48 45h68q-12 -7 -28 -24q-15 -17 -27 -36q-11 -18 -19 -37q-7 -17 -7 -29z" />
    <glyph glyph-name="quoteright" unicode="&#x2019;" horiz-adv-x="340" 
d="M155 542l17 4l-22 1q-22 5 -42 24q-20 20 -20 54q0 19 7 33q8 16 19 27q12 11 28 19q15 7 34 7q34 0 60 -26t26 -69q0 -24 -9 -51q-8 -25 -26 -54q-17 -27 -39 -51q-24 -26 -48 -44h-68q12 7 28 24q15 16 27 36q14 23 20 37q8 19 8 29z" />
    <glyph glyph-name="quotesinglbase" unicode="&#x201a;" horiz-adv-x="340" 
d="M155 -6l17 4l-22 1q-22 3 -42 23t-20 54q0 19 7 33q8 16 19 27q12 12 28 19q15 7 34 7q34 0 60 -26t26 -69q0 -24 -9 -51q-9 -25 -26 -53q-17 -27 -39 -51q-24 -26 -48 -44h-68q12 7 28 24q15 16 27 36q14 23 20 37q8 19 8 29z" />
    <glyph glyph-name="quotedblleft" unicode="&#x201c;" horiz-adv-x="582" 
d="M184 588l-16 -4l15 -1q23 -5 42 -24q20 -20 20 -54q0 -18 -6 -33t-18 -27q-11 -11 -27 -19q-14 -7 -33 -7q-35 0 -61 26q-25 25 -25 69q0 24 9 51q9 26 26 53q16 26 39 51t48 45h68q-12 -7 -28 -24q-15 -16 -27 -36q-11 -18 -19 -37q-7 -17 -7 -29zM427 587l-16 -4l16 -1
q23 -4 42 -24q20 -20 20 -54q0 -18 -6 -33t-18 -27q-11 -12 -28 -19q-15 -7 -34 -7q-34 0 -60 26q-25 25 -25 69q0 24 9 51q9 26 26 53q17 25 39 51t48 45h68q-12 -7 -28 -24q-15 -17 -27 -36q-11 -18 -19 -37q-7 -17 -7 -29z" />
    <glyph glyph-name="quotedblright" unicode="&#x201d;" horiz-adv-x="582" 
d="M152 541l17 4l-22 1q-23 4 -42 24q-20 20 -20 54q0 19 7 33q8 16 19 27q11 12 28 19q15 7 34 7q34 0 60 -26t26 -69q0 -24 -9 -51q-8 -25 -26 -54q-16 -27 -39 -51q-24 -26 -48 -44h-68q12 7 28 24q15 17 27 36q14 23 20 37q8 19 8 29zM398 542l16 4l-19 1q-23 5 -42 24
q-20 20 -20 54q0 18 6 33t18 27q11 11 28 19q15 7 34 7q34 0 60 -26t26 -69q0 -24 -9 -51q-8 -25 -26 -54q-16 -27 -39 -51q-24 -26 -48 -44h-68q12 7 28 24q15 16 27 36q14 23 20 37q8 19 8 29z" />
    <glyph glyph-name="quotedblbase" unicode="&#x201e;" horiz-adv-x="586" 
d="M150 -6l17 4l-22 2q-22 3 -42 23t-20 54q0 18 7 32q8 16 19 27q11 12 28 19q15 7 34 7q34 0 60 -26t26 -69q0 -24 -9 -51q-9 -25 -26 -53q-16 -27 -39 -51q-24 -26 -48 -44h-68q12 7 28 24q15 16 27 36q14 23 20 37q8 19 8 29zM402 -6l16 4l-21 2q-22 3 -42 23t-20 54
q0 35 25 60t63 25q34 0 60 -26q25 -25 25 -69q0 -24 -9 -51q-9 -25 -26 -53q-17 -27 -39 -51q-24 -26 -48 -44h-68q15 8 29 24q15 16 27 36q14 23 20 37q8 19 8 29z" />
    <glyph glyph-name="dagger" unicode="&#x2020;" horiz-adv-x="533" 
d="M527 547v-161l-177 -1v-82q0 -67 -3 -123q-3 -64 -7 -96q-4 -40 -9 -63l-4 -21h-123l-4 22q-4 22 -9 63q-4 32 -7 96q-3 55 -3 123v82h-174v161h174v153h169v-153h177z" />
    <glyph glyph-name="daggerdbl" unicode="&#x2021;" horiz-adv-x="533" 
d="M350 386v-82v-4h177v-161h-183q-5 -70 -10 -102q-6 -37 -7 -37h-123q-1 0 -7 37q-5 32 -10 102h-180v161h174v4v82h-174v161h174v153h169v-153h177v-161h-177z" />
    <glyph glyph-name="bullet" unicode="&#x2022;" horiz-adv-x="422" 
d="M212 217l-2 -3q-27 0 -54 11q-26 11 -45 30t-30 45q-10 24 -10 54q0 27 11 54q11 26 30 44q20 19 45 29q27 11 54 11q30 0 53 -10t42 -29t29 -43q11 -27 11 -54t-11 -54q-10 -25 -29 -45q-18 -19 -42 -30q-23 -10 -52 -10z" />
    <glyph glyph-name="ellipsis" unicode="&#x2026;" horiz-adv-x="793" 
d="M132 -12q-29 0 -51 20q-21 21 -21 51q0 29 21 50t51 21q29 0 50 -21t21 -50q0 -30 -21 -51q-22 -20 -50 -20zM392 -12q-29 0 -51 20q-21 21 -21 51q0 29 21 50t51 21q29 0 50 -21t21 -50q0 -30 -21 -51q-22 -20 -50 -20zM662 -12q-29 0 -51 20q-21 21 -21 51q0 29 21 50
t51 21q29 0 50 -21t21 -50q0 -30 -21 -51q-22 -20 -50 -20z" />
    <glyph glyph-name="perthousand" unicode="&#x2030;" horiz-adv-x="1328" 
d="M208 303h-1q-39 0 -72 15q-34 15 -56 42q-23 27 -36 64q-13 36 -13 81t13 81q13 37 36 64q22 27 56 42q33 15 72 15t72 -15q34 -15 56 -42q23 -27 36 -64q13 -36 13 -81t-13 -81q-13 -37 -36 -64t-55 -42q-33 -15 -72 -15zM145 -2l509 699h121l-509 -699h-121zM208 429
v-1q24 0 39 23t15 54t-15 54q-15 22 -39 22t-39 -22q-15 -23 -15 -54t15 -54q15 -22 39 -22zM714 -9h-1q-38 0 -72 14q-34 15 -56 42q-23 27 -36 63q-13 35 -13 80t13 81q13 37 36 64q22 27 56 42q33 15 72 15t72 -15q34 -15 56 -42q23 -27 36 -64q13 -36 13 -81t-13 -80
q-13 -36 -36 -63t-55 -42q-34 -14 -72 -14zM1119 -9h-1q-38 0 -72 14q-34 15 -56 42t-36 63q-13 35 -13 80t13 81q13 37 36 64q22 27 56 42q33 15 72 15t72 -15q34 -15 56 -42q23 -27 36 -64q13 -36 13 -81t-13 -80q-14 -36 -36 -63q-23 -27 -55 -42q-34 -14 -72 -14z
M715 116v-1q24 0 39 22q15 23 15 54t-15 54t-39 23t-39 -22t-15 -54t15 -54t39 -22zM1119 117v-1q24 0 39 22t15 54t-15 54q-15 23 -39 23t-39 -22q-15 -23 -15 -54t15 -54q15 -22 39 -22z" />
    <glyph glyph-name="guilsinglleft" unicode="&#x2039;" horiz-adv-x="487" 
d="M74 352l236 234l102 -103l-138 -131l139 -131l-104 -104z" />
    <glyph glyph-name="guilsinglright" unicode="&#x203a;" horiz-adv-x="487" 
d="M177 586l236 -234l-235 -235l-104 104l139 131l-138 131z" />
    <glyph glyph-name="fraction" unicode="&#x2044;" horiz-adv-x="134" 
d="M-247 0l508 700h121l-508 -700h-121z" />
    <glyph glyph-name="Euro" unicode="&#x20ac;" horiz-adv-x="802" 
d="M584 241l192 -47l-6 -3q-21 -47 -54 -84q-34 -39 -75 -65q-42 -27 -92 -42q-51 -14 -105 -14q-58 0 -111 15q-54 17 -96 46q-45 31 -77 72t-52 93h-78v122h54v13v13h-53v122h77q19 50 53 93q32 41 77 72q42 29 96 46q51 16 111 16q53 0 99 -13q49 -14 88 -37
q43 -25 74 -58q35 -36 56 -76l-194 -47q-22 24 -52 35q-32 12 -69 12q-33 0 -60 -10q-29 -11 -51 -30h123v-122h-185v-13v-13h183v-122h-119q46 -39 111 -39q43 0 79 18t56 47z" />
    <glyph glyph-name="uni20B9" unicode="&#x20b9;" horiz-adv-x="611" 
d="M585 556h-128l1 2q6 -14 8 -21q4 -14 5 -21h114v-138h-122q-35 -98 -141 -138l164 -240h-216l-146 225v137h76q23 0 41 15h-167v138h193q-21 41 -67 41h-126v144h511v-144z" />
    <glyph glyph-name="afii61352" unicode="&#x2116;" horiz-adv-x="1104" 
d="M754 535h-2q0 36 14 69q14 32 36 54q23 23 54 35q32 12 66 12q36 0 67 -12q30 -11 55 -35q23 -22 37 -54q14 -33 14 -69q0 -39 -13 -69q-14 -32 -37 -54q-25 -24 -55 -35q-32 -12 -67 -12t-66 12t-54 35q-23 22 -36 54q-13 30 -13 69zM525 699h192v-703h-181l-96 132
q-24 33 -54 75q-48 67 -56 79q-12 18 -44 63l-18 25h-1v-20v-57v-88v-113v-95h-192v699h180l104 -139q11 -13 27 -36q30 -41 35 -48l36 -51q7 -10 18.5 -26t14.5 -20q3 -5 11.5 -17t12.5 -17l10 -13h1v23v60v86v99v102zM867 540v-1q0 -29 16 -46q17 -18 42 -18t42 18
q17 19 17 46q0 28 -17 47q-17 18 -42 18t-42 -18q-16 -17 -16 -46zM764 314h322v-113h-322v113z" />
    <glyph glyph-name="trademark" unicode="&#x2122;" horiz-adv-x="789" 
d="M8 590v108h309v-108h-99v-217h-112v217h-98zM623 700h104l1 -327h-108v82q0 31 2 53q2 17 0 17h-1q-1 0 -13 -17q-3 -4 -12.5 -17.5t-15.5 -21.5l-14 -19h-44l-14 19q-21 30 -30 41q-12 15 -13 15h-1q-2 0 0 -17q2 -22 2 -53v-82h-108v325h103l45 -63q20 -28 27 -46
q7 -19 9 -19h1q1 0 9 20q8 21 27 47z" />
    <glyph glyph-name="oneeighth" unicode="&#x215b;" horiz-adv-x="776" 
d="M156 699h86l-1 -386h-120v163q0 28 3 48t3 21h-1q-2 0 -9 -12q-9 -14 -27 -28l-13 -10l-75 66zM60 0l509 699h121l-509 -699h-121zM692 203v-1l-4 2q28 -11 50 -33q23 -23 23 -63q0 -23 -11 -45q-10 -21 -30 -36q-19 -15 -47 -24q-29 -8 -59 -8q-31 0 -60 8q-28 9 -47 24
t-30 36q-11 22 -11 45q0 20 6 35q6 14 17 27t24 20q13 8 27 12v1q-17 4 -36 26q-18 21 -18 56q0 23 9 42t27 34q19 16 42 23q26 8 53 8q26 0 52 -8q25 -8 42 -22q18 -15 27 -34q9 -20 9 -42q0 -16 -6 -31q-6 -14 -15 -25q-9 -10 -18 -18t-16 -9zM579 284h-1q0 -13 11 -22
t27 -9t27 9q10 9 10 21q0 13 -11 22q-10 9 -26 9t-27 -9q-10 -9 -10 -21zM574 113l-2 -3q0 -17 13 -27t33 -10t32 12t12 27q0 17 -13 27q-14 11 -31 11q-20 0 -32 -12t-12 -25z" />
    <glyph glyph-name="threeeighths" unicode="&#x215c;" horiz-adv-x="832" 
d="M118 566l-99 26l-2 -8q11 52 51 84q40 31 101 31q66 0 105 -33t39 -84q0 -18 -8 -34q-7 -15 -19 -25q-12 -11 -25 -15q-12 -4 -24 -4v-1q31 0 56 -19q26 -20 26 -60q0 -26 -11 -50q-10 -22 -30 -39t-47 -26t-60 -9q-29 0 -54 9q-26 9 -47 24q-20 14 -36 35q-15 19 -21 44
l102 28q6 -19 18 -28t39 -9q15 0 26 8t11 21q0 17 -12 26t-28 9h-34v82h34q14 0 23 9t9 20q0 14 -10 21t-19 7q-20 0 -33 -7t-21 -33zM116 0l509 699h121l-509 -699h-121zM748 203v-1l-4 2q28 -11 50 -33q23 -23 23 -63q0 -23 -11 -45q-10 -21 -30 -36q-19 -15 -47 -24
q-29 -8 -59 -8q-31 0 -60 8q-28 9 -47 24t-30 36q-11 22 -11 45q0 20 6 35q6 14 17 27t24 20q13 8 27 12v1q-17 4 -36 26q-18 21 -18 56q0 23 9 42t27 34q19 16 42 23q26 8 53 8q26 0 52 -8q25 -8 42 -22q18 -15 27 -34q9 -20 9 -42q0 -16 -6 -31q-6 -14 -15 -25
q-9 -10 -18 -18t-16 -9zM635 284h-1q0 -13 11 -22t27 -9t27 9q10 9 10 21q0 13 -11 22q-10 9 -26 9t-27 -9q-10 -9 -10 -21zM630 113l-2 -3q0 -17 13 -27t33 -10t32 12t12 27q0 17 -13 27q-14 11 -31 11q-20 0 -32 -12t-12 -25z" />
    <glyph glyph-name="fiveeighths" unicode="&#x215d;" horiz-adv-x="807" 
d="M130 561l1 -1l-3 -1q5 5 11 8t23 3q70 0 109 -36t39 -93q0 -29 -12 -54q-13 -27 -31 -44q-20 -19 -47 -29q-26 -10 -58 -10t-57 9t-45 24q-21 16 -32 34q-12 19 -15 39l105 29q4 -12 14 -23q9 -11 28 -11t32 11q12 10 12 27q0 19 -12 29q-13 11 -32 11q-9 0 -21 -5
q-10 -4 -18 -20l-98 27l40 213h227v-104h-147q-5 -15 -9 -23t-4 -10zM600 699h121l-509 -699h-121zM723 203v-1l-4 2q28 -11 50 -33q23 -23 23 -63q0 -23 -11 -45q-11 -21 -30 -36t-47 -24q-29 -8 -59 -8q-31 0 -60 8q-28 9 -47 24q-20 15 -30 36q-11 22 -11 45q0 20 6 35
q6 14 17 27t24 20q14 8 27 12v1q-17 4 -36 26q-18 21 -18 56q0 23 9 42t27 34q19 16 42 23q26 8 53 8q26 0 52 -8q25 -8 42 -22q18 -15 27 -34q9 -20 9 -42q0 -16 -6 -31q-6 -14 -15 -25q-9 -10 -18 -18t-16 -9zM648 314h-1q-17 0 -27 -9t-10 -21q0 -13 11 -22t27 -9t27 9
q10 9 10 21q0 13 -11 22q-10 9 -26 9zM650 75l-2 -3q20 0 32 12t12 27q0 17 -13 27q-14 11 -31 11q-20 0 -32 -12t-12 -25q0 -17 13 -27t33 -10z" />
    <glyph glyph-name="seveneighths" unicode="&#x215e;" horiz-adv-x="711" 
d="M-2 -1l508 699h121l-509 -699h-120zM3 699h305l2 -65l-174 -322h-119l113 208q23 42 35 57q15 18 15 19l-1 1q-9 0 -24 -1t-57 -1h-95v104zM627 203v-1l-4 2q28 -11 50 -33q23 -23 23 -63q0 -23 -11 -45q-11 -21 -30 -36t-47 -24q-29 -8 -59 -8q-31 0 -60 8q-28 9 -47 24
q-20 15 -30 36q-11 22 -11 45q0 20 6 35q6 14 17 27t24 20q14 8 27 12v1q-17 4 -36 26q-18 21 -18 56q0 23 9 42t27 34q19 16 42 23q26 8 53 8q26 0 52 -8q25 -8 42 -22q18 -15 27 -34q9 -20 9 -42q0 -16 -6 -31q-6 -14 -15 -25q-9 -10 -18 -18t-16 -9zM514 284h-1
q0 -13 11 -22q10 -9 27 -9t27 9t10 21q0 13 -11 22t-26 9q-17 0 -27 -9t-10 -21zM509 113l-2 -3q0 -17 13 -27t33 -10t32 12t12 27q0 17 -13 27q-14 11 -31 11q-20 0 -32 -12t-12 -25z" />
    <glyph glyph-name="minus" unicode="&#x2212;" horiz-adv-x="698" 
d="M124 432h451v-156h-451v156z" />
    <glyph glyph-name="notequal" unicode="&#x2260;" horiz-adv-x="698" 
d="M588 650l-51 -102h38v-156h-117l-50 -99h167v-156h-246l-46 -92h-158l47 92h-48v156h128l51 99h-179v156h259l52 102h153z" />
    <glyph glyph-name="lessequal" unicode="&#x2264;" horiz-adv-x="698" 
d="M123 147h451v-155h-451v155zM348 367l133 -160h-219l-145 160l238 244h213z" />
    <glyph glyph-name="greaterequal" unicode="&#x2265;" horiz-adv-x="698" 
d="M217 207l133 160l-220 244h213l238 -244l-145 -160h-219zM124 147h451v-155h-451v155z" />
    <glyph glyph-name="lozenge" unicode="&#x25ca;" horiz-adv-x="718" 
d="M359 -13l-363 363l363 364l364 -364zM359 499l-149 -149l149 -149l149 149z" />
    <glyph glyph-name="glyph1" horiz-adv-x="0" 
 />
    <glyph glyph-name="glyph2" horiz-adv-x="0" 
 />
    <glyph glyph-name="glyph242" horiz-adv-x="752" 
d="M437 981l139 -77l-128 -185l-118 67zM714 527l-196 -51l-5 -6q-21 23 -55 36q-33 13 -66 13q-40 0 -69 -13q-31 -14 -51 -37t-31 -55q-11 -33 -11 -69q0 -81 45 -126t117 -45q42 0 80 18t56 47l195 -50q-23 -48 -55 -84q-34 -39 -75 -65q-43 -28 -93 -41
q-51 -15 -106 -15q-74 0 -141 26q-65 27 -115 75q-49 48 -78 116q-28 66 -28 147q0 78 29 147q29 68 78 116t116 75q66 27 141 27q54 0 100 -13q45 -13 88 -38q41 -24 74 -59q35 -36 56 -76z" />
    <glyph glyph-name="glyph243" horiz-adv-x="541" 
d="M367 168h141v-168h-475v168h142v364h-138v168h467v-168h-137v-364z" />
    <glyph glyph-name="glyph244" horiz-adv-x="1210" 
d="M367 528v-364h141v-167h-475v167h142v364h-138v168h467v-168h-137zM956 700h192v-387q0 -81 -24 -142t-67 -103t-102 -63q-60 -20 -128 -20q-48 0 -96 14q-43 11 -85 37q-38 23 -67 57q-29 33 -45 72l188 50q16 -23 42 -37q25 -13 62 -13q60 0 95 39q35 40 35 106v390z
" />
    <glyph glyph-name="glyph245" horiz-adv-x="1204" 
d="M367 528v-364h141v-167h-475v167h142v364h-138v168h467v-168h-137zM665 700h477v-387q0 -81 -24 -142t-67 -103t-102 -63q-60 -20 -128 -20q-48 0 -96 14q-43 11 -85 37q-38 23 -67 57q-29 33 -45 72l188 50q16 -23 42 -37q25 -13 62 -13q60 0 95 39q35 40 35 106v211
h-285v179z" />
    <glyph glyph-name="glyph246" horiz-adv-x="1003" 
d="M74 -3v699h192v-699h-192zM463 700h477v-387q0 -81 -24 -142t-67 -103t-102 -63q-60 -20 -128 -20q-48 0 -96 14q-43 11 -85 37q-38 23 -67 57q-29 33 -45 72l188 50q16 -23 42 -37q25 -13 62 -13q60 0 95 39q35 40 35 106v211h-285v179z" />
    <glyph glyph-name="glyph247" horiz-adv-x="541" 
d="M451 827l-256 -103l-55 100l246 131zM367 168h141v-168h-475v168h142v364h-138v168h467v-168h-137v-364z" />
    <glyph glyph-name="glyph248" horiz-adv-x="541" 
d="M268 815l-113 -93l-92 92l205 175l205 -175l-91 -92zM367 168h141v-168h-475v168h142v364h-138v168h467v-168h-137v-364z" />
    <glyph glyph-name="glyph249" horiz-adv-x="541" 
d="M130 769h-1q-33 0 -58 23q-24 22 -24 57q0 34 24 58t59 24q34 0 57 -24q23 -25 23 -58q0 -34 -23 -57t-57 -23zM408 769q-34 0 -57 23t-23 57q0 33 23 58q23 24 57 24t58 -24t24 -58q0 -35 -24 -57q-25 -23 -58 -23zM367 168h141v-168h-475v168h142v364h-138v168h467
v-168h-137v-364z" />
    <glyph glyph-name="glyph250" horiz-adv-x="541" 
d="M273 768q-34 0 -58 24t-24 58t24 58t58 24t58 -24t24 -58t-24 -58t-58 -24zM367 168h141v-168h-475v168h142v364h-138v168h467v-168h-137v-364z" />
    <glyph glyph-name="glyph251" horiz-adv-x="541" 
d="M380 824l-55 -100l-256 103l65 128zM367 168h141v-168h-475v168h142v364h-138v168h467v-168h-137v-364z" />
    <glyph glyph-name="glyph252" horiz-adv-x="541" 
d="M504 909v-147h-467v147h467zM367 168h141v-168h-475v168h142v364h-138v168h467v-168h-137v-364z" />
    <glyph glyph-name="glyph253" horiz-adv-x="541" 
d="M508 0h-261l1 -1q-19 0 -35 -4q-15 -4 -34 -14q-17 -9 -27 -24q-10 -14 -10 -34q0 -19 15 -36t49 -17q20 0 45 14q23 13 37 39l97 -66q-16 -28 -36 -47q-21 -20 -45 -33q-23 -13 -49 -19q-25 -6 -49 -6q-40 0 -78 11q-36 11 -63 33t-42 54t-15 74q0 25 7 45q8 23 18 37
v162h142v364h-138v168h467v-168h-137v-364h141v-168z" />
    <glyph glyph-name="glyph254" horiz-adv-x="686" 
d="M146 700h477v-387q0 -81 -24 -142t-67 -103q-44 -42 -102 -63q-60 -20 -128 -20q-48 0 -96 14q-43 11 -85 37q-38 23 -67 57q-28 33 -45 72l188 50q16 -23 42 -37q25 -13 62 -13q61 0 95 39q35 40 35 106v211h-285v179z" />
    <glyph glyph-name="glyph255" horiz-adv-x="686" 
d="M366 811l-114 -93l-91 92l205 175l204 -175l-91 -92zM146 700h477v-387q0 -81 -24 -142t-67 -103q-44 -42 -102 -63q-60 -20 -128 -20q-48 0 -96 14q-43 11 -85 37q-38 23 -67 57q-28 33 -45 72l188 50q16 -23 42 -37q25 -13 62 -13q61 0 95 39q35 40 35 106v211h-285
v179z" />
    <glyph glyph-name="glyph256" 
d="M525 700h192l-1 -702h-192v215l-83 75q-11 10 -32 28.5t-29 25.5q-45 41 -57 52q-25 24 -42 39l-17 15h-1l1 -5q0 -5 0.5 -15t0.5 -22q2 -54 2 -105v-302h-192v699h180l75 -75q23 -23 69 -65q35 -32 63 -57q43 -39 46 -41l18 -15h1q0 15 -1 41t-1 104v110z" />
    <glyph glyph-name="glyph257" 
d="M441 983l139 -77l-128 -185l-118 67zM525 700h192v-703h-181l-96 132q-24 33 -54 75q-48 66 -56 79q-12 18 -44 63l-18 25h-1v-20v-57v-88v-113v-95h-192v699h180l104 -139q11 -14 27 -36q30 -41 35 -48l36 -51q7 -10 18.5 -26t14.5 -20q3 -5 11.5 -17t12.5 -17l10 -13h1
v23v60v86v99v102z" />
    <glyph glyph-name="glyph258" 
d="M438 984l139 -77l-128 -185l-118 67zM525 700h192l-1 -702h-192v215l-83 75q-11 10 -32 28.5t-29 25.5q-45 41 -57 52q-25 24 -42 39l-17 15h-1l1 -5q0 -5 0.5 -15t0.5 -22q2 -54 2 -105v-302h-192v699h180l75 -75q23 -23 69 -65q35 -32 63 -57q43 -39 46 -41l18 -15h1
q0 15 -1 41t-1 104v110z" />
    <glyph glyph-name="glyph259" 
d="M505 952l65 -128l-256 -103l-55 100zM525 700h192l-1 -702h-192v215l-83 75q-11 10 -32 28.5t-29 25.5q-45 41 -57 52q-25 24 -42 39l-17 15h-1l1 -5q0 -5 0.5 -15t0.5 -22q2 -54 2 -105v-302h-192v699h180l75 -75q23 -23 69 -65q35 -32 63 -57q43 -39 46 -41l18 -15h1
q0 15 -1 41t-1 104v110z" />
    <glyph glyph-name="glyph260" 
d="M717 700h-192l-1 -110q0 -77 1 -103t1 -40h-1l-18 16q-3 2 -46 41q-29 26 -63 57q-46 42 -69 65l-75 75h-180v-700h192v303q0 78 -1 105t-1 42h1l17 -15q16 -15 42 -39q12 -11 57 -52q8 -7 29 -25.5t32 -28.5l83 -75v-216h192v700zM393 721l-206 175l92 92l114 -93
l113 93l91 -92z" />
    <glyph glyph-name="glyph261" 
d="M525 701h192l-1 -702h-192v215l-83 75q-11 10 -32 28.5t-29 25.5q-45 41 -57 52q-25 24 -42 39l-17 15h-1l1 -5q0 -5 0.5 -15t0.5 -22q2 -54 2 -105v-302h-192v699h180l75 -75q23 -23 69 -65q35 -31 63 -57q43 -39 46 -41l18 -15h1q0 15 -1 41t-1 104v110zM378 -189l15 4
l-15 3q-21 5 -37 21q-18 18 -18 48q0 31 23 54t56 23q32 0 54 -24q22 -23 22 -63q0 -21 -9 -45t-24 -48q-13 -20 -35 -46q-17 -20 -44 -40h-60q12 7 25 22q15 16 24 31q12 18 17 33q6 16 6 27z" />
    <glyph glyph-name="glyph262" 
d="M508 903h147l-3 -1q0 -38 -12 -69t-35 -54t-54 -36q-30 -13 -69 -13q-30 0 -51 10q-27 12 -41 22q-7 5 -19.5 12.5t-15.5 9.5q-16 10 -34 10q-19 0 -31 -12t-12 -30h-148q0 39 13 69q13 31 36 54t54 36q30 13 69 13q32 0 53 -10q27 -12 41 -22q7 -5 19.5 -12.5t15.5 -9.5
q16 -10 33 -10q20 0 32 12t12 31zM525 700h192l-1 -702h-192v215l-83 75q-11 10 -32 28.5t-29 25.5q-45 41 -57 52q-25 24 -42 39l-17 15h-1l1 -5q0 -5 0.5 -15t0.5 -22q2 -54 2 -105v-302h-192v699h180l75 -75q23 -23 69 -65q35 -32 63 -57q43 -39 46 -41l18 -15h1
q0 15 -1 41t-1 104v110z" />
    <glyph glyph-name="glyph263" horiz-adv-x="792" 
d="M444 985l139 -77l-128 -185l-118 67zM33 350l-3 -2q0 78 29 147q29 68 78 116t116 75q66 27 141 27t141 -27q67 -27 116 -75q50 -48 78 -115q29 -69 29 -147q0 -81 -28 -147q-28 -67 -78 -115q-49 -48 -116 -75q-67 -26 -141 -26t-141 26q-65 27 -115 75q-49 48 -78 116
q-28 66 -28 147zM233 350q0 -40 12 -71t33 -54q22 -23 51 -35q30 -12 68 -12t68 12q29 12 51 35t32 54q11 33 11 71q0 79 -43 126q-44 48 -120 48t-120 -48q-43 -47 -43 -126z" />
    <glyph glyph-name="glyph264" horiz-adv-x="826" 
d="M791 188h8l-4 -191h-405q-77 0 -141 26q-65 27 -115 75t-78 114q-28 65 -28 144q0 77 29 144q29 66 78 114q50 48 115 75q66 27 141 27t141 -27q67 -27 116 -75q50 -48 78 -114q29 -67 29 -144q0 -44 -6 -88q-6 -40 -20 -85l1 -1q1 0 13 3t48 3zM233 357l-1 -1
q0 -40 12 -72q11 -30 35 -52t52 -32q31 -11 64 -11q32 0 63 11q28 10 52 32q22 21 36 53q13 30 13 72q0 40 -13 70q-14 31 -36 54q-22 22 -52 34t-63 12q-34 0 -64 -12t-52 -34t-34 -54q-12 -31 -12 -70z" />
    <glyph glyph-name="glyph265" horiz-adv-x="619" 
d="M367 975l139 -77l-128 -185l-118 67zM593 521l-185 -51l-5 -12q-8 22 -19 36q-12 15 -27 24q-17 10 -30 14q-17 5 -30 5q-28 0 -43 -12t-15 -24q0 -13 11 -24t30 -20q18 -8 47 -18q23 -8 58 -21q37 -14 77 -35q36 -19 67 -45q30 -26 48 -60t18 -78q0 -48 -20 -90
q-19 -40 -57 -70t-88 -45q-49 -16 -113 -16q-108 0 -187 55q-78 55 -117 158l184 49q7 -15 20 -33q11 -15 29 -30q16 -14 36 -21q21 -8 44 -8q37 0 51 13q15 14 15 31q0 16 -12 28q-11 11 -35 22q-23 11 -54 21q-24 8 -69 26q-32 14 -63 30q-33 17 -57 40q-26 25 -41 57
q-15 33 -15 80q0 40 20 80q19 38 56 69q36 30 85 48t108 18q51 0 96 -15q44 -15 81 -41t62 -60q26 -34 39 -75z" />
    <glyph glyph-name="glyph266" horiz-adv-x="742" 
d="M733 700l-232 -346h96v-156h-131v-198h-191v198h-129v156h94l-232 346h215l113 -175q33 -50 34 -50h1q2 0 34 50l114 175h214z" />
    <glyph glyph-name="glyph267" horiz-adv-x="742" 
d="M548 827l-256 -103l-55 100l246 131zM733 700l-232 -346h96v-156h-131v-198h-191v198h-129v156h94l-232 346h215l113 -175q33 -50 34 -50h1q2 0 34 50l114 175h214z" />
    <glyph glyph-name="glyph268" horiz-adv-x="742" 
d="M365 815l-113 -93l-92 92l205 175l205 -175l-91 -92zM733 700l-232 -346h96v-156h-131v-198h-191v198h-129v156h94l-232 346h215l113 -175q33 -50 34 -50h1q2 0 34 50l114 175h214z" />
    <glyph glyph-name="glyph269" horiz-adv-x="742" 
d="M227 769h-1q-33 0 -58 23q-24 22 -24 57q0 34 24 58t59 24t57 -24q23 -25 23 -58q0 -34 -23 -57t-57 -23zM505 769q-34 0 -57 23t-23 57q0 33 23 58q22 24 57 24q34 0 58 -24t24 -58q0 -35 -24 -57q-25 -23 -58 -23zM733 700l-232 -346h96v-156h-131v-198h-191v198h-129
v156h94l-232 346h215l113 -175q33 -50 34 -50h1q2 0 34 50l114 175h214z" />
    <glyph glyph-name="glyph270" horiz-adv-x="742" 
d="M477 824l-55 -100l-256 103l65 128zM733 700l-232 -346h96v-156h-131v-198h-191v198h-129v156h94l-232 346h215l113 -175q33 -50 34 -50h1q2 0 34 50l114 175h214z" />
    <glyph glyph-name="glyph271" horiz-adv-x="718" 
d="M414 981l139 -77l-128 -185l-118 67zM658 700v-180l-270 -279l-24 -24q-15 -15 -21 -22t-15 -16l-6 -6l1 -1h4q4 1 12 1.5t18 0.5q44 2 81 2h220v-178h-598v179l283 281q14 14 22 21q4 3 11 10t11 10l18 15l7 6l-1 1h-12h-30h-37h-36h-226v179h588z" />
    <glyph glyph-name="glyph272" horiz-adv-x="752" 
d="M437 981l139 -77l-128 -185l-118 67zM714 527l-196 -51l-5 -6q-21 23 -55 36q-33 13 -66 13q-40 0 -69 -13q-31 -14 -51 -37t-31 -55q-11 -33 -11 -69q0 -81 45 -126t117 -45q42 0 80 18t56 47l195 -50q-23 -48 -55 -84q-34 -39 -75 -65q-43 -28 -93 -41
q-51 -15 -106 -15q-74 0 -141 26q-65 27 -115 75q-49 48 -78 116q-28 66 -28 147q0 78 29 147q29 68 78 116t116 75q66 27 141 27q54 0 100 -13q45 -13 88 -38q41 -24 74 -59q35 -36 56 -76z" />
    <glyph glyph-name="glyph273" horiz-adv-x="686" 
d="M146 700h477v-387q0 -81 -24 -142t-67 -103q-44 -42 -102 -63q-60 -20 -128 -20q-48 0 -96 14q-43 11 -85 37q-38 23 -67 57q-28 33 -45 72l188 50q16 -23 42 -37q25 -13 62 -13q61 0 95 39q35 40 35 106v211h-285v179z" />
    <glyph glyph-name="glyph274" horiz-adv-x="541" 
d="M367 168h141v-168h-475v168h142v364h-138v168h467v-168h-137v-364z" />
    <glyph glyph-name="glyph275" horiz-adv-x="541" 
d="M451 827l-256 -103l-55 100l246 131zM367 168h141v-168h-475v168h142v364h-138v168h467v-168h-137v-364z" />
    <glyph glyph-name="glyph276" horiz-adv-x="541" 
d="M268 815l-113 -93l-92 92l205 175l205 -175l-91 -92zM367 168h141v-168h-475v168h142v364h-138v168h467v-168h-137v-364z" />
    <glyph glyph-name="glyph277" horiz-adv-x="541" 
d="M130 769h-1q-33 0 -58 23q-24 22 -24 57q0 34 24 58t59 24q34 0 57 -24q23 -25 23 -58q0 -34 -23 -57t-57 -23zM408 769q-34 0 -57 23t-23 57q0 33 23 58q23 24 57 24t58 -24t24 -58q0 -35 -24 -57q-25 -23 -58 -23zM367 168h141v-168h-475v168h142v364h-138v168h467
v-168h-137v-364z" />
    <glyph glyph-name="glyph278" horiz-adv-x="541" 
d="M273 768q-34 0 -58 24t-24 58t24 58t58 24t58 -24t24 -58t-24 -58t-58 -24zM367 168h141v-168h-475v168h142v364h-138v168h467v-168h-137v-364z" />
    <glyph glyph-name="glyph279" horiz-adv-x="541" 
d="M380 824l-55 -100l-256 103l65 128zM367 168h141v-168h-475v168h142v364h-138v168h467v-168h-137v-364z" />
    <glyph glyph-name="glyph280" horiz-adv-x="1210" 
d="M367 528v-364h141v-167h-475v167h142v364h-138v168h467v-168h-137zM956 700h192v-387q0 -81 -24 -142t-67 -103t-102 -63q-60 -20 -128 -20q-48 0 -96 14q-43 11 -85 37q-38 23 -67 57q-29 33 -45 72l188 50q16 -23 42 -37q25 -13 62 -13q60 0 95 39q35 40 35 106v390z
" />
    <glyph glyph-name="glyph281" horiz-adv-x="1204" 
d="M367 528v-364h141v-167h-475v167h142v364h-138v168h467v-168h-137zM665 700h477v-387q0 -81 -24 -142t-67 -103t-102 -63q-60 -20 -128 -20q-48 0 -96 14q-43 11 -85 37q-38 23 -67 57q-29 33 -45 72l188 50q16 -23 42 -37q25 -13 62 -13q60 0 95 39q35 40 35 106v211
h-285v179z" />
    <glyph glyph-name="glyph282" horiz-adv-x="1003" 
d="M74 -3v699h192v-699h-192zM463 700h477v-387q0 -81 -24 -142t-67 -103t-102 -63q-60 -20 -128 -20q-48 0 -96 14q-43 11 -85 37q-38 23 -67 57q-29 33 -45 72l188 50q16 -23 42 -37q25 -13 62 -13q60 0 95 39q35 40 35 106v211h-285v179z" />
    <glyph glyph-name="glyph283" horiz-adv-x="541" 
d="M504 909v-147h-467v147h467zM367 168h141v-168h-475v168h142v364h-138v168h467v-168h-137v-364z" />
    <glyph glyph-name="glyph284" horiz-adv-x="541" 
d="M508 0h-261l1 -1q-19 0 -35 -4q-15 -4 -34 -14q-17 -9 -27 -24q-10 -14 -10 -34q0 -19 15 -36t49 -17q20 0 45 14q23 13 37 39l97 -66q-16 -28 -36 -47q-21 -20 -45 -33q-23 -13 -49 -19q-25 -6 -49 -6q-40 0 -78 11q-36 11 -63 33t-42 54t-15 74q0 25 7 45q8 23 18 37
v162h142v364h-138v168h467v-168h-137v-364h141v-168z" />
    <glyph glyph-name="glyph285" horiz-adv-x="686" 
d="M146 700h477v-387q0 -81 -24 -142t-67 -103q-44 -42 -102 -63q-60 -20 -128 -20q-48 0 -96 14q-43 11 -85 37q-38 23 -67 57q-28 33 -45 72l188 50q16 -23 42 -37q25 -13 62 -13q61 0 95 39q35 40 35 106v211h-285v179z" />
    <glyph glyph-name="glyph286" horiz-adv-x="686" 
d="M365 811l-113 -93l-92 92l205 175l205 -175l-91 -92zM146 700h477v-387q0 -81 -24 -142t-67 -103q-44 -42 -102 -63q-60 -20 -128 -20q-48 0 -96 14q-43 11 -85 37q-38 23 -67 57q-28 33 -45 72l188 50q16 -23 42 -37q25 -13 62 -13q61 0 95 39q35 40 35 106v211h-285
v179z" />
    <glyph glyph-name="glyph287" 
d="M525 700h192l-1 -702h-192v215l-83 75q-11 10 -32 28.5t-29 25.5q-45 41 -57 52q-25 24 -42 39l-17 15h-1l1 -5q0 -5 0.5 -15t0.5 -22q2 -54 2 -105v-302h-192v699h180l75 -75q23 -23 69 -65q35 -32 63 -57q43 -39 46 -41l18 -15h1q0 15 -1 41t-1 104v110z" />
    <glyph glyph-name="glyph288" 
d="M441 983l139 -77l-128 -185l-118 67zM525 700h192v-703h-181l-96 132q-24 33 -54 75q-48 66 -56 79q-12 18 -44 63l-18 25h-1v-20v-57v-88v-113v-95h-192v699h180l104 -139q11 -14 27 -36q30 -41 35 -48l36 -51q7 -10 18.5 -26t14.5 -20q3 -5 11.5 -17t12.5 -17l10 -13h1
v23v60v86v99v102z" />
    <glyph glyph-name="glyph289" 
d="M438 984l139 -77l-128 -185l-118 67zM525 700h192l-1 -702h-192v215l-83 75q-11 10 -32 28.5t-29 25.5q-45 41 -57 52q-25 24 -42 39l-17 15h-1l1 -5q0 -5 0.5 -15t0.5 -22q2 -54 2 -105v-302h-192v699h180l75 -75q23 -23 69 -65q35 -32 63 -57q43 -39 46 -41l18 -15h1
q0 15 -1 41t-1 104v110z" />
    <glyph glyph-name="glyph290" 
d="M505 952l65 -128l-256 -103l-55 100zM525 700h192l-1 -702h-192v215l-83 75q-11 10 -32 28.5t-29 25.5q-45 41 -57 52q-25 24 -42 39l-17 15h-1l1 -5q0 -5 0.5 -15t0.5 -22q2 -54 2 -105v-302h-192v699h180l75 -75q23 -23 69 -65q35 -32 63 -57q43 -39 46 -41l18 -15h1
q0 15 -1 41t-1 104v110z" />
    <glyph glyph-name="glyph291" 
d="M717 700h-192l-1 -110q0 -77 1 -103t1 -40h-1l-18 16q-3 2 -46 41q-29 26 -63 57q-46 42 -69 65l-75 75h-180v-700h192v303q0 78 -1 105t-1 42h1l17 -15q16 -15 42 -39q12 -11 57 -52q8 -7 29 -25.5t32 -28.5l83 -75v-216h192v700zM393 721l-206 175l92 92l114 -93
l113 93l91 -92z" />
    <glyph glyph-name="glyph292" 
d="M525 701h192l-1 -702h-192v215l-83 75q-11 10 -32 28.5t-29 25.5q-45 41 -57 52q-25 24 -42 39l-17 15h-1l1 -5q0 -5 0.5 -15t0.5 -22q2 -54 2 -105v-302h-192v699h180l75 -75q23 -23 69 -65q35 -31 63 -57q43 -39 46 -41l18 -15h1q0 15 -1 41t-1 104v110zM378 -189l15 4
l-15 3q-21 5 -37 21q-18 18 -18 48q0 31 23 54t56 23q32 0 54 -24q22 -23 22 -63q0 -21 -9 -45t-24 -48q-13 -20 -35 -46q-17 -20 -44 -40h-60q12 7 25 22q15 16 24 31q12 18 17 33q6 16 6 27z" />
    <glyph glyph-name="glyph293" 
d="M508 903h147l-3 -1q0 -38 -12 -69t-35 -54t-54 -36q-30 -13 -69 -13q-30 0 -51 10q-27 12 -41 22q-7 5 -19.5 12.5t-15.5 9.5q-16 10 -34 10q-19 0 -31 -12t-12 -30h-148q0 39 13 69q13 31 36 54t54 36q30 13 69 13q32 0 53 -10q27 -12 41 -22q7 -5 19.5 -12.5t15.5 -9.5
q16 -10 33 -10q20 0 32 12t12 31zM525 700h192l-1 -702h-192v215l-83 75q-11 10 -32 28.5t-29 25.5q-45 41 -57 52q-25 24 -42 39l-17 15h-1l1 -5q0 -5 0.5 -15t0.5 -22q2 -54 2 -105v-302h-192v699h180l75 -75q23 -23 69 -65q35 -32 63 -57q43 -39 46 -41l18 -15h1
q0 15 -1 41t-1 104v110z" />
    <glyph glyph-name="glyph294" horiz-adv-x="792" 
d="M444 985l139 -77l-128 -185l-118 67zM33 350l-3 -2q0 78 29 147q29 68 78 116t116 75q66 27 141 27t141 -27q67 -27 116 -75q50 -48 78 -115q29 -69 29 -147q0 -81 -28 -147q-28 -67 -78 -115q-49 -48 -116 -75q-67 -26 -141 -26t-141 26q-65 27 -115 75q-49 48 -78 116
q-28 66 -28 147zM233 350q0 -40 12 -71t33 -54q22 -23 51 -35q30 -12 68 -12t68 12q29 12 51 35t32 54q11 33 11 71q0 79 -43 126q-44 48 -120 48t-120 -48q-43 -47 -43 -126z" />
    <glyph glyph-name="glyph295" horiz-adv-x="826" 
d="M791 188h8l-4 -191h-405q-77 0 -141 26q-65 27 -115 75t-78 114q-28 65 -28 144q0 77 29 144q29 66 78 114q50 48 115 75q66 27 141 27t141 -27q67 -27 116 -75q50 -48 78 -114q29 -67 29 -144q0 -44 -6 -88q-6 -40 -20 -85l1 -1q1 0 13 3t48 3zM233 357l-1 -1
q0 -40 12 -72q11 -30 35 -52t52 -32q31 -11 64 -11q32 0 63 11q28 10 52 32q22 21 36 53q13 30 13 72q0 40 -13 70q-14 31 -36 54q-22 22 -52 34t-63 12q-34 0 -64 -12t-52 -34t-34 -54q-12 -31 -12 -70z" />
    <glyph glyph-name="glyph296" horiz-adv-x="619" 
d="M367 975l139 -77l-128 -185l-118 67zM593 521l-185 -51l-5 -12q-8 22 -19 36q-12 15 -27 24q-17 10 -30 14q-17 5 -30 5q-28 0 -43 -12t-15 -24q0 -13 11 -24t30 -20q18 -8 47 -18q23 -8 58 -21q37 -14 77 -35q36 -19 67 -45q30 -26 48 -60t18 -78q0 -48 -20 -90
q-19 -40 -57 -70t-88 -45q-49 -16 -113 -16q-108 0 -187 55q-78 55 -117 158l184 49q7 -15 20 -33q11 -15 29 -30q16 -14 36 -21q21 -8 44 -8q37 0 51 13q15 14 15 31q0 16 -12 28q-11 11 -35 22q-23 11 -54 21q-24 8 -69 26q-32 14 -63 30q-33 17 -57 40q-26 25 -41 57
q-15 33 -15 80q0 40 20 80q19 38 56 69q36 30 85 48t108 18q51 0 96 -15q44 -15 81 -41t62 -60q26 -34 39 -75z" />
    <glyph glyph-name="glyph297" horiz-adv-x="742" 
d="M733 700l-232 -346h96v-156h-131v-198h-191v198h-129v156h94l-232 346h215l113 -175q33 -50 34 -50h1q2 0 34 50l114 175h214z" />
    <glyph glyph-name="glyph298" horiz-adv-x="742" 
d="M548 827l-256 -103l-55 100l246 131zM733 700l-232 -346h96v-156h-131v-198h-191v198h-129v156h94l-232 346h215l113 -175q33 -50 34 -50h1q2 0 34 50l114 175h214z" />
    <glyph glyph-name="glyph299" horiz-adv-x="742" 
d="M365 815l-113 -93l-92 92l205 175l205 -175l-91 -92zM733 700l-232 -346h96v-156h-131v-198h-191v198h-129v156h94l-232 346h215l113 -175q33 -50 34 -50h1q2 0 34 50l114 175h214z" />
    <glyph glyph-name="glyph300" horiz-adv-x="742" 
d="M227 769h-1q-33 0 -58 23q-24 22 -24 57q0 34 24 58t59 24t57 -24q23 -25 23 -58q0 -34 -23 -57t-57 -23zM505 769q-34 0 -57 23t-23 57q0 33 23 58q22 24 57 24q34 0 58 -24t24 -58q0 -35 -24 -57q-25 -23 -58 -23zM733 700l-232 -346h96v-156h-131v-198h-191v198h-129
v156h94l-232 346h215l113 -175q33 -50 34 -50h1q2 0 34 50l114 175h214z" />
    <glyph glyph-name="glyph301" horiz-adv-x="742" 
d="M477 824l-55 -100l-256 103l65 128zM733 700l-232 -346h96v-156h-131v-198h-191v198h-129v156h94l-232 346h215l113 -175q33 -50 34 -50h1q2 0 34 50l114 175h214z" />
    <glyph glyph-name="glyph302" horiz-adv-x="718" 
d="M414 981l139 -77l-128 -185l-118 67zM658 700v-180l-270 -279l-24 -24q-15 -15 -21 -22t-15 -16l-6 -6l1 -1h4q4 1 12 1.5t18 0.5q44 2 81 2h220v-178h-598v179l283 281q14 14 22 21q4 3 11 10t11 10l18 15l7 6l-1 1h-12h-30h-37h-36h-226v179h588z" />
    <glyph glyph-name="glyph326" horiz-adv-x="717" 
d="M357 714l-3 -6q76 0 135 -28q60 -28 102 -78q43 -51 65 -115q23 -67 23 -142q0 -77 -22 -142q-22 -64 -65 -115q-42 -50 -102 -78q-60 -27 -135 -27q-73 0 -135 28q-60 29 -102 78q-41 48 -64 116q-22 65 -22 143q0 76 23 143q22 66 65 116q42 49 102 78q61 29 135 29z
M245 264l153 256l-1 -2q-18 6 -40 6q-35 0 -58 -13q-24 -13 -39 -36t-21 -54t-6 -69q0 -50 12 -88zM472 439l-153 -258v2q20 -5 39 -5q34 0 57 13q24 13 39 36q16 24 23 54q7 29 7 69q0 50 -12 89z" />
    <glyph glyph-name="glyph327" horiz-adv-x="371" 
d="M186 467h-1q-39 0 -72 15q-34 15 -56 42q-23 27 -36 64q-13 36 -13 81t13 81q13 37 36 64q22 27 56 42q33 15 72 15t72 -15q34 -15 56 -42q23 -27 36 -64q13 -36 13 -81t-13 -81q-13 -37 -36 -64t-55 -42q-33 -15 -72 -15zM186 593v-1q24 0 39 23t15 54t-15 54
q-15 22 -39 22t-39 -22q-15 -23 -15 -54t15 -54q15 -22 39 -22z" />
    <glyph glyph-name="glyph328" horiz-adv-x="366" 
d="M340 632v-99h-39v-58h-106v58h-185v82l198 246h93v-229h39zM167 631h28v47v24h-1l-6 -8l-45 -51q-6 -7 -11 -12q-2 -2 -2 -3v-1h1l1 1q2 0 5 0.5t6 0.5q14 2 24 2z" />
    <glyph glyph-name="glyph329" horiz-adv-x="346" 
d="M137 724l1 -1l-3 -1q5 5 11 8t23 3q70 0 109 -36t39 -93q0 -28 -12 -54q-13 -27 -31 -44q-20 -19 -47 -29q-26 -10 -58 -10q-31 0 -57 9t-45 24q-21 16 -32 34q-12 20 -15 39l105 29q4 -12 14 -23q9 -11 28 -11t32 11q12 11 12 27q0 18 -12 29q-13 11 -32 11q-9 0 -21 -5
q-10 -4 -18 -20l-98 27l40 213h227v-104h-147q-5 -15 -9 -23t-4 -10z" />
    <glyph glyph-name="glyph330" horiz-adv-x="342" 
d="M268 862l-91 -125q1 -1 3 -2q1 -1 3 -1q29 0 54 -11q23 -10 42 -29q18 -18 27 -42t9 -51q0 -30 -12 -54t-33 -42t-48 -27t-59 -9q-31 0 -60 9q-28 9 -49 27t-34 43t-13 57q0 47 18 85q17 36 50 78l71 94h122zM162 568h-2q21 0 32 10q12 10 12 27q-1 37 -42 37
q-20 0 -31 -10q-12 -10 -12 -27t12 -27q11 -10 31 -10z" />
    <glyph glyph-name="glyph331" horiz-adv-x="320" 
d="M10 862h305l2 -65l-174 -322h-119l113 208q23 42 35 57q15 18 15 19l-1 1q-9 0 -24 -1t-57 -1h-95v104z" />
    <glyph glyph-name="glyph332" horiz-adv-x="315" 
d="M231 679v-1l-4 2q28 -11 50 -33q23 -23 23 -63q0 -23 -11 -45q-11 -21 -30 -36t-47 -24q-27 -9 -59 -9q-33 0 -60 9q-28 9 -47 24q-20 15 -30 36q-11 22 -11 45q0 20 6 35q6 14 17 27t24 20q14 8 27 12v1q-17 4 -36 26q-18 21 -18 56q0 23 9 42t27 34q19 16 42 23
q26 8 53 8q26 0 52 -8q25 -8 42 -22q18 -15 27 -34q9 -20 9 -42q0 -16 -6 -31q-6 -14 -15 -25q-9 -10 -18 -18t-16 -9zM118 760h-1q0 -13 11 -22q10 -9 27 -9t27 9t10 21q0 13 -11 22t-26 9q-17 0 -27 -9t-10 -21zM113 589l-2 -3q0 -17 13 -27t33 -10t32 12t12 27
q0 17 -13 27q-14 11 -31 11q-20 0 -32 -12t-12 -25z" />
    <glyph glyph-name="glyph333" horiz-adv-x="325" 
d="M42 476l109 126l-4 -1q1 1 -0.5 2t-4.5 1h-2h-3q-29 0 -54 11q-23 10 -42 29q-18 18 -27 42t-9 51q0 30 12 54t33 42t48 27t59 9q31 0 60 -9t50 -27q22 -19 35 -43q13 -25 13 -57q0 -48 -16 -83q-18 -39 -46 -74l-82 -100h-129zM159 771q-20 0 -31 -10q-12 -10 -10 -27
q0 -16 11 -27q10 -10 30 -10t30 10q11 11 11 27t-11 27q-10 10 -30 10z" />
    <glyph glyph-name="glyph334" horiz-adv-x="698" 
d="M346 714h-1q76 0 131 -31q57 -32 92 -82q36 -51 54 -117t18 -135t-18 -135t-54 -117q-35 -50 -92 -82q-56 -30 -131 -30t-130 30q-57 32 -92 82q-36 51 -54 117t-18 135t18 135t54 117q35 50 92 82q55 31 131 31zM348 524h-2q-35 0 -54 -19t-28 -46q-10 -29 -11 -57
q-2 -40 -2 -52t2 -52q1 -28 11 -57q8 -25 29 -46q19 -19 54 -19q34 0 53 19q20 21 29 46q9 27 12 57t3 52t-3 52t-12 57q-9 25 -29 46q-19 19 -52 19z" />
    <glyph glyph-name="glyph335" horiz-adv-x="698" 
d="M489 179h161l-1 -179h-516v179h163v120v39q0 15 2 39q1 12 1 30v12h-1q-1 0 -16 -20q-17 -22 -40 -45l-15 -15l-118 113l247 248h133v-521z" />
    <glyph glyph-name="glyph336" horiz-adv-x="698" 
d="M250 470l-177 47l-3 1q12 40 36 76t57 63t77 42t98 15q58 0 106 -18t82 -49q36 -33 53 -73q18 -42 18 -90t-15 -84q-15 -37 -39 -65t-55 -52q-30 -22 -64 -46q-18 -13 -36 -24q-20 -12 -31 -19q-12 -8 -22 -13l-8 -5l1 -1q1 0 52 3t136 3h84v-179h-522v157q22 20 68.5 62
t70.5 63t70.5 63t68.5 62q26 23 37 41q12 20 12 36q0 22 -18 42q-18 19 -52 19q-19 0 -34 -9q-14 -8 -25 -21q-10 -11 -16 -25q-8 -18 -10 -22z" />
    <glyph glyph-name="glyph337" horiz-adv-x="698" 
d="M254 470l-171 46l-7 1q12 45 36 81q25 37 60 62q36 26 81 39q47 14 97 14q59 0 107 -15q47 -15 81 -44q33 -29 51 -67q18 -39 18 -85q0 -35 -13 -60t-33 -43q-19 -18 -42 -27q-21 -8 -40 -10v-1q29 0 53 -10q25 -10 46 -30q21 -19 33 -48t12 -64q0 -47 -20 -89t-55 -71
q-37 -31 -85 -47q-53 -16 -109 -16q-49 0 -97 14q-45 15 -84 41q-36 25 -64 60q-26 34 -37 75l173 48q14 -29 37 -48q25 -20 65 -20q13 0 27 3q12 3 24 11q10 7 18 20t8 29q0 26 -22 44t-60 18h-58v149h58q38 0 54 18q16 17 16 38q0 30 -21 44q-22 14 -48 14q-31 0 -51 -16
q-22 -17 -38 -58z" />
    <glyph glyph-name="glyph338" horiz-adv-x="698" 
d="M644 277v-166h-69v-111h-180v111h-343v145l365 443h158v-422h69zM263 278v-1l5 -1h21h53h52v54v52v40l1 16h-1l-7 -9q-13 -16 -18 -22q-14 -18 -22 -28q-6 -7 -21 -25l-32 -37q-3 -3 -11 -13t-11 -14q-9 -10 -9 -12z" />
    <glyph glyph-name="glyph339" horiz-adv-x="698" 
d="M279 457l1 -1l-1 -6q7 1 23 3q10 1 35 1q55 0 104 -17q47 -16 84 -47q36 -30 57 -72t21 -92q0 -51 -20 -97q-19 -44 -56 -78q-36 -33 -84 -51q-49 -17 -105 -17q-53 0 -98 15q-43 13 -79 38q-33 23 -58 56q-24 32 -33 63l176 46q6 -10 10 -16q7 -10 16 -18q10 -9 24 -15
t35 -6q35 0 57 24q23 25 23 60q0 38 -24 60q-23 22 -56 22q-39 0 -53 -13q-15 -13 -19 -25l-165 45l63 380h405v-179h-268l-12 -50q-3 -12 -3 -13z" />
    <glyph glyph-name="glyph340" horiz-adv-x="698" 
d="M530 699l-175 -235h1q2 0 3 1t5 3q3 2 9 3q8 2 17 2q58 0 101 -21t73 -55t45 -80q15 -45 15 -94q0 -53 -21 -96t-59 -75q-37 -31 -89 -48q-54 -16 -110 -16q-54 0 -108 16q-50 16 -88 48q-37 32 -60 78q-22 45 -22 105q0 45 10 81q11 41 28 74q19 38 42 71q19 27 53 72
l124 166h206zM354 154l-3 -1q40 0 66 23q24 21 24 57q-2 38 -26 60q-26 23 -63 23q-42 0 -66 -24t-24 -58q0 -36 27 -58q26 -22 65 -22z" />
    <glyph glyph-name="glyph341" horiz-adv-x="698" 
d="M110 700h546l-1 -113l-330 -589h-206l191 334q21 37 40 67q34 53 38 60q24 40 27 44l11 17l-1 1h-11h-26h-33h-31h-214v179z" />
    <glyph glyph-name="glyph342" horiz-adv-x="698" 
d="M489 370v-1h-3q24 -8 45 -22q24 -16 42 -37q19 -21 31 -51q12 -29 12 -63q0 -45 -21 -84t-57 -69t-85 -45q-51 -17 -108 -17t-108 17q-47 14 -85 46q-37 31 -56 69q-20 40 -20 84q0 35 12 63t30 51q17 21 41 37q23 15 45 21v1q-14 3 -30 15q-14 11 -31 32q-14 18 -25 45
q-10 24 -10 57q0 41 18 75t50 60q30 25 75 40q43 15 95 15t96 -15q45 -15 75 -40q32 -26 50 -60t18 -75q0 -33 -10 -57q-11 -27 -25 -45q-17 -21 -31 -32q-17 -12 -30 -15zM272 515v-4q0 -26 22 -42q23 -17 54 -17q35 0 56 18t21 43q0 29 -22 47q-23 18 -55 18
q-34 0 -55 -18t-21 -45zM262 207l-1 1q0 -31 26 -52q25 -21 62 -21q39 0 63 21t24 51q0 32 -25 53t-63 21q-39 0 -62 -22q-24 -23 -24 -52z" />
    <glyph glyph-name="glyph343" horiz-adv-x="698" 
d="M106 0l206 233l-3 1q-3 -4 -12 -6q-6 -1 -18 -1q-59 0 -105 20q-44 19 -75 53q-29 32 -43 78q-14 47 -14 95q0 55 21 100q20 43 59 76q37 31 89 48q53 17 111 17q55 0 108 -17q52 -17 89 -48t60 -78q22 -45 22 -105q0 -59 -24 -128q-23 -67 -86 -142l-167 -196h-218z
M317 545h2q-43 0 -67 -24t-24 -56q0 -34 24 -58t65 -24q42 0 66 24t24 57t-24 57t-66 24z" />
    <glyph glyph-name="glyph344" horiz-adv-x="698" 
d="M346 714h-1q76 0 131 -31q57 -32 92 -82q36 -51 54 -117t18 -135t-18 -135t-54 -117q-35 -50 -92 -82q-56 -30 -131 -30t-130 30q-57 32 -92 82q-36 51 -54 117t-18 135t18 135t54 117q35 50 92 82q55 31 131 31zM253 294l132 221q-17 9 -39 9q-35 0 -54 -19t-28 -46
q-10 -29 -11 -57q-2 -40 -2 -52v-26q0 -8 2 -30zM441 403l-129 -219h-2q18 -8 36 -8q34 0 53 19q21 21 29 46q9 27 12 57t3 52v24q0 9 -2 29z" />
    <glyph glyph-name="glyph345" horiz-adv-x="372" 
d="M186 706h-1q39 0 72 -15q34 -15 56 -42q23 -27 36 -64q13 -36 13 -81t-13 -81q-13 -37 -36 -64t-55 -42q-33 -15 -72 -15t-72 15q-34 15 -56 42q-23 27 -36 64q-13 36 -13 81t13 81q13 37 36 64q22 27 56 42q33 15 72 15zM134 477l61 103h2q-3 1 -12 1q-24 0 -39 -22
q-15 -23 -15 -54q0 -15 3 -28zM237 528l-57 -97l4 -2q24 0 39 23q15 22 15 54v11q0 8 -1 11z" />
    <glyph glyph-name="glyph346" horiz-adv-x="372" 
d="M186 393h-1q39 0 72 -15q34 -15 56 -42q23 -27 36 -64q13 -36 13 -81t-13 -81q-13 -37 -36 -64t-55 -42q-34 -14 -72 -14t-72 14q-34 15 -56 42q-23 27 -36 64q-13 36 -13 81t13 81q13 37 36 64q22 27 56 42q33 15 72 15zM134 164l61 103h2q-3 1 -12 1q-24 0 -39 -22
t-15 -54q0 -14 3 -28zM237 215l-57 -97l4 -2q24 0 39 23t15 54v11q0 8 -1 11z" />
    <glyph glyph-name="glyph347" horiz-adv-x="372" 
d="M186 868h-1q39 0 72 -15q34 -15 56 -42q23 -27 36 -64q13 -36 13 -81t-13 -81q-13 -37 -36 -64t-55 -42q-33 -15 -72 -15t-72 15q-34 15 -56 42q-23 27 -36 64q-13 36 -13 81t13 81q13 37 36 64q22 27 56 42q33 15 72 15zM134 639l61 103h2q-3 1 -12 1q-24 0 -39 -22
q-15 -23 -15 -54q0 -15 3 -28zM237 690l-57 -97l4 -2q24 0 39 23q15 22 15 54v11q0 8 -1 11z" />
    <glyph glyph-name="glyph348" horiz-adv-x="371" 
d="M186 -8h-1q-38 0 -72 14q-34 15 -56 42q-23 27 -36 63q-13 35 -13 80t13 81q13 37 36 64q22 27 56 42q33 15 72 15t72 -15q34 -15 56 -42q23 -27 36 -64q13 -36 13 -81t-13 -80q-13 -36 -36 -63t-55 -42q-34 -14 -72 -14zM186 117v-1q24 0 39 22t15 54t-15 54
q-15 23 -39 23t-39 -22q-15 -23 -15 -54t15 -54q15 -22 39 -22z" />
    <glyph glyph-name="glyph349" horiz-adv-x="277" 
d="M163 386h86l-1 -386h-120v163q0 29 3 48t3 21h-1q-1 0 -9 -12q-9 -14 -27 -28l-13 -10l-75 66z" />
    <glyph glyph-name="glyph350" horiz-adv-x="343" 
d="M179 97l1 -1v-2q14 2 30 3q14 1 33 3q13 1 45 1h27v-103h-294v77l111 99q8 7 48 41q19 16 19 42q0 10 -8 18q-7 7 -20 7t-21 -6t-12 -15l-8 -16l-4 -12l-105 28q4 21 17 45q11 21 32 42q20 20 45 32t57 12t58 -10q25 -10 46 -29q20 -18 30 -43q11 -27 11 -54
q0 -35 -16 -60q-17 -26 -39 -45q-14 -14 -28 -21q-32 -19 -39 -23q-16 -9 -16 -10z" />
    <glyph glyph-name="glyph351" horiz-adv-x="338" 
d="M125 253l-99 26l-3 -9q11 52 51 84q40 31 101 31q66 0 105 -33t39 -84q0 -18 -8 -34q-7 -15 -19 -25q-12 -11 -25 -15q-12 -4 -24 -4v-1q13 0 30 -5q14 -4 27 -14q11 -8 19 -24q7 -14 7 -35q0 -26 -11 -50q-11 -23 -30 -39q-21 -18 -47 -25q-27 -9 -60 -9q-28 0 -54 9
q-25 7 -47 23q-20 14 -36 35q-15 19 -21 44l102 28q6 -19 18 -28t39 -9q15 0 26 8t11 21q0 17 -12 26t-28 9h-34v82h34q14 0 23 9t9 20q0 14 -10 21t-19 7q-20 0 -33 -7q-14 -8 -21 -33z" />
    <glyph glyph-name="glyph352" horiz-adv-x="366" 
d="M340 156v-99h-39v-57h-106v57h-185v82l198 246h93v-229h39zM167 155h28v47v24h-1l-6 -8l-45 -51q-6 -7 -11 -12q-2 -2 -2 -3v-1h1l1 1q2 0 5 0.5t6 0.5q14 2 24 2z" />
    <glyph glyph-name="glyph353" horiz-adv-x="346" 
d="M137 248l1 -1l-3 -2q3 3 11 7q6 3 23 3q69 0 109 -35q39 -34 39 -92q0 -28 -12 -54q-13 -27 -31 -44q-20 -19 -47 -29q-27 -9 -58 -9q-30 0 -57 8q-26 9 -45 24q-21 16 -32 34q-12 20 -15 39l105 29q4 -13 14 -24q9 -10 28 -10t32 11q12 11 12 27q0 18 -12 29
q-13 11 -32 11q-9 0 -21 -5q-10 -4 -18 -20l-98 27l40 213h227v-104h-147q-5 -15 -9 -23t-4 -10z" />
    <glyph glyph-name="glyph354" horiz-adv-x="342" 
d="M268 386l-91 -125q1 -1 3 -2q1 -1 3 -1q29 0 54 -11q23 -10 42 -29q18 -18 27 -42t9 -51q0 -30 -12 -54t-33 -42t-48 -27q-29 -8 -59 -8t-60 8q-28 9 -49 27t-34 43t-13 57q0 47 18 85q17 36 50 78l71 94h122zM162 92h-2q21 0 32 10q12 10 12 27q-1 37 -42 37
q-20 0 -31 -10q-12 -10 -12 -27t12 -27q11 -10 31 -10z" />
    <glyph glyph-name="glyph355" horiz-adv-x="320" 
d="M10 386h305l2 -65l-174 -321h-119l113 207q23 42 35 57q15 18 15 19l-1 1q-9 0 -24 -1t-57 -1h-95v104z" />
    <glyph glyph-name="glyph356" horiz-adv-x="315" 
d="M231 205v-1l-4 2q28 -11 50 -33q23 -23 23 -63q0 -23 -11 -45q-11 -21 -30 -36t-47 -24q-29 -8 -59 -8q-31 0 -60 8q-28 9 -47 24q-20 15 -30 36q-11 22 -11 45q0 20 6 35q6 14 17 27t24 20q14 8 27 12v1q-17 4 -36 26q-18 21 -18 56q0 23 9 42t27 34q19 16 42 23
q26 8 53 8q26 0 52 -8q25 -8 42 -22q18 -15 27 -34q9 -20 9 -42q0 -16 -6 -31q-6 -14 -15 -25q-9 -10 -18 -18t-16 -9zM118 284l-1 2q0 -13 11 -22q10 -9 27 -9t27 9t10 21q0 13 -11 21t-26 8q-17 0 -27 -9t-10 -21zM113 113l-2 -3q0 -17 13 -27t33 -10t32 12t12 27
q0 17 -13 27q-14 11 -31 11q-20 0 -32 -12t-12 -25z" />
    <glyph glyph-name="glyph357" horiz-adv-x="325" 
d="M42 0l109 126l-4 -1q1 1 -0.5 2t-4.5 1h-2h-3q-29 0 -54 11q-23 10 -42 29q-18 18 -27 42t-9 51q0 30 12 54t33 42t48 27t59 9q31 0 60 -9t50 -27q22 -19 35 -43q13 -25 13 -57q0 -48 -16 -83q-18 -39 -46 -74l-82 -100h-129zM159 295q-20 0 -31 -10q-12 -10 -10 -27
q0 -16 11 -27q10 -10 30 -10t30 10q11 11 11 27t-11 27q-10 10 -30 10z" />
    <glyph glyph-name="glyph358" horiz-adv-x="371" 
d="M186 305h-1q-39 0 -72 15q-34 15 -56 42q-23 27 -36 64q-13 36 -13 81t13 81q13 37 36 64q22 27 56 42q33 15 72 15t72 -15q34 -15 56 -42q23 -27 36 -64q13 -36 13 -81t-13 -81q-13 -37 -36 -64t-55 -42q-33 -15 -72 -15zM186 431v-1q24 0 39 23t15 54t-15 54
q-15 22 -39 22t-39 -22q-15 -23 -15 -54t15 -54q15 -22 39 -22z" />
    <glyph glyph-name="glyph359" horiz-adv-x="277" 
d="M163 700h86l-1 -386h-120v163q0 29 3 48t3 21h-1q-1 0 -9 -12q-9 -14 -27 -28l-13 -10l-75 66z" />
    <glyph glyph-name="glyph360" horiz-adv-x="343" 
d="M179 411l1 -1v-3q14 1 30 3q14 2 33 3q13 1 45 1h27v-104h-294v78l111 99q8 7 48 41q19 16 19 42q0 10 -8 18q-7 7 -20 7t-21 -6t-12 -15l-8 -16l-4 -12l-105 28q4 21 17 45q11 21 32 42q20 20 45 32t57 12t58 -10q25 -10 46 -29q20 -18 30 -43q11 -27 11 -54
q0 -35 -16 -60q-17 -25 -39 -45q-8 -8 -13 -11l-15 -9q-32 -19 -39 -23q-16 -9 -16 -10z" />
    <glyph glyph-name="glyph361" horiz-adv-x="355" 
d="M125 567l-99 26l-2 -8q10 53 51 84q40 31 101 31q66 0 105 -33t39 -84q0 -18 -8 -34q-7 -15 -19 -25q-12 -11 -25 -15q-12 -4 -24 -4v-1q31 0 56 -19q26 -20 26 -60q0 -26 -11 -50q-11 -23 -30 -39q-20 -17 -47 -26t-60 -9q-28 0 -54 9t-47 24q-20 14 -36 35
q-15 19 -21 44l102 28q6 -19 18 -28t39 -9q15 0 26 8t11 21q0 17 -12 26t-28 9h-34v82h34q14 0 23 9t9 20q0 14 -10 21t-19 7q-20 0 -33 -7q-14 -8 -21 -33z" />
    <glyph glyph-name="glyph362" horiz-adv-x="366" 
d="M340 470v-99h-39v-58h-106v58h-185v82l198 246h93v-229h39zM167 469h28v47v24h-1l-6 -8l-45 -51q-6 -7 -11 -12q-2 -2 -2 -3v-1h1l1 1q2 0 5 0.5t6 0.5q14 2 24 2z" />
    <glyph glyph-name="glyph363" horiz-adv-x="346" 
d="M137 562l1 -1l-3 -1q5 5 11 8t23 3q70 0 109 -36t39 -93q0 -28 -12 -54q-13 -27 -31 -44q-20 -19 -47 -29q-26 -10 -58 -10q-31 0 -57 9t-45 24q-21 16 -32 34q-12 20 -15 39l105 29q4 -12 14 -23q9 -11 28 -11t32 11q12 11 12 27q0 18 -12 29q-13 11 -32 11q-9 0 -21 -5
q-10 -4 -18 -20l-98 27l40 213h227v-104h-147q-5 -15 -9 -23t-4 -10z" />
    <glyph glyph-name="glyph364" horiz-adv-x="342" 
d="M268 700l-91 -125q1 -1 3 -2q1 -1 3 -1q29 0 54 -11q23 -10 42 -29q18 -18 27 -42t9 -51q0 -30 -12 -54t-33 -42t-48 -27t-59 -9q-31 0 -60 9q-28 9 -49 27t-34 43t-13 57q0 47 18 85q17 36 50 78l71 94h122zM162 406h-2q21 0 32 10q12 10 12 27q-1 37 -42 37
q-20 0 -31 -10q-12 -10 -12 -27t12 -27q11 -10 31 -10z" />
    <glyph glyph-name="glyph365" horiz-adv-x="320" 
d="M10 700h305l2 -65l-174 -322h-119l113 208q23 42 35 57q15 18 15 19l-1 1q-9 0 -24 -1t-57 -1h-95v104z" />
    <glyph glyph-name="glyph366" horiz-adv-x="315" 
d="M231 517v-1l-4 2q28 -11 50 -33q23 -23 23 -63q0 -23 -11 -45q-11 -21 -30 -36t-47 -24q-27 -9 -59 -9q-33 0 -60 9q-28 9 -47 24q-20 15 -30 36q-11 22 -11 45q0 20 6 35q6 14 17 27t24 20q14 8 27 12v1q-17 4 -36 26q-18 21 -18 56q0 23 9 42t27 34q19 16 42 23
q26 8 53 8q26 0 52 -8q25 -8 42 -22q18 -15 27 -34q9 -20 9 -42q0 -16 -6 -31q-6 -14 -15 -25q-9 -10 -18 -18t-16 -9zM118 598h-1q0 -13 11 -22q10 -9 27 -9t27 9t10 21q0 13 -11 22t-26 9q-17 0 -27 -9t-10 -21zM113 427l-2 -3q0 -17 13 -27t33 -10t32 12t12 27
q0 17 -13 27q-14 11 -31 11q-20 0 -32 -12t-12 -25z" />
    <glyph glyph-name="glyph367" horiz-adv-x="325" 
d="M42 314l109 126l-4 -1q1 1 -0.5 2t-4.5 1h-2h-3q-29 0 -54 11q-23 10 -42 29q-18 18 -27 42t-9 51q0 30 12 54t33 42t48 27t59 9q31 0 60 -9t50 -27q22 -19 35 -43q13 -25 13 -57q0 -48 -16 -83q-18 -39 -46 -74l-82 -100h-129zM159 609q-20 0 -31 -10q-12 -10 -10 -27
q0 -16 11 -27q10 -10 30 -10t30 10q11 11 11 27t-11 27q-10 10 -30 10z" />
    <glyph glyph-name="glyph368" horiz-adv-x="698" 
d="M631 521l-185 -51l-6 -8q-8 22 -19 36q-12 15 -27 24q-17 10 -30 14q-17 5 -30 5q-28 0 -43 -12t-15 -24q0 -13 11 -24t30 -20q18 -8 47 -18q23 -8 58 -21q37 -14 77 -35q36 -19 67 -45q30 -26 48 -60t18 -78q0 -78 -48 -133q-48 -56 -131 -77v-88h-192v88
q-72 18 -127 71q-54 53 -84 130l184 49q7 -15 20 -33q11 -15 29 -30q17 -13 36 -21q21 -8 44 -8q37 0 51 13q15 13 15 31q0 16 -12 28q-11 11 -35 22q-22 10 -54 21q-24 8 -69 26q-31 13 -63 30q-33 17 -57 40q-26 25 -41 57q-15 33 -15 80q0 34 13 64q14 32 37 58
q24 27 57 48q34 22 74 32v88h192v-94q65 -23 110 -69q46 -48 65 -106z" />
    <glyph glyph-name="glyph369" horiz-adv-x="698" 
d="M559 698l-137 -320l-3 -2q34 14 70 14q39 0 72 -15q34 -15 56 -42q23 -27 36 -64q13 -36 13 -81t-13 -80q-13 -36 -36 -63t-55 -42q-34 -14 -72 -14q-68 0 -112 40q-46 41 -59 108l-60 -140h-121l139 327q-37 -22 -84 -22q-39 0 -72 15q-34 15 -56 42q-23 27 -36 64
q-13 36 -13 81t13 81q13 37 36 64q22 27 56 42q33 15 72 15q35 0 65 -12t53 -35q22 -22 37 -54q16 -33 20 -69l69 162h122zM194 430v-1q24 0 39 23q15 22 15 54t-15 54t-39 22t-39 -22t-15 -54t15 -54t39 -22zM492 117v-1q24 0 39 22t15 54t-15 54q-15 23 -39 23t-39 -22
q-15 -23 -15 -54t15 -54q15 -22 39 -22z" />
    <glyph glyph-name="glyph370" horiz-adv-x="698" 
d="M445 289l168 -45l-4 -2q-22 -59 -71 -103q-48 -43 -111 -60v-93h-152v94q-41 12 -76 37t-61 60q-24 33 -40 77q-15 42 -15 90t15 90q14 40 41 76q25 34 62 60q34 24 77 37v108h152v-107q58 -16 105 -56q46 -38 70 -93l-168 -43q-15 18 -33 27t-47 9q-47 0 -71 -28
t-24 -79q0 -53 24 -81t71 -28q32 0 54 14q20 13 34 39z" />
    <glyph glyph-name="glyph371" horiz-adv-x="698" 
d="M304 175l1 -1l-5 -3q1 0 37 3t102 3h181v-178h-539v178q36 6 48 21q12 16 8 53v4h-56v149h41l-7 78q-5 46 15 87t54 72t80 51q45 20 93 21q31 1 73 -9t81 -33q40 -23 72 -61t46 -96l-160 -45q-12 31 -36 54t-62 21q-17 -2 -29 -9q-13 -8 -20 -18q-8 -12 -11 -24t-1 -27
l6 -60h176v-149h-162q3 -24 -5 -48q-7 -22 -21 -34z" />
    <glyph glyph-name="glyph372" horiz-adv-x="698" 
d="M496 571l67 67l94 -94l-68 -68q37 -64 37 -140q0 -40 -12 -78q-13 -39 -31 -69l65 -64l-93 -93l-66 65q-30 -17 -67 -28q-34 -10 -74 -10q-76 0 -138 37l-65 -64l-93 93l63 63q-19 33 -30 69q-11 38 -11 78q0 41 10 75q10 35 27 67l-67 67l93 93l66 -67q65 42 146 42
q39 0 78 -11q37 -11 69 -30zM348 448q-43 0 -75 -29q-31 -28 -31 -78q0 -53 31 -81t75 -28q45 0 76 28t31 81q0 50 -31 78q-32 29 -76 29z" />
    <glyph glyph-name="glyph373" horiz-adv-x="698" 
d="M710 700l-143 -214h74v-122h-156l-18 -27h174v-122h-198v-215h-191v215h-197v122h173l-18 27h-155v122h73l-142 214h214l113 -175q33 -50 34 -50h1q2 0 34 50l114 175h214z" />
    <glyph glyph-name="glyph374" horiz-adv-x="698" 
d="M497 239l182 -45l3 2q-39 -93 -120 -150q-80 -56 -197 -56q-55 0 -105 15q-50 17 -90 45q-41 29 -71 71q-31 43 -47 95h-49v122h28v13v13h-27v122h48q16 52 47 95q30 42 71 71q40 28 90 45q48 16 105 16q109 0 186 -51q77 -52 119 -135l-186 -45q-20 28 -54 42
q-36 14 -73 14q-31 0 -59 -12t-48 -42h132v-122h-164v-13v-13h163v-122h-130q19 -28 48 -39q27 -10 57 -10q46 0 84 19q39 20 57 55z" />
    <glyph glyph-name="glyph375" horiz-adv-x="698" 
d="M606 556h-128h1q6 -14 8 -21q4 -14 5 -21h114v-138h-122q-16 -47 -53 -82q-36 -34 -87 -54l164 -240h-217l-146 225v137h76q23 0 41 15h-167v138h193q-21 41 -67 41h-126v144h511v-144z" />
    <glyph glyph-name="glyph414" horiz-adv-x="293" 
d="M145 394l-2 -1q-35 0 -61 26q-25 25 -25 63q0 19 7 33q8 16 19 27q12 12 28 18q17 6 34 6q18 0 33 -6t27 -18q11 -11 19 -27q7 -14 7 -33q0 -38 -25 -63t-61 -25zM147 111l-2 -1q-35 0 -61 26q-25 25 -25 63q0 19 7 33q8 16 19 27q12 12 28 18q17 6 34 6q18 0 33 -6
t27 -18q11 -11 19 -27q7 -14 7 -33q0 -38 -25 -63t-61 -25z" />
    <glyph glyph-name="glyph415" horiz-adv-x="312" 
d="M164 386l-2 -1q-35 0 -61 26q-25 25 -25 63q0 19 7 33q8 16 19 27q12 12 28 18t34 6t33 -6t27 -18q11 -11 19 -27q7 -14 7 -33q0 -38 -25 -63t-61 -25zM141 109l16 4l-19 1q-22 4 -42 24t-20 54q0 18 6 33t18 27t28 19q15 7 34 7q34 0 60 -26t26 -69q0 -24 -9 -51
q-8 -25 -26 -54q-17 -27 -39 -51q-21 -22 -48 -43h-68q11 6 28 23q15 17 27 36q14 23 20 37q8 19 8 29z" />
    <glyph glyph-name="glyph470" horiz-adv-x="765" 
d="M495 -2q6 0 6 5q0 6 -6 6t-6 -6q0 -5 6 -5zM561 24q0 -16 12 -16q11 0 11 16q0 17 -11 17q-12 0 -12 -17zM651 -1v39l-11 -38h-10l-11 38v-39h-15l4 52h19l8 -34l9 34h19l2 -52h-14zM437 -1l-13 52h15l7 -36l6 36h15l6 -36l7 36h14l-13 -52h-16l-6 34l-7 -34h-15zM418 19
h-19v-10h21v-10h-36v52h36v-11h-21v-10h19v-11zM376 51v-52h-15v52h15zM323 -1l-17 52h16l9 -39l10 39h15l-17 -52h-16zM269 51v-20h18v20h14v-52h-14v20h-18v-20h-15v52h15zM222 40h-14v11h41v-11h-14v-41h-13v41zM156 -1v52h18l16 -32v32h13v-52h-15l-19 34v-34h-13z
M120 -1v19l-17 33h17l7 -23l8 23h16l-17 -33v-19h-14zM604 22l-4 2q0 -14 -7 -21q-7 -6 -19 -6q-13 0 -20 7q-6 8 -6 18q0 13 7 20q8 8 21 8t21 -8q7 -7 7 -20zM553 49l-4 -12l-4 -1q-3 3 -9 3t-10 -4t-4 -12q0 -16 15 -16q6 0 9 3l3 -11q-8 -2 -14 -2q-14 0 -21 7
q-6 8 -6 18q0 14 9 21q10 8 21 8q9 0 15 -2zM107 49l-3 -12v-1q-2 2 -4 3q-4 2 -7 2q-7 0 -7 -4q0 -2 11 -7q14 -5 14 -15q0 -7 -6 -12q-5 -4 -19 -4q-8 0 -16 2l4 12q1 -1 5 -3q2 -1 8 -1q7 0 7 5q0 3 -9 6q-15 4 -15 15q0 7 6 12q7 5 16 5q10 0 15 -3zM293 175l89 79
l86 -79q13 -2 54 -4q38 -1 81 -3q-1 42 -3 78t-3 51l-81 91l81 89q1 17 3 54q1 33 3 80q-37 -1 -79 -3q-37 -1 -52 -3l-91 -81l-88 81q-15 2 -52 3q-37 2 -81 3q2 -43 3 -81q1 -37 3 -52l79 -89l-79 -89q-2 -16 -3 -54q-2 -42 -3 -79q47 2 80 3q35 1 53 5zM692 82h-44v-2
q-76 0 -120 3t-66 6q-21 3 -30 8q-8 5 -12 9l-27 23l-13 10l-11 -10l-27 -23q-4 -4 -12 -9q-9 -5 -30 -8q-28 -4 -66 -5q-58 -2 -118 -2h-43v43q0 62 2 120q1 38 5 66q3 21 8 30q4 7 9 12l24 27l10 12l-10 11l-24 27q-5 4 -9 12q-4 6 -7 30q-4 28 -5 66q-2 58 -2 119v44h43
q77 0 120 -3t66 -6q24 -3 30 -7q7 -5 12 -9l20 -19l18 -16l17 16l20 17q4 4 12 9t30 9t66 6q58 2 120 2h44v-44q0 -76 -3 -120t-6 -66q-3 -21 -8 -30q-5 -8 -9 -12l-22 -26l-11 -12l11 -13l25 -29q1 -2 3.5 -6t3.5 -6q4 -6 7 -30q3 -23 6 -64q3 -42 3 -115v-45z" />
  </font>
</defs>
</svg>
