<?xml version="1.0" standalone="no"?>
<!DOCTYPE svg PUBLIC "-//W3C//DTD SVG 1.1//EN" "http://www.w3.org/Graphics/SVG/1.1/DTD/svg11.dtd" >
<svg>
<metadata>
Created by FontForge 20120731 at Sat Jun 29 15:31:31 2019
 By www
Copyright 2012 Adobe Systems Incorporated. All rights reserved.
</metadata>
<defs>
<font id="Novecento-WideMedium" horiz-adv-x="698" >
  <font-face 
    font-family="Novecento Wide Medium"
    font-weight="500"
    font-stretch="normal"
    units-per-em="1000"
    panose-1="0 0 0 0 0 0 0 0 0 0"
    ascent="843"
    descent="-157"
    x-height="700"
    cap-height="700"
    bbox="-219 -266 1320 954"
    underline-thickness="98"
    underline-position="-178"
    unicode-range="U+0020-25CA"
  />
<missing-glyph horiz-adv-x="676" 
d="M89 85v530v-1q0 40 24 63q25 23 61 23h330q38 0 61 -22q24 -22 24 -63v-530q0 -42 -24 -63t-61 -21h-330q-37 0 -61 21t-24 63zM185 20h306h1q37 0 56 17q18 17 18 59v508q0 42 -21 59q-22 17 -64 17h-286q-47 0 -66 -17q-18 -17 -18 -59v-508q0 -42 20 -59t54 -17z
M473 554l73 -73l-134 -135l134 -135l-73 -74l-135 135l-134 -134l-73 74l134 134l-135 134l73 73l135 -134z" />
    <glyph glyph-name=".notdef" horiz-adv-x="676" 
d="M89 85v530v-1q0 40 24 63q25 23 61 23h330q38 0 61 -22q24 -22 24 -63v-530q0 -42 -24 -63t-61 -21h-330q-37 0 -61 21t-24 63zM185 20h306h1q37 0 56 17q18 17 18 59v508q0 42 -21 59q-22 17 -64 17h-286q-47 0 -66 -17q-18 -17 -18 -59v-508q0 -42 20 -59t54 -17z
M473 554l73 -73l-134 -135l134 -135l-73 -74l-135 135l-134 -134l-73 74l134 134l-135 134l73 73l135 -134z" />
    <glyph glyph-name=".null" horiz-adv-x="0" 
 />
    <glyph glyph-name="nonmarkingreturn" horiz-adv-x="333" 
 />
    <glyph glyph-name="space" unicode=" " horiz-adv-x="250" 
 />
    <glyph glyph-name="exclam" unicode="!" horiz-adv-x="287" 
d="M88 224v476h111v-476h-111zM88 0v157h111v-157h-111z" />
    <glyph glyph-name="quotedbl" unicode="&#x22;" horiz-adv-x="492" 
d="M88 483v217h105v-217h-105zM298 483v217h105v-217h-105z" />
    <glyph glyph-name="numbersign" unicode="#" horiz-adv-x="883" 
d="M805 446h-117l-93 -187h115l-49 -95h-114l-82 -164h-114l84 164h-188l-82 -164h-114l84 164h-106l50 95h104l96 187h-107l50 95h106l81 159h106l-79 -159h192l81 159h106l-79 -159h118zM483 259l96 187h-191l-93 -187h188z" />
    <glyph glyph-name="dollar" unicode="$" horiz-adv-x="602" 
d="M559 525l-106 -29l3 5q-6 29 -21 51q-16 23 -36 38q-22 16 -47 23q-27 8 -54 8q-58 0 -95 -26q-36 -25 -36 -68q0 -25 15 -43t40 -31q26 -13 57 -24t66 -21q43 -14 78 -28q41 -17 73 -40q32 -24 54 -59q21 -35 21 -84q0 -41 -15 -75t-42 -61t-66 -45q-34 -16 -87 -24v-79
h-109v80q-88 13 -144 68q-55 54 -75 134l106 29q4 -26 18 -52q13 -26 36 -45q21 -18 53 -31q30 -12 68 -12q68 0 105 30t37 75q0 33 -18 54t-48 36q-33 16 -67 26q-25 7 -75 23q-32 10 -66 24q-33 13 -63 35q-29 21 -47 53t-18 78q0 36 15 68q15 31 41 57q25 25 62 42
q36 16 80 24v80h109v-81q77 -15 129 -63t69 -120z" />
    <glyph glyph-name="percent" unicode="%" horiz-adv-x="888" 
d="M191 300l-1 -1q-41 0 -74 15t-57 42q-23 26 -37 64q-13 36 -13 81t13 81q14 39 37 65q24 27 57 42t74 15t74 -15q34 -15 56 -42q23 -27 36 -64q13 -36 13 -81t-13 -81q-13 -37 -36 -64q-22 -27 -56 -42q-33 -15 -73 -15zM163 -2l485 699h76l-486 -699h-75zM191 377v-1
q25 0 42 10q20 11 32 28q14 18 21 40q7 21 7 48t-7 48q-8 23 -21 41q-12 17 -32 28q-17 10 -42 10q-24 0 -43 -10q-20 -11 -33 -28q-14 -18 -21 -40q-7 -21 -7 -48t7 -48q7 -22 21 -40q13 -17 33 -28q19 -10 43 -10zM696 -8l-1 -1q-40 0 -74 14q-33 15 -57 42q-23 26 -37 64
q-13 36 -13 81t13 81q14 39 37 65q24 27 57 42t74 15t74 -15q34 -15 56 -42q23 -27 36 -64q13 -36 13 -81t-13 -81q-13 -37 -36 -64q-22 -27 -56 -42q-34 -14 -73 -14zM696 68v-1q25 0 42 10q20 11 32 28q14 18 21 40q7 21 7 48t-7 48q-8 23 -21 41q-12 17 -32 28
q-17 10 -42 10q-24 0 -43 -10q-20 -11 -33 -28q-14 -18 -21 -40q-7 -21 -7 -48t7 -48q7 -22 21 -40q13 -17 33 -28q19 -10 43 -10z" />
    <glyph glyph-name="ampersand" unicode="&#x26;" horiz-adv-x="709" 
d="M698 403v-88l-132 -3v-74q0 -56 -15 -102t-47 -81q-31 -34 -83 -54q-51 -18 -124 -18q-58 0 -106 15q-45 13 -82 43q-33 28 -52 68q-18 39 -18 87q0 34 12 63q11 27 32 49q18 20 47 34q27 13 56 18v1q-20 3 -46 14q-22 10 -43 29q-20 19 -32 45q-12 27 -12 63q0 37 14 74
q13 34 44 64q30 28 75 45q46 17 106 17q99 0 164 -52q67 -53 86 -147l-95 -26q-17 67 -52 99q-36 33 -100 33q-38 0 -62 -12q-26 -13 -38 -28q-13 -16 -19 -36q-6 -19 -6 -34q0 -43 33 -75q32 -31 104 -31h391zM465 247v70l-164 -2q-71 -2 -110 -29q-41 -29 -41 -86
q0 -25 11 -49q10 -21 32 -37q21 -15 48 -24t60 -9q89 0 126 42q38 43 38 124z" />
    <glyph glyph-name="quotesingle" unicode="'" horiz-adv-x="282" 
d="M88 483v217h105v-217h-105z" />
    <glyph glyph-name="parenleft" unicode="(" horiz-adv-x="371" 
d="M314 837l30 -104l-3 1q-101 -35 -146 -129q-45 -95 -45 -259t45 -259q44 -93 147 -126l-30 -104q-45 16 -94 48q-47 31 -87 89q-39 56 -65 142q-25 84 -25 210q0 83 12 149q12 64 32 117q19 51 47 89q28 39 57 65q31 28 62 44t63 27z" />
    <glyph glyph-name="parenright" unicode=")" horiz-adv-x="372" 
d="M29 733l30 104l-2 -2q45 -16 94 -48q48 -31 88 -88q41 -57 66 -144q26 -89 26 -211q0 -126 -25 -210q-26 -87 -66 -142q-40 -57 -88 -88q-49 -32 -94 -48l-30 104q103 33 147 126q45 94 45 259t-45 259t-146 129z" />
    <glyph glyph-name="asterisk" unicode="*" horiz-adv-x="518" 
d="M407 617l23 -69l-115 -34l72 -97l-58 -43l-70 101l-70 -101l-58 42l72 98l-115 34l22 69l112 -37v120h72v-120z" />
    <glyph glyph-name="plus" unicode="+" 
d="M579 401v-92h-180v-184h-98v184h-181v92h180v182h98v-182h181z" />
    <glyph glyph-name="comma" unicode="," horiz-adv-x="238" 
d="M108 -12l12 4l-16 4q-18 2 -32 14q-15 14 -15 39t18 42q19 17 43 17q26 0 42 -19q17 -20 17 -51q0 -24 -7 -45q-8 -25 -19 -46q-13 -24 -28 -42q-19 -23 -34 -35h-45q13 10 23 24q14 20 20 31q9 17 15 33t6 30z" />
    <glyph glyph-name="hyphen" unicode="-" horiz-adv-x="636" 
d="M88 401h460v-92h-460v92z" />
    <glyph glyph-name="period" unicode="." horiz-adv-x="238" 
d="M119 -12v-2q-25 0 -42 17q-17 19 -17 43t17 41t42 17t42 -17t17 -41q0 -25 -17 -42q-18 -16 -42 -16z" />
    <glyph glyph-name="slash" unicode="/" horiz-adv-x="488" 
d="M12 0l358 700h106l-350 -700h-114z" />
    <glyph glyph-name="zero" unicode="0" horiz-adv-x="717" 
d="M357 714h-1q74 0 135 -29t101 -78q41 -50 62 -116t21 -140t-21 -140t-62 -116t-100 -78q-62 -28 -135 -28t-134 28q-59 29 -99 78q-41 50 -62 116t-21 140t21 140t62 116q40 49 99 78q60 29 134 29zM358 605h-1q-53 0 -90 -21q-38 -21 -63 -55q-25 -33 -37 -81
q-12 -46 -12 -99t12 -99q12 -45 38 -81q25 -34 63 -55t90 -21t90 21t63 55q26 36 38 81q12 46 12 99t-12 99q-12 45 -38 81q-25 34 -63 55t-90 21z" />
    <glyph glyph-name="one" unicode="1" horiz-adv-x="431" 
d="M265 700h78l-2 -703h-111v428v38q0 14 2 36q1 11 1 27v11h-1l-5 -6q-3 -3 -13 -15q-3 -3 -8.5 -9.5t-8.5 -9.5q-9 -11 -18 -18l-70 -69l-68 66z" />
    <glyph glyph-name="two" unicode="2" horiz-adv-x="587" 
d="M150 498l-103 27l-2 -3q26 91 93 140q68 50 165 50q53 0 99 -17q47 -17 77 -46q33 -31 50 -70q18 -41 18 -88q0 -51 -17 -91q-17 -39 -43 -70q-28 -33 -58 -57q-31 -25 -63 -48q-38 -30 -58 -45q-10 -8 -28 -21t-26 -19t-26.5 -20t-28.5 -21l1 -1h4q5 1 15 1.5t21 0.5
q52 2 105 2h204v-103h-495v89q52 44 154 132t154 132q33 28 54 63t21 75q0 54 -37 90q-38 36 -97 36q-65 0 -102 -34t-51 -84z" />
    <glyph glyph-name="three" unicode="3" horiz-adv-x="603" 
d="M153 497l-99 26l-2 -6q21 89 89 140q67 51 167 51q63 0 107 -16q46 -17 75 -43q30 -27 45 -62t15 -72q0 -36 -13 -63q-14 -29 -34 -48q-21 -19 -47 -30q-26 -10 -51 -12v-1q31 -2 59 -12q30 -11 50 -31q22 -22 35 -49q14 -30 14 -66q0 -51 -19 -90q-20 -41 -52 -69
q-34 -29 -80 -44q-45 -16 -102 -16q-49 0 -94 15q-43 13 -81 40q-35 25 -60 62q-24 36 -33 80l100 27q10 -56 54 -91q43 -34 108 -34q68 0 105 36q38 36 38 90q0 53 -40 80q-41 27 -106 27h-61v88h61q67 0 101 27q35 27 35 80q0 21 -7 38q-8 18 -24 33t-42 24t-61 9
q-61 0 -97 -30q-37 -31 -53 -88z" />
    <glyph glyph-name="four" unicode="4" horiz-adv-x="638" 
d="M603 256v-97h-88v-159h-105v159h-366v82l382 459h89v-444h88zM273 256h134l3 136v57v50v35l1 14h-1l-6 -9q-1 -1 -17 -22q-11 -13 -24 -30l-27 -33l-115 -136q-30 -36 -42 -48t-12 -13v-1h13h26h33h34z" />
    <glyph glyph-name="five" unicode="5" horiz-adv-x="598" 
d="M181 413l1 -1l-8 -6q14 14 46 30t81 16q53 0 100 -18t80 -48q34 -31 53 -72q20 -43 20 -93q0 -54 -19 -96q-20 -44 -52 -75q-34 -32 -80 -50q-48 -17 -100 -17q-53 0 -96 15q-44 14 -77 39q-32 25 -55 60q-22 33 -31 74l102 27q6 -23 18 -46q12 -22 32 -39q19 -16 46 -25
t60 -9q30 0 58 11q26 10 46 30t30 46q11 28 11 58t-11 58q-10 26 -30 46t-45 30q-27 11 -57 11q-35 0 -56 -7q-22 -8 -39 -18q-16 -10 -25 -24q-11 -16 -14 -25l-96 27l62 377h382v-104h-300l-14 -74q-8 -45 -17 -81q-6 -26 -6 -27z" />
    <glyph glyph-name="six" unicode="6" horiz-adv-x="597" 
d="M424 698l-210 -279l3 -6q17 19 42 33q26 14 69 14q56 0 100 -19q47 -20 77 -52q31 -33 48 -77q17 -45 17 -93q0 -51 -20 -96q-20 -44 -55 -75q-36 -32 -85 -48q-50 -18 -106 -18t-104 18q-46 16 -84 49q-36 31 -57 77q-21 45 -21 100q0 39 7 70q7 33 21 63q14 32 33 62
q19 31 45 66l160 211h120zM309 84l-4 -2q33 0 63 11q28 10 49 30q21 19 33 47q12 27 12 59q0 31 -11 59q-10 27 -31 46q-21 20 -49 30q-30 11 -63 11q-71 0 -114 -40t-43 -105q0 -33 12 -60q12 -26 33 -46q21 -19 50 -30q27 -10 63 -10z" />
    <glyph glyph-name="seven" unicode="7" horiz-adv-x="562" 
d="M33 700h511l-1 -69l-356 -633h-118l266 470q18 32 28 47q21 32 26 40q12 21 18 29l8 11l-1 1h-10h-25h-31h-31h-284v104z" />
    <glyph glyph-name="eight" unicode="8" horiz-adv-x="608" 
d="M409 368v-1l-6 -2q29 -5 57 -18t51 -36q22 -22 36 -53t14 -68q0 -46 -19 -84t-54 -67t-83 -44q-47 -16 -106 -16t-106 16q-48 15 -83 44t-54 67t-19 84q0 36 14 69q13 31 36 54t51 36t57 18v1q-15 2 -36 12t-42 30q-20 19 -34 48q-14 30 -14 64q0 37 17 73q16 35 48 60
q30 24 74 40q42 15 93 15t94 -15q45 -16 74 -40q31 -26 47 -60q17 -36 17 -73q0 -34 -14 -64q-13 -28 -33 -48q-19 -19 -41 -30q-21 -10 -36 -12zM166 521v-2q0 -47 39 -75q38 -28 99 -28q62 0 99 30q38 30 38 75q0 48 -39 78t-99 30q-61 0 -99 -30t-38 -78zM146 198l-1 -3
q0 -57 43 -90q44 -33 115 -33q75 0 116 34q42 34 42 90t-43 89q-44 33 -115 33q-73 0 -115 -33t-42 -87z" />
    <glyph glyph-name="nine" unicode="9" horiz-adv-x="601" 
d="M139 -2l240 277l-3 3q-20 -22 -48 -33q-30 -11 -62 -11q-61 0 -105 19q-46 20 -77 51q-32 32 -48 75q-16 42 -16 93q0 55 21 100q21 44 57 76t85 48q51 17 106 17q57 0 104 -16q48 -17 84 -48t57 -77q21 -45 21 -104q0 -63 -29 -132q-31 -73 -101 -153l-160 -185h-126z
M291 616l-5 -3q-32 0 -60 -9q-29 -9 -50 -27t-33 -46q-12 -29 -12 -64q0 -37 13 -63t35 -45q21 -18 50 -27t60 -9q36 0 63 10q28 10 50 29q21 18 33 45t12 60q0 37 -12 66t-33 47t-50 27q-28 9 -61 9z" />
    <glyph glyph-name="colon" unicode=":" horiz-adv-x="238" 
d="M119 288v-2q-25 0 -42 18q-17 19 -17 43t17 41t42 17t42 -17t17 -41q0 -25 -17 -42t-42 -17zM119 -12v-2q-25 0 -42 17q-17 19 -17 43t17 41t42 17t42 -17t17 -41q0 -25 -17 -42q-18 -16 -42 -16z" />
    <glyph glyph-name="semicolon" unicode=";" horiz-adv-x="254" 
d="M129 293v-2q-25 0 -42 18q-17 19 -17 43t17 41t42 17t42 -17t17 -41q0 -25 -17 -42t-42 -17zM123 -14l12 4l-16 4q-16 1 -32 14q-15 14 -15 39t18 42q19 17 43 17q26 0 42 -19q17 -20 17 -51q0 -24 -7 -45q-8 -25 -19 -46q-13 -24 -28 -42q-19 -23 -34 -35h-45
q13 10 23 24q14 20 20 31q9 17 15 33t6 30z" />
    <glyph glyph-name="less" unicode="&#x3c;" 
d="M257 367l317 -245h-135l-325 245l325 244h135z" />
    <glyph glyph-name="equal" unicode="=" 
d="M120 498h459v-92h-459v92zM120 293h459v-92h-459v92z" />
    <glyph glyph-name="greater" unicode="&#x3e;" 
d="M124 122l317 245l-317 244h135l325 -244l-325 -245h-135z" />
    <glyph glyph-name="question" unicode="?" horiz-adv-x="579" 
d="M225 224v110l-3 -6q60 29 93 49q36 21 61 42q23 19 34 39t11 44q0 16 -6 36t-21 36q-15 17 -40 27q-27 11 -63 11q-67 0 -105 -30q-37 -30 -54 -89l-93 26q21 90 89 141t168 51q63 0 107 -16t75 -44q30 -27 45 -63t15 -75q0 -46 -18 -79q-19 -35 -46 -59q-28 -25 -65 -45
q-32 -17 -73 -37v-69h-111zM225 0v157h111v-157h-111z" />
    <glyph glyph-name="at" unicode="@" horiz-adv-x="798" 
d="M488 530h73v-264q0 -32 13 -51t39 -19q19 0 33 12q14 13 23 33q10 23 14 48q5 30 5 56q0 67 -22 121q-23 56 -61 96q-39 40 -93 63q-55 23 -117 23q-65 0 -116 -22q-52 -22 -91 -63q-38 -40 -61 -96q-22 -54 -22 -121q0 -66 22 -120q23 -56 61 -96q38 -39 92 -64
q52 -24 116 -24q52 0 87 9q33 9 56 20q21 10 32 20q11 9 13 9l51 -27q-2 -4 -15 -17q-14 -14 -42 -30q-30 -17 -74 -29q-43 -13 -107 -13q-77 0 -144 26q-65 27 -114 77q-48 49 -75 116q-27 66 -27 143q0 80 27 146q27 67 75 116q49 50 114 77q66 27 144 27t144 -27
q67 -27 114 -76q48 -50 75 -115q27 -66 27 -145q0 -38 -9 -74q-9 -37 -27 -65q-18 -29 -47 -47q-28 -18 -69 -18q-39 0 -69 24q-31 24 -35 64l-1 1q-7 -18 -19 -32q-14 -16 -31 -27q-16 -11 -39 -19q-20 -7 -42 -7q-39 0 -72 15q-34 15 -57 40q-23 24 -37 62q-13 35 -13 79
q0 47 13 83q14 39 37 65q24 27 58 42t76 15q26 0 48 -8t35 -18t21 -21t9 -15h1v42zM490 341v31l-2 2q0 27 -9 45t-24 30q-16 13 -33 17q-20 5 -37 5q-23 0 -42 -9q-21 -10 -35 -25q-15 -17 -24 -40q-9 -24 -9 -54q0 -29 9 -51t24 -37q14 -14 35 -22q18 -7 41 -7q21 0 39 7
q19 7 34 22t24 36t9 50z" />
    <glyph glyph-name="A" unicode="A" horiz-adv-x="719" 
d="M588 0l-65 158h-327l-65 -158h-119l296 699h103l296 -699h-119zM236 256h247l-90 218q-6 14 -12 30l-10 30q-2 5 -4.5 12.5l-3.5 10.5l-3 9h-1l-3 -9q-1 -3 -3.5 -10t-4.5 -12l-10 -30q-6 -17 -12 -30z" />
    <glyph glyph-name="B" unicode="B" horiz-adv-x="651" 
d="M85 697h276v-5q48 0 84 -13q39 -14 65 -37q27 -24 42 -55t15 -69q0 -26 -9 -50t-24 -42t-34 -31q-20 -13 -39 -18v-1q26 -5 52 -19q28 -16 48 -37q22 -24 35 -52q14 -31 14 -64q0 -46 -15 -83t-45 -66q-29 -28 -75 -43q-42 -14 -103 -14h-287v699zM196 413h143v-1
q53 0 84 28q32 29 32 69q0 43 -32 69t-84 26h-143v-191zM199 94h166l-3 -2q58 0 96 32q37 31 37 86q0 27 -10 48q-11 23 -29 38t-42 24t-52 9h-163v-235z" />
    <glyph glyph-name="C" unicode="C" horiz-adv-x="758" 
d="M722 530l-113 -30l-5 -4q-32 50 -87 78t-118 28q-53 0 -100 -18q-46 -18 -79 -52t-51 -81t-18 -103q0 -59 19 -104q20 -46 53 -80q33 -33 78 -51t98 -18q71 0 129 34q59 35 89 90l111 -30q-23 -48 -55 -84t-75 -64t-92 -41q-50 -15 -105 -15q-74 0 -141 26
q-65 27 -115 75q-49 48 -78 116q-28 66 -28 147q0 78 29 147q29 68 78 116t116 75q66 27 141 27q53 0 99 -13q51 -14 89 -37q43 -25 74 -58q34 -35 57 -76z" />
    <glyph glyph-name="D" unicode="D" horiz-adv-x="790" 
d="M87 698h298l-1 -2q76 0 141 -25q67 -26 116 -72q49 -47 78 -111q29 -66 29 -144q0 -79 -28 -142q-28 -64 -78 -109q-49 -44 -114 -70q-61 -24 -138 -24h-303v699zM199 104h192l-1 -2q48 0 93 17q44 17 77 48q33 32 53 77q20 46 20 102t-20 104q-19 46 -53 78t-78 50
q-45 18 -96 18h-187v-492z" />
    <glyph glyph-name="E" unicode="E" horiz-adv-x="640" 
d="M199 104h376v-104h-487v700h481v-104h-370v-182h295v-98h-295v-212z" />
    <glyph glyph-name="F" unicode="F" horiz-adv-x="594" 
d="M559 596h-360v-203h285v-100h-285v-293h-111v700h471v-104z" />
    <glyph glyph-name="G" unicode="G" horiz-adv-x="794" 
d="M639 88h-1l-5 -8q-12 -15 -36 -34q-23 -19 -52 -33q-24 -12 -67 -24q-36 -10 -79 -10q-74 0 -141 26q-65 27 -115 75q-49 48 -78 116q-28 66 -28 147q0 78 29 147q29 68 78 116t116 75q66 27 141 27q107 -2 189 -51t129 -132l-113 -30q-32 49 -87 78q-55 28 -118 28
q-53 0 -100 -18q-46 -18 -79 -52q-33 -35 -51 -81t-18 -103t20 -105q20 -47 54 -80q35 -33 81 -51t101 -18q48 0 87 12t68 32q28 19 48 42q18 21 28 44v59h-204v91h299v-374h-96v70v19z" />
    <glyph glyph-name="H" unicode="H" horiz-adv-x="740" 
d="M541 700h111v-700h-111v307h-342v-307h-111v700h111v-290h342v290z" />
    <glyph glyph-name="I" unicode="I" horiz-adv-x="287" 
d="M199 0h-111v700h111v-700z" />
    <glyph glyph-name="J" unicode="J" horiz-adv-x="663" 
d="M481 700h111v-405q0 -73 -21 -132q-21 -58 -60 -97t-94 -60q-57 -20 -124 -20q-47 0 -94 14q-43 11 -81 37q-36 24 -63 57t-42 72l110 29q19 -49 65 -78q44 -28 105 -28q92 0 140 54t48 149v408z" />
    <glyph glyph-name="K" unicode="K" horiz-adv-x="704" 
d="M672 0h-130l-249 339l-95 -96v-241h-111v700h111v-163q0 -98 -1 -124q-1 -39 0 -39h1l9 9l24 24q5 5 16 16.5t18 18.5l42 42l215 214h135l-290 -290z" />
    <glyph glyph-name="L" unicode="L" horiz-adv-x="579" 
d="M199 104h360v-104h-471v700h111v-596z" />
    <glyph glyph-name="M" unicode="M" horiz-adv-x="840" 
d="M648 700h104l-3 -700h-109v266q0 63 1 93q1 43 3 79q0 10 0.5 28.5t1.5 26.5l1 21h-1l-7 -12q-9 -15 -17 -29q-6 -11 -20 -35l-17 -30l-136 -235h-58l-136 235q-7 12 -18 30q-14 24 -21 35q-4 6 -10.5 16.5t-7.5 12.5l-7 12h-1l1 -20v-55q0 -19 2 -79q1 -30 1 -93v-267
h-109v700h104l159 -268q7 -12 19 -32t17 -28q4 -8 11 -20t10 -17q5 -9 11 -18l3 -5h1l3 5l10 18q3 5 10 17t11 20l35 60z" />
    <glyph glyph-name="N" unicode="N" horiz-adv-x="768" 
d="M569 700h111v-703h-104l-255 343l-45 63q-25 35 -40 55q-10 14 -28 39l-10 15h-1v-16v-46v-70v-87v-296h-111v699h104l257 -345q6 -8 40 -54q3 -4 17.5 -24t21.5 -29q6 -8 30 -41l12 -16h1v18v48v69v80v298z" />
    <glyph glyph-name="O" unicode="O" horiz-adv-x="808" 
d="M41 348l-3 -2q0 78 29 147q29 68 78 116t116 75q66 27 141 27t141 -27q67 -27 116 -75q50 -48 78 -115q29 -69 29 -147q0 -81 -28 -147q-28 -67 -78 -115q-49 -48 -116 -75q-67 -26 -141 -26t-141 26q-65 27 -115 75q-49 48 -78 116q-28 66 -28 147zM155 350v-2
q0 -56 18 -103t51 -81q32 -34 78 -52q45 -18 99 -18t99 18q44 18 78 53q32 34 52 81q19 45 19 104t-19 104q-20 48 -52 80q-33 33 -78 51t-99 18t-99 -18t-78 -51t-51 -80q-18 -46 -18 -104z" />
    <glyph glyph-name="P" unicode="P" horiz-adv-x="616" 
d="M88 700h232l-1 -2q125 0 195 -60q71 -60 71 -168t-70 -168q-71 -60 -195 -60h-121v-242h-111v700zM199 346h119q74 0 113 33t39 92q0 62 -40 93q-41 32 -112 32h-119v-250z" />
    <glyph glyph-name="Q" unicode="Q" horiz-adv-x="808" 
d="M347 -133v122l-1 -3q-66 11 -120 40q-55 30 -96 77q-40 45 -64 108q-24 61 -24 134q0 78 29 147q29 68 78 116t116 75q66 27 141 27t141 -27q67 -27 116 -75q50 -48 78 -115q29 -69 29 -147q0 -72 -24 -134t-66 -108q-43 -47 -99 -77q-54 -29 -123 -38v-122h-111zM404 95
v-2q54 0 99 18q44 18 78 53q32 34 52 81q19 45 19 104t-19 104q-20 48 -52 80q-33 33 -78 51t-99 18t-99 -18t-78 -51t-51 -80t-18 -104t18 -103t51 -81q32 -34 78 -52q45 -18 99 -18z" />
    <glyph glyph-name="R" unicode="R" horiz-adv-x="651" 
d="M613 0h-125l-149 250q-3 -1 -10 -1h-11h-118v-249h-111v699h229q65 0 113 -16q50 -17 84 -46q35 -31 53 -72q18 -42 18 -94q0 -74 -36 -125t-103 -76zM199 348h131l1 -1q71 0 105 36q35 37 35 89q0 54 -36 89q-37 35 -105 35h-131v-248z" />
    <glyph glyph-name="S" unicode="S" horiz-adv-x="602" 
d="M559 525l-106 -29l3 4q-6 28 -21 51q-16 23 -36 38q-22 16 -47 23q-27 8 -54 8q-58 0 -95 -26q-36 -26 -36 -68q0 -25 15 -43t40 -31q26 -14 57 -24t66 -21q43 -14 78 -28q41 -17 73 -40q32 -24 54 -59q21 -34 21 -84q0 -46 -19 -84t-54 -67q-34 -28 -82 -43
q-50 -14 -106 -14q-54 0 -102 14q-46 15 -81 42t-59 65q-25 39 -35 84l106 29q4 -26 18 -52q13 -26 36 -45q21 -18 53 -31q30 -12 68 -12q68 0 105 30t37 75q0 33 -18 54t-48 36q-33 16 -67 26q-25 7 -75 23q-32 10 -66 24q-33 13 -63 35q-29 21 -47 53t-18 78q0 41 18 77
t51 63t78 42t99 15q48 0 92 -14q42 -13 77 -38q34 -24 57 -59q22 -34 33 -77z" />
    <glyph glyph-name="T" unicode="T" horiz-adv-x="600" 
d="M18 700h563v-104h-227v-596h-110v596h-226v104z" />
    <glyph glyph-name="U" unicode="U" horiz-adv-x="731" 
d="M550 700h110v-404q0 -152 -78 -231q-77 -78 -216 -78t-217 79q-78 80 -78 231v403h111v-402q0 -209 183 -209q185 0 185 209v402z" />
    <glyph glyph-name="V" unicode="V" horiz-adv-x="718" 
d="M586 700h120l-289 -700h-116l-289 699h121l186 -463q3 -9 8.5 -24.5t6.5 -18.5q8 -21 12 -36l8 -24l4 -9h1l3 10q3 9 9 24q1 3 13 36q10 28 16 43z" />
    <glyph glyph-name="W" unicode="W" horiz-adv-x="1004" 
d="M863 700h117l-230 -702h-101l-112 352q-19 61 -28 99q-8 32 -9 32h-1q-1 0 -9 -32q-9 -40 -28 -98l-112 -352h-101l-228 699h117l133 -425q9 -28 21 -76q8 -30 9 -30h1q2 0 9 30q8 32 24 77l115 340h100l115 -340q17 -48 24 -76q7 -30 9 -30h1q1 0 9 30q13 53 21 77z" />
    <glyph glyph-name="X" unicode="X" horiz-adv-x="675" 
d="M338 270h-1l-11 -11q-2 -3 -6.5 -11t-6.5 -10q-10 -16 -15 -25q-6 -11 -14 -21l-142 -193h-133l257 360l-240 339h134l130 -185q2 -2 6 -8l6 -9q10 -14 14 -22q5 -11 12 -19l6 -8h1l5 8l12 20q10 16 15 23l6 9t6 8l130 185h134l-239 -339l256 -361h-133l-142 194
q-8 10 -14 21q-5 9 -15 25q-2 2 -6.5 10t-6.5 11z" />
    <glyph glyph-name="Y" unicode="Y" horiz-adv-x="678" 
d="M539 700h125l-271 -368v-332h-110v332l-270 368h125l159 -215q9 -13 27 -37q14 -18 15 -18h1q2 0 14 18q4 7 13.5 19.5t12.5 17.5z" />
    <glyph glyph-name="Z" unicode="Z" horiz-adv-x="697" 
d="M637 700v-103l-373 -438q-22 -25 -39 -42t-17 -18l1 -1h3q4 1 11 1.5t15 0.5q36 2 68 2h331v-103h-577v102l381 439q5 6 18 19t19 18t15 14l6 6l-1 1q-11 0 -31 -1t-67 -1h-330v104h567z" />
    <glyph glyph-name="bracketleft" unicode="[" horiz-adv-x="356" 
d="M200 752v-799h134v-103h-246v1006h246v-104h-134z" />
    <glyph glyph-name="backslash" unicode="\" horiz-adv-x="488" 
d="M118 700l358 -700h-114l-350 700h106z" />
    <glyph glyph-name="bracketright" unicode="]" horiz-adv-x="363" 
d="M163 -47v799h-134v104h246v-1006h-246v103h134z" />
    <glyph glyph-name="asciicircum" unicode="^" horiz-adv-x="644" 
d="M556 477l-51 -46l-183 187l-183 -187l-51 46l234 235z" />
    <glyph glyph-name="underscore" unicode="_" horiz-adv-x="769" 
d="M88 0h593v-86h-593v86z" />
    <glyph glyph-name="grave" unicode="`" horiz-adv-x="312" 
d="M244 734l-228 104l39 76l222 -119z" />
    <glyph glyph-name="a" unicode="a" horiz-adv-x="719" 
d="M588 0l-65 158h-327l-65 -158h-119l296 699h103l296 -699h-119zM236 256h247l-90 218q-6 14 -12 30l-10 30q-2 5 -4.5 12.5l-3.5 10.5l-3 9h-1l-3 -9q-1 -3 -3.5 -10t-4.5 -12l-10 -30q-6 -17 -12 -30z" />
    <glyph glyph-name="b" unicode="b" horiz-adv-x="651" 
d="M85 697h276v-5q48 0 84 -13q39 -14 65 -37q27 -24 42 -55t15 -69q0 -26 -9 -50t-24 -42t-34 -31q-20 -13 -39 -18v-1q26 -5 52 -19q28 -16 48 -37q22 -24 35 -52q14 -31 14 -64q0 -46 -15 -83t-45 -66q-29 -28 -75 -43q-42 -14 -103 -14h-287v699zM196 413h143v-1
q53 0 84 28q32 29 32 69q0 43 -32 69t-84 26h-143v-191zM199 94h166l-3 -2q58 0 96 32q37 31 37 86q0 27 -10 48q-11 23 -29 38t-42 24t-52 9h-163v-235z" />
    <glyph glyph-name="c" unicode="c" horiz-adv-x="758" 
d="M722 530l-113 -30l-5 -4q-32 50 -87 78t-118 28q-53 0 -100 -18q-46 -18 -79 -52t-51 -81t-18 -103q0 -59 19 -104q20 -46 53 -80q33 -33 78 -51t98 -18q71 0 129 34q59 35 89 90l111 -30q-23 -48 -55 -84t-75 -64t-92 -41q-50 -15 -105 -15q-74 0 -141 26
q-65 27 -115 75q-49 48 -78 116q-28 66 -28 147q0 78 29 147q29 68 78 116t116 75q66 27 141 27q53 0 99 -13q51 -14 89 -37q43 -25 74 -58q34 -35 57 -76z" />
    <glyph glyph-name="d" unicode="d" horiz-adv-x="790" 
d="M87 698h298l-1 -2q76 0 141 -25q67 -26 116 -72q49 -47 78 -111q29 -66 29 -144q0 -79 -28 -142q-28 -64 -78 -109q-49 -44 -114 -70q-61 -24 -138 -24h-303v699zM199 104h192l-1 -2q48 0 93 17q44 17 77 48q33 32 53 77q20 46 20 102t-20 104q-19 46 -53 78t-78 50
q-45 18 -96 18h-187v-492z" />
    <glyph glyph-name="e" unicode="e" horiz-adv-x="640" 
d="M199 104h376v-104h-487v700h481v-104h-370v-182h295v-98h-295v-212z" />
    <glyph glyph-name="f" unicode="f" horiz-adv-x="594" 
d="M559 596h-360v-203h285v-100h-285v-293h-111v700h471v-104z" />
    <glyph glyph-name="g" unicode="g" horiz-adv-x="794" 
d="M639 88h-1l-5 -8q-12 -15 -36 -34q-23 -19 -52 -33q-24 -12 -67 -24q-36 -10 -79 -10q-74 0 -141 26q-65 27 -115 75q-49 48 -78 116q-28 66 -28 147q0 78 29 147q29 68 78 116t116 75q66 27 141 27q107 -2 189 -51t129 -132l-113 -30q-32 49 -87 78q-55 28 -118 28
q-53 0 -100 -18q-46 -18 -79 -52q-33 -35 -51 -81t-18 -103t20 -105q20 -47 54 -80q35 -33 81 -51t101 -18q48 0 87 12t68 32q28 19 48 42q18 21 28 44v59h-204v91h299v-374h-96v70v19z" />
    <glyph glyph-name="h" unicode="h" horiz-adv-x="740" 
d="M541 700h111v-700h-111v307h-342v-307h-111v700h111v-290h342v290z" />
    <glyph glyph-name="i" unicode="i" horiz-adv-x="287" 
d="M199 0h-111v700h111v-700z" />
    <glyph glyph-name="j" unicode="j" horiz-adv-x="663" 
d="M481 700h111v-405q0 -73 -21 -132q-21 -58 -60 -97t-94 -60q-57 -20 -124 -20q-47 0 -94 14q-43 11 -81 37q-36 24 -63 57t-42 72l110 29q19 -49 65 -78q44 -28 105 -28q92 0 140 54t48 149v408z" />
    <glyph glyph-name="k" unicode="k" horiz-adv-x="704" 
d="M672 0h-130l-249 339l-95 -96v-241h-111v700h111v-163q0 -98 -1 -124q-1 -39 0 -39h1l9 9l24 24q5 5 16 16.5t18 18.5l42 42l215 214h135l-290 -290z" />
    <glyph glyph-name="l" unicode="l" horiz-adv-x="579" 
d="M199 104h360v-104h-471v700h111v-596z" />
    <glyph glyph-name="m" unicode="m" horiz-adv-x="840" 
d="M648 700h104l-3 -700h-109v266q0 63 1 93q1 43 3 79q0 10 0.5 28.5t1.5 26.5l1 21h-1l-7 -12q-9 -15 -17 -29q-6 -11 -20 -35l-17 -30l-136 -235h-58l-136 235q-7 12 -18 30q-14 24 -21 35q-4 6 -10.5 16.5t-7.5 12.5l-7 12h-1l1 -20v-55q0 -19 2 -79q1 -30 1 -93v-267
h-109v700h104l159 -268q7 -12 19 -32t17 -28q4 -8 11 -20t10 -17q5 -9 11 -18l3 -5h1l3 5l10 18q3 5 10 17t11 20l35 60z" />
    <glyph glyph-name="n" unicode="n" horiz-adv-x="768" 
d="M569 700h111v-703h-104l-255 343l-45 63q-25 35 -40 55q-10 14 -28 39l-10 15h-1v-16v-46v-70v-87v-296h-111v699h104l257 -345q6 -8 40 -54q3 -4 17.5 -24t21.5 -29q6 -8 30 -41l12 -16h1v18v48v69v80v298z" />
    <glyph glyph-name="o" unicode="o" horiz-adv-x="808" 
d="M41 348l-3 -2q0 78 29 147q29 68 78 116t116 75q66 27 141 27t141 -27q67 -27 116 -75q50 -48 78 -115q29 -69 29 -147q0 -81 -28 -147q-28 -67 -78 -115q-49 -48 -116 -75q-67 -26 -141 -26t-141 26q-65 27 -115 75q-49 48 -78 116q-28 66 -28 147zM155 350v-2
q0 -56 18 -103t51 -81q32 -34 78 -52q45 -18 99 -18t99 18q44 18 78 53q32 34 52 81q19 45 19 104t-19 104q-20 48 -52 80q-33 33 -78 51t-99 18t-99 -18t-78 -51t-51 -80q-18 -46 -18 -104z" />
    <glyph glyph-name="p" unicode="p" horiz-adv-x="616" 
d="M88 700h232l-1 -2q125 0 195 -60q71 -60 71 -168t-70 -168q-71 -60 -195 -60h-121v-242h-111v700zM199 346h119q74 0 113 33t39 92q0 62 -40 93q-41 32 -112 32h-119v-250z" />
    <glyph glyph-name="q" unicode="q" horiz-adv-x="808" 
d="M347 -133v122l-1 -3q-66 11 -120 40q-55 30 -96 77q-40 45 -64 108q-24 61 -24 134q0 78 29 147q29 68 78 116t116 75q66 27 141 27t141 -27q67 -27 116 -75q50 -48 78 -115q29 -69 29 -147q0 -72 -24 -134t-66 -108q-43 -47 -99 -77q-54 -29 -123 -38v-122h-111zM404 95
v-2q54 0 99 18q44 18 78 53q32 34 52 81q19 45 19 104t-19 104q-20 48 -52 80q-33 33 -78 51t-99 18t-99 -18t-78 -51t-51 -80t-18 -104t18 -103t51 -81q32 -34 78 -52q45 -18 99 -18z" />
    <glyph glyph-name="r" unicode="r" horiz-adv-x="651" 
d="M613 0h-125l-149 250q-3 -1 -10 -1h-11h-118v-249h-111v699h229q65 0 113 -16q50 -17 84 -46q35 -31 53 -72q18 -42 18 -94q0 -74 -36 -125t-103 -76zM199 348h131l1 -1q71 0 105 36q35 37 35 89q0 54 -36 89q-37 35 -105 35h-131v-248z" />
    <glyph glyph-name="s" unicode="s" horiz-adv-x="602" 
d="M559 525l-106 -29l3 4q-6 28 -21 51q-16 23 -36 38q-22 16 -47 23q-27 8 -54 8q-58 0 -95 -26q-36 -26 -36 -68q0 -25 15 -43t40 -31q26 -14 57 -24t66 -21q43 -14 78 -28q41 -17 73 -40q32 -24 54 -59q21 -34 21 -84q0 -46 -19 -84t-54 -67q-34 -28 -82 -43
q-50 -14 -106 -14q-54 0 -102 14q-46 15 -81 42t-59 65q-25 39 -35 84l106 29q4 -26 18 -52q13 -26 36 -45q21 -18 53 -31q30 -12 68 -12q68 0 105 30t37 75q0 33 -18 54t-48 36q-33 16 -67 26q-25 7 -75 23q-32 10 -66 24q-33 13 -63 35q-29 21 -47 53t-18 78q0 41 18 77
t51 63t78 42t99 15q48 0 92 -14q42 -13 77 -38q34 -24 57 -59q22 -34 33 -77z" />
    <glyph glyph-name="t" unicode="t" horiz-adv-x="600" 
d="M18 700h563v-104h-227v-596h-110v596h-226v104z" />
    <glyph glyph-name="u" unicode="u" horiz-adv-x="731" 
d="M550 700h110v-404q0 -152 -78 -231q-77 -78 -216 -78t-217 79q-78 80 -78 231v403h111v-402q0 -209 183 -209q185 0 185 209v402z" />
    <glyph glyph-name="v" unicode="v" horiz-adv-x="718" 
d="M586 700h120l-289 -700h-116l-289 699h121l186 -463q3 -9 8.5 -24.5t6.5 -18.5q8 -21 12 -36l8 -24l4 -9h1l3 10q3 9 9 24q1 3 13 36q10 28 16 43z" />
    <glyph glyph-name="w" unicode="w" horiz-adv-x="1004" 
d="M863 700h117l-230 -702h-101l-112 352q-19 61 -28 99q-8 32 -9 32h-1q-1 0 -9 -32q-9 -40 -28 -98l-112 -352h-101l-228 699h117l133 -425q9 -28 21 -76q8 -30 9 -30h1q2 0 9 30q8 32 24 77l115 340h100l115 -340q17 -48 24 -76q7 -30 9 -30h1q1 0 9 30q13 53 21 77z" />
    <glyph glyph-name="x" unicode="x" horiz-adv-x="675" 
d="M338 270h-1l-11 -11q-2 -3 -6.5 -11t-6.5 -10q-10 -16 -15 -25q-6 -11 -14 -21l-142 -193h-133l257 360l-240 339h134l130 -185q2 -2 6 -8l6 -9q10 -14 14 -22q5 -11 12 -19l6 -8h1l5 8l12 20q10 16 15 23l6 9t6 8l130 185h134l-239 -339l256 -361h-133l-142 194
q-8 10 -14 21q-5 9 -15 25q-2 2 -6.5 10t-6.5 11z" />
    <glyph glyph-name="y" unicode="y" horiz-adv-x="678" 
d="M539 700h125l-271 -368v-332h-110v332l-270 368h125l159 -215q9 -13 27 -37q14 -18 15 -18h1q2 0 14 18q4 7 13.5 19.5t12.5 17.5z" />
    <glyph glyph-name="z" unicode="z" horiz-adv-x="697" 
d="M637 700v-103l-373 -438q-22 -25 -39 -42t-17 -18l1 -1h3q4 1 11 1.5t15 0.5q36 2 68 2h331v-103h-577v102l381 439q5 6 18 19t19 18t15 14l6 6l-1 1q-11 0 -31 -1t-67 -1h-330v104h567z" />
    <glyph glyph-name="braceleft" unicode="{" horiz-adv-x="412" 
d="M263 610v-98l-3 -3q0 -52 -7 -80t-17 -48q-9 -18 -18 -24q-6 -4 -12 -7q6 -3 12 -7q9 -6 18 -24q10 -20 17 -49q8 -34 8 -81v-98q0 -50 12 -80q13 -31 31 -46q19 -16 43 -22t49 -6v-103q-117 0 -180 63t-63 183v115q0 52 -10 81q-11 32 -22 47q-13 19 -32 27q19 8 32 27
q13 17 23 47q11 31 11 81v115q0 121 63 184t180 63v-103q-25 0 -49 -6t-43 -22q-18 -16 -31 -47q-12 -30 -12 -79z" />
    <glyph glyph-name="bar" unicode="|" horiz-adv-x="266" 
d="M177 -73h-89v848h89v-848z" />
    <glyph glyph-name="braceright" unicode="}" horiz-adv-x="412" 
d="M149 512v98l-1 -2q0 50 -12 80q-13 31 -31 47q-21 17 -43 23q-24 6 -49 6v103q117 0 180 -63t63 -184v-115q0 -52 10 -81q11 -32 22 -47q14 -19 33 -27q-19 -8 -33 -27q-11 -15 -22 -47q-10 -29 -10 -81v-115q0 -120 -63 -183t-180 -63v103q25 0 49 6q22 6 43 23
q18 15 31 46q12 30 12 80v98q0 47 8 81q7 29 17 49q9 18 18 24q2 1 5 3t4.5 3.5t2.5 1.5l-12 8q-9 6 -18 24q-10 20 -17 48t-7 80z" />
    <glyph glyph-name="asciitilde" unicode="~" 
d="M513 417l93 -25l-7 -2q-5 -32 -19 -54t-36 -37q-20 -14 -45 -22q-22 -7 -48 -7q-31 0 -59 11t-50 24q-20 12 -44 24q-22 11 -42 11q-38 0 -53 -19q-16 -20 -17 -42l-92 25q4 31 20 54t36 38q20 14 45 22q22 7 48 7q32 0 60 -11q27 -10 51 -24t45 -24q22 -11 42 -11
q37 0 54 20q17 19 18 42z" />
    <glyph glyph-name="uni00A0" unicode="&#xa0;" horiz-adv-x="250" 
 />
    <glyph glyph-name="exclamdown" unicode="&#xa1;" horiz-adv-x="287" 
d="M88 700h111v-157h-111v157zM88 476h111v-476h-111v476z" />
    <glyph glyph-name="cent" unicode="&#xa2;" horiz-adv-x="572" 
d="M450 268l96 -26h-2q-25 -61 -78 -103q-52 -41 -121 -52v-99h-90v100q-46 7 -85 30q-40 23 -68 57q-28 35 -45 78q-16 42 -16 95q0 50 17 95q16 43 45 78q28 34 68 57q39 22 86 30v105h90v-105q64 -10 115 -48t78 -93l-96 -25q-22 34 -57 54t-81 20q-36 0 -66 -12t-51 -33
t-33 -53t-12 -70q0 -77 44 -123q44 -45 116 -45q51 0 89 23q37 22 57 65z" />
    <glyph glyph-name="sterling" unicode="&#xa3;" horiz-adv-x="654" 
d="M414 104h198l-6 -105h-524v103q27 4 44 17q15 11 25 32q8 18 10 47q1 24 -2 62l-4 42h-68v88h60l-9 97q-4 45 11 87q15 41 45 71t72 48q41 17 89 19q32 1 71 -8t72 -31q34 -23 63 -60t42 -93l-94 -26q-19 64 -57 93q-37 28 -91 27q-26 -1 -49 -12q-22 -10 -36 -29
q-14 -18 -21 -42q-7 -23 -4 -51l8 -88h219v-88h-211l4 -40q7 -67 -6 -109q-12 -39 -40 -55l1 -1l15 1q5 1 19.5 1.5t21.5 0.5q34 2 60 2h72z" />
    <glyph glyph-name="currency" unicode="&#xa4;" horiz-adv-x="659" 
d="M485 555l70 70l57 -58l-70 -70q26 -33 39 -73q14 -42 14 -85q0 -45 -13 -84q-14 -42 -37 -72l70 -71l-56 -56l-70 71q-31 -24 -74 -40q-41 -15 -86 -15q-43 0 -85 14q-40 14 -75 39l-70 -70l-56 56l71 70q-26 33 -39 72q-13 38 -13 84q0 45 15 86q16 43 40 74l-70 70
l56 56l71 -70q32 25 71 38q40 14 83 14q45 0 83 -13q41 -14 74 -37zM329 510h-1q-36 0 -65 -13t-52 -36t-36 -54q-13 -30 -13 -67t13 -67q13 -31 36 -54t53 -35t65 -12t66 12t54 35t36 54q13 30 13 67t-13 67q-13 31 -36 54t-54 36q-30 13 -66 13z" />
    <glyph glyph-name="yen" unicode="&#xa5;" horiz-adv-x="678" 
d="M664 700l-189 -258h121v-76h-178l-25 -34v-2h203v-75h-203v-255h-110v255h-198v75h198v2l-25 34h-173v76h117l-189 258h125l159 -215q9 -13 27 -37q14 -18 15 -18h1q2 0 14 18q4 7 13.5 19.5t12.5 17.5l159 215h125z" />
    <glyph glyph-name="brokenbar" unicode="&#xa6;" horiz-adv-x="266" 
d="M88 775h89v-280h-89v280zM88 216h89v-289h-89v289z" />
    <glyph glyph-name="section" unicode="&#xa7;" horiz-adv-x="529" 
d="M477 585l-90 -25l-12 -9q-11 41 -46 62q-36 21 -84 21q-49 0 -78 -16q-30 -16 -30 -45q0 -18 12 -30q13 -13 33 -20q25 -9 48 -14q36 -8 55 -13q37 -9 65 -19q35 -13 60 -28q26 -16 45 -41q18 -24 18 -58q0 -40 -24 -66q-24 -25 -68 -39q41 -18 69 -46t28 -73
q0 -34 -16 -60q-17 -28 -46 -47q-26 -17 -72 -30q-42 -12 -93 -12q-96 0 -157 41q-61 42 -80 108l91 24q9 -39 47 -69t102 -30q58 0 91 21t33 53q0 23 -15 38q-14 14 -41 25q-26 10 -57 18q-21 5 -63 17q-29 8 -56 18q-31 11 -55 25q-25 15 -42 38q-16 22 -16 56q0 37 26 65
q26 27 71 44q-34 15 -58 39t-24 65q0 29 16 54t45 45t67 30q41 11 84 11q40 0 76 -9q34 -8 64 -26q28 -16 48 -41q21 -25 29 -52zM139 370l-6 -2q0 -19 14 -31q13 -12 36 -21q19 -8 51 -16l58 -14q6 -2 9 -2t9 -2q38 8 59 25q23 18 23 46q0 22 -14 38q-14 15 -36 24t-51 15
q-19 4 -57 14q-18 -2 -33 -7q-17 -6 -30 -15q-15 -10 -23 -22q-9 -14 -9 -30z" />
    <glyph glyph-name="dieresis" unicode="&#xa8;" horiz-adv-x="412" 
d="M69 763l-4 -3q-23 0 -40 17q-16 16 -16 41q0 22 17 39t41 17q25 0 41 -16q17 -17 17 -39q0 -24 -16 -40t-40 -16zM320 766l-4 -3q-23 0 -40 17q-16 16 -16 41q0 22 17 39t41 17q25 0 41 -16q17 -17 17 -39q0 -24 -16 -40t-40 -16z" />
    <glyph glyph-name="copyright" unicode="&#xa9;" horiz-adv-x="808" 
d="M399 710l-3 -2q75 0 141 -27q67 -27 116 -75q50 -48 78 -115q29 -69 29 -147q0 -81 -28 -147q-28 -67 -78 -115q-49 -48 -116 -75q-67 -26 -141 -26t-141 26q-65 27 -115 75q-49 48 -78 116q-28 66 -28 147q0 78 29 147q29 68 78 116t116 75q66 27 141 27zM401 634l-2 -2
q-60 0 -111 -21t-88 -58t-58 -90t-21 -117q0 -62 21 -115t58 -90q36 -36 89 -58q51 -21 111 -21t111 21t89 59t59 90t21 116t-21 117q-21 52 -59 90q-37 37 -88 58t-111 21zM502 299l66 -19l-3 -2q-9 -24 -25 -42q-16 -19 -38 -33q-21 -14 -46 -21q-27 -8 -52 -8
q-38 0 -68 13q-32 14 -54 37q-22 24 -36 56q-13 30 -13 69q0 36 14 70t36 56q23 23 54 36q33 14 68 14q51 0 94 -27t63 -69l-65 -19q-13 22 -38 36q-23 13 -53 13q-46 0 -75 -30q-29 -31 -29 -79q0 -49 29 -80q29 -30 75 -30q31 0 57 17q25 17 39 42z" />
    <glyph glyph-name="ordfeminine" unicode="&#xaa;" horiz-adv-x="358" 
d="M116 444l-24 -69h-72l127 333h61l127 -333h-72l-24 69h-123zM159 561l-22 -63h82l-22 63q-6 20 -8 29q-3 14 -6 24q-1 5 -4 18l-1 7h-1l-1 -7q-3 -13 -4 -18q-3 -10 -6 -24q-5 -22 -7 -29zM20 311h318v-70h-318v70z" />
    <glyph glyph-name="guillemotleft" unicode="&#xab;" horiz-adv-x="766" 
d="M381 352l235 234l61 -61l-178 -173l179 -173l-62 -62zM89 352l235 234l61 -61l-178 -173l179 -173l-62 -62z" />
    <glyph glyph-name="uni00AD" unicode="&#xad;" horiz-adv-x="636" 
d="M88 401h460v-92h-460v92z" />
    <glyph glyph-name="registered" unicode="&#xae;" horiz-adv-x="808" 
d="M403 713l-3 -2q75 0 141 -27q67 -27 116 -75q50 -48 78 -115q29 -69 29 -147q0 -81 -28 -147q-28 -67 -78 -115q-49 -48 -116 -75q-67 -26 -141 -26t-141 26q-65 27 -115 75q-49 48 -78 116q-28 66 -28 147q0 78 29 147q29 68 78 116t116 75q66 27 141 27zM405 66l-2 -2
q60 0 111 21t89 59t59 90t21 116t-21 117q-21 52 -59 90q-37 37 -88 58t-111 21t-111 -21t-88 -58t-58 -90t-21 -117q0 -62 21 -115t58 -90q36 -36 89 -58q51 -21 111 -21zM291 526h117h-1q63 0 99 -30t36 -82q0 -74 -67 -99l83 -138h-69l-75 127h-6h-52v-127h-65v349z
M354 357h59l2 1q31 0 47 14q15 14 15 39t-16 40q-17 15 -48 15h-59v-109z" />
    <glyph glyph-name="macron" unicode="&#xaf;" horiz-adv-x="357" 
d="M4 768h330v-85h-330v85z" />
    <glyph glyph-name="degree" unicode="&#xb0;" horiz-adv-x="308" 
d="M154 579q-27 0 -48 10q-22 11 -39 27q-17 17 -26 39q-9 23 -9 48t9 48q9 22 26 39t39 26t48 9t48 -9t39 -26t26 -39q9 -23 9 -48t-9 -48q-9 -22 -26 -39q-17 -16 -39 -27q-21 -10 -48 -10zM154 648v-2q24 0 41 17t17 39q0 24 -17 41t-41 17q-23 0 -39 -16
q-17 -17 -17 -40q0 -22 17 -39t39 -17z" />
    <glyph glyph-name="plusminus" unicode="&#xb1;" 
d="M398 401h181v-92h-180v-142h-98v142h-181v92h180v182h98v-182zM120 -9v91h459v-91h-459z" />
    <glyph glyph-name="uni00B2" unicode="&#xb2;" horiz-adv-x="333" 
d="M118 532l1 -1l-2 -1q3 0 33 3t69 3h86v-65h-282v50l148 121q25 21 45 45q19 23 19 51q0 27 -20 45q-19 18 -48 18q-37 0 -55 -21q-17 -20 -25 -49l-67 18q14 53 52 87q40 35 97 35q32 0 56 -10q26 -11 45 -28q20 -18 30 -42q11 -25 11 -51q0 -39 -21 -69q-20 -29 -48 -52
q-22 -18 -33 -26q-6 -4 -17.5 -13t-16.5 -13q-20 -15 -39 -25z" />
    <glyph glyph-name="uni00B3" unicode="&#xb3;" horiz-adv-x="337" 
d="M90 740l-63 17h-3q10 51 49 82q38 31 96 31q35 0 60 -9t43 -24t27 -35t9 -42q0 -21 -7 -35q-8 -17 -19 -26q-13 -11 -27 -17q-13 -5 -30 -7v-1q34 -1 62 -23q27 -21 27 -62q0 -25 -11 -49q-11 -22 -30 -39q-18 -16 -45 -25q-26 -9 -56 -9q-28 0 -54 9t-45 24t-33 36
q-13 21 -18 47l65 18q4 -32 27 -52q22 -19 60 -19q35 0 53 18t18 43q0 26 -21 41t-53 15h-38v54h38q30 0 49 16t19 40q0 17 -16 33q-17 17 -51 17q-35 0 -54 -16t-28 -51z" />
    <glyph glyph-name="acute" unicode="&#xb4;" horiz-adv-x="312" 
d="M238 914l39 -76l-228 -104l-33 61z" />
    <glyph glyph-name="paragraph" unicode="&#xb6;" horiz-adv-x="706" 
d="M274 700h344l-1 -700h-111v596h-84v-596h-105v318h-44q-109 0 -171 50q-61 49 -61 141q0 91 62 141t171 50z" />
    <glyph glyph-name="periodcentered" unicode="&#xb7;" horiz-adv-x="238" 
d="M119 290v-2q-25 0 -42 18q-17 19 -17 43t17 41t42 17t42 -17t17 -41q0 -25 -17 -42t-42 -17z" />
    <glyph glyph-name="cedilla" unicode="&#xb8;" horiz-adv-x="250" 
d="M130 0l-19 -51v-1q44 2 74 -24t30 -72q0 -51 -32 -75q-31 -24 -78 -24h-89l24 61h65q22 0 35 11q12 11 12 27q0 17 -13 27q-14 11 -34 11h-78l39 110h64z" />
    <glyph glyph-name="uni00B9" unicode="&#xb9;" horiz-adv-x="236" 
d="M149 862h52v-390h-74v214q0 17 1 26q2 18 2 26q0 9 2 21l1 9h-1q-1 0 -10 -12q-10 -14 -24 -26l-39 -37l-47 42z" />
    <glyph glyph-name="ordmasculine" unicode="&#xba;" horiz-adv-x="365" 
d="M10 539h-3q0 36 14 69q14 32 37 54q24 23 55 36q30 13 67 13q38 0 68 -13q31 -13 55 -36q23 -22 37 -54q14 -33 14 -69q0 -39 -13 -69q-14 -32 -37 -54q-24 -23 -55 -36q-30 -13 -67 -13t-67 13q-31 13 -55 36q-23 22 -37 54q-13 30 -13 69zM80 540v-1q0 -45 29 -76
q29 -30 72 -30q45 0 74 30q29 31 29 76q0 46 -29 77q-29 30 -74 30q-43 0 -72 -30q-29 -31 -29 -76zM20 311h326v-70h-326v70z" />
    <glyph glyph-name="guillemotright" unicode="&#xbb;" horiz-adv-x="766" 
d="M150 586l235 -234l-235 -235l-62 62l179 173l-178 173zM442 586l235 -234l-235 -235l-62 62l179 173l-178 173z" />
    <glyph glyph-name="onequarter" unicode="&#xbc;" horiz-adv-x="699" 
d="M134 602h-1v-1q-1 0 -10 -12q-10 -14 -24 -26l-39 -37l-47 42l137 127h52v-389h-74v214q0 17 1 26q2 18 2 26q0 9 2 21zM549 696h75l-485 -699h-76zM678 143v-63h-48v-83h-67v83h-199v51l211 254h55v-242h48zM496 145h65l2 72q1 9 1 25v23q1 13 1 21h-1l-4 -5
q-6 -8 -10 -13q-2 -2 -6 -8t-7 -9q-10 -12 -15 -17l-50 -57q-12 -14 -23 -23t-11 -10l1 -1q7 0 18 1t39 1z" />
    <glyph glyph-name="onehalf" unicode="&#xbd;" horiz-adv-x="735" 
d="M147 699h52v-390h-74v214q0 17 1 26q2 18 2 26q0 9 2 21l1 9h-1q-1 0 -10 -12q-10 -14 -24 -26l-39 -37l-47 42zM59 0l486 699h75l-485 -699h-76zM520 59l1 -1l-2 -1q3 0 33 3t69 3h86v-64h-282v49l148 121q25 21 45 45q19 23 19 51q0 27 -20 45q-19 18 -48 18
q-37 0 -55 -21q-17 -20 -25 -49l-67 18q14 53 52 87q40 35 97 35q32 0 56 -10q26 -11 45 -28q20 -18 30 -42q11 -25 11 -51q0 -39 -21 -69q-20 -29 -48 -52q-22 -18 -33 -26q-6 -4 -17.5 -13t-16.5 -13q-20 -15 -39 -25z" />
    <glyph glyph-name="threequarters" unicode="&#xbe;" horiz-adv-x="767" 
d="M227 508v-1h-3q34 -1 62 -23q27 -21 27 -62q0 -25 -11 -49q-10 -23 -30 -39q-18 -16 -45 -25q-25 -9 -56 -9q-29 0 -54 9t-45 24t-33 36t-18 47l65 18q4 -32 27 -52q22 -19 60 -19q35 0 53 18t18 43q0 26 -21 41t-53 15h-38v54h38q30 0 49 16t19 40q0 17 -16 33
q-17 17 -51 17q-35 0 -54 -16t-28 -51l-63 17q10 51 49 82q38 31 96 31q35 0 60 -9t43 -24t27 -35q9 -19 9 -42q0 -21 -7 -35q-8 -17 -19 -26q-13 -11 -27 -17q-13 -5 -30 -7zM618 696h75l-485 -699h-76zM747 143v-63h-48v-83h-67v83h-199v51l211 254h55v-242h48zM565 145
h65l2 72v25t1 23q1 13 1 21h-1l-4 -5q-6 -8 -10 -13q-2 -2 -6 -8t-7 -9q-10 -12 -15 -17l-50 -57q-12 -14 -23 -23t-11 -10l1 -1q7 0 18 1t39 1z" />
    <glyph glyph-name="questiondown" unicode="&#xbf;" horiz-adv-x="579" 
d="M354 702v-157h-111v157h111zM354 476v-110v2q-60 -29 -93 -49q-36 -21 -61 -42q-23 -19 -34 -39q-10 -19 -10 -44q0 -16 6 -36t21 -36q15 -17 40 -27q24 -10 63 -10q68 0 105 30t54 89l93 -26q-21 -90 -88 -141q-66 -50 -168 -50q-59 0 -107 16q-44 16 -75 44
q-30 27 -45 63t-15 75q0 47 18 80q19 35 46 59q28 25 65 45q40 22 74 38v69h111z" />
    <glyph glyph-name="Agrave" unicode="&#xc0;" horiz-adv-x="719" 
d="M447 794l-34 -61l-228 104l39 76zM588 0l-65 158h-327l-65 -158h-119l296 699h103l296 -699h-119zM236 256h247l-90 218q-6 14 -12 30l-10 30q-2 5 -4.5 12.5l-3.5 10.5l-3 9h-1l-3 -9q-1 -3 -3.5 -10t-4.5 -12l-10 -30q-6 -17 -12 -30z" />
    <glyph glyph-name="Aacute" unicode="&#xc1;" horiz-adv-x="719" 
d="M514 837l-228 -104l-34 61l223 119zM588 0l-65 158h-327l-65 -158h-119l296 699h103l296 -699h-119zM236 256h247l-90 218q-6 14 -12 30l-10 30q-2 5 -4.5 12.5l-3.5 10.5l-3 9h-1l-3 -9q-1 -3 -3.5 -10t-4.5 -12l-10 -30q-6 -17 -12 -30z" />
    <glyph glyph-name="Acircumflex" unicode="&#xc2;" horiz-adv-x="719" 
d="M356 838l-122 -102l-55 56l177 149l177 -149l-55 -56zM588 0l-65 158h-327l-65 -158h-119l296 699h103l296 -699h-119zM236 256h247l-90 218q-6 14 -12 30l-10 30q-2 5 -4.5 12.5l-3.5 10.5l-3 9h-1l-3 -9q-1 -3 -3.5 -10t-4.5 -12l-10 -30q-6 -17 -12 -30z" />
    <glyph glyph-name="Atilde" unicode="&#xc3;" horiz-adv-x="719" 
d="M472 872h88h-3q0 -52 -36 -87q-35 -34 -91 -34q-24 0 -43 9q-17 8 -36 20q-4 2 -14.5 9.5t-16.5 10.5q-15 9 -32 9q-20 0 -34 -12q-13 -12 -13 -32h-87q0 53 36 87q35 34 91 34q25 0 45 -9t36 -21q19 -14 31 -21q15 -9 32 -9q20 0 33 13q14 14 14 33zM588 0l-65 158h-327
l-65 -158h-119l296 699h103l296 -699h-119zM236 256h247l-90 218q-6 14 -12 30l-10 30q-2 5 -4.5 12.5l-3.5 10.5l-3 9h-1l-3 -9q-1 -3 -3.5 -10t-4.5 -12l-10 -30q-6 -17 -12 -30z" />
    <glyph glyph-name="Adieresis" unicode="&#xc4;" horiz-adv-x="719" 
d="M229 762l-2 -3q-25 0 -42 17q-16 16 -16 41q0 22 17 39t42 17q23 0 39 -16q17 -17 17 -39q0 -24 -16 -40t-39 -16zM479 765l-4 -3q-23 0 -40 17q-16 16 -16 41q0 22 17 39t41 17q25 0 41 -16q17 -17 17 -39q0 -24 -16 -40t-40 -16zM588 0l-65 158h-327l-65 -158h-119
l296 699h103l296 -699h-119zM236 256h247l-90 218q-6 14 -12 30l-10 30q-2 5 -4.5 12.5l-3.5 10.5l-3 9h-1l-3 -9q-1 -3 -3.5 -10t-4.5 -12l-10 -30q-6 -17 -12 -30z" />
    <glyph glyph-name="Aring" unicode="&#xc5;" horiz-adv-x="719" 
d="M588 -3l-65 158h-328l-65 -158h-119l295 696q-32 15 -51 45q-19 29 -19 67q0 25 9 48q9 22 26 39t39 26t48 9t48 -9t39 -26q17 -16 27 -39q10 -21 10 -48q0 -37 -19 -66q-19 -30 -51 -45l295 -697h-119zM359 865v-3q-23 0 -39 -16q-17 -17 -17 -40q0 -22 17 -39
q16 -16 39 -16q24 0 41 17t17 39q0 24 -17 41t-41 17zM236 256h247l-90 218q-6 14 -12 30l-10 30q-2 5 -4.5 12.5l-3.5 10.5l-3 9h-1l-3 -9q-1 -3 -3.5 -10t-4.5 -12l-10 -30q-6 -17 -12 -30z" />
    <glyph glyph-name="AE" unicode="&#xc6;" horiz-adv-x="1002" 
d="M559 103h376v-103h-484v158h-253l-67 -158h-120l302 699h616v-104h-370v-182h296v-98h-296v-212zM452 256v340l-76 -1l-6 -14q-11 -27 -14 -36q-3 -8 -9 -24.5t-8 -20.5q-4 -9 -10 -25.5t-7 -18.5l-83 -200h213z" />
    <glyph glyph-name="Ccedilla" unicode="&#xc7;" horiz-adv-x="758" 
d="M622 220l111 -30l-3 -9q-22 -46 -52 -80q-32 -36 -71 -62q-41 -27 -86 -40q-46 -15 -98 -18l-15 -39q44 2 75 -24q31 -25 31 -72q0 -50 -33 -74t-79 -24h-90l24 61h66q22 0 35 11q12 10 12 27t-13 27q-14 11 -34 11h-78l35 99q-71 8 -126 36q-59 30 -102 78
q-44 49 -68 111q-24 63 -24 137q0 78 29 147q29 68 78 116t116 75q66 27 141 27q53 0 99 -13q51 -14 89 -37q43 -25 74 -58q34 -35 57 -76l-113 -30q-31 49 -87 78q-55 28 -118 28q-54 0 -100 -18t-79 -52q-33 -35 -51 -81t-18 -103q0 -59 19 -104q19 -47 53 -80
q33 -33 78 -51t98 -18q71 0 129 34q59 35 89 90z" />
    <glyph glyph-name="Egrave" unicode="&#xc8;" horiz-adv-x="640" 
d="M425 795l-34 -61l-228 104l39 76zM199 104h376v-104h-487v700h481v-104h-370v-182h295v-98h-295v-212z" />
    <glyph glyph-name="Eacute" unicode="&#xc9;" horiz-adv-x="640" 
d="M492 838l-228 -104l-34 61l223 119zM199 104h376v-104h-487v700h481v-104h-370v-182h295v-98h-295v-212z" />
    <glyph glyph-name="Ecircumflex" unicode="&#xca;" horiz-adv-x="640" 
d="M334 839l-122 -102l-55 56l177 149l177 -149l-55 -56zM199 104h376v-104h-487v700h481v-104h-370v-182h295v-98h-295v-212z" />
    <glyph glyph-name="Edieresis" unicode="&#xcb;" horiz-adv-x="640" 
d="M207 763l-2 -3q-25 0 -42 17q-16 16 -16 41q0 22 17 39t42 17q23 0 39 -16q17 -17 17 -39q0 -24 -16 -40t-39 -16zM457 766l-4 -3q-23 0 -40 17q-16 16 -16 41q0 22 17 39t41 17q25 0 41 -16q17 -17 17 -39q0 -24 -16 -40t-40 -16zM199 104h376v-104h-487v700h481v-104
h-370v-182h295v-98h-295v-212z" />
    <glyph glyph-name="Igrave" unicode="&#xcc;" horiz-adv-x="287" 
d="M197 734l-227 104l38 76l223 -119zM199 0h-111v700h111v-700z" />
    <glyph glyph-name="Iacute" unicode="&#xcd;" horiz-adv-x="287" 
d="M259 914l39 -76l-228 -104l-34 61zM199 0h-111v700h111v-700z" />
    <glyph glyph-name="Icircumflex" unicode="&#xce;" horiz-adv-x="287" 
d="M-36 793l176 149l177 -149l-55 -56l-122 102l-122 -102zM199 0h-111v700h111v-700z" />
    <glyph glyph-name="Idieresis" unicode="&#xcf;" horiz-adv-x="287" 
d="M13 763l-2 -3q-24 0 -41 17q-16 16 -16 41q0 22 17 39t41 17q23 0 39 -16q17 -17 17 -39q0 -24 -16 -40t-39 -16zM263 766l-4 -3q-23 0 -40 17q-16 16 -16 41q0 22 17 39t41 17q25 0 41 -16q17 -17 17 -39q0 -24 -16 -40t-40 -16zM199 0h-111v700h111v-700z" />
    <glyph glyph-name="Eth" unicode="&#xd0;" horiz-adv-x="797" 
d="M95 698h298l-1 -2q76 0 141 -25q67 -26 116 -72q49 -47 78 -111q29 -66 29 -144q0 -79 -28 -142q-28 -64 -78 -109q-49 -44 -114 -70q-61 -24 -138 -24h-303v304h-55v100h55v295zM207 104h192l-1 -2q48 0 93 17q44 17 77 48q33 32 53 77q20 46 20 102t-20 104
q-19 46 -53 78t-78 50q-45 18 -96 18h-187v-191h154v-100h-154v-201z" />
    <glyph glyph-name="Ntilde" unicode="&#xd1;" horiz-adv-x="768" 
d="M498 869h88h-3q0 -53 -36 -87q-35 -34 -91 -34q-24 0 -43 9q-17 8 -36 20q-4 2 -14.5 9.5t-16.5 10.5q-15 9 -32 9q-20 0 -34 -12q-13 -12 -13 -32h-87q0 52 36 87q35 34 91 34q25 0 45 -9t36 -21q19 -14 31 -21q15 -9 32 -9q20 0 33 13q14 14 14 33zM569 700h111v-703
h-104l-255 343l-45 63q-25 35 -40 55q-10 14 -28 39l-10 15h-1v-16v-46v-70v-87v-296h-111v699h104l257 -345q6 -8 40 -54q3 -4 17.5 -24t21.5 -29q6 -8 30 -41l12 -16h1v18v48v69v80v298z" />
    <glyph glyph-name="Ograve" unicode="&#xd2;" horiz-adv-x="808" 
d="M460 730l-228 104l39 76l223 -119zM41 348l-3 -2q0 78 29 147q29 68 78 116t116 75q66 27 141 27t141 -27q67 -27 116 -75q50 -48 78 -115q29 -69 29 -147q0 -81 -28 -147q-28 -67 -78 -115q-49 -48 -116 -75q-67 -26 -141 -26t-141 26q-65 27 -115 75q-49 48 -78 116
q-28 66 -28 147zM155 350v-2q0 -56 18 -103t51 -81q32 -34 78 -52q45 -18 99 -18t99 18q44 18 78 53q32 34 52 81q19 45 19 104t-19 104q-20 48 -52 80q-33 33 -78 51t-99 18t-99 -18t-78 -51t-51 -80q-18 -46 -18 -104z" />
    <glyph glyph-name="Oacute" unicode="&#xd3;" horiz-adv-x="808" 
d="M522 910l39 -76l-228 -104l-34 61zM41 348l-3 -2q0 78 29 147q29 68 78 116t116 75q66 27 141 27t141 -27q67 -27 116 -75q50 -48 78 -115q29 -69 29 -147q0 -81 -28 -147q-28 -67 -78 -115q-49 -48 -116 -75q-67 -26 -141 -26t-141 26q-65 27 -115 75q-49 48 -78 116
q-28 66 -28 147zM155 350v-2q0 -56 18 -103t51 -81q32 -34 78 -52q45 -18 99 -18t99 18q44 18 78 53q32 34 52 81q19 45 19 104t-19 104q-20 48 -52 80q-33 33 -78 51t-99 18t-99 -18t-78 -51t-51 -80q-18 -46 -18 -104z" />
    <glyph glyph-name="Ocircumflex" unicode="&#xd4;" horiz-adv-x="808" 
d="M226 789l177 149l177 -149l-55 -56l-122 102l-122 -102zM41 348l-3 -2q0 78 29 147q29 68 78 116t116 75q66 27 141 27t141 -27q67 -27 116 -75q50 -48 78 -115q29 -69 29 -147q0 -81 -28 -147q-28 -67 -78 -115q-49 -48 -116 -75q-67 -26 -141 -26t-141 26
q-65 27 -115 75q-49 48 -78 116q-28 66 -28 147zM155 350v-2q0 -56 18 -103t51 -81q32 -34 78 -52q45 -18 99 -18t99 18q44 18 78 53q32 34 52 81q19 45 19 104t-19 104q-20 48 -52 80q-33 33 -78 51t-99 18t-99 -18t-78 -51t-51 -80q-18 -46 -18 -104z" />
    <glyph glyph-name="Otilde" unicode="&#xd5;" horiz-adv-x="808" 
d="M519 869h88h-3q0 -53 -36 -87q-35 -34 -91 -34q-23 0 -43 9q-17 8 -36 20q-4 2 -14.5 9.5t-16.5 10.5q-15 9 -32 9q-21 0 -34 -12t-13 -32h-87q0 52 36 87q35 34 91 34q26 0 45 -9t36 -21q19 -14 31 -21q15 -9 32 -9q20 0 33 13q14 14 14 33zM41 348l-3 -2q0 78 29 147
q29 68 78 116t116 75q66 27 141 27t141 -27q67 -27 116 -75q50 -48 78 -115q29 -69 29 -147q0 -81 -28 -147q-28 -67 -78 -115q-49 -48 -116 -75q-67 -26 -141 -26t-141 26q-65 27 -115 75q-49 48 -78 116q-28 66 -28 147zM155 350v-2q0 -56 18 -103t51 -81q32 -34 78 -52
q45 -18 99 -18t99 18q44 18 78 53q32 34 52 81q19 45 19 104t-19 104q-20 48 -52 80q-33 33 -78 51t-99 18t-99 -18t-78 -51t-51 -80q-18 -46 -18 -104z" />
    <glyph glyph-name="Odieresis" unicode="&#xd6;" horiz-adv-x="808" 
d="M276 759l-2 -3q-25 0 -42 17q-16 16 -16 41q0 22 17 39t42 17q23 0 39 -16q17 -17 17 -39q0 -24 -16 -40t-39 -16zM526 762l-4 -3q-23 0 -40 17q-16 16 -16 41q0 22 17 39t41 17q25 0 41 -16q17 -17 17 -39q0 -24 -16 -40t-40 -16zM41 348l-3 -2q0 78 29 147
q29 68 78 116t116 75q66 27 141 27t141 -27q67 -27 116 -75q50 -48 78 -115q29 -69 29 -147q0 -81 -28 -147q-28 -67 -78 -115q-49 -48 -116 -75q-67 -26 -141 -26t-141 26q-65 27 -115 75q-49 48 -78 116q-28 66 -28 147zM155 350v-2q0 -56 18 -103t51 -81q32 -34 78 -52
q45 -18 99 -18t99 18q44 18 78 53q32 34 52 81q19 45 19 104t-19 104q-20 48 -52 80q-33 33 -78 51t-99 18t-99 -18t-78 -51t-51 -80q-18 -46 -18 -104z" />
    <glyph glyph-name="multiply" unicode="&#xd7;" 
d="M484 563l73 -73l-134 -135l134 -135l-73 -74l-135 135l-134 -134l-73 74l134 134l-135 134l73 73l135 -134z" />
    <glyph glyph-name="Oslash" unicode="&#xd8;" horiz-adv-x="808" 
d="M702 656l-38 -50l1 -1q47 -47 75 -115q27 -66 27 -144q0 -81 -28 -147q-28 -67 -78 -115q-49 -48 -116 -75q-67 -26 -141 -26q-49 0 -94 12q-44 10 -85 33l-37 -48l-78 59l36 48q-50 48 -78 114q-28 65 -28 146q0 78 29 147q29 68 78 116t116 75q66 27 141 27
q51 0 96 -12q44 -12 86 -35l38 49zM215 178l306 401l-2 -2q-54 26 -117 26q-54 0 -99 -18t-78 -51t-51 -80q-18 -46 -18 -104q0 -52 15 -96q14 -42 44 -76zM597 519l-305 -400h1q49 -24 112 -24q54 0 99 18q44 18 78 53q32 34 52 81q19 45 19 104q0 51 -15 93q-15 41 -41 75
z" />
    <glyph glyph-name="Ugrave" unicode="&#xd9;" horiz-adv-x="731" 
d="M422 733l-228 104l39 76l223 -119zM550 700h110v-404q0 -152 -78 -231q-77 -78 -216 -78t-217 79q-78 80 -78 231v403h111v-402q0 -209 183 -209q185 0 185 209v402z" />
    <glyph glyph-name="Uacute" unicode="&#xda;" horiz-adv-x="731" 
d="M484 913l39 -76l-228 -104l-34 61zM550 700h110v-404q0 -152 -78 -231q-77 -78 -216 -78t-217 79q-78 80 -78 231v403h111v-402q0 -209 183 -209q185 0 185 209v402z" />
    <glyph glyph-name="Ucircumflex" unicode="&#xdb;" horiz-adv-x="731" 
d="M188 792l177 149l177 -149l-55 -56l-122 102l-122 -102zM550 700h110v-404q0 -152 -78 -231q-77 -78 -216 -78t-217 79q-78 80 -78 231v403h111v-402q0 -209 183 -209q185 0 185 209v402z" />
    <glyph glyph-name="Udieresis" unicode="&#xdc;" horiz-adv-x="731" 
d="M238 762l-2 -3q-25 0 -42 17q-16 16 -16 41q0 22 17 39t42 17q23 0 39 -16q17 -17 17 -39q0 -24 -16 -40t-39 -16zM488 765l-4 -3q-23 0 -40 17q-16 16 -16 41q0 22 17 39t41 17q25 0 41 -16q17 -17 17 -39q0 -24 -16 -40t-40 -16zM550 700h110v-404q0 -152 -78 -231
q-77 -78 -216 -78t-217 79q-78 80 -78 231v403h111v-402q0 -209 183 -209q185 0 185 209v402z" />
    <glyph glyph-name="Yacute" unicode="&#xdd;" horiz-adv-x="678" 
d="M454 914l39 -76l-228 -104l-34 61zM539 700h125l-271 -368v-332h-110v332l-270 368h125l159 -215q9 -13 27 -37q14 -18 15 -18h1q2 0 14 18q4 7 13.5 19.5t12.5 17.5z" />
    <glyph glyph-name="Thorn" unicode="&#xde;" horiz-adv-x="621" 
d="M199 578h134q54 0 102 -17q45 -16 79 -47q33 -30 51 -72t18 -92t-18 -92t-51 -72q-34 -31 -79 -47q-48 -17 -102 -17h-134v-122h-111v699h111v-121zM199 227h136v-1q60 0 97 35q36 35 36 90t-36 90q-37 35 -97 35h-136v-249z" />
    <glyph glyph-name="germandbls" unicode="&#xdf;" horiz-adv-x="790" 
d="M88 700h593l-107 -211q-10 -18 -16 -28t-16 -28t-12 -22l-5 -9l1 -1h5q49 0 89 -15t70 -42t46 -64q17 -39 17 -81q0 -44 -17 -84q-16 -39 -48 -69q-31 -29 -75 -46q-43 -15 -98 -15q-78 0 -144 37q-64 37 -97 99l105 29q21 -34 54 -52t77 -18q62 0 97 36q34 35 34 87
q0 23 -9 44q-10 23 -25 38q-17 17 -42 27q-24 10 -60 10h-88v83l63 120q4 7 12 23t12 23q2 3 5 9t5 9l4 8l-1 1q-8 0 -22 -1t-49 -1h-247v-596h-111v700z" />
    <glyph glyph-name="agrave" unicode="&#xe0;" horiz-adv-x="719" 
d="M447 794l-34 -61l-228 104l39 76zM588 0l-65 158h-327l-65 -158h-119l296 699h103l296 -699h-119zM236 256h247l-90 218q-6 14 -12 30l-10 30q-2 5 -4.5 12.5l-3.5 10.5l-3 9h-1l-3 -9q-1 -3 -3.5 -10t-4.5 -12l-10 -30q-6 -17 -12 -30z" />
    <glyph glyph-name="aacute" unicode="&#xe1;" horiz-adv-x="719" 
d="M514 837l-228 -104l-34 61l223 119zM588 0l-65 158h-327l-65 -158h-119l296 699h103l296 -699h-119zM236 256h247l-90 218q-6 14 -12 30l-10 30q-2 5 -4.5 12.5l-3.5 10.5l-3 9h-1l-3 -9q-1 -3 -3.5 -10t-4.5 -12l-10 -30q-6 -17 -12 -30z" />
    <glyph glyph-name="acircumflex" unicode="&#xe2;" horiz-adv-x="719" 
d="M356 838l-122 -102l-55 56l177 149l177 -149l-55 -56zM588 0l-65 158h-327l-65 -158h-119l296 699h103l296 -699h-119zM236 256h247l-90 218q-6 14 -12 30l-10 30q-2 5 -4.5 12.5l-3.5 10.5l-3 9h-1l-3 -9q-1 -3 -3.5 -10t-4.5 -12l-10 -30q-6 -17 -12 -30z" />
    <glyph glyph-name="atilde" unicode="&#xe3;" horiz-adv-x="719" 
d="M472 872h88h-3q0 -52 -36 -87q-35 -34 -91 -34q-24 0 -43 9q-17 8 -36 20q-4 2 -14.5 9.5t-16.5 10.5q-15 9 -32 9q-20 0 -34 -12q-13 -12 -13 -32h-87q0 53 36 87q35 34 91 34q25 0 45 -9t36 -21q19 -14 31 -21q15 -9 32 -9q20 0 33 13q14 14 14 33zM588 0l-65 158h-327
l-65 -158h-119l296 699h103l296 -699h-119zM236 256h247l-90 218q-6 14 -12 30l-10 30q-2 5 -4.5 12.5l-3.5 10.5l-3 9h-1l-3 -9q-1 -3 -3.5 -10t-4.5 -12l-10 -30q-6 -17 -12 -30z" />
    <glyph glyph-name="adieresis" unicode="&#xe4;" horiz-adv-x="719" 
d="M229 762l-2 -3q-25 0 -42 17q-16 16 -16 41q0 22 17 39t42 17q23 0 39 -16q17 -17 17 -39q0 -24 -16 -40t-39 -16zM479 765l-4 -3q-23 0 -40 17q-16 16 -16 41q0 22 17 39t41 17q25 0 41 -16q17 -17 17 -39q0 -24 -16 -40t-40 -16zM588 0l-65 158h-327l-65 -158h-119
l296 699h103l296 -699h-119zM236 256h247l-90 218q-6 14 -12 30l-10 30q-2 5 -4.5 12.5l-3.5 10.5l-3 9h-1l-3 -9q-1 -3 -3.5 -10t-4.5 -12l-10 -30q-6 -17 -12 -30z" />
    <glyph glyph-name="aring" unicode="&#xe5;" horiz-adv-x="719" 
d="M588 -3l-65 158h-328l-65 -158h-119l295 696q-32 15 -51 45q-19 29 -19 67q0 25 9 48q9 22 26 39t39 26t48 9t48 -9t39 -26q17 -16 27 -39q10 -21 10 -48q0 -37 -19 -66q-19 -30 -51 -45l295 -697h-119zM359 865v-3q-23 0 -39 -16q-17 -17 -17 -40q0 -22 17 -39
q16 -16 39 -16q24 0 41 17t17 39q0 24 -17 41t-41 17zM236 256h247l-90 218q-6 14 -12 30l-10 30q-2 5 -4.5 12.5l-3.5 10.5l-3 9h-1l-3 -9q-1 -3 -3.5 -10t-4.5 -12l-10 -30q-6 -17 -12 -30z" />
    <glyph glyph-name="ae" unicode="&#xe6;" horiz-adv-x="1002" 
d="M559 103h376v-103h-484v158h-253l-67 -158h-120l302 699h616v-104h-370v-182h296v-98h-296v-212zM452 256v340l-76 -1l-6 -14q-11 -27 -14 -36q-3 -8 -9 -24.5t-8 -20.5q-4 -9 -10 -25.5t-7 -18.5l-83 -200h213z" />
    <glyph glyph-name="ccedilla" unicode="&#xe7;" horiz-adv-x="758" 
d="M622 220l111 -30l-3 -9q-22 -46 -52 -80q-32 -36 -71 -62q-41 -27 -86 -40q-46 -15 -98 -18l-15 -39q44 2 75 -24q31 -25 31 -72q0 -50 -33 -74t-79 -24h-90l24 61h66q22 0 35 11q12 10 12 27t-13 27q-14 11 -34 11h-78l35 99q-71 8 -126 36q-59 30 -102 78
q-44 49 -68 111q-24 63 -24 137q0 78 29 147q29 68 78 116t116 75q66 27 141 27q53 0 99 -13q51 -14 89 -37q43 -25 74 -58q34 -35 57 -76l-113 -30q-31 49 -87 78q-55 28 -118 28q-54 0 -100 -18t-79 -52q-33 -35 -51 -81t-18 -103q0 -59 19 -104q19 -47 53 -80
q33 -33 78 -51t98 -18q71 0 129 34q59 35 89 90z" />
    <glyph glyph-name="egrave" unicode="&#xe8;" horiz-adv-x="640" 
d="M423 795l-34 -61l-228 104l39 76zM199 104h376v-104h-487v700h481v-104h-370v-182h295v-98h-295v-212z" />
    <glyph glyph-name="eacute" unicode="&#xe9;" horiz-adv-x="640" 
d="M490 838l-228 -104l-34 61l223 119zM199 104h376v-104h-487v700h481v-104h-370v-182h295v-98h-295v-212z" />
    <glyph glyph-name="ecircumflex" unicode="&#xea;" horiz-adv-x="640" 
d="M332 839l-122 -102l-55 56l177 149l177 -149l-55 -56zM199 104h376v-104h-487v700h481v-104h-370v-182h295v-98h-295v-212z" />
    <glyph glyph-name="edieresis" unicode="&#xeb;" horiz-adv-x="640" 
d="M205 763l-2 -3q-25 0 -42 17q-16 16 -16 41q0 22 17 39t42 17q23 0 39 -16q17 -17 17 -39q0 -24 -16 -40t-39 -16zM455 766l-4 -3q-23 0 -40 17q-16 16 -16 41q0 22 17 39t41 17q25 0 41 -16q17 -17 17 -39q0 -24 -16 -40t-40 -16zM199 104h376v-104h-487v700h481v-104
h-370v-182h295v-98h-295v-212z" />
    <glyph glyph-name="igrave" unicode="&#xec;" horiz-adv-x="287" 
d="M198 734l-227 104l38 76l223 -119zM199 0h-111v700h111v-700z" />
    <glyph glyph-name="iacute" unicode="&#xed;" horiz-adv-x="287" 
d="M260 914l39 -76l-228 -104l-34 61zM199 0h-111v700h111v-700z" />
    <glyph glyph-name="icircumflex" unicode="&#xee;" horiz-adv-x="287" 
d="M-35 793l176 149l177 -149l-55 -56l-122 102l-122 -102zM199 0h-111v700h111v-700z" />
    <glyph glyph-name="idieresis" unicode="&#xef;" horiz-adv-x="287" 
d="M14 763l-2 -3q-24 0 -41 17q-16 16 -16 41q0 22 17 39t41 17q23 0 39 -16q17 -17 17 -39q0 -24 -16 -40t-39 -16zM264 766l-4 -3q-23 0 -40 17q-16 16 -16 41q0 22 17 39t41 17q25 0 41 -16q17 -17 17 -39q0 -24 -16 -40t-40 -16zM199 0h-111v700h111v-700z" />
    <glyph glyph-name="eth" unicode="&#xf0;" horiz-adv-x="797" 
d="M95 698h298l-1 -2q76 0 141 -25q67 -26 116 -72q49 -47 78 -111q29 -66 29 -144q0 -79 -28 -142q-28 -64 -78 -109q-49 -44 -114 -70q-61 -24 -138 -24h-303v304h-55v100h55v295zM207 104h192l-1 -2q48 0 93 17q44 17 77 48q33 32 53 77q20 46 20 102t-20 104
q-19 46 -53 78t-78 50q-45 18 -96 18h-187v-191h154v-100h-154v-201z" />
    <glyph glyph-name="ntilde" unicode="&#xf1;" horiz-adv-x="768" 
d="M498 869h88h-3q0 -53 -36 -87q-35 -34 -91 -34q-24 0 -43 9q-17 8 -36 20q-4 2 -14.5 9.5t-16.5 10.5q-15 9 -32 9q-20 0 -34 -12q-13 -12 -13 -32h-87q0 52 36 87q35 34 91 34q25 0 45 -9t36 -21q19 -14 31 -21q15 -9 32 -9q20 0 33 13q14 14 14 33zM569 700h111v-703
h-104l-255 343l-45 63q-25 35 -40 55q-10 14 -28 39l-10 15h-1v-16v-46v-70v-87v-296h-111v699h104l257 -345q6 -8 40 -54q3 -4 17.5 -24t21.5 -29q6 -8 30 -41l12 -16h1v18v48v69v80v298z" />
    <glyph glyph-name="ograve" unicode="&#xf2;" horiz-adv-x="808" 
d="M458 730l-228 104l39 76l223 -119zM41 348l-3 -2q0 78 29 147q29 68 78 116t116 75q66 27 141 27t141 -27q67 -27 116 -75q50 -48 78 -115q29 -69 29 -147q0 -81 -28 -147q-28 -67 -78 -115q-49 -48 -116 -75q-67 -26 -141 -26t-141 26q-65 27 -115 75q-49 48 -78 116
q-28 66 -28 147zM155 350v-2q0 -56 18 -103t51 -81q32 -34 78 -52q45 -18 99 -18t99 18q44 18 78 53q32 34 52 81q19 45 19 104t-19 104q-20 48 -52 80q-33 33 -78 51t-99 18t-99 -18t-78 -51t-51 -80q-18 -46 -18 -104z" />
    <glyph glyph-name="oacute" unicode="&#xf3;" horiz-adv-x="808" 
d="M520 910l39 -76l-228 -104l-34 61zM41 348l-3 -2q0 78 29 147q29 68 78 116t116 75q66 27 141 27t141 -27q67 -27 116 -75q50 -48 78 -115q29 -69 29 -147q0 -81 -28 -147q-28 -67 -78 -115q-49 -48 -116 -75q-67 -26 -141 -26t-141 26q-65 27 -115 75q-49 48 -78 116
q-28 66 -28 147zM155 350v-2q0 -56 18 -103t51 -81q32 -34 78 -52q45 -18 99 -18t99 18q44 18 78 53q32 34 52 81q19 45 19 104t-19 104q-20 48 -52 80q-33 33 -78 51t-99 18t-99 -18t-78 -51t-51 -80q-18 -46 -18 -104z" />
    <glyph glyph-name="ocircumflex" unicode="&#xf4;" horiz-adv-x="808" 
d="M224 789l177 149l177 -149l-55 -56l-122 102l-122 -102zM41 348l-3 -2q0 78 29 147q29 68 78 116t116 75q66 27 141 27t141 -27q67 -27 116 -75q50 -48 78 -115q29 -69 29 -147q0 -81 -28 -147q-28 -67 -78 -115q-49 -48 -116 -75q-67 -26 -141 -26t-141 26
q-65 27 -115 75q-49 48 -78 116q-28 66 -28 147zM155 350v-2q0 -56 18 -103t51 -81q32 -34 78 -52q45 -18 99 -18t99 18q44 18 78 53q32 34 52 81q19 45 19 104t-19 104q-20 48 -52 80q-33 33 -78 51t-99 18t-99 -18t-78 -51t-51 -80q-18 -46 -18 -104z" />
    <glyph glyph-name="otilde" unicode="&#xf5;" horiz-adv-x="808" 
d="M517 869h88h-3q0 -53 -36 -87q-35 -34 -91 -34q-23 0 -43 9q-17 8 -36 20q-4 2 -14.5 9.5t-16.5 10.5q-15 9 -32 9q-21 0 -34 -12t-13 -32h-87q0 52 36 87q35 34 91 34q26 0 45 -9t36 -21q19 -14 31 -21q15 -9 32 -9q20 0 33 13q14 14 14 33zM41 348l-3 -2q0 78 29 147
q29 68 78 116t116 75q66 27 141 27t141 -27q67 -27 116 -75q50 -48 78 -115q29 -69 29 -147q0 -81 -28 -147q-28 -67 -78 -115q-49 -48 -116 -75q-67 -26 -141 -26t-141 26q-65 27 -115 75q-49 48 -78 116q-28 66 -28 147zM155 350v-2q0 -56 18 -103t51 -81q32 -34 78 -52
q45 -18 99 -18t99 18q44 18 78 53q32 34 52 81q19 45 19 104t-19 104q-20 48 -52 80q-33 33 -78 51t-99 18t-99 -18t-78 -51t-51 -80q-18 -46 -18 -104z" />
    <glyph glyph-name="odieresis" unicode="&#xf6;" horiz-adv-x="808" 
d="M274 759l-2 -3q-25 0 -42 17q-16 16 -16 41q0 22 17 39t42 17q23 0 39 -16q17 -17 17 -39q0 -24 -16 -40t-39 -16zM524 762l-4 -3q-23 0 -40 17q-16 16 -16 41q0 22 17 39t41 17q25 0 41 -16q17 -17 17 -39q0 -24 -16 -40t-40 -16zM41 348l-3 -2q0 78 29 147
q29 68 78 116t116 75q66 27 141 27t141 -27q67 -27 116 -75q50 -48 78 -115q29 -69 29 -147q0 -81 -28 -147q-28 -67 -78 -115q-49 -48 -116 -75q-67 -26 -141 -26t-141 26q-65 27 -115 75q-49 48 -78 116q-28 66 -28 147zM155 350v-2q0 -56 18 -103t51 -81q32 -34 78 -52
q45 -18 99 -18t99 18q44 18 78 53q32 34 52 81q19 45 19 104t-19 104q-20 48 -52 80q-33 33 -78 51t-99 18t-99 -18t-78 -51t-51 -80q-18 -46 -18 -104z" />
    <glyph glyph-name="divide" unicode="&#xf7;" 
d="M342 517v-2q-26 0 -42 18q-17 19 -17 43t17 41t42 17t42 -17t17 -41q0 -25 -17 -42t-42 -17zM118 399h459v-92h-459v92zM342 74v-2q-26 0 -42 18q-17 19 -17 43t17 41t42 17t42 -17t17 -41q0 -25 -17 -42t-42 -17z" />
    <glyph glyph-name="oslash" unicode="&#xf8;" horiz-adv-x="808" 
d="M702 656l-38 -50l1 -1q47 -47 75 -115q27 -66 27 -144q0 -81 -28 -147q-28 -67 -78 -115q-49 -48 -116 -75q-67 -26 -141 -26q-49 0 -94 12q-44 10 -85 33l-37 -48l-78 59l36 48q-50 48 -78 114q-28 65 -28 146q0 78 29 147q29 68 78 116t116 75q66 27 141 27
q51 0 96 -12q44 -12 86 -35l38 49zM215 178l306 401l-2 -2q-54 26 -117 26q-54 0 -99 -18t-78 -51t-51 -80q-18 -46 -18 -104q0 -52 15 -96q14 -42 44 -76zM597 519l-305 -400h1q49 -24 112 -24q54 0 99 18q44 18 78 53q32 34 52 81q19 45 19 104q0 51 -15 93q-15 41 -41 75
z" />
    <glyph glyph-name="ugrave" unicode="&#xf9;" horiz-adv-x="731" 
d="M422 733l-228 104l39 76l223 -119zM550 700h110v-404q0 -152 -78 -231q-77 -78 -216 -78t-217 79q-78 80 -78 231v403h111v-402q0 -209 183 -209q185 0 185 209v402z" />
    <glyph glyph-name="uacute" unicode="&#xfa;" horiz-adv-x="731" 
d="M484 913l39 -76l-228 -104l-34 61zM550 700h110v-404q0 -152 -78 -231q-77 -78 -216 -78t-217 79q-78 80 -78 231v403h111v-402q0 -209 183 -209q185 0 185 209v402z" />
    <glyph glyph-name="ucircumflex" unicode="&#xfb;" horiz-adv-x="731" 
d="M188 792l177 149l177 -149l-55 -56l-122 102l-122 -102zM550 700h110v-404q0 -152 -78 -231q-77 -78 -216 -78t-217 79q-78 80 -78 231v403h111v-402q0 -209 183 -209q185 0 185 209v402z" />
    <glyph glyph-name="udieresis" unicode="&#xfc;" horiz-adv-x="731" 
d="M238 762l-2 -3q-25 0 -42 17q-16 16 -16 41q0 22 17 39t42 17q23 0 39 -16q17 -17 17 -39q0 -24 -16 -40t-39 -16zM488 765l-4 -3q-23 0 -40 17q-16 16 -16 41q0 22 17 39t41 17q25 0 41 -16q17 -17 17 -39q0 -24 -16 -40t-40 -16zM550 700h110v-404q0 -152 -78 -231
q-77 -78 -216 -78t-217 79q-78 80 -78 231v403h111v-402q0 -209 183 -209q185 0 185 209v402z" />
    <glyph glyph-name="yacute" unicode="&#xfd;" horiz-adv-x="678" 
d="M455 914l39 -76l-228 -104l-34 61zM539 700h125l-271 -368v-332h-110v332l-270 368h125l159 -215q9 -13 27 -37q14 -18 15 -18h1q2 0 14 18q4 7 13.5 19.5t12.5 17.5z" />
    <glyph glyph-name="thorn" unicode="&#xfe;" horiz-adv-x="621" 
d="M199 578h134q54 0 102 -17q45 -16 79 -47q33 -30 51 -72t18 -92t-18 -92t-51 -72q-34 -31 -79 -47q-48 -17 -102 -17h-134v-122h-111v699h111v-121zM199 227h136v-1q60 0 97 35q36 35 36 90t-36 90q-37 35 -97 35h-136v-249z" />
    <glyph glyph-name="ydieresis" unicode="&#xff;" horiz-adv-x="678" 
d="M209 763l-2 -3q-25 0 -42 17q-16 16 -16 41q0 22 17 39t42 17q23 0 39 -16q17 -17 17 -39q0 -24 -16 -40t-39 -16zM459 766l-4 -3q-23 0 -40 17q-16 16 -16 41q0 22 17 39t41 17q25 0 41 -16q17 -17 17 -39q0 -24 -16 -40t-40 -16zM539 700h125l-271 -368v-332h-110v332
l-270 368h125l159 -215q9 -13 27 -37q14 -18 15 -18h1q2 0 14 18q4 7 13.5 19.5t12.5 17.5z" />
    <glyph glyph-name="Amacron" unicode="&#x100;" horiz-adv-x="719" 
d="M529 859v-85h-331v85h331zM588 0l-65 158h-327l-65 -158h-119l296 699h103l296 -699h-119zM236 256h247l-90 218q-6 14 -12 30l-10 30q-2 5 -4.5 12.5l-3.5 10.5l-3 9h-1l-3 -9q-1 -3 -3.5 -10t-4.5 -12l-10 -30q-6 -17 -12 -30z" />
    <glyph glyph-name="amacron" unicode="&#x101;" horiz-adv-x="719" 
d="M529 859v-85h-331v85h331zM588 0l-65 158h-327l-65 -158h-119l296 699h103l296 -699h-119zM236 256h247l-90 218q-6 14 -12 30l-10 30q-2 5 -4.5 12.5l-3.5 10.5l-3 9h-1l-3 -9q-1 -3 -3.5 -10t-4.5 -12l-10 -30q-6 -17 -12 -30z" />
    <glyph glyph-name="Abreve" unicode="&#x102;" horiz-adv-x="719" 
d="M444 877h80l-2 -2q-6 -29 -21 -53t-36 -42q-20 -17 -48 -28q-26 -10 -57 -10q-63 0 -109 38t-56 96h80q7 -26 30 -45q22 -19 56 -19q31 0 54 20t29 45zM588 0l-65 158h-327l-65 -158h-119l296 699h103l296 -699h-119zM236 256h247l-90 218q-6 14 -12 30l-10 30
q-2 5 -4.5 12.5l-3.5 10.5l-3 9h-1l-3 -9q-1 -3 -3.5 -10t-4.5 -12l-10 -30q-6 -17 -12 -30z" />
    <glyph glyph-name="abreve" unicode="&#x103;" horiz-adv-x="719" 
d="M444 877h80l-2 -2q-6 -29 -21 -53t-36 -42q-20 -17 -48 -28q-26 -10 -57 -10q-63 0 -109 38t-56 96h80q7 -26 30 -45q22 -19 56 -19q31 0 54 20t29 45zM588 0l-65 158h-327l-65 -158h-119l296 699h103l296 -699h-119zM236 256h247l-90 218q-6 14 -12 30l-10 30
q-2 5 -4.5 12.5l-3.5 10.5l-3 9h-1l-3 -9q-1 -3 -3.5 -10t-4.5 -12l-10 -30q-6 -17 -12 -30z" />
    <glyph glyph-name="Aogonek" unicode="&#x104;" horiz-adv-x="719" 
d="M701 -107l60 -36l-2 1q-23 -45 -63 -72t-94 -27q-33 0 -64 11q-29 10 -51 29q-21 18 -33 45t-12 60q0 32 12 57q13 27 30 43q18 18 41 29t43 12l-46 112h-327l-65 -158h-119l296 699h103l296 -699h-56q-22 0 -45 -6t-41 -18t-30 -30t-12 -45q0 -28 21 -51t60 -23
q38 0 61 19t37 48zM236 256h247l-90 218q-6 14 -12 30l-10 30q-2 5 -4.5 12.5l-3.5 10.5l-3 9h-1l-3 -9q-1 -3 -3.5 -10t-4.5 -12l-10 -30q-6 -17 -12 -30z" />
    <glyph glyph-name="aogonek" unicode="&#x105;" horiz-adv-x="719" 
d="M701 -107l60 -36l-2 1q-23 -45 -63 -72t-94 -27q-33 0 -64 11q-29 10 -51 29q-21 18 -33 45t-12 60q0 32 12 57q13 27 30 43q18 18 41 29t43 12l-46 112h-327l-65 -158h-119l296 699h103l296 -699h-56q-22 0 -45 -6t-41 -18t-30 -30t-12 -45q0 -28 21 -51t60 -23
q38 0 61 19t37 48zM236 256h247l-90 218q-6 14 -12 30l-10 30q-2 5 -4.5 12.5l-3.5 10.5l-3 9h-1l-3 -9q-1 -3 -3.5 -10t-4.5 -12l-10 -30q-6 -17 -12 -30z" />
    <glyph glyph-name="Cacute" unicode="&#x106;" horiz-adv-x="758" 
d="M512 910l39 -76l-228 -104l-34 61zM722 530l-113 -30l-5 -4q-32 50 -87 78t-118 28q-53 0 -100 -18q-46 -18 -79 -52t-51 -81t-18 -103q0 -59 19 -104q20 -46 53 -80q33 -33 78 -51t98 -18q71 0 129 34q59 35 89 90l111 -30q-23 -48 -55 -84t-75 -64t-92 -41
q-50 -15 -105 -15q-74 0 -141 26q-65 27 -115 75q-49 48 -78 116q-28 66 -28 147q0 78 29 147q29 68 78 116t116 75q66 27 141 27q53 0 99 -13q51 -14 89 -37q43 -25 74 -58q34 -35 57 -76z" />
    <glyph glyph-name="cacute" unicode="&#x107;" horiz-adv-x="758" 
d="M512 910l39 -76l-228 -104l-34 61zM722 530l-113 -30l-5 -4q-32 50 -87 78t-118 28q-53 0 -100 -18q-46 -18 -79 -52t-51 -81t-18 -103q0 -59 19 -104q20 -46 53 -80q33 -33 78 -51t98 -18q71 0 129 34q59 35 89 90l111 -30q-23 -48 -55 -84t-75 -64t-92 -41
q-50 -15 -105 -15q-74 0 -141 26q-65 27 -115 75q-49 48 -78 116q-28 66 -28 147q0 78 29 147q29 68 78 116t116 75q66 27 141 27q53 0 99 -13q51 -14 89 -37q43 -25 74 -58q34 -35 57 -76z" />
    <glyph glyph-name="Cdotaccent" unicode="&#x10a;" horiz-adv-x="758" 
d="M396 761l-4 -1q-23 0 -40 17q-16 16 -16 41q0 22 17 39t41 17q25 0 41 -16q17 -17 17 -39q0 -25 -16 -41q-17 -17 -40 -17zM722 530l-113 -30l-5 -4q-32 50 -87 78t-118 28q-53 0 -100 -18q-46 -18 -79 -52t-51 -81t-18 -103q0 -59 19 -104q20 -46 53 -80q33 -33 78 -51
t98 -18q71 0 129 34q59 35 89 90l111 -30q-23 -48 -55 -84t-75 -64t-92 -41q-50 -15 -105 -15q-74 0 -141 26q-65 27 -115 75q-49 48 -78 116q-28 66 -28 147q0 78 29 147q29 68 78 116t116 75q66 27 141 27q53 0 99 -13q51 -14 89 -37q43 -25 74 -58q34 -35 57 -76z" />
    <glyph glyph-name="cdotaccent" unicode="&#x10b;" horiz-adv-x="758" 
d="M396 761l-4 -1q-23 0 -40 17q-16 16 -16 41q0 22 17 39t41 17q25 0 41 -16q17 -17 17 -39q0 -25 -16 -41q-17 -17 -40 -17zM722 530l-113 -30l-5 -4q-32 50 -87 78t-118 28q-53 0 -100 -18q-46 -18 -79 -52t-51 -81t-18 -103q0 -59 19 -104q20 -46 53 -80q33 -33 78 -51
t98 -18q71 0 129 34q59 35 89 90l111 -30q-23 -48 -55 -84t-75 -64t-92 -41q-50 -15 -105 -15q-74 0 -141 26q-65 27 -115 75q-49 48 -78 116q-28 66 -28 147q0 78 29 147q29 68 78 116t116 75q66 27 141 27q53 0 99 -13q51 -14 89 -37q43 -25 74 -58q34 -35 57 -76z" />
    <glyph glyph-name="Ccaron" unicode="&#x10c;" horiz-adv-x="758" 
d="M609 500l113 30h-3q-23 41 -57 76q-31 33 -74 58q-39 23 -88 37q-46 13 -99 13q-75 0 -141 -27q-65 -27 -115 -75t-78 -115q-28 -66 -28 -147q0 -78 29 -147q28 -67 78 -115q49 -48 116 -75q67 -26 141 -26q54 0 105 14q50 15 92 42q43 28 75 64q34 39 56 84l-111 30
q-30 -56 -88 -90t-129 -34q-53 0 -98 18t-78 51q-32 32 -52 80q-19 45 -19 104q0 58 18 104t51 81q34 36 79 53q46 18 100 18q63 0 118 -28q56 -28 87 -78zM401 727l-177 149l55 56l122 -102l122 102l54 -56z" />
    <glyph glyph-name="ccaron" unicode="&#x10d;" horiz-adv-x="758" 
d="M609 500l113 30h-3q-23 41 -57 76q-31 33 -74 58q-39 23 -88 37q-46 13 -99 13q-75 0 -141 -27q-65 -27 -115 -75t-78 -115q-28 -66 -28 -147q0 -78 29 -147q28 -67 78 -115q49 -48 116 -75q67 -26 141 -26q54 0 105 14q50 15 92 42q43 28 75 64q34 39 56 84l-111 30
q-30 -56 -88 -90t-129 -34q-53 0 -98 18t-78 51q-32 32 -52 80q-19 45 -19 104q0 58 18 104t51 81q34 36 79 53q46 18 100 18q63 0 118 -28q56 -28 87 -78zM401 727l-177 149l55 56l122 -102l122 102l54 -56z" />
    <glyph glyph-name="Dcaron" unicode="&#x10e;" horiz-adv-x="790" 
d="M390 103h-192v490h187q51 0 96 -18q46 -18 78 -49q34 -32 53 -78q20 -48 20 -103q0 -58 -19 -102q-19 -43 -53 -76q-33 -31 -77 -48q-42 -16 -93 -16zM386 700h-298l-1 -700h303q77 0 138 24q64 25 114 71q49 45 78 110q28 63 28 142q0 81 -28 144q-28 65 -78 111
q-50 47 -115 72q-67 26 -141 26zM383 727l-177 149l55 56l122 -102l122 102l54 -56z" />
    <glyph glyph-name="dcaron" unicode="&#x10f;" horiz-adv-x="790" 
d="M390 103h-192v490h187q51 0 96 -18q46 -18 78 -49q34 -32 53 -78q20 -48 20 -103q0 -58 -19 -102q-19 -43 -53 -76q-33 -31 -77 -48q-42 -16 -93 -16zM386 700h-298l-1 -700h303q77 0 138 24q64 25 114 71q49 45 78 110q28 63 28 142q0 81 -28 144q-28 65 -78 111
q-50 47 -115 72q-67 26 -141 26zM383 727l-177 149l55 56l122 -102l122 102l54 -56z" />
    <glyph glyph-name="Dcroat" unicode="&#x110;" horiz-adv-x="797" 
d="M95 698h298l-1 -2q76 0 141 -25q67 -26 116 -72q49 -47 78 -111q29 -66 29 -144q0 -79 -28 -142q-28 -64 -78 -109q-49 -44 -114 -70q-61 -24 -138 -24h-303v304h-55v100h55v295zM207 104h192l-1 -2q48 0 93 17q44 17 77 48q33 32 53 77q20 46 20 102t-20 104
q-19 46 -53 78t-78 50q-45 18 -96 18h-187v-191h154v-100h-154v-201z" />
    <glyph glyph-name="dcroat" unicode="&#x111;" horiz-adv-x="797" 
d="M95 698h298l-1 -2q76 0 141 -25q67 -26 116 -72q49 -47 78 -111q29 -66 29 -144q0 -79 -28 -142q-28 -64 -78 -109q-49 -44 -114 -70q-61 -24 -138 -24h-303v304h-55v100h55v295zM207 104h192l-1 -2q48 0 93 17q44 17 77 48q33 32 53 77q20 46 20 102t-20 104
q-19 46 -53 78t-78 50q-45 18 -96 18h-187v-191h154v-100h-154v-201z" />
    <glyph glyph-name="Emacron" unicode="&#x112;" horiz-adv-x="640" 
d="M507 860v-85h-331v85h331zM199 104h376v-104h-487v700h481v-104h-370v-182h295v-98h-295v-212z" />
    <glyph glyph-name="emacron" unicode="&#x113;" horiz-adv-x="640" 
d="M505 860v-85h-331v85h331zM199 104h376v-104h-487v700h481v-104h-370v-182h295v-98h-295v-212z" />
    <glyph glyph-name="Edotaccent" unicode="&#x116;" horiz-adv-x="640" 
d="M337 765l-4 -1q-23 0 -40 17q-16 16 -16 41q0 22 17 39t41 17q25 0 41 -16q17 -17 17 -39q0 -25 -16 -41q-17 -17 -40 -17zM199 104h376v-104h-487v700h481v-104h-370v-182h295v-98h-295v-212z" />
    <glyph glyph-name="edotaccent" unicode="&#x117;" horiz-adv-x="640" 
d="M337 765l-4 -1q-23 0 -40 17q-16 16 -16 41q0 22 17 39t41 17q25 0 41 -16q17 -17 17 -39q0 -25 -16 -41q-17 -17 -40 -17zM199 104h376v-104h-487v700h481v-104h-370v-182h295v-98h-295v-212z" />
    <glyph glyph-name="Eogonek" unicode="&#x118;" horiz-adv-x="640" 
d="M521 -106l60 -36l-2 -2q-23 -45 -63 -72t-94 -27q-33 0 -64 11q-29 10 -51 29q-21 18 -33 45t-12 60q0 28 11 55q10 25 27 43h-213v699h481v-104h-370v-182h295v-98h-295v-212h376v-103h-104q-22 0 -45 -6t-41 -18t-30 -30t-12 -45q0 -29 21 -51q21 -23 60 -23
q38 0 61 19t37 48z" />
    <glyph glyph-name="eogonek" unicode="&#x119;" horiz-adv-x="640" 
d="M536 -106l60 -36l-2 -2q-22 -45 -63 -72t-94 -27q-33 0 -64 11q-29 10 -51 29q-21 18 -33 45t-12 60q0 28 11 55q10 25 27 43h-228v699h481v-104h-370v-182h295v-98h-295v-212h376v-103h-89q-23 0 -45 -6q-23 -6 -41 -18t-30 -30t-12 -45q0 -29 21 -51q21 -23 60 -23
q38 0 61 19t37 48z" />
    <glyph glyph-name="Ecaron" unicode="&#x11a;" horiz-adv-x="640" 
d="M513 876l-176 -149l-177 149l55 56l122 -102l122 102zM199 104h376v-104h-487v700h481v-104h-370v-182h295v-98h-295v-212z" />
    <glyph glyph-name="ecaron" unicode="&#x11b;" horiz-adv-x="640" 
d="M511 876l-176 -149l-177 149l55 56l122 -102l122 102zM199 104h376v-104h-487v700h481v-104h-370v-182h295v-98h-295v-212z" />
    <glyph glyph-name="Gcircumflex" unicode="&#x11c;" horiz-adv-x="794" 
d="M213 785l177 149l177 -149l-55 -56l-122 102l-122 -102zM639 88h-1l-5 -8q-12 -15 -36 -34q-23 -19 -52 -33q-24 -12 -67 -24q-36 -10 -79 -10q-74 0 -141 26q-65 27 -115 75q-49 48 -78 116q-28 66 -28 147q0 78 29 147q29 68 78 116t116 75q66 27 141 27
q107 -2 189 -51t129 -132l-113 -30q-32 49 -87 78q-55 28 -118 28q-53 0 -100 -18q-46 -18 -79 -52q-33 -35 -51 -81t-18 -103t20 -105q20 -47 54 -80q35 -33 81 -51t101 -18q48 0 87 12t68 32q28 19 48 42q18 21 28 44v59h-204v91h299v-374h-96v70v19z" />
    <glyph glyph-name="gcircumflex" unicode="&#x11d;" horiz-adv-x="794" 
d="M213 785l177 149l177 -149l-55 -56l-122 102l-122 -102zM639 88h-1l-5 -8q-12 -15 -36 -34q-23 -19 -52 -33q-24 -12 -67 -24q-36 -10 -79 -10q-74 0 -141 26q-65 27 -115 75q-49 48 -78 116q-28 66 -28 147q0 78 29 147q29 68 78 116t116 75q66 27 141 27
q107 -2 189 -51t129 -132l-113 -30q-32 49 -87 78q-55 28 -118 28q-53 0 -100 -18q-46 -18 -79 -52q-33 -35 -51 -81t-18 -103t20 -105q20 -47 54 -80q35 -33 81 -51t101 -18q48 0 87 12t68 32q28 19 48 42q18 21 28 44v59h-204v91h299v-374h-96v70v19z" />
    <glyph glyph-name="Gbreve" unicode="&#x11e;" horiz-adv-x="794" 
d="M230 870h80l-2 -2q8 -26 30 -45t56 -19q31 0 54 20t29 45h80q-6 -29 -21 -53t-36 -42q-20 -17 -48 -28q-26 -10 -57 -10q-63 0 -109 38t-56 96zM639 88h-1l-5 -8q-12 -15 -36 -34q-23 -19 -52 -33q-24 -12 -67 -24q-36 -10 -79 -10q-74 0 -141 26q-65 27 -115 75
q-49 48 -78 116q-28 66 -28 147q0 78 29 147q29 68 78 116t116 75q66 27 141 27q107 -2 189 -51t129 -132l-113 -30q-32 49 -87 78q-55 28 -118 28q-53 0 -100 -18q-46 -18 -79 -52q-33 -35 -51 -81t-18 -103t20 -105q20 -47 54 -80q35 -33 81 -51t101 -18q48 0 87 12t68 32
q28 19 48 42q18 21 28 44v59h-204v91h299v-374h-96v70v19z" />
    <glyph glyph-name="gbreve" unicode="&#x11f;" horiz-adv-x="794" 
d="M230 870h80l-2 -2q8 -26 30 -45t56 -19q31 0 54 20t29 45h80q-6 -29 -21 -53t-36 -42q-20 -17 -48 -28q-26 -10 -57 -10q-63 0 -109 38t-56 96zM639 88h-1l-5 -8q-12 -15 -36 -34q-23 -19 -52 -33q-24 -12 -67 -24q-36 -10 -79 -10q-74 0 -141 26q-65 27 -115 75
q-49 48 -78 116q-28 66 -28 147q0 78 29 147q29 68 78 116t116 75q66 27 141 27q107 -2 189 -51t129 -132l-113 -30q-32 49 -87 78q-55 28 -118 28q-53 0 -100 -18q-46 -18 -79 -52q-33 -35 -51 -81t-18 -103t20 -105q20 -47 54 -80q35 -33 81 -51t101 -18q48 0 87 12t68 32
q28 19 48 42q18 21 28 44v59h-204v91h299v-374h-96v70v19z" />
    <glyph glyph-name="Gdotaccent" unicode="&#x120;" horiz-adv-x="794" 
d="M393 757l-4 -1q-23 0 -40 17q-16 16 -16 41q0 22 17 39t41 17q25 0 41 -16q17 -17 17 -39q0 -25 -16 -41q-17 -17 -40 -17zM639 88h-1l-5 -8q-12 -15 -36 -34q-23 -19 -52 -33q-24 -12 -67 -24q-36 -10 -79 -10q-74 0 -141 26q-65 27 -115 75q-49 48 -78 116
q-28 66 -28 147q0 78 29 147q29 68 78 116t116 75q66 27 141 27q107 -2 189 -51t129 -132l-113 -30q-32 49 -87 78q-55 28 -118 28q-53 0 -100 -18q-46 -18 -79 -52q-33 -35 -51 -81t-18 -103t20 -105q20 -47 54 -80q35 -33 81 -51t101 -18q48 0 87 12t68 32q28 19 48 42
q18 21 28 44v59h-204v91h299v-374h-96v70v19z" />
    <glyph glyph-name="gdotaccent" unicode="&#x121;" horiz-adv-x="794" 
d="M393 757l-4 -1q-23 0 -40 17q-16 16 -16 41q0 22 17 39t41 17q25 0 41 -16q17 -17 17 -39q0 -25 -16 -41q-17 -17 -40 -17zM639 88h-1l-5 -8q-12 -15 -36 -34q-23 -19 -52 -33q-24 -12 -67 -24q-36 -10 -79 -10q-74 0 -141 26q-65 27 -115 75q-49 48 -78 116
q-28 66 -28 147q0 78 29 147q29 68 78 116t116 75q66 27 141 27q107 -2 189 -51t129 -132l-113 -30q-32 49 -87 78q-55 28 -118 28q-53 0 -100 -18q-46 -18 -79 -52q-33 -35 -51 -81t-18 -103t20 -105q20 -47 54 -80q35 -33 81 -51t101 -18q48 0 87 12t68 32q28 19 48 42
q18 21 28 44v59h-204v91h299v-374h-96v70v19z" />
    <glyph glyph-name="Gcommaaccent" unicode="&#x122;" horiz-adv-x="794" 
d="M637 87h-1l-5 -8q-12 -15 -36 -34q-23 -19 -52 -33q-24 -12 -67 -24q-36 -10 -79 -10q-74 0 -141 26q-65 27 -115 75q-49 48 -78 116q-28 66 -28 147q0 78 29 147q29 68 78 116t116 75q66 27 141 27q107 -1 189 -51t129 -132l-113 -30q-32 50 -87 78t-118 28
q-53 0 -100 -18q-46 -18 -79 -52t-51 -81t-18 -103q0 -57 20 -105q20 -47 54 -80q35 -33 81 -51t101 -18q48 0 87 12t68 32q28 20 48 42q18 21 28 44v59h-204v91h299v-374h-96v70v19zM388 -152l11 5h-13q-17 2 -32 15q-15 14 -15 38q0 23 17 40q16 16 41 16q23 0 39 -18
q17 -19 17 -48q0 -24 -7 -45q-8 -23 -19 -43q-11 -19 -27 -40q-15 -19 -31 -34h-42q9 8 21 23q7 9 19 29q9 14 15 32q6 16 6 30z" />
    <glyph glyph-name="gcommaaccent" unicode="&#x123;" horiz-adv-x="794" 
d="M637 87h-1l-5 -8q-12 -15 -36 -34q-23 -19 -52 -33q-24 -12 -67 -24q-36 -10 -79 -10q-74 0 -141 26q-65 27 -115 75q-49 48 -78 116q-28 66 -28 147q0 78 29 147q29 68 78 116t116 75q66 27 141 27q107 -1 189 -51t129 -132l-113 -30q-32 50 -87 78t-118 28
q-53 0 -100 -18q-46 -18 -79 -52t-51 -81t-18 -103q0 -57 20 -105q20 -47 54 -80q35 -33 81 -51t101 -18q48 0 87 12t68 32q28 20 48 42q18 21 28 44v59h-204v91h299v-374h-96v70v19zM388 -152l11 5h-13q-17 2 -32 15q-15 14 -15 38q0 23 17 40q16 16 41 16q23 0 39 -18
q17 -19 17 -48q0 -24 -7 -45q-8 -23 -19 -43q-11 -19 -27 -40q-15 -19 -31 -34h-42q9 8 21 23q7 9 19 29q9 14 15 32q6 16 6 30z" />
    <glyph glyph-name="Hcircumflex" unicode="&#x124;" horiz-adv-x="740" 
d="M367 839l-122 -102l-55 56l177 149l177 -149l-55 -56zM541 700h111v-700h-111v307h-342v-307h-111v700h111v-290h342v290z" />
    <glyph glyph-name="hcircumflex" unicode="&#x125;" horiz-adv-x="740" 
d="M367 839l-122 -102l-55 56l177 149l177 -149l-55 -56zM541 700h111v-700h-111v307h-342v-307h-111v700h111v-290h342v290z" />
    <glyph glyph-name="Hbar" unicode="&#x126;" horiz-adv-x="740" 
d="M719 629v-92h-67v-537h-111v307h-342v-307h-111v537h-67v92h67v71h111v-71h342v71h111v-71h67zM541 410v127h-342v-127h342z" />
    <glyph glyph-name="hbar" unicode="&#x127;" horiz-adv-x="740" 
d="M719 629v-92h-67v-537h-111v307h-342v-307h-111v537h-67v92h67v71h111v-71h342v71h111v-71h67zM541 410v127h-342v-127h342z" />
    <glyph glyph-name="Imacron" unicode="&#x12a;" horiz-adv-x="287" 
d="M-17 860h330v-85h-330v85zM199 0h-111v700h111v-700z" />
    <glyph glyph-name="imacron" unicode="&#x12b;" horiz-adv-x="287" 
d="M-16 860h330v-85h-330v85zM199 0h-111v700h111v-700z" />
    <glyph glyph-name="Iogonek" unicode="&#x12e;" horiz-adv-x="287" 
d="M214 -106l60 -36l-2 -4q-22 -45 -63 -72t-94 -27q-33 0 -64 11q-29 10 -51 29q-20 19 -32 45q-12 27 -12 60q0 34 13 60t32 45t42 30q22 10 44 12v652h111v-699h-35q-23 0 -45 -6q-23 -6 -41 -18t-30 -30t-12 -45q0 -29 21 -51q21 -23 60 -23q38 0 61 19t37 48z" />
    <glyph glyph-name="iogonek" unicode="&#x12f;" horiz-adv-x="287" 
d="M214 -106l60 -36l-2 -4q-22 -45 -63 -72t-94 -27q-33 0 -64 11q-29 10 -51 29q-20 19 -32 45q-12 27 -12 60q0 34 13 60t32 45t42 30q22 10 44 12v652h111v-699h-35q-23 0 -45 -6q-23 -6 -41 -18t-30 -30t-12 -45q0 -29 21 -51q21 -23 60 -23q38 0 61 19t37 48z" />
    <glyph glyph-name="Idotaccent" unicode="&#x130;" horiz-adv-x="287" 
d="M143 765l-4 -1q-23 0 -40 17q-16 16 -16 41q0 22 17 39t41 17q25 0 41 -16q17 -17 17 -39q0 -25 -16 -41q-17 -17 -40 -17zM199 0h-111v700h111v-700z" />
    <glyph glyph-name="dotlessi" unicode="&#x131;" horiz-adv-x="287" 
d="M199 0h-111v700h111v-700z" />
    <glyph glyph-name="IJ" unicode="&#x132;" horiz-adv-x="937" 
d="M199 -1h-111v699h111v-699zM755 700h111v-405q0 -73 -21 -132q-21 -58 -60 -97t-94 -60q-57 -20 -124 -20q-47 0 -94 14q-43 11 -81 37q-36 24 -63 57t-42 72l110 29q19 -49 65 -78q44 -28 105 -28q92 0 140 54t48 149v408z" />
    <glyph glyph-name="ij" unicode="&#x133;" horiz-adv-x="937" 
d="M199 -1h-111v699h111v-699zM755 700h111v-405q0 -73 -21 -132q-21 -58 -60 -97t-94 -60q-57 -20 -124 -20q-47 0 -94 14q-43 11 -81 37q-36 24 -63 57t-42 72l110 29q19 -49 65 -78q44 -28 105 -28q92 0 140 54t48 149v408z" />
    <glyph glyph-name="Jcircumflex" unicode="&#x134;" horiz-adv-x="663" 
d="M357 791l177 149l177 -149l-55 -56l-122 102l-122 -102zM481 700h111v-405q0 -73 -21 -132q-21 -58 -60 -97t-94 -60q-57 -20 -124 -20q-47 0 -94 14q-43 11 -81 37q-36 24 -63 57t-42 72l110 29q19 -49 65 -78q44 -28 105 -28q92 0 140 54t48 149v408z" />
    <glyph glyph-name="jcircumflex" unicode="&#x135;" horiz-adv-x="663" 
d="M357 791l177 149l177 -149l-55 -56l-122 102l-122 -102zM481 700h111v-405q0 -73 -21 -132q-21 -58 -60 -97t-94 -60q-57 -20 -124 -20q-47 0 -94 14q-43 11 -81 37q-36 24 -63 57t-42 72l110 29q19 -49 65 -78q44 -28 105 -28q92 0 140 54t48 149v408z" />
    <glyph glyph-name="Kcommaaccent" unicode="&#x136;" horiz-adv-x="704" 
d="M365 409l305 -409l-131 1l-248 337l-95 -96v-241h-111v700h111v-163q0 -98 -1 -124q-1 -39 0 -39h1l9 9l24 24q5 5 16 16.5t18 18.5l42 42l215 214h135zM353 -147l-11 1l-2 -1q-17 2 -32 15q-15 14 -15 38q0 23 17 40q16 16 41 16q23 0 39 -18q17 -19 17 -48
q0 -24 -7 -45q-8 -23 -19 -43q-11 -19 -27 -40q-15 -19 -31 -34h-42q9 8 21 23q7 9 19 29q9 14 15 32q6 16 6 30z" />
    <glyph glyph-name="kcommaaccent" unicode="&#x137;" horiz-adv-x="704" 
d="M365 409l305 -409l-131 1l-248 337l-95 -96v-241h-111v700h111v-163q0 -98 -1 -124q-1 -39 0 -39h1l9 9l24 24q5 5 16 16.5t18 18.5l42 42l215 214h135zM359 -147l-11 1l-2 -1q-17 2 -32 15q-15 14 -15 38q0 23 17 40q16 16 41 16q23 0 39 -18q17 -19 17 -48
q0 -24 -7 -45q-8 -23 -19 -43q-11 -19 -27 -40q-15 -19 -31 -34h-42q9 8 21 23q7 9 19 29q9 14 15 32q6 16 6 30z" />
    <glyph glyph-name="Lacute" unicode="&#x139;" horiz-adv-x="579" 
d="M265 914l39 -76l-228 -104l-34 61zM199 104h360v-104h-471v700h111v-596z" />
    <glyph glyph-name="lacute" unicode="&#x13a;" horiz-adv-x="579" 
d="M265 914l39 -76l-228 -104l-34 61zM199 104h360v-104h-471v700h111v-596z" />
    <glyph glyph-name="Lcommaaccent" unicode="&#x13b;" horiz-adv-x="579" 
d="M197 103h360v-103h-471v699h111v-596zM325 -147l-11 1l-2 -1q-17 2 -32 15q-15 14 -15 38q0 23 17 40q16 16 41 16q23 0 39 -18q17 -19 17 -48q0 -24 -7 -45q-8 -23 -19 -43q-11 -19 -27 -40q-15 -19 -31 -34h-42q9 8 21 23q7 9 19 29q9 14 15 32q6 16 6 30z" />
    <glyph glyph-name="lcommaaccent" unicode="&#x13c;" horiz-adv-x="579" 
d="M197 103h360v-103h-471v699h111v-596zM297 -147l-11 1l-2 -1q-17 2 -32 15q-15 14 -15 38q0 23 17 40q16 16 41 16q23 0 39 -18q17 -19 17 -48q0 -24 -7 -45q-8 -23 -19 -43q-11 -19 -27 -40q-15 -19 -31 -34h-42q9 8 21 23q7 9 19 29q9 14 15 32q6 16 6 30z" />
    <glyph glyph-name="Lcaron" unicode="&#x13d;" horiz-adv-x="579" 
d="M373 598l-12 1l-2 2q-17 1 -33 15q-16 13 -16 39q0 25 18 42q19 17 43 17q26 0 42 -19q17 -20 17 -51q0 -24 -7 -46q-6 -21 -20 -46q-13 -24 -28 -42q-18 -22 -34 -36h-44q14 12 23 25q14 20 20 31q9 16 15 33t6 30zM199 104h360v-104h-471v700h111v-596z" />
    <glyph glyph-name="lcaron" unicode="&#x13e;" horiz-adv-x="579" 
d="M346 602l-12 1l-2 1q-16 2 -33 15q-16 13 -16 39t18 42q19 17 43 17q26 0 42 -18q17 -19 17 -50q0 -24 -7 -46q-6 -21 -20 -46q-13 -24 -28 -42q-19 -23 -34 -35h-44q13 10 23 24q14 20 20 31q9 17 15 33t6 30zM199 104h360v-104h-471v700h111v-596z" />
    <glyph glyph-name="Ldot" unicode="&#x13f;" horiz-adv-x="579" 
d="M197 102h360v-103h-471v699h111v-596zM395 327l-2 -2q-23 0 -40 17q-16 16 -16 42q0 22 17 39t41 17t40 -16t16 -39q0 -26 -16 -42t-40 -16z" />
    <glyph glyph-name="ldot" unicode="&#x140;" horiz-adv-x="579" 
d="M197 102h360v-103h-471v699h111v-596zM395 327l-2 -2q-23 0 -40 17q-16 16 -16 42q0 22 17 39t41 17t40 -16t16 -39q0 -26 -16 -42t-40 -16z" />
    <glyph glyph-name="Lslash" unicode="&#x141;" horiz-adv-x="579" 
d="M199 104h360v-104h-471v700h111v-306l265 135v-105l-265 -135v-185z" />
    <glyph glyph-name="lslash" unicode="&#x142;" horiz-adv-x="579" 
d="M199 104h360v-104h-471v700h111v-306l265 135v-105l-265 -135v-185z" />
    <glyph glyph-name="Nacute" unicode="&#x143;" horiz-adv-x="768" 
d="M501 910l39 -76l-228 -104l-34 61zM569 700h111v-703h-104l-255 343l-45 63q-25 35 -40 55q-10 14 -28 39l-10 15h-1v-16v-46v-70v-87v-296h-111v699h104l257 -345q6 -8 40 -54q3 -4 17.5 -24t21.5 -29q6 -8 30 -41l12 -16h1v18v48v69v80v298z" />
    <glyph glyph-name="nacute" unicode="&#x144;" horiz-adv-x="768" 
d="M501 910l39 -76l-228 -104l-34 61zM569 700h111v-703h-104l-255 343l-45 63q-25 35 -40 55q-10 14 -28 39l-10 15h-1v-16v-46v-70v-87v-296h-111v699h104l257 -345q6 -8 40 -54q3 -4 17.5 -24t21.5 -29q6 -8 30 -41l12 -16h1v18v48v69v80v298z" />
    <glyph glyph-name="Ncommaaccent" unicode="&#x145;" horiz-adv-x="768" 
d="M567 699h111v-703h-104l-255 343l-45 63q-25 35 -40 55q-10 14 -28 39l-10 15h-1v-16v-46v-70v-87v-296h-111v699h104l257 -345q6 -8 40 -54q3 -4 17.5 -24t21.5 -29q6 -8 30 -41l12 -16h1v18v48v69v80v298zM380 -152l11 5h-13q-17 2 -32 15q-15 14 -15 38q0 23 17 40
q16 16 41 16q23 0 39 -18q17 -19 17 -48q0 -24 -7 -45q-8 -23 -19 -43q-11 -19 -27 -40q-15 -19 -31 -34h-42q9 8 21 23q7 9 19 29q9 14 15 32q6 16 6 30z" />
    <glyph glyph-name="ncommaaccent" unicode="&#x146;" horiz-adv-x="768" 
d="M567 699h111v-703h-104l-255 343l-45 63q-25 35 -40 55q-10 14 -28 39l-10 15h-1v-16v-46v-70v-87v-296h-111v699h104l257 -345q6 -8 40 -54q3 -4 17.5 -24t21.5 -29q6 -8 30 -41l12 -16h1v18v48v69v80v298zM380 -152l11 5h-13q-17 2 -32 15q-15 14 -15 38q0 23 17 40
q16 16 41 16q23 0 39 -18q17 -19 17 -48q0 -24 -7 -45q-8 -23 -19 -43q-11 -19 -27 -40q-15 -19 -31 -34h-42q9 8 21 23q7 9 19 29q9 14 15 32q6 16 6 30z" />
    <glyph glyph-name="Ncaron" unicode="&#x147;" horiz-adv-x="768" 
d="M680 700h-111l-1 -297v-79v-69v-48v-18h-1l-12 17q-24 33 -30 41q-7 9 -21.5 29t-17.5 24q-34 46 -40 54l-257 345h-104v-699h111v296v87v70v46v17h1l11 -15q18 -25 28 -39q15 -20 40 -55l45 -63l255 -344h104v700zM385 727l-177 149l55 56l122 -102l122 102l54 -56z" />
    <glyph glyph-name="ncaron" unicode="&#x148;" horiz-adv-x="768" 
d="M680 700h-111l-1 -297v-79v-69v-48v-18h-1l-12 17q-24 33 -30 41q-7 9 -21.5 29t-17.5 24q-34 46 -40 54l-257 345h-104v-699h111v296v87v70v46v17h1l11 -15q18 -25 28 -39q15 -20 40 -55l45 -63l255 -344h104v700zM385 727l-177 149l55 56l122 -102l122 102l54 -56z" />
    <glyph glyph-name="Eng" unicode="&#x14a;" horiz-adv-x="768" 
d="M569 700h111l-1 -703q0 -47 -15 -88t-42 -69q-27 -29 -64 -45q-36 -16 -81 -16h-41v90h33q49 0 78 35t29 93l-255 343l-45 63q-25 35 -40 55q-10 14 -28 39l-10 15h-1v-16v-46v-70v-87v-296h-111v699h104l257 -345q6 -8 40 -54q3 -4 17.5 -24t21.5 -29q6 -8 30 -41
l12 -16h1v18v48v69v80v298z" />
    <glyph glyph-name="eng" unicode="&#x14b;" horiz-adv-x="768" 
d="M569 700h111l-1 -703q0 -47 -15 -88t-42 -69q-27 -29 -64 -45q-36 -16 -81 -16h-41v90h33q49 0 78 35t29 93l-255 343l-45 63q-25 35 -40 55q-10 14 -28 39l-10 15h-1v-16v-46v-70v-87v-296h-111v699h104l257 -345q6 -8 40 -54q3 -4 17.5 -24t21.5 -29q6 -8 30 -41
l12 -16h1v18v48v69v80v298z" />
    <glyph glyph-name="Omacron" unicode="&#x14c;" horiz-adv-x="808" 
d="M245 856h331v-85h-331v85zM41 348l-3 -2q0 78 29 147q29 68 78 116t116 75q66 27 141 27t141 -27q67 -27 116 -75q50 -48 78 -115q29 -69 29 -147q0 -81 -28 -147q-28 -67 -78 -115q-49 -48 -116 -75q-67 -26 -141 -26t-141 26q-65 27 -115 75q-49 48 -78 116
q-28 66 -28 147zM155 350v-2q0 -56 18 -103t51 -81q32 -34 78 -52q45 -18 99 -18t99 18q44 18 78 53q32 34 52 81q19 45 19 104t-19 104q-20 48 -52 80q-33 33 -78 51t-99 18t-99 -18t-78 -51t-51 -80q-18 -46 -18 -104z" />
    <glyph glyph-name="omacron" unicode="&#x14d;" horiz-adv-x="808" 
d="M243 856h331v-85h-331v85zM41 348l-3 -2q0 78 29 147q29 68 78 116t116 75q66 27 141 27t141 -27q67 -27 116 -75q50 -48 78 -115q29 -69 29 -147q0 -81 -28 -147q-28 -67 -78 -115q-49 -48 -116 -75q-67 -26 -141 -26t-141 26q-65 27 -115 75q-49 48 -78 116
q-28 66 -28 147zM155 350v-2q0 -56 18 -103t51 -81q32 -34 78 -52q45 -18 99 -18t99 18q44 18 78 53q32 34 52 81q19 45 19 104t-19 104q-20 48 -52 80q-33 33 -78 51t-99 18t-99 -18t-78 -51t-51 -80q-18 -46 -18 -104z" />
    <glyph glyph-name="Ohungarumlaut" unicode="&#x150;" horiz-adv-x="808" 
d="M446 910l39 -76l-228 -104l-33 61zM639 910l39 -76l-228 -104l-33 61zM41 348l-3 -2q0 78 29 147q29 68 78 116t116 75q66 27 141 27t141 -27q67 -27 116 -75q50 -48 78 -115q29 -69 29 -147q0 -81 -28 -147q-28 -67 -78 -115q-49 -48 -116 -75q-67 -26 -141 -26t-141 26
q-65 27 -115 75q-49 48 -78 116q-28 66 -28 147zM155 350v-2q0 -56 18 -103t51 -81q32 -34 78 -52q45 -18 99 -18t99 18q44 18 78 53q32 34 52 81q19 45 19 104t-19 104q-20 48 -52 80q-33 33 -78 51t-99 18t-99 -18t-78 -51t-51 -80q-18 -46 -18 -104z" />
    <glyph glyph-name="ohungarumlaut" unicode="&#x151;" horiz-adv-x="808" 
d="M444 910l39 -76l-228 -104l-33 61zM637 910l39 -76l-228 -104l-33 61zM41 348l-3 -2q0 78 29 147q29 68 78 116t116 75q66 27 141 27t141 -27q67 -27 116 -75q50 -48 78 -115q29 -69 29 -147q0 -81 -28 -147q-28 -67 -78 -115q-49 -48 -116 -75q-67 -26 -141 -26t-141 26
q-65 27 -115 75q-49 48 -78 116q-28 66 -28 147zM155 350v-2q0 -56 18 -103t51 -81q32 -34 78 -52q45 -18 99 -18t99 18q44 18 78 53q32 34 52 81q19 45 19 104t-19 104q-20 48 -52 80q-33 33 -78 51t-99 18t-99 -18t-78 -51t-51 -80q-18 -46 -18 -104z" />
    <glyph glyph-name="OE" unicode="&#x152;" horiz-adv-x="1024" 
d="M582 102h376l-3 -103h-483l-39 -3q-13 -1 -41 -1q-76 0 -139 25q-64 25 -112 72t-75 112q-27 66 -27 144t27 144q27 65 75 112t112 72q66 26 140 26h35q24 0 47 -4h477v-104h-370v-182h295v-98h-295v-212zM475 119v462v-2q-33 14 -81 14q-51 0 -96 -17q-44 -16 -75 -48
q-30 -30 -49 -77q-18 -45 -18 -101t18 -101q19 -47 49 -77q31 -31 75 -49t96 -18q45 0 81 14z" />
    <glyph glyph-name="oe" unicode="&#x153;" horiz-adv-x="1024" 
d="M582 102h376l-3 -103h-483l-39 -3q-13 -1 -41 -1q-76 0 -139 25q-64 25 -112 72t-75 112q-27 66 -27 144t27 144q27 65 75 112t112 72q66 26 140 26h35q24 0 47 -4h477v-104h-370v-182h295v-98h-295v-212zM475 119v462v-2q-33 14 -81 14q-51 0 -96 -17q-44 -16 -75 -48
q-30 -30 -49 -77q-18 -45 -18 -101t18 -101q19 -47 49 -77q31 -31 75 -49t96 -18q45 0 81 14z" />
    <glyph glyph-name="Racute" unicode="&#x154;" horiz-adv-x="651" 
d="M464 837l-228 -104l-34 61l223 119zM613 0h-125l-149 250q-3 -1 -10 -1h-11h-118v-249h-111v699h229q65 0 113 -16q50 -17 84 -46q35 -31 53 -72q18 -42 18 -94q0 -74 -36 -125t-103 -76zM199 348h131l1 -1q71 0 105 36q35 37 35 89q0 54 -36 89q-37 35 -105 35h-131
v-248z" />
    <glyph glyph-name="racute" unicode="&#x155;" horiz-adv-x="651" 
d="M480 837l-228 -104l-34 61l223 119zM613 0h-125l-149 250q-3 -1 -10 -1h-11h-118v-249h-111v699h229q65 0 113 -16q50 -17 84 -46q35 -31 53 -72q18 -42 18 -94q0 -74 -36 -125t-103 -76zM199 348h131l1 -1q71 0 105 36q35 37 35 89q0 54 -36 89q-37 35 -105 35h-131
v-248z" />
    <glyph glyph-name="Rcommaaccent" unicode="&#x156;" horiz-adv-x="651" 
d="M445 269l166 -270h-126l-148 250q-3 -1 -10 -1h-11h-118v-249h-111v699h229q65 0 113 -16q50 -17 84 -46q35 -31 53 -72q18 -42 18 -94q0 -74 -36 -125t-103 -76zM197 347h131l1 -1q71 0 105 36q35 37 35 89q0 55 -36 89q-37 35 -105 35h-131v-248zM324 -147l-11 1l-2 -1
q-17 2 -32 15q-15 14 -15 38q0 23 17 40q16 16 41 16q22 0 39 -18q17 -19 17 -48q0 -24 -7 -45q-8 -23 -19 -43q-11 -19 -27 -40q-15 -19 -31 -34h-42q9 8 21 23q7 9 19 29q9 14 15 32q6 16 6 30z" />
    <glyph glyph-name="rcommaaccent" unicode="&#x157;" horiz-adv-x="651" 
d="M445 269l166 -270h-126l-148 250q-3 -1 -10 -1h-11h-118v-249h-111v699h229q65 0 113 -16q50 -17 84 -46q35 -31 53 -72q18 -42 18 -94q0 -74 -36 -125t-103 -76zM197 347h131l1 -1q71 0 105 36q35 37 35 89q0 55 -36 89q-37 35 -105 35h-131v-248zM341 -147l-11 1l-2 -1
q-17 2 -32 15q-15 14 -15 38q0 23 17 40q16 16 41 16q23 0 39 -18q17 -19 17 -48q0 -24 -7 -45q-8 -23 -19 -43q-11 -19 -27 -40q-15 -19 -31 -34h-42q9 8 21 23q7 9 19 29q9 14 15 32q6 16 6 30z" />
    <glyph glyph-name="Rcaron" unicode="&#x158;" horiz-adv-x="651" 
d="M485 875l-176 -149l-177 149l55 56l122 -102l122 102zM613 0h-125l-149 250q-3 -1 -10 -1h-11h-118v-249h-111v699h229q65 0 113 -16q50 -17 84 -46q35 -31 53 -72q18 -42 18 -94q0 -74 -36 -125t-103 -76zM199 348h131l1 -1q71 0 105 36q35 37 35 89q0 54 -36 89
q-37 35 -105 35h-131v-248z" />
    <glyph glyph-name="rcaron" unicode="&#x159;" horiz-adv-x="651" 
d="M485 875l-176 -149l-177 149l55 56l122 -102l122 102zM613 0h-125l-149 250q-3 -1 -10 -1h-11h-118v-249h-111v699h229q65 0 113 -16q50 -17 84 -46q35 -31 53 -72q18 -42 18 -94q0 -74 -36 -125t-103 -76zM199 348h131l1 -1q71 0 105 36q35 37 35 89q0 54 -36 89
q-37 35 -105 35h-131v-248z" />
    <glyph glyph-name="Sacute" unicode="&#x15a;" horiz-adv-x="602" 
d="M427 918l39 -76l-228 -104l-34 61zM559 525l-106 -29l3 4q-6 28 -21 51q-16 23 -36 38q-22 16 -47 23q-27 8 -54 8q-58 0 -95 -26q-36 -26 -36 -68q0 -25 15 -43t40 -31q26 -14 57 -24t66 -21q43 -14 78 -28q41 -17 73 -40q32 -24 54 -59q21 -34 21 -84q0 -46 -19 -84
t-54 -67q-34 -28 -82 -43q-50 -14 -106 -14q-54 0 -102 14q-46 15 -81 42t-59 65q-25 39 -35 84l106 29q4 -26 18 -52q13 -26 36 -45q21 -18 53 -31q30 -12 68 -12q68 0 105 30t37 75q0 33 -18 54t-48 36q-33 16 -67 26q-25 7 -75 23q-32 10 -66 24q-33 13 -63 35
q-29 21 -47 53t-18 78q0 41 18 77t51 63t78 42t99 15q48 0 92 -14q42 -13 77 -38q34 -24 57 -59q22 -34 33 -77z" />
    <glyph glyph-name="sacute" unicode="&#x15b;" horiz-adv-x="602" 
d="M433 918l39 -76l-228 -104l-34 61zM559 525l-106 -29l3 4q-6 28 -21 51q-16 23 -36 38q-22 16 -47 23q-27 8 -54 8q-58 0 -95 -26q-36 -26 -36 -68q0 -25 15 -43t40 -31q26 -14 57 -24t66 -21q43 -14 78 -28q41 -17 73 -40q32 -24 54 -59q21 -34 21 -84q0 -46 -19 -84
t-54 -67q-34 -28 -82 -43q-50 -14 -106 -14q-54 0 -102 14q-46 15 -81 42t-59 65q-25 39 -35 84l106 29q4 -26 18 -52q13 -26 36 -45q21 -18 53 -31q30 -12 68 -12q68 0 105 30t37 75q0 33 -18 54t-48 36q-33 16 -67 26q-25 7 -75 23q-32 10 -66 24q-33 13 -63 35
q-29 21 -47 53t-18 78q0 41 18 77t51 63t78 42t99 15q48 0 92 -14q42 -13 77 -38q34 -24 57 -59q22 -34 33 -77z" />
    <glyph glyph-name="Scircumflex" unicode="&#x15c;" horiz-adv-x="602" 
d="M131 797l177 149l177 -149l-55 -56l-122 102l-122 -102zM559 525l-106 -29l3 4q-6 28 -21 51q-16 23 -36 38q-22 16 -47 23q-27 8 -54 8q-58 0 -95 -26q-36 -26 -36 -68q0 -25 15 -43t40 -31q26 -14 57 -24t66 -21q43 -14 78 -28q41 -17 73 -40q32 -24 54 -59
q21 -34 21 -84q0 -46 -19 -84t-54 -67q-34 -28 -82 -43q-50 -14 -106 -14q-54 0 -102 14q-46 15 -81 42t-59 65q-25 39 -35 84l106 29q4 -26 18 -52q13 -26 36 -45q21 -18 53 -31q30 -12 68 -12q68 0 105 30t37 75q0 33 -18 54t-48 36q-33 16 -67 26q-25 7 -75 23
q-32 10 -66 24q-33 13 -63 35q-29 21 -47 53t-18 78q0 41 18 77t51 63t78 42t99 15q48 0 92 -14q42 -13 77 -38q34 -24 57 -59q22 -34 33 -77z" />
    <glyph glyph-name="scircumflex" unicode="&#x15d;" horiz-adv-x="602" 
d="M131 797l177 149l177 -149l-55 -56l-122 102l-122 -102zM559 525l-106 -29l3 4q-6 28 -21 51q-16 23 -36 38q-22 16 -47 23q-27 8 -54 8q-58 0 -95 -26q-36 -26 -36 -68q0 -25 15 -43t40 -31q26 -14 57 -24t66 -21q43 -14 78 -28q41 -17 73 -40q32 -24 54 -59
q21 -34 21 -84q0 -46 -19 -84t-54 -67q-34 -28 -82 -43q-50 -14 -106 -14q-54 0 -102 14q-46 15 -81 42t-59 65q-25 39 -35 84l106 29q4 -26 18 -52q13 -26 36 -45q21 -18 53 -31q30 -12 68 -12q68 0 105 30t37 75q0 33 -18 54t-48 36q-33 16 -67 26q-25 7 -75 23
q-32 10 -66 24q-33 13 -63 35q-29 21 -47 53t-18 78q0 41 18 77t51 63t78 42t99 15q48 0 92 -14q42 -13 77 -38q34 -24 57 -59q22 -34 33 -77z" />
    <glyph glyph-name="Scedilla" unicode="&#x15e;" horiz-adv-x="602" 
d="M559 525l-106 -29l3 -1q-6 29 -21 51q-16 23 -36 38q-22 16 -47 23q-27 8 -54 8q-58 0 -95 -26q-36 -25 -36 -68q0 -25 15 -43t40 -31q26 -13 57 -24t66 -21q43 -14 78 -28q41 -17 73 -40q32 -24 54 -59q21 -35 21 -84q0 -40 -15 -76q-15 -35 -44 -63q-28 -27 -69 -45
q-41 -17 -90 -21l-15 -40q44 2 75 -24q31 -25 31 -72q0 -50 -33 -74t-79 -24h-90l24 61h66q22 0 35 11q12 10 12 27t-13 27q-14 11 -34 11h-78l34 98q-103 6 -168 62q-66 57 -87 144l106 29q4 -26 18 -52q13 -26 36 -45q21 -18 53 -31q30 -12 68 -12q68 0 105 30t37 75
q0 33 -18 54t-48 36q-33 16 -67 26q-25 7 -75 23q-32 10 -66 24q-33 13 -63 35q-29 21 -47 53t-18 78q0 41 18 77t51 63t78 42t99 15q48 0 92 -14q42 -13 77 -38q34 -24 57 -59q22 -34 33 -77z" />
    <glyph glyph-name="scedilla" unicode="&#x15f;" horiz-adv-x="602" 
d="M559 525l-106 -29l3 -1q-6 29 -21 51q-16 23 -36 38q-22 16 -47 23q-27 8 -54 8q-58 0 -95 -26q-36 -25 -36 -68q0 -25 15 -43t40 -31q26 -13 57 -24t66 -21q43 -14 78 -28q41 -17 73 -40q32 -24 54 -59q21 -35 21 -84q0 -41 -15 -75q-16 -36 -43 -62q-29 -27 -67 -45
q-41 -17 -87 -23l-16 -41q43 1 75 -24q31 -25 31 -72q0 -50 -33 -74t-79 -24h-90l24 61h66q22 0 35 11q12 11 12 27q0 17 -13 27q-14 11 -34 11h-78l34 97q-53 3 -96 18q-41 16 -76 44q-31 26 -55 65q-22 38 -33 81l106 29q4 -26 18 -52q13 -26 36 -45q21 -18 53 -31
q30 -12 68 -12q68 0 105 30t37 75q0 33 -18 54t-48 36q-33 16 -67 26q-25 7 -75 23q-32 10 -66 24q-33 13 -63 35q-29 21 -47 53t-18 78q0 41 18 77t51 63t78 42t99 15q48 0 92 -14q42 -13 77 -38q34 -24 57 -59q22 -34 33 -77z" />
    <glyph glyph-name="Scaron" unicode="&#x160;" horiz-adv-x="602" 
d="M453 496l106 29l-8 -9q-11 43 -33 77q-23 35 -57 59q-36 25 -76 38q-44 14 -91 14q-54 0 -99 -15t-78 -42t-51 -63t-18 -76q0 -46 18 -78q17 -30 47 -52t63 -35q34 -13 66 -24q50 -16 75 -23q39 -11 67 -25q30 -15 48 -36t18 -54q0 -45 -37 -75t-105 -30q-38 0 -68 12
t-52 31t-36 45t-18 52l-106 -29q10 -45 35 -84q24 -38 59 -65q36 -28 81 -41q47 -15 102 -15q59 0 107 15q47 13 83 43q35 29 54 67t19 84q0 49 -21 84q-22 35 -54 59q-35 26 -73 41q-35 14 -78 28q-34 11 -66 21t-57 24q-25 13 -40 31t-15 43q0 42 36 68q37 26 95 26
q27 0 54 -8q25 -7 47 -23q20 -15 36 -38q15 -23 21 -51zM308 727l-177 149l55 56l122 -102l122 102l54 -56z" />
    <glyph glyph-name="scaron" unicode="&#x161;" horiz-adv-x="602" 
d="M453 496l106 29l-8 -9q-11 43 -33 77q-23 35 -57 59q-36 25 -76 38q-44 14 -91 14q-54 0 -99 -15t-78 -42t-51 -63t-18 -76q0 -46 18 -78q17 -30 47 -52t63 -35q34 -13 66 -24q50 -16 75 -23q39 -11 67 -25q30 -15 48 -36t18 -54q0 -45 -37 -75t-105 -30q-38 0 -68 12
t-52 31t-36 45t-18 52l-106 -29q10 -45 35 -84q24 -38 59 -65q36 -28 81 -41q47 -15 102 -15q59 0 107 15q47 13 83 43q35 29 54 67t19 84q0 49 -21 84q-22 35 -54 59q-35 26 -73 41q-35 14 -78 28q-34 11 -66 21t-57 24q-25 13 -40 31t-15 43q0 42 36 68q37 26 95 26
q27 0 54 -8q25 -7 47 -23q20 -15 36 -38q15 -23 21 -51zM314 727l-177 149l55 56l122 -102l122 102l54 -56z" />
    <glyph glyph-name="Tcommaaccent" unicode="&#x162;" horiz-adv-x="600" 
d="M354 0h-30l-19 -53q43 1 75 -24q31 -25 31 -72q0 -50 -33 -74t-79 -24h-90l24 61h66q22 0 35 11q12 11 12 27q0 17 -13 27q-14 11 -34 11h-78l39 110h-16v596h-226v104h563v-104h-227v-596z" />
    <glyph glyph-name="tcommaaccent" unicode="&#x163;" horiz-adv-x="600" 
d="M354 0h-30l-19 -53q43 1 75 -24q31 -25 31 -72q0 -50 -33 -74t-79 -24h-90l24 61h66q22 0 35 11q12 11 12 27q0 17 -13 27q-14 11 -34 11h-78l39 110h-16v596h-226v104h563v-104h-227v-596z" />
    <glyph glyph-name="Tcaron" unicode="&#x164;" horiz-adv-x="600" 
d="M485 876l-176 -149l-177 149l55 56l122 -102l122 102zM18 700h563v-104h-227v-596h-110v596h-226v104z" />
    <glyph glyph-name="tcaron" unicode="&#x165;" horiz-adv-x="600" 
d="M485 876l-176 -149l-177 149l55 56l122 -102l122 102zM18 700h563v-104h-227v-596h-110v596h-226v104z" />
    <glyph glyph-name="Tbar" unicode="&#x166;" horiz-adv-x="600" 
d="M581 596h-227v-180h117v-85h-117v-331h-110v331h-117v85h117v180h-226v104h563v-104z" />
    <glyph glyph-name="tbar" unicode="&#x167;" horiz-adv-x="600" 
d="M581 596h-227v-180h117v-85h-117v-331h-110v331h-117v85h117v180h-226v104h563v-104z" />
    <glyph glyph-name="Umacron" unicode="&#x16a;" horiz-adv-x="731" 
d="M207 859h331v-85h-331v85zM550 700h110v-404q0 -152 -78 -231q-77 -78 -216 -78t-217 79q-78 80 -78 231v403h111v-402q0 -209 183 -209q185 0 185 209v402z" />
    <glyph glyph-name="umacron" unicode="&#x16b;" horiz-adv-x="731" 
d="M207 859h331v-85h-331v85zM550 700h110v-404q0 -152 -78 -231q-77 -78 -216 -78t-217 79q-78 80 -78 231v403h111v-402q0 -209 183 -209q185 0 185 209v402z" />
    <glyph glyph-name="Ubreve" unicode="&#x16c;" horiz-adv-x="731" 
d="M205 877h80l-2 -2q7 -25 30 -45q22 -19 56 -19q31 0 54 20t29 45h80q-6 -29 -21 -53t-36 -42q-20 -17 -48 -28q-26 -10 -57 -10q-63 0 -109 38t-56 96zM550 700h110v-404q0 -152 -78 -231q-77 -78 -216 -78t-217 79q-78 80 -78 231v403h111v-402q0 -209 183 -209
q185 0 185 209v402z" />
    <glyph glyph-name="ubreve" unicode="&#x16d;" horiz-adv-x="731" 
d="M205 877h80l-2 -2q7 -25 30 -45q22 -19 56 -19q31 0 54 20t29 45h80q-6 -29 -21 -53t-36 -42q-20 -17 -48 -28q-26 -10 -57 -10q-63 0 -109 38t-56 96zM550 700h110v-404q0 -152 -78 -231q-77 -78 -216 -78t-217 79q-78 80 -78 231v403h111v-402q0 -209 183 -209
q185 0 185 209v402z" />
    <glyph glyph-name="Uring" unicode="&#x16e;" horiz-adv-x="731" 
d="M368 682q-26 0 -48 9t-39 26t-26 39t-9 48t9 48t26 39t39 26t48 9t48 -9t39 -26t27 -39q10 -21 10 -48t-10 -48q-10 -22 -27 -39t-39 -26t-48 -9zM368 752v-3q24 0 41 17t17 39q0 24 -17 41t-41 17q-23 0 -39 -16q-17 -17 -17 -40q0 -22 17 -39q16 -16 39 -16zM550 700
h110v-404q0 -152 -78 -231q-77 -78 -216 -78t-217 79q-78 80 -78 231v403h111v-402q0 -209 183 -209q185 0 185 209v402z" />
    <glyph glyph-name="uring" unicode="&#x16f;" horiz-adv-x="731" 
d="M368 682q-26 0 -48 9t-39 26t-26 39t-9 48t9 48t26 39t39 26t48 9t48 -9t39 -26t27 -39q10 -21 10 -48t-10 -48q-10 -22 -27 -39t-39 -26t-48 -9zM368 752v-3q24 0 41 17t17 39q0 24 -17 41t-41 17q-23 0 -39 -16q-17 -17 -17 -40q0 -22 17 -39q16 -16 39 -16zM550 700
h110v-404q0 -152 -78 -231q-77 -78 -216 -78t-217 79q-78 80 -78 231v403h111v-402q0 -209 183 -209q185 0 185 209v402z" />
    <glyph glyph-name="Uhungarumlaut" unicode="&#x170;" horiz-adv-x="731" 
d="M408 913l39 -76l-228 -104l-33 61zM601 913l39 -76l-228 -104l-33 61zM550 700h110v-404q0 -152 -78 -231q-77 -78 -216 -78t-217 79q-78 80 -78 231v403h111v-402q0 -209 183 -209q185 0 185 209v402z" />
    <glyph glyph-name="uhungarumlaut" unicode="&#x171;" horiz-adv-x="731" 
d="M408 913l39 -76l-228 -104l-33 61zM601 913l39 -76l-228 -104l-33 61zM550 700h110v-404q0 -152 -78 -231q-77 -78 -216 -78t-217 79q-78 80 -78 231v403h111v-402q0 -209 183 -209q185 0 185 209v402z" />
    <glyph glyph-name="Uogonek" unicode="&#x172;" horiz-adv-x="731" 
d="M660 700v-403h-2q0 -123 -51 -198q-52 -76 -145 -100q-24 -10 -36 -16q-17 -8 -31 -21q-13 -12 -21 -27q-8 -16 -8 -36q0 -29 20 -51q20 -21 56 -21q29 0 54 19q26 20 38 45l58 -38q-11 -20 -25 -37q-13 -16 -35 -31q-20 -13 -42 -21q-21 -7 -46 -7q-32 0 -61 9
q-28 9 -49 27t-33 43q-12 26 -12 55q0 33 15 57q14 22 35 40q-128 8 -198 85t-70 224v403h111v-402q0 -209 183 -209q185 0 185 209v402h110z" />
    <glyph glyph-name="uogonek" unicode="&#x173;" horiz-adv-x="731" 
d="M660 700v-403h-2q0 -123 -51 -198q-52 -76 -145 -100q-24 -10 -36 -16q-17 -8 -31 -21q-13 -12 -21 -27q-8 -16 -8 -36q0 -29 20 -51q20 -21 56 -21q29 0 54 19q26 20 38 45l58 -38q-11 -20 -25 -37q-13 -16 -35 -31q-20 -13 -42 -21q-21 -7 -46 -7q-32 0 -61 9
q-28 9 -49 27t-33 43q-12 26 -12 55q0 33 15 57q14 22 35 40q-128 8 -198 85t-70 224v403h111v-402q0 -209 183 -209q185 0 185 209v402h110z" />
    <glyph glyph-name="Wcircumflex" unicode="&#x174;" horiz-adv-x="1004" 
d="M319 790l177 149l177 -149l-55 -56l-122 102l-122 -102zM863 700h117l-230 -702h-101l-112 352q-19 61 -28 99q-8 32 -9 32h-1q-1 0 -9 -32q-9 -40 -28 -98l-112 -352h-101l-228 699h117l133 -425q9 -28 21 -76q8 -30 9 -30h1q2 0 9 30q8 32 24 77l115 340h100l115 -340
q17 -48 24 -76q7 -30 9 -30h1q1 0 9 30q13 53 21 77z" />
    <glyph glyph-name="wcircumflex" unicode="&#x175;" horiz-adv-x="1004" 
d="M318 790l177 149l177 -149l-55 -56l-122 102l-122 -102zM863 700h117l-230 -702h-101l-112 352q-19 61 -28 99q-8 32 -9 32h-1q-1 0 -9 -32q-9 -40 -28 -98l-112 -352h-101l-228 699h117l133 -425q9 -28 21 -76q8 -30 9 -30h1q2 0 9 30q8 32 24 77l115 340h100l115 -340
q17 -48 24 -76q7 -30 9 -30h1q1 0 9 30q13 53 21 77z" />
    <glyph glyph-name="Ycircumflex" unicode="&#x176;" horiz-adv-x="678" 
d="M158 793l177 149l177 -149l-55 -56l-122 102l-122 -102zM539 700h125l-271 -368v-332h-110v332l-270 368h125l159 -215q9 -13 27 -37q14 -18 15 -18h1q2 0 14 18q4 7 13.5 19.5t12.5 17.5z" />
    <glyph glyph-name="ycircumflex" unicode="&#x177;" horiz-adv-x="678" 
d="M159 793l177 149l177 -149l-55 -56l-122 102l-122 -102zM539 700h125l-271 -368v-332h-110v332l-270 368h125l159 -215q9 -13 27 -37q14 -18 15 -18h1q2 0 14 18q4 7 13.5 19.5t12.5 17.5z" />
    <glyph glyph-name="Ydieresis" unicode="&#x178;" horiz-adv-x="678" 
d="M208 763l-2 -3q-25 0 -42 17q-16 16 -16 41q0 22 17 39t42 17q23 0 39 -16q17 -17 17 -39q0 -24 -16 -40t-39 -16zM458 766l-4 -3q-23 0 -40 17q-16 16 -16 41q0 22 17 39t41 17q25 0 41 -16q17 -17 17 -39q0 -24 -16 -40t-40 -16zM539 700h125l-271 -368v-332h-110v332
l-270 368h125l159 -215q9 -13 27 -37q14 -18 15 -18h1q2 0 14 18q4 7 13.5 19.5t12.5 17.5z" />
    <glyph glyph-name="Zacute" unicode="&#x179;" horiz-adv-x="697" 
d="M469 911l39 -76l-228 -104l-34 61zM637 700v-103l-373 -438q-22 -25 -39 -42t-17 -18l1 -1h3q4 1 11 1.5t15 0.5q36 2 68 2h331v-103h-577v102l381 439q5 6 18 19t19 18t15 14l6 6l-1 1q-11 0 -31 -1t-67 -1h-330v104h567z" />
    <glyph glyph-name="zacute" unicode="&#x17a;" horiz-adv-x="697" 
d="M469 911l39 -76l-228 -104l-34 61zM637 700v-103l-373 -438q-22 -25 -39 -42t-17 -18l1 -1h3q4 1 11 1.5t15 0.5q36 2 68 2h331v-103h-577v102l381 439q5 6 18 19t19 18t15 14l6 6l-1 1q-11 0 -31 -1t-67 -1h-330v104h567z" />
    <glyph glyph-name="Zdotaccent" unicode="&#x17b;" horiz-adv-x="697" 
d="M353 762l-4 -1q-23 0 -40 17q-16 16 -16 41q0 22 17 39t41 17q25 0 41 -16q17 -17 17 -39q0 -25 -16 -41q-17 -17 -40 -17zM637 700v-103l-373 -438q-22 -25 -39 -42t-17 -18l1 -1h3q4 1 11 1.5t15 0.5q36 2 68 2h331v-103h-577v102l381 439q5 6 18 19t19 18t15 14l6 6
l-1 1q-11 0 -31 -1t-67 -1h-330v104h567z" />
    <glyph glyph-name="zdotaccent" unicode="&#x17c;" horiz-adv-x="697" 
d="M353 762l-4 -1q-23 0 -40 17q-16 16 -16 41q0 22 17 39t41 17q25 0 41 -16q17 -17 17 -39q0 -25 -16 -41q-17 -17 -40 -17zM637 700v-103l-373 -438q-22 -25 -39 -42t-17 -18l1 -1h3q4 1 11 1.5t15 0.5q36 2 68 2h331v-103h-577v102l381 439q5 6 18 19t19 18t15 14l6 6
l-1 1q-11 0 -31 -1t-67 -1h-330v104h567z" />
    <glyph glyph-name="Zcaron" unicode="&#x17d;" horiz-adv-x="697" 
d="M637 597v103l-567 -3v-104h330q27 0 67 2q9 0 16.5 0.5t10.5 0.5l4 1l1 -1l-6 -5q-3 -3 -15 -13q-6 -5 -19 -18t-18 -19l-381 -439v-102h577v103h-331q-50 0 -68 -1t-28 -1l-1 1q0 1 17 18q16 16 39 42zM354 727l-177 149l55 56l122 -102l122 102l54 -56z" />
    <glyph glyph-name="zcaron" unicode="&#x17e;" horiz-adv-x="697" 
d="M637 597v103l-567 -3v-104h330q27 0 67 2q9 0 16.5 0.5t10.5 0.5l4 1l1 -1l-6 -5q-3 -3 -15 -13q-6 -5 -19 -18t-18 -19l-381 -439v-102h577v103h-331q-50 0 -68 -1t-28 -1l-1 1q0 1 17 18q16 16 39 42zM354 727l-177 149l55 56l122 -102l122 102l54 -56z" />
    <glyph glyph-name="florin" unicode="&#x192;" horiz-adv-x="396" 
d="M33 353v70l107 1l25 173q9 60 36 90q27 29 71 38q42 9 104 1v-76q-61 4 -88 -9t-33 -57l-23 -161h118v-70h-128l-54 -384q-9 -63 -40 -94q-23 -23 -58 -29q-36 -6 -84 0v74q36 -3 59 6t29 50l55 377h-96z" />
    <glyph glyph-name="Scommaaccent" unicode="&#x218;" horiz-adv-x="602" 
d="M557 524l-106 -29l3 4q-6 29 -21 51q-16 23 -36 38q-22 16 -47 23q-27 8 -54 8q-58 0 -95 -26q-36 -25 -36 -68q0 -25 15 -43t40 -31q26 -13 57 -24t66 -21q43 -14 78 -28q41 -17 73 -40q32 -24 54 -59q21 -35 21 -84q0 -46 -19 -84t-54 -67q-34 -28 -82 -43
q-50 -14 -106 -14q-54 0 -102 14q-46 15 -81 42t-59 65q-25 39 -35 84l106 29q4 -26 18 -52q13 -25 36 -45q21 -18 53 -31q30 -12 68 -12q68 0 105 30t37 75q0 33 -18 54t-48 36q-33 16 -67 26q-25 7 -75 23q-32 11 -66 24q-33 13 -63 35q-29 21 -47 53q-18 31 -18 78
q0 41 18 77t51 63t78 42t99 15q48 0 92 -14q42 -13 77 -38q34 -24 57 -59q22 -34 33 -77zM287 -152l11 5h-13q-17 2 -32 15q-15 14 -15 38q0 23 17 40q16 16 41 16q22 0 39 -18q17 -19 17 -48q0 -24 -7 -45q-8 -23 -19 -43q-11 -19 -27 -40q-15 -19 -31 -34h-42q9 8 21 23
q7 9 19 29q9 14 15 32q6 16 6 30z" />
    <glyph glyph-name="scommaaccent" unicode="&#x219;" horiz-adv-x="602" 
d="M557 524l-106 -29l3 4q-6 29 -21 51q-16 23 -36 38q-22 16 -47 23q-27 8 -54 8q-58 0 -95 -26q-36 -25 -36 -68q0 -25 15 -43t40 -31q26 -13 57 -24t66 -21q43 -14 78 -28q41 -17 73 -40q32 -24 54 -59q21 -35 21 -84q0 -46 -19 -84t-54 -67q-34 -28 -82 -43
q-50 -14 -106 -14q-54 0 -102 14q-46 15 -81 42t-59 65q-25 39 -35 84l106 29q4 -26 18 -52q13 -25 36 -45q21 -18 53 -31q30 -12 68 -12q68 0 105 30t37 75q0 33 -18 54t-48 36q-33 16 -67 26q-25 7 -75 23q-32 11 -66 24q-33 13 -63 35q-29 21 -47 53q-18 31 -18 78
q0 41 18 77t51 63t78 42t99 15q48 0 92 -14q42 -13 77 -38q34 -24 57 -59q22 -34 33 -77zM287 -152l11 5h-13q-17 2 -32 15q-15 14 -15 38q0 23 17 40q16 16 41 16q22 0 39 -18q17 -19 17 -48q0 -24 -7 -45q-8 -23 -19 -43q-11 -19 -27 -40q-15 -19 -31 -34h-42q9 8 21 23
q7 9 19 29q9 14 15 32q6 16 6 30z" />
    <glyph glyph-name="uni021A" unicode="&#x21a;" horiz-adv-x="600" 
d="M16 699h563v-104h-227v-595h-110v595h-226v104zM307 -147l-11 1l-2 -1q-17 2 -32 15q-15 14 -15 38q0 23 17 40q16 16 41 16q23 0 39 -18q17 -19 17 -48q0 -24 -7 -45q-8 -23 -19 -43q-11 -19 -27 -40q-15 -19 -31 -34h-42q9 8 21 23q7 9 19 29q9 14 15 32q6 16 6 30z
" />
    <glyph glyph-name="uni021B" unicode="&#x21b;" horiz-adv-x="600" 
d="M16 699h563v-104h-227v-595h-110v595h-226v104zM285 -147l-11 1l-2 -1q-17 2 -32 15q-15 14 -15 38q0 23 17 40q16 16 41 16q23 0 39 -18q17 -19 17 -48q0 -24 -7 -45q-8 -23 -19 -43q-11 -19 -27 -40q-15 -19 -31 -34h-42q9 8 21 23q7 9 19 29q9 14 15 32q6 16 6 30z
" />
    <glyph glyph-name="uni0237" unicode="&#x237;" horiz-adv-x="663" 
d="M481 700h111v-405q0 -73 -21 -132q-21 -58 -60 -97t-94 -60q-57 -20 -124 -20q-47 0 -94 14q-43 11 -81 37q-36 24 -63 57t-42 72l110 29q19 -49 65 -78q44 -28 105 -28q92 0 140 54t48 149v408z" />
    <glyph glyph-name="circumflex" unicode="&#x2c6;" horiz-adv-x="379" 
d="M3 793l177 149l176 -149l-54 -56l-122 102l-122 -102z" />
    <glyph glyph-name="caron" unicode="&#x2c7;" horiz-adv-x="379" 
d="M180 726l-177 150l55 56l122 -102l122 102l54 -56z" />
    <glyph glyph-name="breve" unicode="&#x2d8;" horiz-adv-x="337" 
d="M-7 878h80l1 -1q8 -25 30 -45q22 -19 54 -19q31 0 54 20t29 45h79q-6 -29 -21 -53t-36 -42q-20 -17 -48 -28q-26 -10 -57 -10q-33 0 -59 10q-27 11 -49 28t-37 42q-13 21 -20 53z" />
    <glyph glyph-name="dotaccent" unicode="&#x2d9;" horiz-adv-x="164" 
d="M70 765l-3 -1q-22 0 -39 17q-16 16 -16 41q0 22 17 39t39 17q25 0 41 -16q17 -17 17 -39q0 -25 -16 -41q-17 -17 -40 -17z" />
    <glyph glyph-name="ring" unicode="&#x2da;" horiz-adv-x="276" 
d="M129 659q-27 0 -48 10q-23 11 -39 27q-17 17 -26 39q-9 23 -9 48t9 48q9 22 26 39t39 26q23 9 48 9t48 -9q22 -9 39 -26q16 -16 27 -39q10 -21 10 -48t-10 -48q-11 -23 -27 -39t-39 -27q-21 -10 -48 -10zM129 728v-2q24 0 41 17t17 39q0 24 -17 41t-41 17q-23 0 -39 -16
q-17 -17 -17 -40q0 -22 17 -39t39 -17z" />
    <glyph glyph-name="ogonek" unicode="&#x2db;" horiz-adv-x="600" 
d="M356 -106l61 -36l-4 -2q-23 -45 -63 -72t-94 -27q-33 0 -64 11q-29 10 -51 29q-21 18 -33 45t-12 60q0 34 14 62t34 44q22 19 45 29t44 10l72 -47q-23 0 -45 -6q-23 -6 -41 -18t-30 -30t-12 -45q0 -29 21 -51q21 -23 60 -23q38 0 61 19t37 48z" />
    <glyph glyph-name="tilde" unicode="&#x2dc;" horiz-adv-x="453" 
d="M331 873h87h-5q0 -25 -9 -48q-9 -22 -26 -39q-16 -16 -39 -25t-51 -9q-24 0 -42 9q-17 8 -35 20q-22 14 -32 20q-15 9 -32 9q-19 0 -33 -12q-13 -12 -13 -32h-87q0 52 35 87q34 34 90 34q25 0 45 -9t36 -21q19 -14 31 -21q15 -9 31 -9q21 0 34 13q14 14 15 33z" />
    <glyph glyph-name="hungarumlaut" unicode="&#x2dd;" horiz-adv-x="505" 
d="M238 914l39 -76l-228 -104l-33 61zM431 914l39 -76l-228 -104l-33 61z" />
    <glyph glyph-name="uni0326" unicode="&#x326;" horiz-adv-x="0" 
d="M104 -152l12 5l-13 -2q-15 0 -31 14q-15 13 -15 39q0 23 17 40q16 16 41 16q23 0 39 -18q17 -19 17 -47q0 -45 -25 -88q-25 -42 -60 -73h-42q9 8 21 23q11 15 20 29q10 16 14 32q5 18 5 30z" />
    <glyph glyph-name="Wgrave" unicode="&#x1e80;" horiz-adv-x="1004" 
d="M553 731l-228 104l39 76l223 -119zM863 700h117l-230 -702h-101l-112 352q-19 61 -28 99q-8 32 -9 32h-1q-1 0 -9 -32q-9 -40 -28 -98l-112 -352h-101l-228 699h117l133 -425q9 -28 21 -76q8 -30 9 -30h1q2 0 9 30q8 32 24 77l115 340h100l115 -340q17 -48 24 -76
q7 -30 9 -30h1q1 0 9 30q13 53 21 77z" />
    <glyph glyph-name="wgrave" unicode="&#x1e81;" horiz-adv-x="1004" 
d="M552 731l-228 104l39 76l223 -119zM863 700h117l-230 -702h-101l-112 352q-19 61 -28 99q-8 32 -9 32h-1q-1 0 -9 -32q-9 -40 -28 -98l-112 -352h-101l-228 699h117l133 -425q9 -28 21 -76q8 -30 9 -30h1q2 0 9 30q8 32 24 77l115 340h100l115 -340q17 -48 24 -76
q7 -30 9 -30h1q1 0 9 30q13 53 21 77z" />
    <glyph glyph-name="Wacute" unicode="&#x1e82;" horiz-adv-x="1004" 
d="M615 911l39 -76l-228 -104l-34 61zM863 700h117l-230 -702h-101l-112 352q-19 61 -28 99q-8 32 -9 32h-1q-1 0 -9 -32q-9 -40 -28 -98l-112 -352h-101l-228 699h117l133 -425q9 -28 21 -76q8 -30 9 -30h1q2 0 9 30q8 32 24 77l115 340h100l115 -340q17 -48 24 -76
q7 -30 9 -30h1q1 0 9 30q13 53 21 77z" />
    <glyph glyph-name="wacute" unicode="&#x1e83;" horiz-adv-x="1004" 
d="M614 911l39 -76l-228 -104l-34 61zM863 700h117l-230 -702h-101l-112 352q-19 61 -28 99q-8 32 -9 32h-1q-1 0 -9 -32q-9 -40 -28 -98l-112 -352h-101l-228 699h117l133 -425q9 -28 21 -76q8 -30 9 -30h1q2 0 9 30q8 32 24 77l115 340h100l115 -340q17 -48 24 -76
q7 -30 9 -30h1q1 0 9 30q13 53 21 77z" />
    <glyph glyph-name="Wdieresis" unicode="&#x1e84;" horiz-adv-x="1004" 
d="M369 760l-2 -3q-25 0 -42 17q-16 16 -16 41q0 22 17 39t42 17q23 0 39 -16q17 -17 17 -39q0 -24 -16 -40t-39 -16zM619 763l-4 -3q-23 0 -40 17q-16 16 -16 41q0 22 17 39t41 17q25 0 41 -16q17 -17 17 -39q0 -24 -16 -40t-40 -16zM863 700h117l-230 -702h-101l-112 352
q-19 61 -28 99q-8 32 -9 32h-1q-1 0 -9 -32q-9 -40 -28 -98l-112 -352h-101l-228 699h117l133 -425q9 -28 21 -76q8 -30 9 -30h1q2 0 9 30q8 32 24 77l115 340h100l115 -340q17 -48 24 -76q7 -30 9 -30h1q1 0 9 30q13 53 21 77z" />
    <glyph glyph-name="wdieresis" unicode="&#x1e85;" horiz-adv-x="1004" 
d="M368 760l-2 -3q-25 0 -42 17q-16 16 -16 41q0 22 17 39t42 17q23 0 39 -16q17 -17 17 -39q0 -24 -16 -40t-39 -16zM618 763l-4 -3q-23 0 -40 17q-16 16 -16 41q0 22 17 39t41 17q25 0 41 -16q17 -17 17 -39q0 -24 -16 -40t-40 -16zM863 700h117l-230 -702h-101l-112 352
q-19 61 -28 99q-8 32 -9 32h-1q-1 0 -9 -32q-9 -40 -28 -98l-112 -352h-101l-228 699h117l133 -425q9 -28 21 -76q8 -30 9 -30h1q2 0 9 30q8 32 24 77l115 340h100l115 -340q17 -48 24 -76q7 -30 9 -30h1q1 0 9 30q13 53 21 77z" />
    <glyph glyph-name="uni1E9E" unicode="&#x1e9e;" horiz-adv-x="790" 
d="M88 700h593l-107 -211q-10 -18 -16 -28t-16 -28t-12 -22l-5 -9l1 -1h5q49 0 89 -15t70 -42t46 -64q17 -39 17 -81q0 -44 -17 -84q-16 -39 -48 -69q-31 -29 -75 -46q-43 -15 -98 -15q-78 0 -144 37q-64 37 -97 99l105 29q21 -34 54 -52t77 -18q62 0 97 36q34 35 34 87
q0 23 -9 44q-10 23 -25 38q-17 17 -42 27q-24 10 -60 10h-88v83l63 120q4 7 12 23t12 23q2 3 5 9t5 9l4 8l-1 1q-8 0 -22 -1t-49 -1h-247v-596h-111v700z" />
    <glyph glyph-name="Ygrave" unicode="&#x1ef2;" horiz-adv-x="678" 
d="M392 734l-228 104l39 76l223 -119zM539 700h125l-271 -368v-332h-110v332l-270 368h125l159 -215q9 -13 27 -37q14 -18 15 -18h1q2 0 14 18q4 7 13.5 19.5t12.5 17.5z" />
    <glyph glyph-name="ygrave" unicode="&#x1ef3;" horiz-adv-x="678" 
d="M393 734l-228 104l39 76l223 -119zM539 700h125l-271 -368v-332h-110v332l-270 368h125l159 -215q9 -13 27 -37q14 -18 15 -18h1q2 0 14 18q4 7 13.5 19.5t12.5 17.5z" />
    <glyph glyph-name="uni2007" unicode="&#x2007;" 
 />
    <glyph glyph-name="uni2009" unicode="&#x2009;" horiz-adv-x="120" 
 />
    <glyph glyph-name="uni200A" unicode="&#x200a;" horiz-adv-x="40" 
 />
    <glyph glyph-name="endash" unicode="&#x2013;" horiz-adv-x="596" 
d="M88 406h420v-103h-420v103z" />
    <glyph glyph-name="emdash" unicode="&#x2014;" horiz-adv-x="1025" 
d="M88 406h849v-103h-849v103z" />
    <glyph glyph-name="quoteleft" unicode="&#x2018;" horiz-adv-x="311" 
d="M159 594l-11 -5l12 -5q16 -2 33 -15q16 -13 16 -39t-18 -42q-19 -17 -43 -17t-42 19q-18 20 -18 51q0 21 8 47q6 21 20 46q11 21 29 42q18 22 34 36h44q-13 -10 -23 -24q-14 -20 -20 -31q-9 -17 -15 -33t-6 -30z" />
    <glyph glyph-name="quoteright" unicode="&#x2019;" horiz-adv-x="311" 
d="M151 593l12 5l-15 2q-17 2 -32 15t-15 39t18 42q19 17 43 17q26 0 42 -19q17 -20 17 -51q0 -47 -27 -92q-28 -46 -63 -77h-44q14 12 23 25q14 20 20 31q9 16 15 33t6 30z" />
    <glyph glyph-name="quotesinglbase" unicode="&#x201a;" horiz-adv-x="311" 
d="M151 -12l12 5l-15 2q-18 2 -32 14q-15 13 -15 39t18 42q19 17 43 17q26 0 42 -19q17 -20 17 -51q0 -46 -27 -91q-28 -46 -63 -77h-44q14 12 23 25q14 20 20 31q9 17 15 33t6 30z" />
    <glyph glyph-name="quotedblleft" unicode="&#x201c;" horiz-adv-x="510" 
d="M160 590l-11 -5l12 -5q17 -2 33 -15t16 -39t-18 -42q-19 -17 -43 -17t-42 19q-18 20 -18 51q0 21 8 47q6 21 20 46q11 21 29 42q18 22 34 36h44q-13 -10 -23 -24q-14 -20 -20 -31q-9 -17 -15 -33t-6 -30zM358 594l-11 -5l12 -5q17 -2 33 -15t16 -39t-18 -42
q-19 -17 -43 -17t-42 19q-18 20 -18 51q0 21 8 47q6 21 20 46q11 21 29 42q18 22 34 36h44q-13 -10 -23 -24q-14 -20 -20 -31q-9 -17 -15 -33t-6 -30z" />
    <glyph glyph-name="quotedblright" unicode="&#x201d;" horiz-adv-x="510" 
d="M148 594l12 5l-15 2q-17 2 -32 15q-15 14 -15 39t18 42q19 17 43 17q26 0 42 -19q17 -20 17 -51q0 -47 -27 -92q-28 -46 -63 -77h-44q14 12 23 25q14 20 20 31q9 17 15 33t6 30zM350 593l12 5l-15 2q-17 2 -32 15t-15 39t18 42q19 17 43 17q26 0 42 -19q17 -20 17 -51
q0 -47 -27 -92q-28 -46 -63 -77h-44q14 12 23 25q14 20 20 31q9 16 15 33t6 30z" />
    <glyph glyph-name="quotedblbase" unicode="&#x201e;" horiz-adv-x="501" 
d="M146 -12l12 4l-17 2q-16 1 -32 14q-15 14 -15 39t18 42q19 17 43 17q25 0 42 -18q17 -19 17 -49q0 -25 -7 -46q-8 -25 -19 -46q-13 -24 -28 -42q-19 -23 -34 -35h-44q13 10 23 24q14 20 20 31q9 17 15 33t6 30zM341 -12l12 4l-17 2q-16 1 -32 14q-15 14 -15 39t18 42
q19 17 43 17q26 0 42 -18q17 -19 17 -49q0 -25 -7 -46q-8 -25 -19 -46q-13 -24 -28 -42q-19 -23 -34 -35h-44q13 10 23 24q14 20 20 31q9 17 15 33t6 30z" />
    <glyph glyph-name="dagger" unicode="&#x2020;" horiz-adv-x="508" 
d="M490 524v-94l-187 -1v-125q0 -40 -2 -114q-2 -66 -4 -97q-1 -14 -3.5 -37t-2.5 -31l-2 -25h-71l-2 25q0 8 -2.5 31t-3.5 37q-2 30 -4 98q-2 74 -2 114v125h-186v94h186v176h99v-176h187z" />
    <glyph glyph-name="daggerdbl" unicode="&#x2021;" horiz-adv-x="508" 
d="M303 430v-125l-4 -5h187v-94h-189q-1 -44 -3 -81t-3 -66t-3 -45l-1 -15h-71l-1 15q-1 16 -3 45t-3 66t-3 81h-188v94h186v5v125h-186v94h186v176h99v-176h187v-94h-187z" />
    <glyph glyph-name="bullet" unicode="&#x2022;" horiz-adv-x="389" 
d="M195 248v-2q-23 0 -42 9t-33 24q-13 14 -22 34q-9 19 -9 42t9 42t23 33t33 23q20 9 42 9q45 0 75 -30t30 -75q0 -23 -9 -42q-9 -20 -22 -34q-14 -15 -33 -24t-42 -9z" />
    <glyph glyph-name="ellipsis" unicode="&#x2026;" horiz-adv-x="748" 
d="M105 -17l-2 -2q-19 0 -34 15q-15 14 -15 34t15 35t35 15t35 -15t15 -34t-15 -33q-15 -15 -34 -15zM367 -15l-2 -2q-19 0 -34 15q-15 14 -15 34t15 35t35 15t35 -15t15 -34t-15 -33q-15 -15 -34 -15zM639 -13l-2 -2q-19 0 -34 15q-15 14 -15 34t15 35t35 15t35 -15t15 -34
t-15 -34q-16 -14 -34 -14z" />
    <glyph glyph-name="perthousand" unicode="&#x2030;" horiz-adv-x="1362" 
d="M218 298l-1 -1q-41 0 -74 15t-57 42q-23 26 -37 64q-13 36 -13 81t13 81q14 39 37 65q24 27 57 42t74 15t74 -15q34 -15 56 -42q23 -27 36 -64q13 -36 13 -81t-13 -81q-13 -37 -36 -64q-22 -27 -56 -42q-33 -15 -73 -15zM190 -4l485 699h76l-486 -699h-75zM218 375v-1
q25 0 42 10q20 11 32 28q14 18 21 40q7 21 7 48t-7 48q-8 23 -21 41q-12 17 -32 28q-17 10 -42 10q-24 0 -43 -10q-20 -11 -33 -28q-14 -18 -21 -40q-7 -21 -7 -48t7 -48q7 -22 21 -40q13 -17 33 -28q19 -10 43 -10zM723 -10l-1 -1q-40 0 -74 14q-33 15 -57 42
q-23 26 -37 64q-13 36 -13 81t13 81q14 39 37 65q24 27 57 42t74 15t74 -15q34 -15 56 -42q23 -27 36 -64q13 -36 13 -81t-13 -81q-13 -37 -36 -64q-22 -27 -56 -42q-34 -14 -73 -14zM1142 -9l-1 -1q-40 0 -74 14q-33 15 -57 42q-23 26 -37 64q-13 36 -13 81t13 81
q14 39 37 65q24 27 57 42t74 15t74 -15q34 -15 56 -42q23 -27 36 -64q13 -36 13 -81t-13 -81q-13 -37 -36 -64q-22 -27 -56 -42q-34 -14 -73 -14zM724 67v-1q25 0 42 10q20 11 32 28q14 18 21 40q7 21 7 48t-7 48q-8 23 -21 41q-12 17 -32 28q-17 10 -42 10q-24 0 -43 -10
q-20 -11 -33 -28q-14 -18 -21 -40q-7 -21 -7 -48t7 -48q7 -22 21 -40q13 -17 33 -28q19 -10 43 -10zM1142 68v-1q25 0 42 10q20 11 32 28q14 18 21 40q7 21 7 48t-7 48q-8 23 -21 41q-12 17 -32 28q-17 10 -42 10q-24 0 -43 -10q-20 -11 -33 -28q-14 -18 -21 -40
q-7 -21 -7 -48t7 -48q7 -22 21 -40q13 -17 33 -28q19 -10 43 -10z" />
    <glyph glyph-name="guilsinglleft" unicode="&#x2039;" horiz-adv-x="474" 
d="M88 352l236 234l61 -61l-178 -173l178 -173l-62 -62z" />
    <glyph glyph-name="guilsinglright" unicode="&#x203a;" horiz-adv-x="474" 
d="M150 586l235 -234l-235 -235l-62 62l179 173l-178 173z" />
    <glyph glyph-name="fraction" unicode="&#x2044;" horiz-adv-x="121" 
d="M-219 0l484 700h76l-485 -700h-75z" />
    <glyph glyph-name="Euro" unicode="&#x20ac;" horiz-adv-x="801" 
d="M665 219l111 -28l-2 -4q-23 -48 -55 -84q-33 -37 -75 -63q-40 -24 -92 -40q-51 -14 -105 -14q-60 0 -120 19q-56 19 -103 54q-46 34 -79 84q-33 49 -48 110h-57v74h46v20v19h-46v74h57q15 61 48 110t79 85q46 35 103 55q58 20 120 20q53 0 99 -13q49 -14 88 -37
q42 -25 74 -57q34 -34 56 -75l-112 -28q-31 47 -84 76q-52 28 -117 28q-41 0 -78 -12t-69 -33q-30 -20 -55 -51q-23 -29 -37 -67h249v-74h-264q-1 -3 -1 -9v-9v-10q0 -6 1 -9h263v-74h-247q14 -37 37 -66q24 -30 54 -51q31 -22 68 -32q39 -11 78 -11q71 0 128 33t87 90z" />
    <glyph glyph-name="uni20B9" unicode="&#x20b9;" horiz-adv-x="588" 
d="M549 614h-123l-3 -1q24 -25 35 -55h88v-83h-71q0 -45 -15 -84t-42 -69t-66 -48t-87 -24l198 -251h-129l-197 252v84h90q28 0 55 11q25 10 43 30q17 19 28 45q10 24 10 54h-275v83h249q-19 27 -46 41q-29 15 -63 15h-140v86h461v-86z" />
    <glyph glyph-name="afii61352" unicode="&#x2116;" horiz-adv-x="1115" 
d="M754 535h-3q0 36 14 69q14 32 37 54q24 23 55 36q30 13 67 13q38 0 68 -13q31 -13 55 -36q23 -22 37 -54q14 -33 14 -69q0 -39 -13 -69q-14 -32 -37 -54q-24 -23 -55 -36q-30 -13 -67 -13t-67 13q-31 13 -55 36q-23 22 -37 54q-13 30 -13 69zM569 699h111v-703h-104
l-255 343l-45 63q-25 35 -40 55q-10 14 -28 39l-10 15h-1v-16v-46v-70v-87v-296h-111v699h104l257 -345q6 -8 40 -54q3 -4 17.5 -24t21.5 -29q6 -8 30 -41l12 -16h1v18v48v69v80v298zM824 540v-1q0 -45 29 -76q29 -30 72 -30q45 0 74 30q29 31 29 76q0 46 -29 77
q-29 30 -74 30q-43 0 -72 -30q-29 -31 -29 -76zM764 311h326v-70h-326v70z" />
    <glyph glyph-name="trademark" unicode="&#x2122;" horiz-adv-x="786" 
d="M18 635v67h292v-67h-111v-258h-70v258h-111zM639 700h65v-323h-68v119q0 25 1 37q2 24 2 32v21l1 8h-1q-1 0 -10 -16q-3 -6 -11.5 -19t-13.5 -21l-52 -85h-32l-53 85q-5 8 -25 41q-9 15 -10 15h-1q-1 0 0 -30q2 -40 2 -69v-119h-68v325h66l72 -118q18 -27 23 -42
q6 -16 8 -16h1q2 0 8 15q6 14 23 41z" />
    <glyph glyph-name="oneeighth" unicode="&#x215b;" horiz-adv-x="726" 
d="M147 692h52v-390h-74v214q0 17 1 26q2 18 2 26q0 9 2 21l1 9h-1q-1 0 -10 -12q-10 -14 -24 -26l-39 -37l-47 42zM59 -7l485 699h76l-486 -699h-75zM628 203v-1v-5q14 -3 28 -10q16 -8 27 -19q13 -13 20 -28q8 -18 8 -39q0 -24 -11 -46q-10 -21 -30 -36q-21 -16 -46 -23
q-27 -9 -59 -9t-59 9q-25 7 -46 23q-20 15 -30 36q-11 22 -11 47q0 21 8 39q7 17 20 29q13 13 27 20q17 9 28 11v1q-5 1 -19 8q-11 6 -22 18t-18 27q-7 14 -7 35q0 22 9 42q9 19 26 33q16 13 41 21q26 8 53 8q56 0 93 -29q36 -29 36 -74q0 -21 -7 -35q-7 -15 -18 -27
t-22 -18q-14 -7 -19 -8zM497 290h-2q0 -25 20 -40q19 -15 50 -15t51 15q19 15 19 39q0 23 -19 38q-20 15 -49 15q-31 0 -51 -15q-19 -15 -19 -37zM486 110v-3q0 -28 23 -45t57 -17t57 18t23 46q0 26 -23 44t-57 18q-36 0 -58 -18t-22 -43z" />
    <glyph glyph-name="threeeighths" unicode="&#x215c;" horiz-adv-x="795" 
d="M88 570l-63 17h-3q10 51 49 82q38 31 96 31q35 0 60 -9t43 -24t27 -35t9 -42q0 -21 -7 -35q-8 -17 -19 -26q-13 -11 -27 -17q-13 -5 -30 -7v-1q34 -1 62 -23q27 -21 27 -62q0 -25 -11 -49q-11 -22 -30 -39q-18 -16 -45 -25q-26 -9 -56 -9q-28 0 -54 9t-45 24t-33 36
q-13 21 -18 47l65 18q4 -32 27 -52q22 -19 60 -19q35 0 53 18t18 43q0 26 -21 41t-53 15h-38v54h38q30 0 49 16t19 40q0 17 -16 33q-17 17 -51 17q-35 0 -54 -16t-28 -51zM128 -7l485 699h76l-486 -699h-75zM698 203v-1v-5q14 -3 28 -10q16 -8 27 -19q13 -13 20 -28
q8 -18 8 -39q0 -24 -11 -46q-10 -21 -30 -36q-21 -16 -46 -23q-27 -9 -59 -9t-59 9q-25 7 -46 23q-20 15 -30 36q-11 22 -11 47q0 21 8 39q7 17 20 29q13 13 27 20q17 9 28 11v1q-5 1 -19 8q-11 6 -22 18t-18 27q-7 14 -7 35q0 22 9 42q9 19 26 33q16 13 41 21q26 8 53 8
q56 0 93 -29q36 -29 36 -74q0 -21 -7 -35q-7 -15 -18 -27t-22 -18q-14 -7 -19 -8zM567 290h-2q0 -25 20 -40q19 -15 50 -15t51 15q19 15 19 39q0 23 -19 38q-20 15 -49 15q-31 0 -51 -15q-19 -15 -19 -37zM556 110v-3q0 -28 23 -45t57 -17t57 18t23 46q0 26 -23 44t-57 18
q-36 0 -58 -18t-22 -43z" />
    <glyph glyph-name="fiveeighths" unicode="&#x215d;" horiz-adv-x="776" 
d="M95 534l1 -1l-1 -4q7 8 24 19q16 10 44 10q65 0 104 -36t39 -95q0 -27 -11 -54q-10 -25 -30 -43q-19 -17 -45 -28q-24 -10 -57 -10q-61 0 -99 33q-37 33 -45 80l67 19q4 -28 23 -48q18 -20 53 -20q34 0 55 21t21 53q0 33 -21 54t-55 21q-28 0 -46 -12t-25 -28l-61 16
l36 210h218v-66h-164l-7 -34q-6 -27 -12 -41q-6 -15 -6 -16zM595 692h76l-486 -699h-75zM679 203v-1v-5q14 -3 28 -10q16 -8 27 -19q13 -13 20 -28q8 -18 8 -39q0 -24 -11 -46q-11 -21 -30 -36q-21 -16 -46 -23q-27 -9 -59 -9t-59 9q-25 7 -46 23q-19 15 -30 36
q-11 22 -11 47q0 21 8 39q8 17 20 29q13 13 27 20q17 9 28 11v1q-5 1 -19 8q-11 6 -22 18q-10 12 -18 27q-7 14 -7 35q0 22 9 42q9 19 26 33q16 13 41 21q26 8 53 8q56 0 93 -29q36 -29 36 -74q0 -21 -7 -35q-8 -15 -18 -27q-11 -12 -22 -18q-14 -7 -19 -8zM548 290h-2
q0 -25 20 -40t50 -15q32 0 51 15t19 39q0 23 -19 38t-49 15q-32 0 -51 -15t-19 -37zM617 47v-3q35 0 57 18q23 18 23 46q0 26 -23 44q-22 18 -57 18t-58 -18q-22 -18 -22 -43q0 -28 23 -45t57 -17z" />
    <glyph glyph-name="seveneighths" unicode="&#x215e;" horiz-adv-x="678" 
d="M8 692h288l-1 -44l-193 -346h-74l152 271q13 24 26 39q12 14 12 15l-1 1q-8 0 -21 -1t-45 -1h-143v66zM11 -7l485 699h76l-486 -699h-75zM581 203v-1v-5q14 -3 28 -10q16 -8 27 -19q13 -13 20 -28q8 -18 8 -39q0 -24 -11 -46q-11 -21 -30 -36q-21 -16 -46 -23
q-27 -9 -59 -9t-59 9q-25 7 -46 23q-19 15 -30 36q-11 22 -11 47q0 21 8 39q8 17 20 29q13 13 27 20q17 9 28 11v1q-5 1 -19 8q-11 6 -22 18q-10 12 -18 27q-7 14 -7 35q0 22 9 42q9 19 26 33q16 13 41 21q26 8 53 8q56 0 93 -29q36 -29 36 -74q0 -21 -7 -35q-8 -15 -18 -27
q-11 -12 -22 -18q-14 -7 -19 -8zM450 290h-2q0 -25 20 -40t50 -15q32 0 51 15t19 39q0 23 -19 38t-49 15q-32 0 -51 -15t-19 -37zM439 110v-3q0 -28 23 -45t57 -17q35 0 57 18q23 18 23 46q0 26 -23 44q-22 18 -57 18t-58 -18q-22 -18 -22 -43z" />
    <glyph glyph-name="minus" unicode="&#x2212;" 
d="M120 401h459v-92h-459v92z" />
    <glyph glyph-name="notequal" unicode="&#x2260;" 
d="M579 406h-154l-58 -113h212v-92h-259l-57 -113h-94l58 113h-107v92h154l58 113h-212v92h259l63 123h92l-63 -123h108v-92z" />
    <glyph glyph-name="lessequal" unicode="&#x2264;" 
d="M115 82h459v-91h-459v91zM257 367l272 -201h-137l-278 201l325 244h135z" />
    <glyph glyph-name="greaterequal" unicode="&#x2265;" 
d="M169 166l272 201l-317 244h135l325 -244l-278 -201h-137zM124 82h459v-91h-459v91z" />
    <glyph glyph-name="lozenge" unicode="&#x25ca;" horiz-adv-x="752" 
d="M376 -13l-364 363l364 364l364 -364zM376 588l-238 -238l238 -237l238 237z" />
    <glyph glyph-name="glyph1" horiz-adv-x="0" 
 />
    <glyph glyph-name="glyph2" horiz-adv-x="0" 
 />
    <glyph glyph-name="glyph242" horiz-adv-x="758" 
d="M448 946l83 -46l-113 -172l-70 40zM722 530l-113 -30l-5 -4q-32 50 -87 78t-118 28q-53 0 -100 -18q-46 -18 -79 -52t-51 -81t-18 -103q0 -59 19 -104q20 -46 53 -80q33 -33 78 -51t98 -18q71 0 129 34q59 35 89 90l111 -30q-23 -48 -55 -84t-75 -64t-92 -41
q-50 -15 -105 -15q-74 0 -141 26q-65 27 -115 75q-49 48 -78 116q-28 66 -28 147q0 78 29 147q29 68 78 116t116 75q66 27 141 27q53 0 99 -13q51 -14 89 -37q43 -25 74 -58q34 -35 57 -76z" />
    <glyph glyph-name="glyph243" horiz-adv-x="464" 
d="M287 98h136v-98h-382v98h135v504h-131v98h374v-98h-132v-504z" />
    <glyph glyph-name="glyph244" horiz-adv-x="1114" 
d="M287 600v-504h136v-97h-382v97h135v504h-131v98h374v-98h-132zM932 700h111v-405q0 -73 -21 -132q-21 -58 -60 -97t-94 -60q-57 -20 -124 -20q-47 0 -94 14q-42 11 -81 37q-36 24 -63 57t-42 72l110 29q19 -49 65 -78q44 -28 105 -28q92 0 140 54t48 149v408z" />
    <glyph glyph-name="glyph245" horiz-adv-x="1113" 
d="M287 600v-504h136v-97h-382v97h135v504h-131v98h374v-98h-132zM621 700h421v-405q0 -73 -21 -132q-21 -58 -60 -97t-94 -60q-57 -20 -124 -20q-47 0 -94 14q-43 11 -81 37q-36 24 -63 57t-42 72l110 29q19 -49 65 -78q44 -28 105 -28q92 0 140 54t48 149v304h-310v104z
" />
    <glyph glyph-name="glyph246" horiz-adv-x="936" 
d="M88 -1v699h111v-699h-111zM444 700h421v-405q0 -73 -21 -132q-21 -58 -60 -97t-94 -60q-57 -20 -124 -20q-47 0 -94 14q-42 11 -81 37q-36 24 -63 57t-42 72l110 29q19 -49 65 -78q44 -28 105 -28q92 0 140 54t48 149v304h-310v104z" />
    <glyph glyph-name="glyph247" horiz-adv-x="464" 
d="M388 838l-228 -104l-34 61l223 119zM287 98h136v-98h-382v98h135v504h-131v98h374v-98h-132v-504z" />
    <glyph glyph-name="glyph248" horiz-adv-x="464" 
d="M230 839l-122 -102l-55 56l177 149l177 -149l-55 -56zM287 98h136v-98h-382v98h135v504h-131v98h374v-98h-132v-504z" />
    <glyph glyph-name="glyph249" horiz-adv-x="464" 
d="M103 763l-2 -3q-25 0 -42 17q-16 16 -16 41q0 22 17 39t42 17q23 0 39 -16q17 -17 17 -39q0 -24 -16 -40t-39 -16zM353 766l-4 -3q-23 0 -40 17q-16 16 -16 41q0 22 17 39t41 17q25 0 41 -16q17 -17 17 -39q0 -24 -16 -40t-40 -16zM287 98h136v-98h-382v98h135v504h-131
v98h374v-98h-132v-504z" />
    <glyph glyph-name="glyph250" horiz-adv-x="464" 
d="M233 765l-4 -1q-23 0 -40 17q-16 16 -16 41q0 22 17 39t41 17q25 0 41 -16q17 -17 17 -39q0 -25 -16 -41q-17 -17 -40 -17zM287 98h136v-98h-382v98h135v504h-131v98h374v-98h-132v-504z" />
    <glyph glyph-name="glyph251" horiz-adv-x="464" 
d="M321 795l-34 -61l-228 104l39 76zM287 98h136v-98h-382v98h135v504h-131v98h374v-98h-132v-504z" />
    <glyph glyph-name="glyph252" horiz-adv-x="464" 
d="M419 860v-85h-374v85h374zM287 98h136v-98h-382v98h135v504h-131v98h374v-98h-132v-504z" />
    <glyph glyph-name="glyph253" horiz-adv-x="464" 
d="M423 0h-204l-2 -1q-23 0 -45 -6q-23 -6 -41 -18t-30 -30t-12 -45q0 -28 21 -51t60 -23q38 0 61 19t37 48l60 -36q-22 -45 -63 -72t-94 -27q-33 0 -64 11q-29 10 -51 29q-21 18 -33 45t-12 60q0 28 11 55q10 26 27 42h-8v98h135v504h-131v98h374v-98h-132v-504h136v-98z
" />
    <glyph glyph-name="glyph254" horiz-adv-x="663" 
d="M171 700h421v-405q0 -73 -21 -132q-21 -58 -60 -97t-94 -60q-57 -20 -124 -20q-47 0 -94 14q-43 11 -81 37q-36 24 -63 57t-42 72l110 29q19 -49 65 -78q44 -28 105 -28q92 0 140 54t48 149v304h-310v104z" />
    <glyph glyph-name="glyph255" horiz-adv-x="663" 
d="M373 837l-122 -102l-55 56l177 149l176 -149l-54 -56zM171 700h421v-405q0 -73 -21 -132q-21 -58 -60 -97t-94 -60q-57 -20 -124 -20q-47 0 -94 14q-43 11 -81 37q-36 24 -63 57t-42 72l110 29q19 -49 65 -78q44 -28 105 -28q92 0 140 54t48 149v304h-310v104z" />
    <glyph glyph-name="glyph256" horiz-adv-x="768" 
d="M569 700h111l1 -703h-111v253l-230 183q-18 15 -52 45q-38 33 -45 40l-32 28l-12 11h-1l1 -13v-34v-50v-60v-400h-111v699h105l193 -160q10 -9 32.5 -27.5t34.5 -28.5q48 -39 59 -49q26 -22 42 -36l16 -13h1q0 15 -1 42t-1 105v168z" />
    <glyph glyph-name="glyph257" horiz-adv-x="768" 
d="M437 946l83 -46l-113 -172l-70 40zM569 700h111v-703h-104l-255 343l-45 63q-25 35 -40 55q-10 14 -28 39l-10 15h-1v-16v-46v-70v-87v-296h-111v699h104l257 -345q6 -8 40 -54q3 -4 17.5 -24t21.5 -29q6 -8 30 -41l12 -16h1v18v48v69v80v298z" />
    <glyph glyph-name="glyph258" horiz-adv-x="768" 
d="M442 946l83 -46l-113 -172l-70 40zM569 700h111l1 -703h-111v253l-230 183q-18 15 -52 45q-38 33 -45 40l-32 28l-12 11h-1l1 -13v-34v-50v-60v-400h-111v699h105l193 -160q10 -9 32.5 -27.5t34.5 -28.5q48 -39 59 -49q26 -22 42 -36l16 -13h1q0 15 -1 42t-1 105v168z
" />
    <glyph glyph-name="glyph259" horiz-adv-x="768" 
d="M506 910l39 -76l-228 -104l-34 61zM569 700h111l1 -703h-111v253l-230 183q-18 15 -52 45q-38 33 -45 40l-32 28l-12 11h-1l1 -13v-34v-50v-60v-400h-111v699h105l193 -160q10 -9 32.5 -27.5t34.5 -28.5q48 -39 59 -49q26 -22 42 -36l16 -13h1q0 15 -1 42t-1 105v168z
" />
    <glyph glyph-name="glyph260" horiz-adv-x="768" 
d="M680 700h-111l-4 -167q-1 -48 1 -105q1 -27 1 -42h-1l-16 13q-16 13 -42 36q-27 24 -59 50q-12 10 -34.5 28.5t-32.5 27.5l-193 160h-105v-700h111v401v60v50v35v13h1l13 -10q9 -7 32 -28q7 -7 45 -40q17 -15 53 -45l230 -183v-254h111v700zM389 727l-177 149l55 56
l122 -102l122 102l54 -56z" />
    <glyph glyph-name="glyph261" horiz-adv-x="768" 
d="M567 699h111l1 -703h-111v253l-230 183q-18 15 -52 45q-38 33 -45 40l-32 28l-12 11h-1l1 -13v-34v-50v-60v-400h-111v699h105l193 -160q10 -9 32.5 -27.5t34.5 -28.5q48 -39 59 -49q26 -23 42 -36l16 -13h1q0 15 -1 42t-1 105v168zM380 -152l11 5h-13q-17 2 -32 15
q-15 14 -15 38q0 23 17 40q16 16 41 16q23 0 39 -18q17 -19 17 -48q0 -24 -7 -45q-8 -23 -19 -43q-11 -19 -27 -40q-15 -19 -31 -34h-42q9 8 21 23q7 9 19 29q9 14 15 32q6 16 6 30z" />
    <glyph glyph-name="glyph262" horiz-adv-x="768" 
d="M503 869h88h-3q0 -53 -36 -87q-35 -34 -91 -34q-23 0 -43 9q-17 8 -36 20q-4 2 -14.5 9.5t-16.5 10.5q-15 9 -32 9q-21 0 -34 -12t-13 -32h-87q0 52 36 87q35 34 91 34q26 0 45 -9t36 -21q19 -14 31 -21q15 -9 32 -9q20 0 33 13q14 14 14 33zM569 700h111l1 -703h-111
v253l-230 183q-18 15 -52 45q-38 33 -45 40l-32 28l-12 11h-1l1 -13v-34v-50v-60v-400h-111v699h105l193 -160q10 -9 32.5 -27.5t34.5 -28.5q48 -39 59 -49q26 -22 42 -36l16 -13h1q0 15 -1 42t-1 105v168z" />
    <glyph glyph-name="glyph263" horiz-adv-x="808" 
d="M458 946l83 -46l-113 -172l-70 40zM41 348l-3 -2q0 78 29 147q29 68 78 116t116 75q66 27 141 27t141 -27q67 -27 116 -75q50 -48 78 -115q29 -69 29 -147q0 -81 -28 -147q-28 -67 -78 -115q-49 -48 -116 -75q-67 -26 -141 -26t-141 26q-65 27 -115 75q-49 48 -78 116
q-28 66 -28 147zM155 350v-2q0 -56 18 -103t51 -81q32 -34 78 -52q45 -18 99 -18t99 18q44 18 78 53q32 34 52 81q19 45 19 104t-19 104q-20 48 -52 80q-33 33 -78 51t-99 18t-99 -18t-78 -51t-51 -80q-18 -46 -18 -104z" />
    <glyph glyph-name="glyph264" horiz-adv-x="829" 
d="M728 108h60l-5 -109h-388q-77 0 -141 26q-66 27 -114 75q-49 49 -77 114t-28 144q0 77 29 144q28 66 78 114t115 75q66 27 141 27t141 -27q67 -27 116 -75t78 -114q29 -67 29 -144q0 -84 -36 -150t-96 -105l1 -1q1 0 24 3t73 3zM155 357h-2q0 -54 20 -102q19 -45 53 -79
q33 -33 78 -51t97 -18q51 0 96 18t78 51q34 34 53 79q20 48 20 102q0 58 -19 103t-53 79q-33 33 -78 51t-96 18q-52 0 -97 -18t-78 -51q-34 -34 -53 -79t-19 -103z" />
    <glyph glyph-name="glyph265" horiz-adv-x="602" 
d="M363 954l83 -46l-113 -172l-70 40zM559 525l-106 -29l3 4q-6 28 -21 51q-16 23 -36 38q-22 16 -47 23q-27 8 -54 8q-58 0 -95 -26q-36 -26 -36 -68q0 -25 15 -43t40 -31q26 -14 57 -24t66 -21q43 -14 78 -28q41 -17 73 -40q32 -24 54 -59q21 -34 21 -84q0 -46 -19 -84
t-54 -67q-34 -28 -82 -43q-50 -14 -106 -14q-54 0 -102 14q-46 15 -81 42t-59 65q-25 39 -35 84l106 29q4 -26 18 -52q13 -26 36 -45q21 -18 53 -31q30 -12 68 -12q68 0 105 30t37 75q0 33 -18 54t-48 36q-33 16 -67 26q-25 7 -75 23q-32 10 -66 24q-33 13 -63 35
q-29 21 -47 53t-18 78q0 41 18 77t51 63t78 42t99 15q48 0 92 -14q42 -13 77 -38q34 -24 57 -59q22 -34 33 -77z" />
    <glyph glyph-name="glyph266" horiz-adv-x="678" 
d="M664 700l-247 -336h117v-91h-141v-273h-110v273h-139v91h116l-247 336h125l159 -215q9 -13 27 -37q14 -18 15 -18h1q2 0 14 18q4 7 13.5 19.5t12.5 17.5l159 215h125z" />
    <glyph glyph-name="glyph267" horiz-adv-x="678" 
d="M493 838l-228 -104l-34 61l223 119zM664 700l-247 -336h117v-91h-141v-273h-110v273h-139v91h116l-247 336h125l159 -215q9 -13 27 -37q14 -18 15 -18h1q2 0 14 18q4 7 13.5 19.5t12.5 17.5l159 215h125z" />
    <glyph glyph-name="glyph268" horiz-adv-x="678" 
d="M335 839l-122 -102l-55 56l177 149l177 -149l-55 -56zM664 700l-247 -336h117v-91h-141v-273h-110v273h-139v91h116l-247 336h125l159 -215q9 -13 27 -37q14 -18 15 -18h1q2 0 14 18q4 7 13.5 19.5t12.5 17.5l159 215h125z" />
    <glyph glyph-name="glyph269" horiz-adv-x="678" 
d="M208 763l-2 -3q-25 0 -42 17q-16 16 -16 41q0 22 17 39t42 17q23 0 39 -16q17 -17 17 -39q0 -24 -16 -40t-39 -16zM458 766l-4 -3q-23 0 -40 17q-16 16 -16 41q0 22 17 39t41 17q25 0 41 -16q17 -17 17 -39q0 -24 -16 -40t-40 -16zM664 700l-247 -336h117v-91h-141v-273
h-110v273h-139v91h116l-247 336h125l159 -215q9 -13 27 -37q14 -18 15 -18h1q2 0 14 18q4 7 13.5 19.5t12.5 17.5l159 215h125z" />
    <glyph glyph-name="glyph270" horiz-adv-x="678" 
d="M426 795l-34 -61l-228 104l39 76zM664 700l-247 -336h117v-91h-141v-273h-110v273h-139v91h116l-247 336h125l159 -215q9 -13 27 -37q14 -18 15 -18h1q2 0 14 18q4 7 13.5 19.5t12.5 17.5l159 215h125z" />
    <glyph glyph-name="glyph271" horiz-adv-x="697" 
d="M405 947l83 -46l-113 -172l-70 40zM637 700v-103l-373 -438q-22 -25 -39 -42t-17 -18l1 -1h3q4 1 11 1.5t15 0.5q36 2 68 2h331v-103h-577v102l381 439q5 6 18 19t19 18t15 14l6 6l-1 1q-11 0 -31 -1t-67 -1h-330v104h567z" />
    <glyph glyph-name="glyph272" horiz-adv-x="758" 
d="M448 946l83 -46l-113 -172l-70 40zM722 530l-113 -30l-5 -4q-32 50 -87 78t-118 28q-53 0 -100 -18q-46 -18 -79 -52t-51 -81t-18 -103q0 -59 19 -104q20 -46 53 -80q33 -33 78 -51t98 -18q71 0 129 34q59 35 89 90l111 -30q-23 -48 -55 -84t-75 -64t-92 -41
q-50 -15 -105 -15q-74 0 -141 26q-65 27 -115 75q-49 48 -78 116q-28 66 -28 147q0 78 29 147q29 68 78 116t116 75q66 27 141 27q53 0 99 -13q51 -14 89 -37q43 -25 74 -58q34 -35 57 -76z" />
    <glyph glyph-name="glyph273" horiz-adv-x="663" 
d="M171 700h421v-405q0 -73 -21 -132q-21 -58 -60 -97t-94 -60q-57 -20 -124 -20q-47 0 -94 14q-43 11 -81 37q-36 24 -63 57t-42 72l110 29q19 -49 65 -78q44 -28 105 -28q92 0 140 54t48 149v304h-310v104z" />
    <glyph glyph-name="glyph274" horiz-adv-x="464" 
d="M287 98h136v-98h-382v98h135v504h-131v98h374v-98h-132v-504z" />
    <glyph glyph-name="glyph275" horiz-adv-x="464" 
d="M388 838l-228 -104l-34 61l223 119zM287 98h136v-98h-382v98h135v504h-131v98h374v-98h-132v-504z" />
    <glyph glyph-name="glyph276" horiz-adv-x="464" 
d="M230 839l-122 -102l-55 56l177 149l177 -149l-55 -56zM287 98h136v-98h-382v98h135v504h-131v98h374v-98h-132v-504z" />
    <glyph glyph-name="glyph277" horiz-adv-x="464" 
d="M103 763l-2 -3q-25 0 -42 17q-16 16 -16 41q0 22 17 39t42 17q23 0 39 -16q17 -17 17 -39q0 -24 -16 -40t-39 -16zM353 766l-4 -3q-23 0 -40 17q-16 16 -16 41q0 22 17 39t41 17q25 0 41 -16q17 -17 17 -39q0 -24 -16 -40t-40 -16zM287 98h136v-98h-382v98h135v504h-131
v98h374v-98h-132v-504z" />
    <glyph glyph-name="glyph278" horiz-adv-x="464" 
d="M233 765l-4 -1q-23 0 -40 17q-16 16 -16 41q0 22 17 39t41 17q25 0 41 -16q17 -17 17 -39q0 -25 -16 -41q-17 -17 -40 -17zM287 98h136v-98h-382v98h135v504h-131v98h374v-98h-132v-504z" />
    <glyph glyph-name="glyph279" horiz-adv-x="464" 
d="M321 795l-34 -61l-228 104l39 76zM287 98h136v-98h-382v98h135v504h-131v98h374v-98h-132v-504z" />
    <glyph glyph-name="glyph280" horiz-adv-x="1114" 
d="M287 600v-504h136v-97h-382v97h135v504h-131v98h374v-98h-132zM932 700h111v-405q0 -73 -21 -132q-21 -58 -60 -97t-94 -60q-57 -20 -124 -20q-47 0 -94 14q-42 11 -81 37q-36 24 -63 57t-42 72l110 29q19 -49 65 -78q44 -28 105 -28q92 0 140 54t48 149v408z" />
    <glyph glyph-name="glyph281" horiz-adv-x="1113" 
d="M287 600v-504h136v-97h-382v97h135v504h-131v98h374v-98h-132zM621 700h421v-405q0 -73 -21 -132q-21 -58 -60 -97t-94 -60q-57 -20 -124 -20q-47 0 -94 14q-43 11 -81 37q-36 24 -63 57t-42 72l110 29q19 -49 65 -78q44 -28 105 -28q92 0 140 54t48 149v304h-310v104z
" />
    <glyph glyph-name="glyph282" horiz-adv-x="936" 
d="M88 -1v699h111v-699h-111zM444 700h421v-405q0 -73 -21 -132q-21 -58 -60 -97t-94 -60q-57 -20 -124 -20q-47 0 -94 14q-42 11 -81 37q-36 24 -63 57t-42 72l110 29q19 -49 65 -78q44 -28 105 -28q92 0 140 54t48 149v304h-310v104z" />
    <glyph glyph-name="glyph283" horiz-adv-x="464" 
d="M419 860v-85h-374v85h374zM287 98h136v-98h-382v98h135v504h-131v98h374v-98h-132v-504z" />
    <glyph glyph-name="glyph284" horiz-adv-x="464" 
d="M423 0h-204l-2 -1q-23 0 -45 -6q-23 -6 -41 -18t-30 -30t-12 -45q0 -28 21 -51t60 -23q38 0 61 19t37 48l60 -36q-22 -45 -63 -72t-94 -27q-33 0 -64 11q-29 10 -51 29q-21 18 -33 45t-12 60q0 28 11 55q10 26 27 42h-8v98h135v504h-131v98h374v-98h-132v-504h136v-98z
" />
    <glyph glyph-name="glyph285" horiz-adv-x="663" 
d="M171 700h421v-405q0 -73 -21 -132q-21 -58 -60 -97t-94 -60q-57 -20 -124 -20q-47 0 -94 14q-43 11 -81 37q-36 24 -63 57t-42 72l110 29q19 -49 65 -78q44 -28 105 -28q92 0 140 54t48 149v304h-310v104z" />
    <glyph glyph-name="glyph286" horiz-adv-x="663" 
d="M373 837l-122 -102l-55 56l177 149l177 -149l-55 -56zM171 700h421v-405q0 -73 -21 -132q-21 -58 -60 -97t-94 -60q-57 -20 -124 -20q-47 0 -94 14q-43 11 -81 37q-36 24 -63 57t-42 72l110 29q19 -49 65 -78q44 -28 105 -28q92 0 140 54t48 149v304h-310v104z" />
    <glyph glyph-name="glyph287" horiz-adv-x="768" 
d="M569 700h111l1 -703h-111v253l-230 183q-18 15 -52 45q-38 33 -45 40l-32 28l-12 11h-1l1 -13v-34v-50v-60v-400h-111v699h105l193 -160q10 -9 32.5 -27.5t34.5 -28.5q48 -39 59 -49q26 -22 42 -36l16 -13h1q0 15 -1 42t-1 105v168z" />
    <glyph glyph-name="glyph288" horiz-adv-x="768" 
d="M437 946l83 -46l-113 -172l-70 40zM569 700h111v-703h-104l-255 343l-45 63q-25 35 -40 55q-10 14 -28 39l-10 15h-1v-16v-46v-70v-87v-296h-111v699h104l257 -345q6 -8 40 -54q3 -4 17.5 -24t21.5 -29q6 -8 30 -41l12 -16h1v18v48v69v80v298z" />
    <glyph glyph-name="glyph289" horiz-adv-x="768" 
d="M442 946l83 -46l-113 -172l-70 40zM569 700h111l1 -703h-111v253l-230 183q-18 15 -52 45q-38 33 -45 40l-32 28l-12 11h-1l1 -13v-34v-50v-60v-400h-111v699h105l193 -160q10 -9 32.5 -27.5t34.5 -28.5q48 -39 59 -49q26 -22 42 -36l16 -13h1q0 15 -1 42t-1 105v168z
" />
    <glyph glyph-name="glyph290" horiz-adv-x="768" 
d="M506 910l39 -76l-228 -104l-34 61zM569 700h111l1 -703h-111v253l-230 183q-18 15 -52 45q-38 33 -45 40l-32 28l-12 11h-1l1 -13v-34v-50v-60v-400h-111v699h105l193 -160q10 -9 32.5 -27.5t34.5 -28.5q48 -39 59 -49q26 -22 42 -36l16 -13h1q0 15 -1 42t-1 105v168z
" />
    <glyph glyph-name="glyph291" horiz-adv-x="768" 
d="M680 700h-111l-4 -167q-1 -48 1 -105q1 -27 1 -42h-1l-16 13q-16 13 -42 36q-27 24 -59 50q-12 10 -34.5 28.5t-32.5 27.5l-193 160h-105v-700h111v401v60v50v35v13h1l13 -10q9 -7 32 -28q7 -7 45 -40q17 -15 53 -45l230 -183v-254h111v700zM389 727l-177 149l55 56
l122 -102l122 102l54 -56z" />
    <glyph glyph-name="glyph292" horiz-adv-x="768" 
d="M567 699h111l1 -703h-111v253l-230 183q-18 15 -52 45q-38 33 -45 40l-32 28l-12 11h-1l1 -13v-34v-50v-60v-400h-111v699h105l193 -160q10 -9 32.5 -27.5t34.5 -28.5q48 -39 59 -49q26 -23 42 -36l16 -13h1q0 15 -1 42t-1 105v168zM380 -152l11 5h-13q-17 2 -32 15
q-15 14 -15 38q0 23 17 40q16 16 41 16q23 0 39 -18q17 -19 17 -48q0 -24 -7 -45q-8 -23 -19 -43q-11 -19 -27 -40q-15 -19 -31 -34h-42q9 8 21 23q7 9 19 29q9 14 15 32q6 16 6 30z" />
    <glyph glyph-name="glyph293" horiz-adv-x="768" 
d="M503 869h88h-3q0 -53 -36 -87q-35 -34 -91 -34q-23 0 -43 9q-17 8 -36 20q-4 2 -14.5 9.5t-16.5 10.5q-15 9 -32 9q-21 0 -34 -12t-13 -32h-87q0 52 36 87q35 34 91 34q26 0 45 -9t36 -21q19 -14 31 -21q15 -9 32 -9q20 0 33 13q14 14 14 33zM569 700h111l1 -703h-111
v253l-230 183q-18 15 -52 45q-38 33 -45 40l-32 28l-12 11h-1l1 -13v-34v-50v-60v-400h-111v699h105l193 -160q10 -9 32.5 -27.5t34.5 -28.5q48 -39 59 -49q26 -22 42 -36l16 -13h1q0 15 -1 42t-1 105v168z" />
    <glyph glyph-name="glyph294" horiz-adv-x="808" 
d="M458 946l83 -46l-113 -172l-70 40zM41 348l-3 -2q0 78 29 147q29 68 78 116t116 75q66 27 141 27t141 -27q67 -27 116 -75q50 -48 78 -115q29 -69 29 -147q0 -81 -28 -147q-28 -67 -78 -115q-49 -48 -116 -75q-67 -26 -141 -26t-141 26q-65 27 -115 75q-49 48 -78 116
q-28 66 -28 147zM155 350v-2q0 -56 18 -103t51 -81q32 -34 78 -52q45 -18 99 -18t99 18q44 18 78 53q32 34 52 81q19 45 19 104t-19 104q-20 48 -52 80q-33 33 -78 51t-99 18t-99 -18t-78 -51t-51 -80q-18 -46 -18 -104z" />
    <glyph glyph-name="glyph295" horiz-adv-x="829" 
d="M728 108h60l-5 -109h-388q-77 0 -141 26q-66 27 -114 75q-49 49 -77 114t-28 144q0 77 29 144q28 66 78 114t115 75q66 27 141 27t141 -27q67 -27 116 -75t78 -114q29 -67 29 -144q0 -84 -36 -150t-96 -105l1 -1q1 0 24 3t73 3zM155 357h-2q0 -54 20 -102q19 -45 53 -79
q33 -33 78 -51t97 -18q51 0 96 18t78 51q34 34 53 79q20 48 20 102q0 58 -19 103t-53 79q-33 33 -78 51t-96 18q-52 0 -97 -18t-78 -51q-34 -34 -53 -79t-19 -103z" />
    <glyph glyph-name="glyph296" horiz-adv-x="602" 
d="M363 954l83 -46l-113 -172l-70 40zM559 525l-106 -29l3 4q-6 28 -21 51q-16 23 -36 38q-22 16 -47 23q-27 8 -54 8q-58 0 -95 -26q-36 -26 -36 -68q0 -25 15 -43t40 -31q26 -14 57 -24t66 -21q43 -14 78 -28q41 -17 73 -40q32 -24 54 -59q21 -34 21 -84q0 -46 -19 -84
t-54 -67q-34 -28 -82 -43q-50 -14 -106 -14q-54 0 -102 14q-46 15 -81 42t-59 65q-25 39 -35 84l106 29q4 -26 18 -52q13 -26 36 -45q21 -18 53 -31q30 -12 68 -12q68 0 105 30t37 75q0 33 -18 54t-48 36q-33 16 -67 26q-25 7 -75 23q-32 10 -66 24q-33 13 -63 35
q-29 21 -47 53t-18 78q0 41 18 77t51 63t78 42t99 15q48 0 92 -14q42 -13 77 -38q34 -24 57 -59q22 -34 33 -77z" />
    <glyph glyph-name="glyph297" horiz-adv-x="678" 
d="M664 700l-247 -336h117v-91h-141v-273h-110v273h-139v91h116l-247 336h125l159 -215q9 -13 27 -37q14 -18 15 -18h1q2 0 14 18q4 7 13.5 19.5t12.5 17.5l159 215h125z" />
    <glyph glyph-name="glyph298" horiz-adv-x="678" 
d="M493 838l-228 -104l-34 61l223 119zM664 700l-247 -336h117v-91h-141v-273h-110v273h-139v91h116l-247 336h125l159 -215q9 -13 27 -37q14 -18 15 -18h1q2 0 14 18q4 7 13.5 19.5t12.5 17.5l159 215h125z" />
    <glyph glyph-name="glyph299" horiz-adv-x="678" 
d="M335 839l-122 -102l-55 56l177 149l177 -149l-55 -56zM664 700l-247 -336h117v-91h-141v-273h-110v273h-139v91h116l-247 336h125l159 -215q9 -13 27 -37q14 -18 15 -18h1q2 0 14 18q4 7 13.5 19.5t12.5 17.5l159 215h125z" />
    <glyph glyph-name="glyph300" horiz-adv-x="678" 
d="M208 763l-2 -3q-25 0 -42 17q-16 16 -16 41q0 22 17 39t42 17q23 0 39 -16q17 -17 17 -39q0 -24 -16 -40t-39 -16zM458 766l-4 -3q-23 0 -40 17q-16 16 -16 41q0 22 17 39t41 17q25 0 41 -16q17 -17 17 -39q0 -24 -16 -40t-40 -16zM664 700l-247 -336h117v-91h-141v-273
h-110v273h-139v91h116l-247 336h125l159 -215q9 -13 27 -37q14 -18 15 -18h1q2 0 14 18q4 7 13.5 19.5t12.5 17.5l159 215h125z" />
    <glyph glyph-name="glyph301" horiz-adv-x="678" 
d="M426 795l-34 -61l-228 104l39 76zM664 700l-247 -336h117v-91h-141v-273h-110v273h-139v91h116l-247 336h125l159 -215q9 -13 27 -37q14 -18 15 -18h1q2 0 14 18q4 7 13.5 19.5t12.5 17.5l159 215h125z" />
    <glyph glyph-name="glyph302" horiz-adv-x="697" 
d="M405 947l83 -46l-113 -172l-70 40zM637 700v-103l-373 -438q-22 -25 -39 -42t-17 -18l1 -1h3q4 1 11 1.5t15 0.5q36 2 68 2h331v-103h-577v102l381 439q5 6 18 19t19 18t15 14l6 6l-1 1q-11 0 -31 -1t-67 -1h-330v104h567z" />
    <glyph glyph-name="glyph326" horiz-adv-x="717" 
d="M356 714h-1q74 0 135 -29t101 -78q41 -50 62 -116t21 -140t-21 -140t-62 -116t-100 -78q-62 -28 -135 -28t-134 28q-58 29 -99 78q-41 50 -62 116t-21 140t21 140t62 116q41 49 99 78q60 29 134 29zM208 167l255 409h-2q-21 13 -47 21q-27 8 -57 8q-53 0 -90 -21
q-38 -21 -63 -55q-25 -33 -37 -81q-12 -46 -12 -99q0 -56 13 -101q14 -48 40 -81zM511 531l-255 -409q44 -27 102 -27q52 0 90 21t63 55q26 36 38 81q12 46 12 99t-12 99q-12 45 -38 81z" />
    <glyph glyph-name="glyph327" horiz-adv-x="384" 
d="M192 464l-1 -1q-41 0 -74 15t-57 42q-23 26 -37 64q-13 36 -13 81t13 81q14 39 37 65q24 27 57 42t74 15t74 -15q34 -15 56 -42q23 -27 36 -64q13 -36 13 -81t-13 -81q-13 -37 -36 -64q-22 -27 -56 -42q-33 -15 -73 -15zM192 541v-1q25 0 42 10q20 11 32 28q14 18 21 40
q7 21 7 48t-7 48q-8 23 -21 41q-12 17 -32 28q-17 10 -42 10q-24 0 -43 -10q-20 -11 -33 -28q-14 -18 -21 -40q-7 -21 -7 -48t7 -48q7 -22 21 -40q13 -17 33 -28q19 -10 43 -10z" />
    <glyph glyph-name="glyph328" horiz-adv-x="347" 
d="M326 616v-63h-48v-84h-67v84h-199v51l211 254h55v-242h48zM144 618h65l2 72q1 10 1 26v22q1 13 1 21h-1l-4 -5q-6 -8 -10 -13q-2 -2 -6 -8t-7 -9q-10 -12 -15 -17l-50 -57q-12 -14 -23 -23t-11 -10l1 -1q7 0 18 1t39 1z" />
    <glyph glyph-name="glyph329" horiz-adv-x="332" 
d="M97 704l1 -1l-1 -4q7 8 24 19q16 10 44 10q65 0 104 -36t39 -95q0 -27 -11 -54q-10 -25 -30 -43q-19 -17 -45 -28q-24 -10 -57 -10q-61 0 -99 33q-37 33 -45 80l67 19q4 -28 23 -48q18 -20 53 -20q34 0 55 21t21 53q0 33 -21 54t-55 21q-28 0 -46 -12t-25 -28l-61 16
l36 210h218v-66h-164l-7 -34q-6 -27 -12 -41q-6 -15 -6 -16z" />
    <glyph glyph-name="glyph330" horiz-adv-x="332" 
d="M235 862l-121 -155l-2 -5q9 9 21 17q13 9 36 9q33 0 57 -10q27 -11 44 -28t28 -42q10 -23 10 -52t-11 -54q-11 -24 -30 -42t-47 -27q-27 -9 -59 -9q-31 0 -58 9t-48 27t-33 44t-12 57q0 40 15 73q16 36 43 71l90 117h77zM161 528h-1q34 0 56 20t23 54q0 34 -21 53
q-22 20 -57 20q-34 0 -57 -20q-22 -19 -22 -53q0 -35 22 -54q23 -20 57 -20z" />
    <glyph glyph-name="glyph331" horiz-adv-x="303" 
d="M10 862h288l-1 -44l-193 -346h-74l152 271q13 24 26 39q12 14 12 15l-1 1q-8 0 -21 -1t-45 -1h-143v66z" />
    <glyph glyph-name="glyph332" horiz-adv-x="318" 
d="M221 676v-1v-5q14 -3 28 -10q16 -8 27 -19q13 -13 20 -28q8 -18 8 -39q0 -24 -11 -46q-11 -21 -30 -36q-20 -15 -46 -24q-27 -9 -59 -9t-59 9q-26 9 -46 24q-19 15 -30 36q-11 22 -11 47q0 21 8 39q8 16 20 29q13 13 27 20q17 9 28 11v1q-5 1 -19 8q-11 6 -22 18
q-10 12 -18 27q-7 14 -7 35q0 23 9 42t26 33q16 13 41 21q26 8 53 8q56 0 93 -29q36 -28 36 -74q0 -21 -7 -35q-8 -15 -18 -27q-11 -12 -22 -18q-14 -7 -19 -8zM90 763h-2q0 -25 20 -40t50 -15q32 0 51 15t19 39q0 23 -19 38t-49 15q-32 0 -51 -15t-19 -37zM79 583v-3
q0 -28 23 -45t57 -17q35 0 57 18q23 18 23 46q0 26 -23 44q-22 18 -57 18t-58 -18q-22 -18 -22 -43z" />
    <glyph glyph-name="glyph333" horiz-adv-x="322" 
d="M73 473l132 152l-1 -2q-10 -11 -24 -18q-13 -7 -30 -7q-30 0 -57 11q-24 10 -43 29q-17 17 -28 42q-10 23 -10 53q0 28 11 55q10 25 30 43q19 18 47 27q27 9 59 9q31 0 58 -9t48 -27t33 -43q12 -26 12 -57q0 -44 -19 -81q-19 -38 -51 -75l-85 -102h-82zM159 807
q-34 0 -56 -20t-22 -53q-1 -33 21 -54q22 -20 57 -20t57 20q21 20 21 54t-21 53q-22 20 -57 20z" />
    <glyph glyph-name="glyph334" 
d="M345 712h-1q74 0 130 -32q55 -31 90 -83q34 -51 51 -117q17 -68 17 -132t-17 -132q-17 -66 -51 -117q-35 -52 -90 -83q-57 -31 -130 -31t-129 31q-53 31 -90 83q-35 50 -52 117q-16 64 -16 132q0 64 17 132q17 67 52 117q37 52 90 83q55 32 129 32zM348 605l-3 -2
q-53 0 -85 -25q-34 -26 -53 -63q-20 -38 -27 -82q-7 -42 -7 -85q0 -37 8 -85q7 -44 27 -82q19 -37 53 -63q32 -25 86 -25t86 25q34 26 53 63t27 83q8 48 8 85t-8 85q-8 46 -27 83t-53 63q-32 25 -85 25z" />
    <glyph glyph-name="glyph335" 
d="M440 104h169l-2 -107h-450v103h171v325v38q0 14 2 36q1 11 1 27v11h-1l-5 -6q-3 -3 -13 -15q-3 -3 -8.5 -9.5t-8.5 -9.5q-9 -11 -18 -18l-70 -69l-69 66l225 224h77v-596z" />
    <glyph glyph-name="glyph336" 
d="M190 498l-103 27l-2 -3q26 91 93 140q68 50 165 50q53 0 99 -17q47 -17 77 -46q33 -31 50 -70q18 -41 18 -88q0 -51 -17 -91q-17 -39 -43 -70q-28 -33 -58 -57q-31 -25 -63 -48q-38 -30 -58 -45q-10 -8 -28 -21t-26 -19t-26.5 -20t-28.5 -21l1 -1h4q5 1 15 1.5t21 0.5
q52 2 105 2h204v-103h-495v89q52 44 154 132t154 132q33 28 54 63t21 75q0 54 -37 90q-38 36 -97 36q-65 0 -102 -34t-51 -84z" />
    <glyph glyph-name="glyph337" 
d="M197 497l-99 26l-2 -6q21 89 89 140q67 51 167 51q63 0 107 -16q46 -17 75 -43q30 -27 45 -62t15 -72q0 -36 -13 -63q-14 -29 -34 -48q-21 -19 -47 -30q-26 -10 -51 -12v-1q31 -2 59 -12q30 -11 50 -31q22 -22 35 -49q14 -30 14 -66q0 -51 -19 -90q-20 -41 -52 -69
q-34 -29 -80 -44q-45 -16 -102 -16q-49 0 -94 15q-43 13 -81 40q-35 25 -60 62q-24 36 -33 80l100 27q10 -56 54 -91q43 -34 108 -34q68 0 105 36q38 36 38 90q0 53 -40 80q-41 27 -106 27h-61v88h61q67 0 101 27q35 27 35 80q0 21 -7 38q-8 18 -24 33t-42 24t-61 9
q-61 0 -97 -30q-37 -31 -53 -88z" />
    <glyph glyph-name="glyph338" 
d="M627 256v-97h-88v-159h-105v159h-366v82l382 459h89v-444h88zM297 256h134l3 136v57v50v35l1 14h-1l-6 -9q-1 -1 -17 -22q-11 -13 -24 -30l-27 -33l-115 -136q-30 -36 -42 -48t-12 -13v-1h13h26h33h34z" />
    <glyph glyph-name="glyph339" 
d="M221 413l1 -1l-8 -6q14 14 46 30t81 16q53 0 100 -18t80 -48q34 -31 53 -72q20 -43 20 -93q0 -54 -19 -96q-20 -44 -52 -75q-34 -32 -80 -50q-48 -17 -100 -17q-53 0 -96 15q-44 14 -77 39q-32 25 -55 60q-22 33 -31 74l102 27q6 -23 18 -46q12 -22 32 -39q19 -16 46 -25
t60 -9q30 0 58 11q26 10 46 30t30 46q11 28 11 58t-11 58q-10 26 -30 46t-45 30q-27 11 -57 11q-35 0 -56 -7q-22 -8 -39 -18q-16 -10 -25 -24q-11 -16 -14 -25l-96 27l62 377h382v-104h-300l-14 -74q-8 -45 -17 -81q-6 -26 -6 -27z" />
    <glyph glyph-name="glyph340" 
d="M466 698l-210 -279l3 -6q17 19 42 33q26 14 69 14q56 0 100 -19q47 -20 77 -52q31 -33 48 -77q17 -45 17 -93q0 -51 -20 -96q-20 -44 -55 -75q-36 -32 -85 -48q-50 -18 -106 -18t-104 18q-46 16 -84 49q-36 31 -57 77q-21 45 -21 100q0 39 7 70q7 33 21 63q14 32 33 62
q19 31 45 66l160 211h120zM351 84l-4 -2q33 0 63 11q28 10 49 30q21 19 33 47q12 27 12 59q0 31 -11 59q-10 27 -31 46q-21 20 -49 30q-30 11 -63 11q-71 0 -114 -40t-43 -105q0 -33 12 -60q12 -26 33 -46q21 -19 50 -30q27 -10 63 -10z" />
    <glyph glyph-name="glyph341" 
d="M110 700h511l-1 -69l-356 -633h-118l266 470q18 32 28 47q21 32 26 40q12 21 18 29l8 11l-1 1h-10h-25h-31h-31h-284v104z" />
    <glyph glyph-name="glyph342" 
d="M454 368v-1l-6 -2q28 -5 57 -18t51 -36q22 -22 36 -53t14 -68q0 -46 -19 -84t-54 -67t-83 -44q-47 -16 -106 -16t-106 16q-48 15 -83 44t-54 67t-19 84q0 36 14 69q14 31 36 54t51 36t57 18v1q-15 2 -36 12t-42 30q-20 19 -34 48q-14 30 -14 64q0 37 17 73q17 35 48 60
q30 24 74 40q42 15 93 15q50 0 94 -15q45 -16 74 -40q31 -26 47 -60q17 -36 17 -73q0 -34 -14 -64q-14 -28 -33 -48q-19 -19 -41 -30q-21 -10 -36 -12zM211 521v-2q0 -47 39 -75q38 -28 99 -28t99 30t38 75q0 48 -39 78t-99 30q-62 0 -99 -30q-38 -30 -38 -78zM191 198
l-1 -3q0 -57 43 -90t115 -33q75 0 116 34q42 34 42 90t-43 89t-115 33q-73 0 -115 -33t-42 -87z" />
    <glyph glyph-name="glyph343" 
d="M174 -2l240 277l-3 3q-19 -22 -48 -33q-30 -11 -62 -11q-61 0 -105 19q-46 20 -77 51q-31 32 -48 75q-16 42 -16 93q0 55 21 100q21 44 57 76t85 48q51 17 106 17q57 0 104 -16q48 -17 84 -48t57 -77q21 -45 21 -104q0 -63 -29 -132q-31 -73 -101 -153l-160 -185h-126z
M326 616l-5 -3q-31 0 -60 -9t-50 -27t-33 -46q-12 -29 -12 -64q0 -37 13 -63t35 -45q21 -18 50 -27q28 -9 60 -9q36 0 63 10q28 10 50 29q21 18 33 45t12 60q0 37 -12 66t-33 47t-50 27t-61 9z" />
    <glyph glyph-name="glyph344" 
d="M347 713h-1q74 0 130 -32q55 -31 90 -83q34 -51 51 -117q17 -68 17 -132t-17 -132q-17 -66 -51 -117q-35 -52 -90 -83q-57 -31 -130 -31t-129 31q-53 31 -90 83q-35 50 -52 117q-16 64 -16 132q0 64 17 132q17 67 52 117q37 52 90 83q55 32 129 32zM210 181l240 385v-1
q-20 19 -45 29q-27 11 -58 11q-53 0 -85 -25q-34 -26 -53 -63q-20 -38 -27 -82q-7 -42 -7 -85q0 -38 8 -86q8 -46 27 -83zM491 509l-238 -382h-1q18 -15 42 -24t54 -9q54 0 86 25q34 26 53 63t27 83q8 48 8 85q0 41 -7 80q-7 41 -24 79z" />
    <glyph glyph-name="glyph345" horiz-adv-x="381" 
d="M192 706l-1 -1q41 0 74 -15q34 -15 56 -42q23 -27 36 -64q13 -36 13 -81t-13 -81q-13 -37 -36 -64q-22 -27 -56 -42q-33 -15 -73 -15q-41 0 -74 15t-57 42q-23 26 -37 64q-13 36 -13 81t13 81q14 39 37 65q24 27 57 42t74 15zM114 420l124 199v-1q-20 12 -45 12
q-24 0 -43 -10q-20 -11 -33 -28q-14 -18 -21 -40q-7 -21 -7 -48q0 -50 25 -84zM271 588l-123 -198v-1q20 -11 44 -11q25 0 42 10q20 11 32 28q14 18 21 40q7 21 7 48q0 49 -23 84z" />
    <glyph glyph-name="glyph346" horiz-adv-x="381" 
d="M192 393l-1 -1q41 0 74 -15q34 -15 56 -42q23 -27 36 -64q13 -36 13 -81t-13 -81q-13 -37 -36 -64q-22 -27 -56 -42q-34 -14 -73 -14q-40 0 -74 14q-33 15 -57 42q-23 26 -37 64q-13 36 -13 81t13 81q14 39 37 65q24 27 57 42t74 15zM114 107l124 199v-1q-20 12 -45 12
q-24 0 -43 -10q-20 -11 -33 -28q-14 -18 -21 -40q-7 -21 -7 -48q0 -50 25 -84zM271 275l-123 -198v-1q20 -11 44 -11q25 0 42 10q20 11 32 28q14 18 21 40q7 21 7 48q0 49 -23 84z" />
    <glyph glyph-name="glyph347" horiz-adv-x="381" 
d="M192 868l-1 -1q41 0 74 -15q34 -15 56 -42q23 -27 36 -64q13 -36 13 -81t-13 -81q-13 -37 -36 -64q-22 -27 -56 -42q-33 -15 -73 -15q-41 0 -74 15t-57 42q-23 26 -37 64q-13 36 -13 81t13 81q14 39 37 65q24 27 57 42t74 15zM114 582l124 199v-1q-20 12 -45 12
q-24 0 -43 -10q-20 -11 -33 -28q-14 -18 -21 -40q-7 -21 -7 -48q0 -50 25 -84zM271 750l-123 -198v-1q20 -11 44 -11q25 0 42 10q20 11 32 28q14 18 21 40q7 21 7 48q0 49 -23 84z" />
    <glyph glyph-name="glyph348" horiz-adv-x="384" 
d="M192 -8l-1 -1q-40 0 -74 14q-33 15 -57 42q-23 26 -37 64q-13 36 -13 81t13 81q14 39 37 65q24 27 57 42t74 15t74 -15q34 -15 56 -42q23 -27 36 -64q13 -36 13 -81t-13 -81q-13 -37 -36 -64q-22 -27 -56 -42q-34 -14 -73 -14zM192 68v-1q25 0 42 10q20 11 32 28
q14 18 21 40q7 21 7 48t-7 48q-8 23 -21 41q-12 17 -32 28q-17 10 -42 10q-24 0 -43 -10q-20 -11 -33 -28q-14 -18 -21 -40q-7 -21 -7 -48t7 -48q7 -22 21 -40q13 -17 33 -28q19 -10 43 -10z" />
    <glyph glyph-name="glyph349" horiz-adv-x="236" 
d="M149 389h52v-389h-74v213q0 17 1 26q2 18 2 26q0 9 2 21l1 9h-1q-1 0 -10 -12q-10 -14 -24 -26l-39 -37l-47 43z" />
    <glyph glyph-name="glyph350" horiz-adv-x="333" 
d="M118 59l1 -1l-2 1q4 2 33 5q30 3 69 3h86v-66h-282v50l148 121q18 14 45 45q19 22 19 51q0 27 -20 45q-19 18 -48 18q-37 0 -55 -21q-17 -20 -25 -50l-67 18q14 53 52 87q40 35 97 35q32 0 56 -10q26 -11 45 -28q20 -18 30 -42q11 -25 11 -51q0 -39 -21 -69
q-20 -29 -48 -52l-33 -27q-22 -18 -34 -27q-20 -15 -39 -25z" />
    <glyph glyph-name="glyph351" horiz-adv-x="327" 
d="M90 267l-63 18l-3 -3q11 51 49 81q39 30 96 30q35 0 60 -9t43 -24t27 -35q9 -19 9 -42q0 -21 -7 -35q-8 -17 -19 -26q-13 -11 -27 -17q-13 -5 -30 -7v-1q34 -1 62 -23q27 -21 27 -62q0 -26 -11 -50q-11 -22 -30 -39t-45 -24q-26 -9 -56 -9q-28 0 -54 9q-24 7 -45 23
q-19 15 -33 38q-14 22 -18 48l65 17q4 -32 27 -52q22 -19 60 -19q35 0 53 18t18 43t-21 42q-20 16 -53 16h-38v53h38q29 0 49 17q19 16 19 39q0 19 -16 35q-17 17 -51 17q-35 0 -54 -16t-28 -51z" />
    <glyph glyph-name="glyph352" horiz-adv-x="347" 
d="M326 144v-63h-48v-83h-67v83h-199v52l211 253h55v-242h48zM144 146h65l2 72q1 10 1 26v22q1 13 1 21h-1l-4 -5q-6 -8 -10 -13q-2 -2 -6 -8t-7 -9q-10 -12 -15 -17l-50 -57q-12 -14 -23 -23t-11 -10l1 -1q7 0 18 1t39 1z" />
    <glyph glyph-name="glyph353" horiz-adv-x="332" 
d="M97 232l1 -1l4 1q8 9 24 18t44 9q65 0 104 -36t39 -95q0 -27 -11 -54q-10 -25 -30 -43q-19 -17 -45 -28q-25 -9 -57 -9q-30 0 -57 8q-25 9 -45 24q-19 14 -31 36q-11 19 -16 44l67 18q4 -28 23 -48q18 -19 53 -19q33 0 55 20q21 19 21 51q0 34 -21 54q-22 20 -55 20
q-28 0 -46 -12q-17 -12 -25 -27l-61 16l36 209h218v-65h-164l-7 -34q-6 -27 -12 -41q-6 -15 -6 -16z" />
    <glyph glyph-name="glyph354" horiz-adv-x="332" 
d="M235 389l-121 -155l-2 -4q8 8 21 18t36 10q33 0 57 -10q27 -11 44 -28t28 -42q10 -23 10 -52q0 -28 -11 -55q-10 -25 -30 -43q-19 -18 -47 -27q-29 -8 -59 -8q-29 0 -58 8q-27 9 -48 27t-33 44t-12 57q0 40 15 73t43 70l90 117h77zM161 55h-1q35 0 56 21q22 22 23 54
q0 34 -21 53q-22 20 -57 20q-34 0 -57 -20q-22 -19 -22 -53q0 -33 22 -54t57 -21z" />
    <glyph glyph-name="glyph355" horiz-adv-x="303" 
d="M10 389h288l-1 -43l-193 -346h-74l152 270q16 29 26 40q12 14 12 15l-1 1q-8 0 -21 -1t-45 -1h-143v65z" />
    <glyph glyph-name="glyph356" horiz-adv-x="318" 
d="M221 206v-1v-4q14 -3 28 -10q16 -8 27 -19q12 -12 20 -29q8 -18 8 -38q0 -25 -11 -47q-11 -21 -30 -36q-21 -16 -46 -23q-27 -9 -59 -9t-59 9q-25 7 -46 23q-19 15 -30 36q-11 22 -11 47q0 20 8 38q8 17 20 29q13 13 27 20q17 9 28 11v1q-5 1 -19 8q-10 5 -22 17
q-10 10 -18 26q-7 14 -7 35q0 46 36 74q37 29 93 29q58 0 93 -28q36 -29 36 -73q0 -21 -7 -35q-8 -16 -18 -26q-12 -12 -22 -17q-14 -7 -19 -8zM90 293l-2 -1q0 -24 20 -39q18 -14 50 -14q34 2 51 15q19 15 19 38t-19 38t-49 15q-32 0 -51 -15t-19 -37zM79 110q0 -28 23 -46
q22 -18 57 -18t57 18q23 18 23 45q0 26 -23 44q-22 18 -57 18t-58 -18q-22 -18 -22 -43z" />
    <glyph glyph-name="glyph357" horiz-adv-x="322" 
d="M73 0l132 152h-1q-21 -24 -54 -24q-30 0 -57 11q-24 10 -43 29q-17 17 -28 42q-10 23 -10 53q0 29 11 54q11 24 30 42t47 27q27 9 59 9q31 0 58 -9t48 -27t33 -43q12 -26 12 -57q0 -44 -19 -81q-19 -38 -51 -75l-85 -103h-82zM159 335q-35 0 -56 -21q-20 -20 -22 -54
q0 -34 21 -53q22 -20 57 -20t57 20q21 19 21 53q0 33 -21 54t-57 21z" />
    <glyph glyph-name="glyph358" horiz-adv-x="384" 
d="M192 302l-1 -1q-41 0 -74 15t-57 42q-23 26 -37 64q-13 36 -13 81t13 81q14 39 37 65q24 27 57 42t74 15t74 -15q34 -15 56 -42q23 -27 36 -64q13 -36 13 -81t-13 -81q-13 -37 -36 -64q-22 -27 -56 -42q-33 -15 -73 -15zM192 379v-1q25 0 42 10q20 11 32 28q14 18 21 40
q7 21 7 48t-7 48q-8 23 -21 41q-12 17 -32 28q-17 10 -42 10q-24 0 -43 -10q-20 -11 -33 -28q-14 -18 -21 -40q-7 -21 -7 -48t7 -48q7 -22 21 -40q13 -17 33 -28q19 -10 43 -10z" />
    <glyph glyph-name="glyph359" horiz-adv-x="236" 
d="M149 700h52v-390h-74v214q0 17 1 26q2 18 2 26q0 9 2 21l1 9h-1q-1 0 -10 -12q-10 -14 -24 -26l-39 -37l-47 42z" />
    <glyph glyph-name="glyph360" horiz-adv-x="333" 
d="M118 370l1 -1l-2 -1q3 0 33 3t69 3h86v-65h-282v50l148 121q25 21 45 45q19 23 19 51q0 27 -20 45q-19 18 -48 18q-37 0 -55 -21q-17 -20 -25 -49l-67 18q14 53 52 87q40 35 97 35q32 0 56 -10q26 -11 45 -28q20 -18 30 -42q11 -25 11 -51q0 -39 -21 -69q-20 -29 -48 -52
q-22 -18 -33 -26q-6 -4 -17.5 -13t-16.5 -13q-20 -15 -39 -25z" />
    <glyph glyph-name="glyph361" horiz-adv-x="337" 
d="M90 578l-63 17h-3q10 51 49 82q38 31 96 31q35 0 60 -9t43 -24t27 -35t9 -42q0 -21 -7 -35q-8 -17 -19 -26q-13 -11 -27 -17q-13 -5 -30 -7v-1q34 -1 62 -23q27 -21 27 -62q0 -25 -11 -49q-11 -22 -30 -39q-18 -16 -45 -25q-26 -9 -56 -9q-28 0 -54 9t-45 24t-33 36
q-13 21 -18 47l65 18q4 -32 27 -52q22 -19 60 -19q35 0 53 18t18 43q0 26 -21 41t-53 15h-38v54h38q30 0 49 16t19 40q0 17 -16 33q-17 17 -51 17q-35 0 -54 -16t-28 -51z" />
    <glyph glyph-name="glyph362" horiz-adv-x="347" 
d="M326 454v-63h-48v-84h-67v84h-199v51l211 254h55v-242h48zM144 456h65l2 72q1 10 1 26v22q1 13 1 21h-1l-4 -5q-6 -8 -10 -13q-2 -2 -6 -8t-7 -9q-10 -12 -15 -17l-50 -57q-12 -14 -23 -23t-11 -10l1 -1q7 0 18 1t39 1z" />
    <glyph glyph-name="glyph363" horiz-adv-x="332" 
d="M97 542l1 -1l-1 -4q7 8 24 19q16 10 44 10q65 0 104 -36t39 -95q0 -27 -11 -54q-10 -25 -30 -43q-19 -17 -45 -28q-24 -10 -57 -10q-61 0 -99 33q-37 33 -45 80l67 19q4 -28 23 -48q18 -20 53 -20q34 0 55 21t21 53q0 33 -21 54t-55 21q-28 0 -46 -12t-25 -28l-61 16
l36 210h218v-66h-164l-7 -34q-6 -27 -12 -41q-6 -15 -6 -16z" />
    <glyph glyph-name="glyph364" horiz-adv-x="332" 
d="M235 700l-121 -155l-2 -5q9 9 21 17q13 9 36 9q33 0 57 -10q27 -11 44 -28t28 -42q10 -23 10 -52t-11 -54q-11 -24 -30 -42t-47 -27q-27 -9 -59 -9q-31 0 -58 9t-48 27t-33 44t-12 57q0 40 15 73q16 36 43 71l90 117h77zM161 366h-1q34 0 56 20t23 54q0 34 -21 53
q-22 20 -57 20q-34 0 -57 -20q-22 -19 -22 -53q0 -35 22 -54q23 -20 57 -20z" />
    <glyph glyph-name="glyph365" horiz-adv-x="303" 
d="M10 700h288l-1 -44l-193 -346h-74l152 271q13 24 26 39q12 14 12 15l-1 1q-8 0 -21 -1t-45 -1h-143v66z" />
    <glyph glyph-name="glyph366" horiz-adv-x="318" 
d="M221 514v-1v-5q14 -3 28 -10q16 -8 27 -19q13 -13 20 -28q8 -18 8 -39q0 -24 -11 -46q-11 -21 -30 -36q-20 -15 -46 -24q-27 -9 -59 -9t-59 9q-26 9 -46 24q-19 15 -30 36q-11 22 -11 47q0 21 8 39q8 16 20 29q13 13 27 20q17 9 28 11v1q-5 1 -19 8q-11 6 -22 18
q-10 12 -18 27q-7 14 -7 35q0 23 9 42t26 33q16 13 41 21q26 8 53 8q56 0 93 -29q36 -28 36 -74q0 -21 -7 -35q-8 -15 -18 -27q-11 -12 -22 -18q-14 -7 -19 -8zM90 601h-2q0 -25 20 -40t50 -15q32 0 51 15t19 39q0 23 -19 38t-49 15q-32 0 -51 -15t-19 -37zM79 421v-3
q0 -28 23 -45t57 -17q35 0 57 18q23 18 23 46q0 26 -23 44q-22 18 -57 18t-58 -18q-22 -18 -22 -43z" />
    <glyph glyph-name="glyph367" horiz-adv-x="322" 
d="M73 311l132 152l-1 -2q-10 -11 -24 -18q-13 -7 -30 -7q-30 0 -57 11q-24 10 -43 29q-17 17 -28 42q-10 23 -10 53q0 28 11 55q10 25 30 43q19 18 47 27q27 9 59 9q31 0 58 -9t48 -27t33 -43q12 -26 12 -57q0 -44 -19 -81q-19 -38 -51 -75l-85 -102h-82zM159 645
q-34 0 -56 -20t-22 -53q-1 -33 21 -54q22 -20 57 -20t57 20q21 20 21 54t-21 53q-22 20 -57 20z" />
    <glyph glyph-name="glyph368" 
d="M604 525l-106 -29l3 5q-6 29 -21 51q-16 23 -36 38q-22 16 -47 23q-27 8 -54 8q-58 0 -95 -26q-36 -25 -36 -68q0 -25 15 -43t40 -31t57 -24t66 -21q43 -14 78 -28q41 -17 73 -40q32 -24 54 -59q21 -35 21 -84q0 -41 -15 -75t-42 -61t-66 -45q-34 -16 -87 -24v-79h-109
v80q-88 13 -144 68q-55 54 -75 134l106 29q4 -26 18 -52t36 -45q21 -18 53 -31q30 -12 68 -12q67 0 105 30q37 30 37 75q0 33 -18 54t-48 36q-33 16 -67 26q-25 7 -75 23q-31 10 -66 24q-33 13 -63 35q-29 21 -47 53t-18 78q0 36 15 68q15 31 41 57q25 25 62 42q36 16 80 24
v80h109v-81q76 -15 129 -63t69 -120z" />
    <glyph glyph-name="glyph369" 
d="M560 698l-160 -326l-1 -3q38 23 87 23q41 0 74 -15q34 -15 56 -42q23 -27 36 -64q13 -36 13 -81t-13 -81q-13 -37 -36 -64q-22 -27 -56 -42q-34 -14 -73 -14t-73 14q-33 15 -56 41q-22 25 -36 62q-14 36 -15 78l-92 -186h-76l163 330q-41 -28 -96 -28q-41 0 -74 15
t-57 42q-23 26 -37 64q-13 36 -13 81t13 81q14 39 37 65q24 27 57 42t74 15t74 -15q34 -15 56 -42q23 -27 36 -64q13 -36 13 -81v-6l99 201h76zM206 378v-1q25 0 42 10q20 11 32 28q14 18 21 40q7 21 7 48t-7 48q-8 23 -21 41q-12 17 -32 28q-17 10 -42 10q-24 0 -43 -10
q-20 -11 -33 -28q-14 -18 -21 -40q-7 -21 -7 -48t7 -48q7 -22 21 -40q13 -17 33 -28q19 -10 43 -10zM487 68v-1q25 0 42 10q20 11 32 28q14 18 21 40q7 21 7 48t-7 48q-8 23 -21 41q-12 17 -32 28q-17 10 -42 10q-24 0 -43 -10q-20 -11 -33 -28q-14 -18 -21 -40
q-7 -21 -7 -48t7 -48q7 -22 21 -40q13 -17 33 -28q19 -10 43 -10z" />
    <glyph glyph-name="glyph370" 
d="M507 268l96 -26l-3 -1q-25 -61 -78 -103q-52 -41 -120 -52v-99h-89v100q-46 7 -85 30t-69 57q-29 33 -46 78q-16 42 -16 95q0 50 17 95q16 44 45 78q28 34 68 57q39 22 86 30v105h90v-104q64 -10 115 -48t78 -94l-97 -25q-23 35 -57 54q-35 20 -81 20q-72 0 -117 -45
t-45 -123q0 -39 12 -70t33 -52t51 -33t66 -12q51 0 89 23q37 22 57 65z" />
    <glyph glyph-name="glyph371" 
d="M420 104h198l-6 -105h-524v103q27 4 44 17q15 11 25 32q8 18 10 47q1 24 -2 62l-4 42h-68v88h60l-9 97q-4 45 11 87q15 41 45 71t72 48q41 17 89 19q32 1 71 -8t72 -31q34 -23 63 -60t42 -93l-94 -26q-19 64 -57 93q-37 28 -91 27q-26 -1 -49 -12q-22 -10 -36 -29
q-14 -18 -21 -42q-7 -23 -4 -51l8 -88h219v-88h-211l4 -40q7 -67 -6 -109q-12 -39 -40 -55l1 -1l15 1q5 1 19.5 1.5t21.5 0.5q34 2 60 2h72z" />
    <glyph glyph-name="glyph372" 
d="M504 555l71 70l56 -58l-70 -70q26 -33 39 -73q14 -42 14 -85q0 -45 -13 -84q-14 -42 -37 -72l70 -71l-55 -56l-71 71q-31 -24 -74 -40q-40 -15 -86 -15q-43 0 -85 14q-40 13 -73 39l-71 -70l-55 56l70 70q-25 34 -38 72q-14 40 -14 84q0 45 15 86q15 40 41 74l-70 70
l55 56l71 -70q32 25 71 38q40 14 83 14q46 0 84 -13q40 -14 72 -37zM348 510h-1q-35 0 -64 -13q-31 -14 -53 -36q-22 -23 -36 -54q-13 -30 -13 -67t13 -67q14 -31 36 -54q23 -23 53 -35t65 -12q34 0 66 12q31 12 54 35q22 23 36 54q13 30 13 67t-13 67q-14 31 -36 54t-54 36
q-30 13 -66 13z" />
    <glyph glyph-name="glyph373" 
d="M674 700l-189 -258h121v-76h-178l-25 -34v-2h203v-75h-203v-255h-110v255h-198v75h198v2l-25 34h-173v76h117l-189 258h125l159 -215q9 -13 27 -37q14 -18 15 -18h1q2 0 14 18q4 7 13.5 19.5t12.5 17.5l159 215h125z" />
    <glyph glyph-name="glyph374" 
d="M572 218l104 -27l-3 -3q-39 -94 -118 -148q-78 -53 -189 -53q-58 0 -111 18q-52 19 -94 54t-72 84q-29 48 -43 111h-47v74h37v20v19h-37v74h47q14 63 43 111t72 85q41 35 95 55q51 19 111 19q105 0 179 -49q76 -50 119 -133l-108 -27q-29 52 -78 81q-49 28 -113 28
q-72 0 -129 -42q-56 -42 -79 -126h228v-74h-239v-19v-20h238v-74h-226q22 -82 80 -123t128 -41q68 0 122 33q55 33 83 93z" />
    <glyph glyph-name="glyph375" 
d="M599 614h-123l-3 -3q24 -25 35 -55h88v-83h-71q0 -46 -15 -85q-15 -38 -42 -67q-28 -29 -66 -47q-39 -18 -87 -24l199 -251h-129l-197 252v84h89q28 0 55 11q25 10 43 30q17 19 28 45q10 24 10 54h-275v83h249q-19 27 -46 41q-29 15 -63 15h-139v86h460v-86z" />
    <glyph glyph-name="glyph414" horiz-adv-x="238" 
d="M119 436v-2q-25 0 -42 18q-17 19 -17 43t17 41t42 17t42 -17t17 -41q0 -25 -17 -42t-42 -17zM119 135v-2q-25 0 -42 18q-17 19 -17 43t17 41t42 17t42 -17t17 -41q0 -25 -17 -42t-42 -17z" />
    <glyph glyph-name="glyph415" horiz-adv-x="254" 
d="M129 442v-2q-25 0 -42 18q-17 19 -17 43t17 41t42 17t42 -17t17 -41q0 -25 -17 -42t-42 -17zM123 134l12 4l-16 4q-17 2 -32 15t-15 39t18 42q19 17 43 17q26 0 42 -19q17 -20 17 -51q0 -24 -7 -46q-8 -25 -19 -46q-13 -24 -28 -42q-19 -23 -34 -35h-45q13 10 23 24
q14 20 20 31q9 17 15 33t6 30z" />
    <glyph glyph-name="glyph470" horiz-adv-x="794" 
d="M509 -2q6 0 6 5q0 6 -6 6t-6 -6q0 -5 6 -5zM575 24q0 -16 12 -16q11 0 11 16q0 17 -11 17q-12 0 -12 -17zM665 -1v39l-11 -38h-10l-11 38v-39h-15l4 52h19l8 -34l9 34h19l2 -52h-14zM451 -1l-13 52h15l7 -36l6 36h15l6 -36l7 36h14l-13 -52h-16l-6 34l-7 -34h-15zM432 19
h-19v-10h21v-10h-36v52h36v-11h-21v-10h19v-11zM390 51v-52h-15v52h15zM337 -1l-17 52h16l9 -39l10 39h15l-17 -52h-16zM283 51v-20h18v20h14v-52h-14v20h-18v-20h-15v52h15zM236 40h-14v11h41v-11h-14v-41h-13v41zM170 -1v52h18l16 -32v32h13v-52h-15l-19 34v-34h-13z
M134 -1v19l-17 33h17l7 -23l8 23h16l-17 -33v-19h-14zM618 22l-4 2q0 -14 -7 -21q-7 -6 -19 -6q-13 0 -20 7q-6 8 -6 18q0 13 7 20q8 8 21 8t21 -8q7 -7 7 -20zM567 49l-4 -12l-4 -1q-3 3 -9 3t-10 -4t-4 -12q0 -16 15 -16q6 0 9 3l3 -11q-8 -2 -14 -2q-14 0 -21 7
q-6 8 -6 18q0 14 9 21q10 8 21 8q9 0 15 -2zM121 49l-3 -12v-1q-2 2 -4 3q-4 2 -7 2q-7 0 -7 -4q0 -2 11 -7q14 -5 14 -15q0 -7 -6 -12q-5 -4 -19 -4q-8 0 -16 2l4 12q1 -1 5 -3q2 -1 8 -1q7 0 7 5q0 3 -9 6q-15 4 -15 15q0 7 6 12q7 5 16 5q10 0 15 -3zM307 175l89 79
l86 -79q13 -2 54 -4q38 -1 81 -3q-1 42 -3 78t-3 51l-81 91l81 89q1 17 3 54q1 33 3 80q-37 -1 -79 -3q-37 -1 -52 -3l-91 -81l-88 81q-15 2 -52 3q-37 2 -81 3q2 -43 3 -81q1 -37 3 -52l79 -89l-79 -89q-2 -16 -3 -54q-2 -42 -3 -79q47 2 80 3q35 1 53 5zM706 82h-44v-2
q-76 0 -120 3t-66 6q-21 3 -30 8q-8 5 -12 9l-27 23l-13 10l-11 -10l-27 -23q-4 -4 -12 -9q-9 -5 -30 -8q-28 -4 -66 -5q-58 -2 -118 -2h-43v43q0 62 2 120q1 38 5 66q3 21 8 30q4 7 9 12l24 27l10 12l-10 11l-24 27q-5 4 -9 12q-4 6 -7 30q-4 28 -5 66q-2 58 -2 119v44h43
q77 0 120 -3t66 -6q24 -3 30 -7q7 -5 12 -9l20 -19l18 -16l17 16l20 17q4 4 12 9t30 9t66 6q58 2 120 2h44v-44q0 -76 -3 -120t-6 -66q-3 -21 -8 -30q-5 -8 -9 -12l-22 -26l-11 -12l11 -13l25 -29q1 -2 3.5 -6t3.5 -6q4 -6 7 -30q3 -23 6 -64q3 -42 3 -115v-45z" />
  </font>
</defs>
</svg>
